<?xml version="1.0" encoding="utf-8"?>
<!-- Generator: Adobe Illustrator 16.0.0, SVG Export Plug-In . SVG Version: 6.00 Build 0)  -->
<!DOCTYPE svg PUBLIC "-//W3C//DTD SVG 1.1//EN" "http://www.w3.org/Graphics/SVG/1.1/DTD/svg11.dtd">
<svg version="1.1" id="圖層_1" xmlns="http://www.w3.org/2000/svg" xmlns:xlink="http://www.w3.org/1999/xlink" x="0px" y="0px"
	 width="4386.953px" height="480px" viewBox="-1233.477 0 4386.953 480" enable-background="new -1233.477 0 4386.953 480"
	 xml:space="preserve">
<g>
	<g id="レイヤー_2">
		<g>
			<g id="レイヤー_1-2_12_">
				<path fill="#F2285A" d="M325.139,436.233v-129.25L262.523,43.655h77.711l21.934,133.073l21.96-133.073h77.712l-62.588,263.328
					v129.25H325.139z"/>
				<path fill="#F2285A" d="M502.97,411.119c-16.427-19.365-24.648-46.571-24.667-81.618V142.546
					c0-33.856,8.223-59.38,24.667-76.568C519.414,48.789,543.494,40.13,575.212,40c31.624,0,55.696,8.612,72.215,25.839
					c16.52,17.226,24.751,42.748,24.694,76.567v186.955c0,35.345-8.23,62.625-24.694,81.841
					c-16.463,19.217-40.534,28.815-72.215,28.798C543.477,440,519.396,430.372,502.97,411.119z M589.471,358.772
					c2.769-8.244,4.007-16.926,3.655-25.615V141.039c0.253-7.098-0.915-14.175-3.432-20.816c-2.288-5.338-6.938-8.009-13.952-8.009
					c-13.086,0-19.533,9.934-19.533,29.718v191.56c0,11.272,1.367,19.802,4.104,25.588c2.734,5.785,7.766,8.687,15.095,8.706
					c6.175,0.386,11.864-3.34,13.98-9.153L589.471,358.772z"/>
				<path fill="#F2285A" d="M693.161,436.233l37.921-392.578h133.045l37.391,392.578h-74.502l-5.581-63.536h-47.437l-4.492,63.536
					H693.161z M780.025,310.052h35.633l-17.385-199.651h-3.627L780.025,310.052z"/>
				<path fill="#F2285A" d="M941.365,413.491c-15.85-17.673-23.774-46.172-23.774-85.497v-38.396h77.266v48.971
					c0,19.514,6.25,29.271,18.752,29.271c6.993,0,11.868-2.064,14.62-6.194c2.792-4.102,4.13-11.161,4.13-20.788
					c0.303-10.777-1.245-21.527-4.575-31.782c-2.646-7.624-6.594-14.732-11.664-21.012c-4.725-5.581-13.18-14.342-25.364-26.284
					l-33.849-33.904c-26.192-25.597-39.298-53.938-39.315-85.022c0-33.485,7.702-59.007,23.104-76.568
					C956.098,48.724,978.57,39.963,1008.11,40c35.345,0,60.792,9.375,76.344,28.126c15.552,18.751,23.328,48.079,23.328,87.981
					h-79.999l-0.476-26.816c0.231-4.528-1.321-8.965-4.324-12.361c-3.21-3.167-7.607-4.83-12.109-4.576
					c-5.093-0.383-10.102,1.459-13.729,5.05c-3.221,3.814-4.858,8.717-4.576,13.701c0,12.798,7.319,26.062,21.959,39.791
					l45.707,43.865c9.566,9.149,18.429,19.009,26.509,29.496c7.364,9.998,13.074,21.115,16.91,32.926
					c4.558,14.558,6.724,29.757,6.418,45.008c0,38.73-7.088,68.066-21.263,88.009c-14.175,19.941-37.541,29.876-70.095,29.802
					C982.998,440,957.215,431.163,941.365,413.491z"/>
				<path fill="#F2285A" d="M1157.618,411.119c-16.463-19.365-24.693-46.571-24.693-81.618V142.546
					c0-33.856,8.23-59.38,24.693-76.568c16.463-17.189,40.535-25.848,72.215-25.978c31.625,0,55.705,8.612,72.243,25.839
					c16.538,17.226,24.759,42.748,24.666,76.567v186.955c0,35.345-8.223,62.625-24.666,81.841
					c-16.445,19.217-40.525,28.815-72.243,28.798C1198.134,440,1174.063,430.372,1157.618,411.119z M1244.12,358.772
					c2.768-8.244,4.006-16.926,3.656-25.615V141.039c0.25-7.098-0.915-14.175-3.433-20.816c-2.288-5.33-6.921-8.009-13.952-8.009
					c-13.088,0-19.533,9.934-19.533,29.718v191.56c0,11.272,1.367,19.802,4.102,25.588c2.734,5.785,7.768,8.687,15.097,8.706
					c6.163,0.372,11.839-3.351,13.952-9.153L1244.12,358.772z"/>
				<path fill="#F2285A" d="M1358.302,43.655h106.509c28.63,0,49.427,7.013,62.393,21.04c12.965,14.025,19.478,36.879,19.532,68.559
					v17.384c0,37.484-13.413,59.881-40.237,67.192c15.735,3.645,28.703,14.737,34.741,29.718
					c6.696,15.552,10.044,36.126,10.044,61.723c0,41.744-6.24,73.368-18.723,94.872c-12.481,21.505-35.066,32.201-67.75,32.09
					h-106.509V43.655z M1451.222,191.322c6.678,0,11.245-2.521,13.701-7.562c2.749-6.728,3.997-13.975,3.655-21.234v-39.316
					c0-12.799-5.638-19.198-16.911-19.198h-16.463v87.311H1451.222z M1473.544,338.068v-48.915c0-11.888-1.748-20.882-5.246-26.982
					c-3.516-6.083-9.682-9.153-18.528-9.153h-14.62v113.847l7.784,0.447C1463.341,367.311,1473.544,357.563,1473.544,338.068z"/>
				<path fill="#F2285A" d="M1573.607,436.233V43.655h75.869v392.578H1573.607z"/>
			</g>
		</g>
	</g>
	<g id="レイヤー_2_4_">
		<g>
			<g id="レイヤー_1-2_11_">
				<path fill="#F2285A" d="M1829.139,436.233v-129.25l-62.615-263.328h77.711l21.934,133.073l21.96-133.073h77.712l-62.588,263.328
					v129.25H1829.139z"/>
				<path fill="#F2285A" d="M2006.97,411.119c-16.427-19.365-24.648-46.571-24.667-81.618V142.546
					c0-33.856,8.223-59.38,24.667-76.568c16.444-17.189,40.524-25.848,72.242-25.978c31.624,0,55.696,8.612,72.215,25.839
					c16.52,17.226,24.751,42.748,24.694,76.567v186.955c0,35.345-8.23,62.625-24.694,81.841
					c-16.463,19.217-40.534,28.815-72.215,28.798C2047.477,440,2023.396,430.372,2006.97,411.119z M2093.471,358.772
					c2.769-8.244,4.007-16.926,3.655-25.615V141.039c0.253-7.098-0.915-14.175-3.432-20.816c-2.288-5.338-6.938-8.009-13.952-8.009
					c-13.086,0-19.533,9.934-19.533,29.718v191.56c0,11.272,1.367,19.802,4.104,25.588c2.734,5.785,7.766,8.687,15.095,8.706
					c6.175,0.386,11.864-3.34,13.98-9.153L2093.471,358.772z"/>
				<path fill="#F2285A" d="M2197.161,436.233l37.921-392.578h133.045l37.391,392.578h-74.502l-5.581-63.536h-47.437l-4.492,63.536
					H2197.161z M2284.025,310.052h35.633l-17.385-199.651h-3.627L2284.025,310.052z"/>
				<path fill="#F2285A" d="M2445.365,413.491c-15.85-17.673-23.774-46.172-23.774-85.497v-38.396h77.266v48.971
					c0,19.514,6.25,29.271,18.752,29.271c6.993,0,11.868-2.064,14.62-6.194c2.792-4.102,4.13-11.161,4.13-20.788
					c0.303-10.777-1.245-21.527-4.575-31.782c-2.646-7.624-6.594-14.732-11.664-21.012c-4.725-5.581-13.18-14.342-25.364-26.284
					l-33.849-33.904c-26.192-25.597-39.298-53.938-39.315-85.022c0-33.485,7.702-59.007,23.104-76.568
					c15.403-17.561,37.876-26.322,67.416-26.285c35.345,0,60.792,9.375,76.344,28.126c15.552,18.751,23.328,48.079,23.328,87.981
					h-79.999l-0.476-26.816c0.231-4.528-1.321-8.965-4.324-12.361c-3.21-3.167-7.607-4.83-12.109-4.576
					c-5.093-0.383-10.102,1.459-13.729,5.05c-3.221,3.814-4.858,8.717-4.576,13.701c0,12.798,7.319,26.062,21.959,39.791
					l45.707,43.865c9.566,9.149,18.429,19.009,26.509,29.496c7.364,9.998,13.074,21.115,16.91,32.926
					c4.558,14.558,6.724,29.757,6.418,45.008c0,38.73-7.088,68.066-21.263,88.009c-14.175,19.941-37.541,29.876-70.095,29.802
					C2486.998,440,2461.215,431.163,2445.365,413.491z"/>
				<path fill="#F2285A" d="M2661.618,411.119c-16.463-19.365-24.693-46.571-24.693-81.618V142.546
					c0-33.856,8.23-59.38,24.693-76.568c16.463-17.189,40.535-25.848,72.215-25.978c31.625,0,55.705,8.612,72.243,25.839
					c16.538,17.226,24.759,42.748,24.666,76.567v186.955c0,35.345-8.223,62.625-24.666,81.841
					c-16.445,19.217-40.525,28.815-72.243,28.798C2702.134,440,2678.063,430.372,2661.618,411.119z M2748.12,358.772
					c2.768-8.244,4.006-16.926,3.656-25.615V141.039c0.25-7.098-0.915-14.175-3.433-20.816c-2.288-5.33-6.921-8.009-13.952-8.009
					c-13.088,0-19.533,9.934-19.533,29.718v191.56c0,11.272,1.367,19.802,4.102,25.588c2.734,5.785,7.768,8.687,15.097,8.706
					c6.163,0.372,11.839-3.351,13.952-9.153L2748.12,358.772z"/>
				<path fill="#F2285A" d="M2862.302,43.655h106.509c28.63,0,49.427,7.013,62.393,21.04c12.965,14.025,19.478,36.879,19.532,68.559
					v17.384c0,37.484-13.413,59.881-40.237,67.192c15.735,3.645,28.703,14.737,34.741,29.718
					c6.696,15.552,10.044,36.126,10.044,61.723c0,41.744-6.24,73.368-18.723,94.872c-12.481,21.505-35.066,32.201-67.75,32.09
					h-106.509V43.655z M2955.222,191.322c6.678,0,11.245-2.521,13.701-7.562c2.749-6.728,3.997-13.975,3.655-21.234v-39.316
					c0-12.799-5.638-19.198-16.911-19.198h-16.463v87.311H2955.222z M2977.544,338.068v-48.915c0-11.888-1.748-20.882-5.246-26.982
					c-3.516-6.083-9.682-9.153-18.528-9.153h-14.62v113.847l7.784,0.447C2967.341,367.311,2977.544,357.563,2977.544,338.068z"/>
				<path fill="#F2285A" d="M3077.607,436.233V43.655h75.869v392.578H3077.607z"/>
			</g>
		</g>
	</g>
	<g id="レイヤー_2_1_">
		<g>
			<g id="レイヤー_1-2_10_">
				<path fill="#F2285A" d="M-1170.861,436.233v-129.25l-62.616-263.328h77.711l21.933,133.073l21.96-133.073h77.712
					l-62.588,263.328v129.25H-1170.861z"/>
				<path fill="#F2285A" d="M-993.03,411.119c-16.426-19.365-24.648-46.571-24.667-81.618V142.546
					c0-33.856,8.222-59.38,24.667-76.568C-976.585,48.789-952.505,40.13-920.788,40c31.624,0,55.696,8.612,72.215,25.839
					c16.52,17.226,24.751,42.748,24.695,76.567v186.955c0,35.345-8.231,62.625-24.695,81.841
					c-16.463,19.217-40.534,28.815-72.215,28.798C-952.524,440-976.604,430.372-993.03,411.119z M-906.529,358.772
					c2.768-8.244,4.006-16.926,3.655-25.615V141.039c0.252-7.098-0.915-14.175-3.432-20.816c-2.289-5.338-6.938-8.009-13.952-8.009
					c-13.086,0-19.533,9.934-19.533,29.718v191.56c0,11.272,1.367,19.802,4.103,25.588c2.734,5.785,7.766,8.687,15.095,8.706
					c6.174,0.386,11.864-3.34,13.98-9.153L-906.529,358.772z"/>
				<path fill="#F2285A" d="M-802.839,436.233l37.921-392.578h133.044l37.391,392.578h-74.503l-5.581-63.536h-47.437l-4.492,63.536
					H-802.839z M-715.975,310.052h35.633l-17.384-199.651h-3.627L-715.975,310.052z"/>
				<path fill="#F2285A" d="M-554.635,413.491c-15.849-17.673-23.774-46.172-23.774-85.497v-38.396h77.266v48.971
					c0,19.514,6.25,29.271,18.752,29.271c6.993,0,11.868-2.064,14.62-6.194c2.792-4.102,4.13-11.161,4.13-20.788
					c0.303-10.777-1.245-21.527-4.575-31.782c-2.646-7.624-6.594-14.732-11.664-21.012c-4.725-5.581-13.18-14.342-25.364-26.284
					l-33.849-33.904c-26.192-25.597-39.298-53.938-39.315-85.022c0-33.485,7.702-59.007,23.104-76.568
					C-539.902,48.724-517.43,39.963-487.89,40c35.345,0,60.792,9.375,76.344,28.126c15.552,18.751,23.328,48.079,23.328,87.981
					h-79.999l-0.476-26.816c0.231-4.528-1.321-8.965-4.324-12.361c-3.21-3.167-7.607-4.83-12.109-4.576
					c-5.093-0.383-10.102,1.459-13.729,5.05c-3.221,3.814-4.858,8.717-4.576,13.701c0,12.798,7.319,26.062,21.959,39.791
					l45.707,43.865c9.566,9.149,18.429,19.009,26.509,29.496c7.364,9.998,13.074,21.115,16.91,32.926
					c4.558,14.558,6.724,29.757,6.418,45.008c0,38.73-7.088,68.066-21.263,88.009c-14.175,19.941-37.541,29.876-70.095,29.802
					C-513.002,440-538.785,431.163-554.635,413.491z"/>
				<path fill="#F2285A" d="M-338.382,411.119c-16.463-19.365-24.693-46.571-24.693-81.618V142.546
					c0-33.856,8.23-59.38,24.693-76.568C-321.919,48.789-297.847,40.13-266.167,40c31.625,0,55.705,8.612,72.243,25.839
					c16.538,17.226,24.759,42.748,24.666,76.567v186.955c0,35.345-8.223,62.625-24.666,81.841
					c-16.445,19.217-40.525,28.815-72.243,28.798C-297.866,440-321.937,430.372-338.382,411.119z M-251.88,358.772
					c2.768-8.244,4.006-16.926,3.656-25.615V141.039c0.25-7.098-0.915-14.175-3.433-20.816c-2.288-5.33-6.921-8.009-13.952-8.009
					c-13.088,0-19.533,9.934-19.533,29.718v191.56c0,11.272,1.367,19.802,4.102,25.588c2.734,5.785,7.768,8.687,15.097,8.706
					c6.163,0.372,11.839-3.351,13.952-9.153L-251.88,358.772z"/>
				<path fill="#F2285A" d="M-137.698,43.655h106.509c28.63,0,49.427,7.013,62.393,21.04c12.965,14.025,19.478,36.879,19.532,68.559
					v17.384c0,37.484-13.413,59.881-40.237,67.192c15.735,3.645,28.703,14.737,34.741,29.718
					c6.696,15.552,10.044,36.126,10.044,61.723c0,41.744-6.24,73.368-18.723,94.872c-12.481,21.505-35.066,32.201-67.75,32.09
					h-106.509V43.655z M-44.778,191.322c6.678,0,11.245-2.521,13.701-7.562c2.749-6.728,3.997-13.975,3.655-21.234v-39.316
					c0-12.799-5.638-19.198-16.911-19.198h-16.463v87.311H-44.778z M-22.456,338.068v-48.915c0-11.888-1.748-20.882-5.246-26.982
					c-3.516-6.083-9.682-9.153-18.528-9.153h-14.62v113.847l7.784,0.447C-32.659,367.311-22.456,357.563-22.456,338.068z"/>
				<path fill="#F2285A" d="M77.607,436.233V43.655h75.869v392.578H77.607z"/>
			</g>
		</g>
	</g>
</g>
</svg>
