<?xml version="1.0" encoding="utf-8"?>
<!-- Generator: Adobe Illustrator 16.0.0, SVG Export Plug-In . SVG Version: 6.00 Build 0)  -->
<!DOCTYPE svg PUBLIC "-//W3C//DTD SVG 1.1//EN" "http://www.w3.org/Graphics/SVG/1.1/DTD/svg11.dtd">
<svg version="1.1" id="圖層_1" xmlns="http://www.w3.org/2000/svg" xmlns:xlink="http://www.w3.org/1999/xlink" x="0px" y="0px"
	 width="1920px" height="480px" viewBox="0 0 1920 480" enable-background="new 0 0 1920 480" xml:space="preserve">
<g id="レイヤー_2">
	<g id="レイヤー_1-2">
		<path fill="#F2285A" d="M329.14,436.233v-129.25L266.523,43.656h77.711l21.933,133.073l21.96-133.073h77.712l-62.588,263.327
			v129.25H329.14z"/>
		<path fill="#F2285A" d="M506.97,411.119c-16.426-19.365-24.648-46.572-24.667-81.618V142.547c0-33.856,8.223-59.38,24.667-76.568
			c16.445-17.189,40.525-25.848,72.242-25.978c31.625,0,55.696,8.612,72.215,25.839c16.52,17.226,24.751,42.748,24.695,76.567
			v186.955c0,35.345-8.232,62.625-24.695,81.841c-16.463,19.217-40.534,28.815-72.215,28.798
			C547.476,440,523.396,430.372,506.97,411.119z M593.471,358.772c2.768-8.244,4.006-16.926,3.655-25.615V141.04
			c0.252-7.098-0.915-14.175-3.432-20.816c-2.289-5.338-6.938-8.009-13.952-8.009c-13.087,0-19.533,9.934-19.533,29.718v191.559
			c0,11.272,1.367,19.802,4.102,25.588c2.734,5.785,7.766,8.687,15.095,8.706c6.174,0.385,11.864-3.34,13.98-9.153L593.471,358.772z
			"/>
		<path fill="#F2285A" d="M697.161,436.233l37.921-392.577h133.044l37.391,392.577h-74.502l-5.581-63.536h-47.437l-4.492,63.536
			H697.161z M784.025,310.052h35.633l-17.384-199.65h-3.627L784.025,310.052z"/>
		<path fill="#F2285A" d="M945.365,413.491c-15.85-17.673-23.774-46.172-23.774-85.497v-38.396h77.265v48.971
			c0,19.514,6.251,29.271,18.752,29.271c6.994,0,11.868-2.064,14.621-6.194c2.791-4.102,4.13-11.161,4.13-20.788
			c0.302-10.777-1.246-21.527-4.576-31.782c-2.646-7.624-6.593-14.732-11.663-21.012c-4.726-5.581-13.181-14.342-25.365-26.284
			l-33.848-33.903c-26.192-25.597-39.297-53.938-39.316-85.022c0-33.485,7.702-59.007,23.104-76.568s37.875-26.322,67.416-26.285
			c35.345,0,60.792,9.375,76.344,28.126c15.552,18.751,23.328,48.079,23.328,87.981h-80l-0.475-26.816
			c0.231-4.528-1.321-8.965-4.324-12.361c-3.21-3.167-7.608-4.83-12.11-4.576c-5.092-0.383-10.101,1.459-13.729,5.05
			c-3.221,3.814-4.858,8.717-4.577,13.701c0,12.798,7.32,26.062,21.96,39.791l45.707,43.865
			c9.566,9.149,18.428,19.009,26.509,29.495c7.364,9.998,13.073,21.115,16.909,32.926c4.558,14.558,6.725,29.757,6.418,45.008
			c0,38.73-7.088,68.066-21.263,88.009c-14.175,19.941-37.54,29.876-70.095,29.802C986.997,440,961.214,431.163,945.365,413.491z"/>
		<path fill="#F2285A" d="M1161.618,411.119c-16.463-19.365-24.694-46.572-24.694-81.618V142.547
			c0-33.856,8.231-59.38,24.694-76.568c16.464-17.189,40.535-25.848,72.215-25.978c31.624,0,55.705,8.612,72.242,25.839
			c16.538,17.226,24.76,42.748,24.667,76.567v186.955c0,35.345-8.223,62.625-24.667,81.841
			c-16.444,19.217-40.525,28.815-72.242,28.798C1202.135,440,1178.063,430.372,1161.618,411.119z M1248.12,358.772
			c2.768-8.244,4.006-16.926,3.655-25.615V141.04c0.251-7.098-0.915-14.175-3.433-20.816c-2.288-5.33-6.92-8.009-13.952-8.009
			c-13.086,0-19.532,9.934-19.532,29.718v191.559c0,11.272,1.367,19.802,4.103,25.588c2.734,5.785,7.766,8.687,15.096,8.706
			c6.163,0.372,11.838-3.351,13.951-9.153L1248.12,358.772z"/>
		<path fill="#F2285A" d="M1362.302,43.656h106.508c28.63,0,49.427,7.013,62.393,21.04c12.966,14.025,19.478,36.879,19.532,68.559
			v17.384c0,37.484-13.412,59.881-40.236,67.192c15.734,3.645,28.702,14.737,34.74,29.717c6.697,15.552,10.045,36.126,10.045,61.723
			c0,41.744-6.241,73.368-18.723,94.872c-12.482,21.505-35.066,32.201-67.751,32.09h-106.508V43.656z M1455.221,191.322
			c6.678,0,11.245-2.521,13.701-7.562c2.749-6.728,3.997-13.975,3.655-21.234v-39.316c0-12.799-5.637-19.198-16.909-19.198h-16.464
			v87.311H1455.221z M1477.543,338.068v-48.915c0-11.888-1.748-20.882-5.245-26.982c-3.516-6.084-9.683-9.153-18.528-9.153h-14.621
			v113.847l7.784,0.447C1467.341,367.311,1477.543,357.563,1477.543,338.068z"/>
		<path fill="#F2285A" d="M1577.606,436.233V43.656h75.87v392.577H1577.606z"/>
	</g>
</g>
</svg>
