<?xml version="1.0" encoding="UTF-8"?>
<svg id="_圖層_2" data-name="圖層 2" xmlns="http://www.w3.org/2000/svg" width="702.09" height="168.62" viewBox="0 0 702.09 168.62">
  <g id="_圖層_2-2" data-name="圖層 2">
    <g>
      <g>
        <path d="M11.63,37.36h-7.17v3.97H0V4.07h11.63v33.29ZM7.27,33.1V8.43h-2.81v24.66h2.81ZM15.8,13.08v-6.44h-2.71V2.18h14.2c0,19.38-.19,31.3-.49,35.76-.39,4.5-2.03,6.78-4.99,6.78-.63,0-1.7-.1-3.15-.29l-1.07-4.31c1.31.1,2.42.19,3.39.19s1.5-1.41,1.7-4.22c.05-1.21.1-3.73.15-7.51h-3.54c-.97,6.93-2.81,12.36-5.62,16.23l-3.54-3.05c2.32-3.2,3.97-7.61,4.85-13.18h-1.94v-4.46h2.47c.15-2.09.24-4.26.29-6.59h-2.66v-4.46h2.66ZM22.87,17.54h-2.86c-.05,2.33-.15,4.51-.29,6.59h3.15v-6.59ZM22.92,6.64h-2.91v6.44h2.86c0-2.03,0-4.21.05-6.44ZM42.59,2.13v3.64c-.78,4.17-1.75,8.48-2.81,13.03,2.03,4.65,3.2,8.63,3.39,12.02,0,2.81-.39,4.75-1.16,5.91-1.16,1.5-3.2,2.28-6.01,2.32l-1.55-4.65c1.36.15,2.47.24,3.39.24.29-.15.53-.44.68-.92.1-.58.19-1.55.19-2.91,0-3.39-1.12-7.17-3.34-11.34,1.26-4.85,2.18-9.21,2.81-13.08h-4.31v38.77h-4.46V2.13h13.18Z"/>
        <path d="M61.88,2.42c-1.16,3.59-2.62,6.98-4.41,10.17v32.76h-5.04v-25.2c-1.26,1.55-2.57,3.1-3.97,4.6l-1.65-5.28c4.75-5.43,8.24-11.82,10.52-19.19l4.56,2.13ZM90.62,45.21h-4.56v-2.71h-19.48v2.71h-4.51V1.84h28.54v43.37ZM86.06,37.99V6.2h-19.48v31.79h19.48ZM74.24,12.89v-4.8h4.31v4.8h6.15v4.26h-6.15v4.6h4.7v14.29h-13.57v-14.29h4.56v-4.6h-6.2v-4.26h6.2ZM79.33,25.59h-5.72v6.64h5.72v-6.64Z"/>
        <path d="M116.69,18.66c1.99,2.52,3,6.06,3,10.56h-18.75c.19,2.32.82,4.12,1.89,5.33,1.07,1.21,2.62,1.84,4.6,1.84,1.7,0,3.05-.39,4.12-1.16.82-.63,1.55-1.65,2.23-3.05h5.53c-.58,2.32-1.75,4.31-3.49,5.86-2.23,1.89-4.99,2.86-8.33,2.86-3.73,0-6.69-1.16-8.87-3.44-2.32-2.37-3.49-5.62-3.49-9.79,0-3.73,1.07-6.83,3.29-9.35,2.13-2.57,5.09-3.83,8.82-3.83,4.12,0,7.27,1.36,9.45,4.17ZM103.08,20.55c-1.02,1.02-1.7,2.52-2.03,4.51h12.89c-.48-4.07-2.67-6.06-6.54-6.06-1.84,0-3.25.49-4.31,1.55Z"/>
        <path d="M144.26,18.56c1.16-1.55,2.37-2.62,3.63-3.2,1.12-.58,2.52-.87,4.22-.87,2.57,0,4.7.82,6.44,2.57,1.65,1.74,2.52,3.97,2.52,6.73v16.43h-5.53v-15.46c0-1.99-.44-3.44-1.26-4.31-.87-.92-2.23-1.36-4.17-1.36-1.36,0-2.47.49-3.39,1.55-.97,1.02-1.4,2.42-1.4,4.26v15.31h-5.53v-15.41c0-3.83-1.65-5.72-4.94-5.72-1.6,0-2.86.58-3.83,1.84-.97,1.16-1.45,2.62-1.45,4.26v15.02h-5.52V15.17h5.52v2.57c2.09-2.18,4.36-3.25,6.79-3.25,3.68,0,6.3,1.36,7.9,4.07Z"/>
        <path d="M187.68,18.22c2.28,2.47,3.44,5.62,3.44,9.5s-1.16,6.98-3.39,9.4c-2.32,2.52-5.43,3.78-9.21,3.78s-6.88-1.26-9.21-3.78c-2.28-2.42-3.39-5.57-3.39-9.4s1.12-7.03,3.44-9.5c2.28-2.52,5.33-3.73,9.16-3.73s6.83,1.21,9.16,3.73ZM173.2,21.71c-1.07,1.55-1.6,3.59-1.6,6.01s.53,4.41,1.6,5.96c1.26,1.79,3,2.71,5.33,2.71s4.07-.92,5.33-2.71c1.06-1.6,1.65-3.59,1.65-5.96s-.58-4.46-1.65-6.01c-1.26-1.84-3.05-2.71-5.33-2.71s-4.07.87-5.33,2.71Z"/>
        <path d="M202.52,15.17v27.33c0,4.85-2.62,7.32-7.8,7.32h-2.37v-4.51h1.89c1.84,0,2.76-1.02,2.76-3.05V15.17h5.52ZM202.47,5.96c.68.68,1.07,1.55,1.07,2.62s-.39,1.99-1.07,2.66c-.77.68-1.65,1.02-2.71,1.02s-1.94-.34-2.62-1.02c-.78-.73-1.12-1.6-1.12-2.66s.34-1.94,1.12-2.62c.68-.68,1.55-1.02,2.62-1.02s1.99.34,2.71,1.02Z"/>
        <path d="M215.79,5.96c.68.68,1.07,1.55,1.07,2.62s-.39,1.99-1.12,2.66c-.73.68-1.6,1.02-2.67,1.02s-1.94-.34-2.66-1.02c-.73-.73-1.07-1.6-1.07-2.66s.34-1.94,1.07-2.62c.73-.68,1.6-1.02,2.66-1.02s1.99.34,2.71,1.02ZM215.84,15.17v25.05h-5.52V15.17h5.52Z"/>
        <path d="M265.61,18.8v4.26h-21.32v22.29h-4.94v-3.92c-3.78.58-9.16,1.12-16.19,1.65l-.63-4.26,3.97-.19v-15.55h-4.02v-4.26h43.13ZM260.08,16.86h-4.94V5.62h-22v11.39h-4.9V1.84h31.84v15.02ZM239.34,25.49v-2.42h-8.05v2.42h8.05ZM239.34,31.74v-2.67h-8.05v2.67h8.05ZM239.34,37.46v-2.13h-8.05v2.96c3.05-.24,5.72-.53,8.05-.82ZM253.73,13.13v3.29h-19.14v-3.29h19.14ZM253.64,7.85v3.34h-18.95v-3.34h18.95ZM245.98,29.17v-4.17h17.06v3.93c-.78,3.29-2.23,6.2-4.26,8.72,1.99,1.36,4.31,2.62,7.03,3.68l-2.57,4.21c-3-1.45-5.57-3-7.7-4.7-2.32,1.84-5.14,3.39-8.33,4.65l-2.57-3.92c2.91-1.12,5.43-2.42,7.51-3.97-2.23-2.57-3.73-5.38-4.56-8.43h-1.6ZM258.48,29.17h-6.59c.68,1.99,1.84,3.83,3.39,5.47,1.45-1.7,2.52-3.54,3.2-5.47Z"/>
        <path d="M273.9,45.4l-3.88-3.49c1.84-3.2,2.81-7.27,2.86-12.21v-12.36h19.19v23.99c0,2.47-1.5,3.73-4.51,3.73h-4.31l-1.31-4.65c1.5.15,2.91.24,4.17.24.73,0,1.11-.34,1.11-1.02v-4.17c-2.81.63-5.76,1.21-8.82,1.7l-.92-3.59c-.48,4.75-1.65,8.67-3.59,11.82ZM295.17,13.76l-4.02,2.86c-.49-.97-1.02-1.94-1.55-2.91-5.04.77-11.1,1.36-18.08,1.74l-1.36-4.22c.87-.29,1.65-.68,2.28-1.21,2.91-3.44,5.04-6.69,6.49-9.69l4.85,1.45c-1.94,3.78-4.12,6.83-6.59,9.21,3.2-.19,6.59-.53,10.17-.92-.77-1.26-1.65-2.52-2.52-3.78l3.88-2.47c2.81,3.83,4.94,7.12,6.44,9.93ZM284.56,29.61c-1.6-.39-3.25-.68-4.94-.97-.63-.15-1.26-.24-1.84-.29v.97c0,1.21-.1,2.37-.19,3.54,3.29-.29,6.54-.77,9.64-1.41v-9.74h-9.45v2.81l3.88.58c1.16.19,2.66.44,4.51.82l-1.6,3.68ZM300.6,44.53c-3.49,0-5.23-1.55-5.23-4.6v-16.28h4.99v4.26l12.16-.87v4.65l-12.16.87v6.25c0,.82.53,1.26,1.65,1.26h5.57c.68,0,1.21-.24,1.5-.73.39-.53.63-2.08.78-4.7l4.6,1.45c-.39,4.12-1.07,6.54-1.94,7.32-.87.73-2.18,1.12-3.97,1.12h-7.95ZM300.4,1.26v4.8l11.87-.87v4.65l-11.87.87v5.28c0,.97.53,1.5,1.6,1.5h11.39v4.65h-12.89c-3.39,0-5.09-1.65-5.09-4.85V1.26h4.99Z"/>
        <path d="M319.79,24.81l-1.65-5.28c4.89-5.48,8.53-11.92,10.85-19.38l4.75,2.23c-1.16,3.59-2.71,6.98-4.56,10.17v32.8h-5.14v-25.29c-1.36,1.6-2.76,3.2-4.26,4.75ZM361.7,16.09l-15.46,2.13c.24,2.42.53,4.56.92,6.4,1.06,5.04,2.52,8.92,4.36,11.53,1.7,2.52,3.3,3.83,4.8,3.93,1.06-.1,1.89-2.96,2.42-8.63l4.41,2.57c-.68,3.97-1.55,6.88-2.67,8.82-.97,1.55-2.28,2.32-3.88,2.37-2.42,0-4.94-1.6-7.56-4.7-2.86-3.39-4.99-7.85-6.4-13.37-.58-2.23-1.02-4.99-1.36-8.24l-9.98,1.41-.77-4.8,10.32-1.45c-.29-4.02-.49-8.62-.58-13.76h5.14c0,4.94.15,9.3.44,13.08l15.02-2.09.82,4.8ZM357.83,7.61l-3.44,3.39c-1.65-2.28-3.97-4.75-7.07-7.41l3.2-3.1c2.86,2.38,5.28,4.75,7.32,7.12Z"/>
        <path d="M386.81,4.12V.53h5.14v3.59h16.91v4.65h-16.91v3.15h14.1v4.65h-14.1v3.25h18.03v4.6h-22c-1.6,2.23-3.59,4.26-5.91,6.11v8.77c3.25-1.06,6.49-2.23,9.69-3.59l1.02,4.65c-4.99,2.03-10.03,3.68-15.17,4.99l-1.65-4.31c.77-.44,1.16-1.07,1.16-1.84v-5.28c-2.28,1.36-4.8,2.57-7.56,3.73l-2.71-4.41c6.98-2.33,12.26-5.23,15.75-8.82h-13.81v-4.6h18.03v-3.25h-14.1v-4.65h14.1v-3.15h-16.91v-4.65h16.91ZM408.47,29.22c-2.38,2.37-5.04,4.22-7.95,5.52,3.05,2.71,6.83,4.8,11.39,6.15l-3,4.46c-8.53-3.05-14.63-8.67-18.32-16.86l3.83-2.18c.87,1.94,1.89,3.73,3.15,5.28,2.57-1.26,5.04-3.2,7.41-5.81l3.49,3.44Z"/>
        <path d="M416.71,24.86l-1.7-5.43c4.99-5.48,8.67-11.92,11.1-19.34l4.7,2.23c-1.26,3.78-2.91,7.36-4.94,10.76v32.18h-5.04v-25c-1.31,1.55-2.67,3.1-4.12,4.6ZM431.78,20.35l-4.36-2.71c3.59-5.38,6.11-11.1,7.56-17.15l4.75,1.02c-.39,1.45-.82,2.91-1.26,4.31h20.21v3.29c-.73,2.91-1.65,5.77-2.76,8.63l-4.85-1.41c.97-1.65,1.74-3.54,2.42-5.67h-16.77c-1.45,3.54-3.1,6.78-4.94,9.69ZM438.76,21.52c-1.7,6.64-3.88,12.45-6.49,17.44l-4.75-1.7c2.52-4.46,4.75-10.13,6.69-17.01l4.56,1.26ZM435.95,44.92l-1.11-4.75c1.94.19,3.83.34,5.57.34,1.16,0,1.74-.63,1.74-1.84V14h4.9v25.88c0,3.34-1.65,5.04-4.94,5.04h-6.15ZM459.93,37.8l-4.46,1.99c-1.74-6.98-3.73-13.18-5.91-18.56l4.46-1.5c2.28,5.62,4.26,11.68,5.91,18.07Z"/>
        <path d="M482.28,42.25h-4.85v-2.42h-7.17v3.83h-4.85V8.29h4.65c.87-2.57,1.5-5.23,1.89-8l5.09.68c-.53,2.62-1.26,5.09-2.13,7.32h7.37v33.97ZM477.43,21.52v-8.48h-7.17v8.48h7.17ZM477.43,35.18v-9.16h-7.17v9.16h7.17ZM506.51,39.69c-.49,3.39-2.81,5.09-6.98,5.09-.97,0-2.71-.1-5.23-.29l-1.21-4.6c2.13.15,4.02.24,5.62.24,1.74,0,2.76-.97,3.05-2.86.29-2.32.44-10.32.53-24.03h-11.73c-1.31,2.91-2.86,5.52-4.65,7.85l-3.05-4.02c3.2-4.56,5.33-10.18,6.5-16.81l4.99.63c-.49,2.62-1.12,5.09-1.84,7.41h14.73c0,16.96-.24,27.43-.73,31.4ZM498.27,30.43l-4.07,2.81c-1.79-3.2-4.22-6.74-7.22-10.61l4.12-2.57c3.1,3.93,5.47,7.37,7.17,10.37Z"/>
        <path d="M537.76,26.41c-.15.87-.29,1.65-.49,2.42h17.78v4.65h-19.48c-1.12,2.08-2.57,3.92-4.31,5.47-3.2,2.81-8.87,5.04-17.01,6.69l-2.08-4.9c6.93-1.21,11.92-2.96,14.97-5.18.87-.68,1.6-1.36,2.23-2.08h-14.87v-4.65h17.54c.29-.97.53-1.94.73-2.96l4.99.53ZM525.07,4.85c-.58-1.36-1.26-2.57-1.94-3.68l5.28-.87c.58,1.36,1.21,2.86,1.79,4.56h9.26c.68-1.55,1.21-3.1,1.55-4.7l5.33.73c-.39,1.41-.92,2.71-1.6,3.97h9.79v4.56h-17.25v3.34h14.68v4.26h-14.68v3.39h18.85v4.65h-42.74v-4.65h18.85v-3.39h-14.54v-4.26h14.54v-3.34h-17.25v-4.56h10.08ZM557.34,41.24l-2.91,4.46c-5.67-3.15-11.48-5.62-17.4-7.41l2.67-3.97c6.44,1.94,12.31,4.22,17.64,6.93Z"/>
        <path d="M585.01.48c5.91,5.48,12.79,9.79,20.55,12.99l-2.52,4.41c-2.18-.92-4.21-1.89-6.11-2.96v17.06l1.31-1.5,4.26,2.13c-1.74,1.94-3.59,3.73-5.57,5.38,2.52,1.16,4.8,2.42,6.93,3.73l-3.15,3.83c-4.94-3.34-11.24-6.44-18.99-9.3l2.86-3.39c2.91,1.02,5.62,2.09,8.19,3.2,1.36-1.16,2.62-2.37,3.78-3.63h-21.52v7.66c3.44-.68,6.74-1.45,9.89-2.33l.97,4.26c-4.46,1.31-10.03,2.47-16.62,3.44l-1.31-4.02c1.36-.44,2.08-1.65,2.08-3.68V15.02c-2.13,1.16-4.36,2.28-6.69,3.34l-2.47-4.46c8.29-3.59,15.17-8.04,20.64-13.42h3.49ZM595.09,13.91c-2.03-1.16-3.88-2.37-5.62-3.63v1.94h-12.31v-1.79c-1.65,1.21-3.39,2.37-5.23,3.49h23.16ZM591.94,18.37h-16.91v2.67h16.91v-2.67ZM575.03,27.96h16.91v-2.67h-16.91v2.67ZM586.85,8.24c-1.31-1.06-2.52-2.08-3.59-3.15-1.12,1.07-2.23,2.13-3.39,3.15h6.98Z"/>
        <path d="M652.13,13.57h-4.22v2.47h-32.47v-2.52h-4.26V4.17h17.45c-.39-1.07-.82-1.99-1.31-2.86l5.91-.97c.44,1.16.87,2.42,1.26,3.83h17.64v9.4ZM651.89,39.88v4.51h-40.36v-4.51h40.36ZM646.99,11.63v-2.62h-30.67v2.62h30.67ZM646.22,18.7v18.32h-29.03v-18.32h29.03ZM641.13,25.78v-2.62h-18.85v2.62h18.85ZM641.13,29.9h-18.85v2.67h18.85v-2.67Z"/>
        <path d="M677.81,5.67c-.68-1.45-1.36-2.81-2.13-4.17l5.33-1.5c.97,2.08,1.74,3.97,2.28,5.67h18.8v4.75h-43.86v-4.75h19.58ZM697,45.35h-4.94v-1.79h-23.84v1.79h-4.94v-16.57h33.73v16.57ZM696.03,13.52v4.51h-31.74v-4.51h31.74ZM696.03,20.93v4.55h-31.74v-4.55h31.74ZM692.06,38.81v-5.28h-23.84v5.28h23.84Z"/>
        <path d="M77.41,77.97l-4.44-16.75h2.71l3.26,13.23,3.26-13.23h2.59l3.26,13.23,3.23-13.23h2.76l-4.46,16.75h-2.97l-3.12-12.22-3.12,12.22h-2.97Z"/>
        <path d="M96.17,77.97v-16.75h2.5v7.03l-.31-.05c.14-.71.4-1.29.78-1.73s.84-.78,1.39-1c.55-.22,1.16-.33,1.82-.33.91,0,1.68.2,2.31.6.63.4,1.11.96,1.43,1.69s.48,1.55.48,2.48v8.07h-2.5v-7.41c0-1.13-.19-1.97-.58-2.51-.39-.54-.99-.81-1.81-.81-.91,0-1.64.29-2.19.86-.55.57-.83,1.41-.83,2.51v7.36h-2.5Z"/>
        <path d="M109.83,63.6v-2.5h2.59v2.5h-2.59ZM109.88,77.97v-12.55h2.5v12.55h-2.5Z"/>
        <path d="M120.85,78.25c-1.2,0-2.24-.27-3.14-.8s-1.59-1.3-2.08-2.29c-.49-.99-.73-2.15-.73-3.47s.24-2.47.73-3.46c.49-.98,1.18-1.75,2.08-2.29.9-.54,1.94-.82,3.14-.82,1.02,0,1.93.18,2.72.53.79.35,1.44.87,1.94,1.55.5.68.81,1.5.96,2.48l-2.62.14c-.13-.82-.46-1.44-.99-1.88s-1.2-.65-2-.65c-1.06,0-1.88.39-2.47,1.17s-.88,1.85-.88,3.22.29,2.44.88,3.22,1.41,1.17,2.47,1.17c.8,0,1.47-.22,2-.67s.86-1.13.99-2.04l2.62.14c-.14.96-.46,1.79-.96,2.5s-1.14,1.26-1.94,1.65c-.79.39-1.7.59-2.72.59Z"/>
        <path d="M128.73,77.97v-16.75h2.5v7.03l-.31-.05c.14-.71.4-1.29.78-1.73s.84-.78,1.39-1c.55-.22,1.16-.33,1.82-.33.91,0,1.68.2,2.31.6.63.4,1.11.96,1.43,1.69s.48,1.55.48,2.48v8.07h-2.5v-7.41c0-1.13-.19-1.97-.58-2.51-.39-.54-.99-.81-1.81-.81-.91,0-1.64.29-2.19.86-.55.57-.83,1.41-.83,2.51v7.36h-2.5Z"/>
        <path d="M153.57,78.25c-1.23,0-2.29-.27-3.17-.8-.89-.53-1.57-1.3-2.05-2.29-.48-.99-.72-2.15-.72-3.47s.24-2.47.72-3.46c.48-.98,1.16-1.75,2.04-2.29.88-.54,1.92-.82,3.12-.82,1.13,0,2.13.26,3,.79.87.53,1.54,1.29,2.02,2.28s.72,2.19.72,3.59v.64h-9.01c.06,1.23.39,2.15.98,2.76.59.61,1.39.92,2.4.92.74,0,1.35-.17,1.84-.52.49-.35.82-.81,1.01-1.39l2.59.16c-.33,1.17-.98,2.1-1.95,2.82-.97.72-2.14,1.07-3.53,1.07ZM150.22,70.54h6.37c-.08-1.12-.4-1.94-.95-2.48-.56-.53-1.27-.8-2.14-.8s-1.63.28-2.21.84c-.57.56-.93,1.37-1.07,2.44Z"/>
        <path d="M161.76,77.97v-12.55h2.29l.07,3.12-.28-.09c.14-.69.39-1.28.74-1.77.35-.49.79-.86,1.31-1.13s1.09-.4,1.7-.4c1.07,0,1.94.3,2.62.91.68.61,1.1,1.44,1.27,2.49h-.4c.14-.74.38-1.36.72-1.85s.77-.88,1.31-1.14,1.14-.4,1.82-.4c.88,0,1.63.19,2.25.56.62.37,1.09.91,1.41,1.62.32.71.48,1.57.48,2.59v8.07h-2.5v-7.46c0-1.09-.2-1.9-.59-2.45-.39-.55-.99-.82-1.79-.82-.52,0-.97.13-1.37.4-.39.27-.7.65-.91,1.16-.21.5-.32,1.11-.32,1.82v7.36h-2.38v-7.36c0-1.07-.18-1.9-.53-2.49-.35-.59-.95-.88-1.8-.88-.53,0-1,.13-1.38.4s-.69.66-.91,1.17c-.22.51-.33,1.11-.33,1.8v7.36h-2.5Z"/>
        <path d="M187.52,78.25c-1.2,0-2.24-.27-3.14-.8-.9-.53-1.59-1.3-2.08-2.29-.49-.99-.73-2.15-.73-3.47s.24-2.49.73-3.47c.49-.97,1.18-1.73,2.08-2.28.9-.54,1.94-.82,3.14-.82s2.24.27,3.14.82c.9.54,1.59,1.3,2.08,2.28.49.97.73,2.13.73,3.47s-.24,2.48-.73,3.47c-.49.99-1.18,1.76-2.08,2.29-.9.53-1.94.8-3.14.8ZM187.52,76.08c1.07,0,1.89-.39,2.48-1.17.58-.78.87-1.85.87-3.22s-.29-2.44-.87-3.22c-.58-.78-1.41-1.17-2.48-1.17s-1.88.39-2.47,1.17-.88,1.85-.88,3.22.29,2.44.88,3.22,1.41,1.17,2.47,1.17Z"/>
        <path d="M194.13,81.51v-2.05h1.13c.42,0,.76-.09,1-.28s.36-.55.36-1.09v-12.67h2.53v12.76c0,1.2-.27,2.05-.81,2.56-.54.51-1.44.77-2.7.77h-1.51ZM196.61,63.6v-2.5h2.6v2.5h-2.6Z"/>
        <path d="M202.18,63.6v-2.5h2.59v2.5h-2.59ZM202.22,77.97v-12.55h2.5v12.55h-2.5Z"/>
        <path d="M220.25,78.25c-.87,0-1.63-.19-2.3-.58s-1.18-.92-1.55-1.59l-.07,1.89h-2.34v-16.75h2.5v5.97c.33-.55.82-1.03,1.47-1.44.65-.41,1.41-.62,2.28-.62,1.09,0,2.03.27,2.83.8.8.53,1.42,1.29,1.85,2.28.43.98.65,2.14.65,3.48s-.22,2.5-.65,3.48c-.43.98-1.05,1.74-1.85,2.28-.8.53-1.74.8-2.83.8ZM219.85,76.08c.96,0,1.72-.39,2.29-1.17.57-.78.85-1.85.85-3.22s-.28-2.44-.85-3.22c-.57-.78-1.32-1.17-2.26-1.17-.71,0-1.31.17-1.82.52-.5.35-.89.85-1.15,1.5-.27.65-.4,1.44-.4,2.37s.13,1.68.4,2.34c.27.66.65,1.17,1.15,1.52.5.35,1.1.53,1.79.53Z"/>
        <path d="M233.27,78.25c-1.23,0-2.29-.27-3.17-.8-.89-.53-1.57-1.3-2.05-2.29-.48-.99-.72-2.15-.72-3.47s.24-2.47.72-3.46c.48-.98,1.16-1.75,2.04-2.29.88-.54,1.92-.82,3.12-.82,1.13,0,2.13.26,3,.79.87.53,1.54,1.29,2.02,2.28s.72,2.19.72,3.59v.64h-9.01c.06,1.23.39,2.15.98,2.76.59.61,1.39.92,2.4.92.74,0,1.35-.17,1.84-.52.49-.35.82-.81,1.01-1.39l2.59.16c-.33,1.17-.98,2.1-1.95,2.82-.97.72-2.14,1.07-3.53,1.07ZM229.92,70.54h6.37c-.08-1.12-.4-1.94-.95-2.48-.56-.53-1.27-.8-2.14-.8s-1.63.28-2.21.84c-.57.56-.93,1.37-1.07,2.44Z"/>
        <path d="M246.29,78.25c-1.18,0-2.18-.18-2.98-.54-.81-.36-1.44-.86-1.88-1.5-.44-.64-.69-1.37-.76-2.2l2.57-.12c.13.69.43,1.24.9,1.65.47.41,1.19.62,2.15.62.79,0,1.41-.13,1.86-.38s.68-.65.68-1.21c0-.3-.07-.55-.22-.76-.15-.21-.44-.39-.86-.54s-1.05-.29-1.89-.44c-1.24-.24-2.22-.51-2.93-.83-.71-.31-1.21-.71-1.51-1.2-.3-.49-.45-1.08-.45-1.77,0-1.15.43-2.08,1.29-2.81.86-.72,2.1-1.09,3.72-1.09,1.09,0,2,.19,2.74.56.74.37,1.32.87,1.73,1.49.41.62.68,1.32.79,2.09l-2.57.14c-.08-.44-.23-.82-.46-1.15s-.53-.57-.91-.75c-.38-.18-.83-.27-1.35-.27-.8,0-1.4.16-1.79.47-.39.31-.59.72-.59,1.23,0,.38.09.68.27.92.18.24.48.43.88.58.41.15.95.28,1.63.39,1.3.22,2.33.49,3.07.82s1.26.72,1.56,1.19c.3.47.45,1.05.45,1.72,0,.79-.22,1.46-.66,2.01s-1.05.97-1.82,1.26c-.77.29-1.66.44-2.67.44Z"/>
        <path d="M252.9,67.47v-2.05h7.74v2.05h-7.74ZM258.3,77.97c-1.2,0-2.08-.27-2.64-.82s-.85-1.41-.85-2.57v-12.1h2.5v11.92c0,.58.12.98.38,1.2.25.22.64.33,1.15.33h1.79v2.05h-2.34Z"/>
        <path d="M268.89,77.97v-12.55h2.29l.09,3.33-.21-.07c.17-1.13.52-1.96,1.05-2.48.53-.52,1.24-.78,2.13-.78h1.21v2.24h-1.21c-.63,0-1.15.1-1.58.31-.42.21-.74.52-.95.94s-.32.97-.32,1.65v7.41h-2.5Z"/>
        <path d="M282.41,78.25c-1.23,0-2.29-.27-3.17-.8-.89-.53-1.57-1.3-2.05-2.29-.48-.99-.72-2.15-.72-3.47s.24-2.47.72-3.46c.48-.98,1.16-1.75,2.04-2.29.88-.54,1.92-.82,3.12-.82,1.13,0,2.13.26,3,.79.87.53,1.54,1.29,2.02,2.28s.72,2.19.72,3.59v.64h-9.01c.06,1.23.39,2.15.98,2.76.59.61,1.39.92,2.4.92.74,0,1.35-.17,1.84-.52.49-.35.82-.81,1.01-1.39l2.59.16c-.33,1.17-.98,2.1-1.95,2.82-.97.72-2.14,1.07-3.53,1.07ZM279.06,70.54h6.37c-.08-1.12-.4-1.94-.95-2.48-.56-.53-1.27-.8-2.14-.8s-1.63.28-2.21.84c-.57.56-.93,1.37-1.07,2.44Z"/>
        <path d="M290.6,81.51v-16.09h2.36l.07,2.69-.28-.14c.31-.93.83-1.63,1.56-2.11s1.56-.72,2.5-.72c1.23,0,2.24.3,3.03.91s1.38,1.4,1.77,2.39.58,2.08.58,3.26-.19,2.26-.58,3.26-.97,1.79-1.77,2.4c-.79.61-1.8.91-3.03.91-.63,0-1.22-.11-1.77-.33-.55-.22-1.02-.53-1.4-.93-.39-.4-.66-.88-.81-1.43l.28-.28v6.23h-2.5ZM296.36,76.08c1,0,1.79-.38,2.37-1.16.57-.77.86-1.85.86-3.23s-.29-2.46-.86-3.23c-.58-.77-1.37-1.15-2.37-1.15-.66,0-1.23.16-1.72.48-.49.32-.86.82-1.13,1.47-.27.66-.4,1.47-.4,2.43s.13,1.77.39,2.43c.26.66.64,1.15,1.13,1.47s1.07.48,1.73.48Z"/>
        <path d="M304.71,77.97v-12.55h2.29l.09,3.33-.21-.07c.17-1.13.52-1.96,1.05-2.48.53-.52,1.24-.78,2.13-.78h1.21v2.24h-1.21c-.63,0-1.15.1-1.58.31-.42.21-.74.52-.95.94s-.32.97-.32,1.65v7.41h-2.5Z"/>
        <path d="M318.23,78.25c-1.23,0-2.29-.27-3.17-.8-.89-.53-1.57-1.3-2.05-2.29-.48-.99-.72-2.15-.72-3.47s.24-2.47.72-3.46c.48-.98,1.16-1.75,2.04-2.29.88-.54,1.92-.82,3.12-.82,1.13,0,2.13.26,3,.79.87.53,1.54,1.29,2.02,2.28s.72,2.19.72,3.59v.64h-9.01c.06,1.23.39,2.15.98,2.76.59.61,1.39.92,2.4.92.74,0,1.35-.17,1.84-.52.49-.35.82-.81,1.01-1.39l2.59.16c-.33,1.17-.98,2.1-1.95,2.82-.97.72-2.14,1.07-3.53,1.07ZM314.88,70.54h6.37c-.08-1.12-.4-1.94-.95-2.48-.56-.53-1.27-.8-2.14-.8s-1.63.28-2.21.84c-.57.56-.93,1.37-1.07,2.44Z"/>
        <path d="M331.25,78.25c-1.18,0-2.18-.18-2.98-.54-.81-.36-1.44-.86-1.88-1.5-.44-.64-.69-1.37-.76-2.2l2.57-.12c.13.69.43,1.24.9,1.65.47.41,1.19.62,2.15.62.79,0,1.41-.13,1.86-.38s.68-.65.68-1.21c0-.3-.07-.55-.22-.76-.15-.21-.44-.39-.86-.54s-1.05-.29-1.89-.44c-1.24-.24-2.22-.51-2.93-.83-.71-.31-1.21-.71-1.51-1.2-.3-.49-.45-1.08-.45-1.77,0-1.15.43-2.08,1.29-2.81.86-.72,2.1-1.09,3.72-1.09,1.09,0,2,.19,2.74.56.74.37,1.32.87,1.73,1.49.41.62.68,1.32.79,2.09l-2.57.14c-.08-.44-.23-.82-.46-1.15s-.53-.57-.91-.75c-.38-.18-.83-.27-1.35-.27-.8,0-1.4.16-1.79.47-.39.31-.59.72-.59,1.23,0,.38.09.68.27.92.18.24.48.43.88.58.41.15.95.28,1.63.39,1.3.22,2.33.49,3.07.82s1.26.72,1.56,1.19c.3.47.45,1.05.45,1.72,0,.79-.22,1.46-.66,2.01s-1.05.97-1.82,1.26c-.77.29-1.66.44-2.67.44Z"/>
        <path d="M344.09,78.25c-1.23,0-2.29-.27-3.17-.8-.89-.53-1.57-1.3-2.05-2.29-.48-.99-.72-2.15-.72-3.47s.24-2.47.72-3.46c.48-.98,1.16-1.75,2.04-2.29.88-.54,1.92-.82,3.12-.82,1.13,0,2.13.26,3,.79.87.53,1.54,1.29,2.02,2.28s.72,2.19.72,3.59v.64h-9.01c.06,1.23.39,2.15.98,2.76.59.61,1.39.92,2.4.92.74,0,1.35-.17,1.84-.52.49-.35.82-.81,1.01-1.39l2.59.16c-.33,1.17-.98,2.1-1.95,2.82-.97.72-2.14,1.07-3.53,1.07ZM340.74,70.54h6.37c-.08-1.12-.4-1.94-.95-2.48-.56-.53-1.27-.8-2.14-.8s-1.63.28-2.21.84c-.57.56-.93,1.37-1.07,2.44Z"/>
        <path d="M352.27,77.97v-12.55h2.29l.09,3.35-.31-.16c.14-.82.41-1.48.8-1.98.39-.5.87-.88,1.44-1.12s1.18-.37,1.84-.37c.94,0,1.73.21,2.35.63.62.42,1.09.98,1.41,1.7.32.72.48,1.53.48,2.44v8.07h-2.5v-7.31c0-.74-.08-1.36-.24-1.86-.16-.5-.42-.89-.78-1.16s-.83-.4-1.41-.4c-.88,0-1.6.29-2.15.87-.55.58-.83,1.43-.83,2.55v7.31h-2.5Z"/>
        <path d="M364.68,67.47v-2.05h7.74v2.05h-7.74ZM370.09,77.97c-1.2,0-2.08-.27-2.64-.82s-.85-1.41-.85-2.57v-12.1h2.5v11.92c0,.58.12.98.38,1.2.25.22.64.33,1.15.33h1.79v2.05h-2.34Z"/>
        <path d="M379.41,78.25c-1.18,0-2.18-.18-2.98-.54-.81-.36-1.44-.86-1.88-1.5-.44-.64-.69-1.37-.76-2.2l2.57-.12c.13.69.43,1.24.9,1.65.47.41,1.19.62,2.15.62.79,0,1.41-.13,1.86-.38s.68-.65.68-1.21c0-.3-.07-.55-.22-.76-.15-.21-.44-.39-.86-.54s-1.05-.29-1.89-.44c-1.24-.24-2.22-.51-2.93-.83-.71-.31-1.21-.71-1.51-1.2-.3-.49-.45-1.08-.45-1.77,0-1.15.43-2.08,1.29-2.81.86-.72,2.1-1.09,3.72-1.09,1.09,0,2,.19,2.74.56.74.37,1.32.87,1.73,1.49.41.62.68,1.32.79,2.09l-2.57.14c-.08-.44-.23-.82-.46-1.15s-.53-.57-.91-.75c-.38-.18-.83-.27-1.35-.27-.8,0-1.4.16-1.79.47-.39.31-.59.72-.59,1.23,0,.38.09.68.27.92.18.24.48.43.88.58.41.15.95.28,1.63.39,1.3.22,2.33.49,3.07.82s1.26.72,1.56,1.19c.3.47.45,1.05.45,1.72,0,.79-.22,1.46-.66,2.01-.44.55-1.05.97-1.82,1.26-.77.29-1.66.44-2.67.44Z"/>
        <path d="M393.75,81.51v-2.05h1.53c.42,0,.74-.06.94-.19.21-.13.36-.34.47-.64l.4-1.04h-.78l-4.53-12.17h2.64l3.44,9.86,3.28-9.86h2.67l-5,14.02c-.25.72-.63,1.25-1.12,1.58s-1.18.5-2.06.5h-1.89Z"/>
        <path d="M410.65,78.25c-1.2,0-2.24-.27-3.14-.8-.9-.53-1.59-1.3-2.08-2.29-.49-.99-.73-2.15-.73-3.47s.24-2.49.73-3.47c.49-.97,1.18-1.73,2.08-2.28.9-.54,1.94-.82,3.14-.82s2.24.27,3.14.82c.9.54,1.59,1.3,2.08,2.28.49.97.73,2.13.73,3.47s-.24,2.48-.73,3.47c-.49.99-1.18,1.76-2.08,2.29-.9.53-1.94.8-3.14.8ZM410.65,76.08c1.07,0,1.89-.39,2.48-1.17.58-.78.87-1.85.87-3.22s-.29-2.44-.87-3.22c-.58-.78-1.41-1.17-2.48-1.17s-1.88.39-2.47,1.17-.88,1.85-.88,3.22.29,2.44.88,3.22,1.41,1.17,2.47,1.17Z"/>
        <path d="M423.24,78.25c-1.26,0-2.26-.42-3.01-1.26-.75-.84-1.12-2.01-1.12-3.5v-8.07h2.5v7.43c0,1.13.2,1.97.59,2.5.39.54.99.8,1.79.8.91,0,1.62-.29,2.13-.88s.77-1.42.77-2.49v-7.36h2.5v12.55h-2.34l-.05-3.28.35.14c-.22,1.1-.68,1.95-1.39,2.54s-1.62.88-2.74.88Z"/>
        <path d="M432.94,77.97v-12.55h2.29l.09,3.33-.21-.07c.17-1.13.52-1.96,1.05-2.48.53-.52,1.24-.78,2.13-.78h1.21v2.24h-1.21c-.63,0-1.15.1-1.58.31-.42.21-.74.52-.95.94s-.32.97-.32,1.65v7.41h-2.5Z"/>
        <path d="M447.5,67.61v-2.03h7.38v2.03h-7.38ZM449.24,77.97v-13.35c0-1.04.29-1.86.87-2.48.58-.61,1.49-.92,2.74-.92h2.22v2.05h-1.89c-.49,0-.85.13-1.09.39-.24.26-.35.63-.35,1.1v13.21h-2.5Z"/>
        <path d="M461.82,78.25c-1.2,0-2.24-.27-3.14-.8s-1.59-1.3-2.08-2.29c-.49-.99-.73-2.15-.73-3.47s.24-2.49.73-3.47c.49-.97,1.18-1.73,2.08-2.28.9-.54,1.94-.82,3.14-.82s2.24.27,3.14.82c.9.54,1.59,1.3,2.08,2.28.49.97.73,2.13.73,3.47s-.24,2.48-.73,3.47c-.49.99-1.18,1.76-2.08,2.29-.9.53-1.94.8-3.14.8ZM461.82,76.08c1.07,0,1.89-.39,2.48-1.17.58-.78.87-1.85.87-3.22s-.29-2.44-.87-3.22c-.58-.78-1.41-1.17-2.48-1.17s-1.88.39-2.47,1.17-.88,1.85-.88,3.22.29,2.44.88,3.22,1.41,1.17,2.47,1.17Z"/>
        <path d="M475.46,78.25c-1.2,0-2.24-.27-3.14-.8-.9-.53-1.59-1.3-2.08-2.29-.49-.99-.73-2.15-.73-3.47s.24-2.49.73-3.47c.49-.97,1.18-1.73,2.08-2.28.9-.54,1.94-.82,3.14-.82s2.24.27,3.14.82c.9.54,1.59,1.3,2.08,2.28.49.97.73,2.13.73,3.47s-.24,2.48-.73,3.47c-.49.99-1.18,1.76-2.08,2.29-.9.53-1.94.8-3.14.8ZM475.46,76.08c1.07,0,1.89-.39,2.48-1.17.58-.78.87-1.85.87-3.22s-.29-2.44-.87-3.22c-.58-.78-1.41-1.17-2.48-1.17s-1.88.39-2.47,1.17c-.59.78-.88,1.85-.88,3.22s.29,2.44.88,3.22c.59.78,1.41,1.17,2.47,1.17Z"/>
        <path d="M488.38,78.25c-1.07,0-2-.27-2.79-.8s-1.4-1.29-1.82-2.28c-.42-.98-.62-2.15-.62-3.48s.21-2.5.64-3.48c.42-.98,1.03-1.74,1.82-2.28s1.71-.8,2.78-.8c.87,0,1.64.18,2.31.54.68.36,1.19.86,1.53,1.51v-5.97h2.5v16.75h-2.34l-.07-1.89c-.35.68-.87,1.21-1.57,1.59-.7.38-1.49.58-2.37.58ZM489.04,76.08c.68,0,1.25-.17,1.72-.52.47-.35.83-.85,1.09-1.51.25-.66.38-1.45.38-2.36s-.12-1.74-.38-2.39c-.25-.65-.62-1.15-1.09-1.49-.47-.34-1.05-.51-1.72-.51-1.01,0-1.81.39-2.41,1.17-.6.78-.9,1.85-.9,3.22s.3,2.42.9,3.21c.6.79,1.4,1.18,2.41,1.18Z"/>
        <path d="M508.84,78.25c-1.18,0-2.18-.18-2.98-.54-.81-.36-1.44-.86-1.88-1.5-.44-.64-.69-1.37-.76-2.2l2.57-.12c.13.69.43,1.24.9,1.65.47.41,1.19.62,2.15.62.79,0,1.41-.13,1.86-.38s.68-.65.68-1.21c0-.3-.07-.55-.22-.76-.15-.21-.44-.39-.86-.54s-1.05-.29-1.89-.44c-1.24-.24-2.22-.51-2.93-.83-.71-.31-1.21-.71-1.51-1.2-.3-.49-.45-1.08-.45-1.77,0-1.15.43-2.08,1.29-2.81.86-.72,2.1-1.09,3.72-1.09,1.09,0,2,.19,2.74.56.74.37,1.32.87,1.73,1.49.41.62.68,1.32.79,2.09l-2.57.14c-.08-.44-.23-.82-.46-1.15s-.53-.57-.91-.75c-.38-.18-.83-.27-1.35-.27-.8,0-1.4.16-1.79.47-.39.31-.59.72-.59,1.23,0,.38.09.68.27.92.18.24.48.43.88.58.41.15.95.28,1.63.39,1.3.22,2.33.49,3.07.82s1.26.72,1.56,1.19c.3.47.45,1.05.45,1.72,0,.79-.22,1.46-.66,2.01s-1.05.97-1.82,1.26c-.77.29-1.66.44-2.67.44Z"/>
        <path d="M515.44,67.47v-2.05h7.74v2.05h-7.74ZM520.85,77.97c-1.2,0-2.08-.27-2.64-.82s-.85-1.41-.85-2.57v-12.1h2.5v11.92c0,.58.12.98.38,1.2.25.22.64.33,1.15.33h1.79v2.05h-2.34Z"/>
        <path d="M528.99,78.25c-1.31,0-2.35-.3-3.13-.9-.78-.6-1.17-1.44-1.17-2.53s.33-1.93.98-2.54c.65-.6,1.66-1.04,3.03-1.31l4.32-.82c0-.98-.23-1.7-.68-2.18-.46-.48-1.13-.72-2.03-.72-.8,0-1.43.18-1.89.53-.46.35-.77.88-.94,1.57l-2.57-.16c.24-1.26.82-2.25,1.76-2.97.94-.72,2.15-1.09,3.64-1.09,1.7,0,2.99.45,3.88,1.36.89.91,1.33,2.18,1.33,3.81v4.88c0,.3.05.51.15.62.1.12.27.18.51.18h.45v1.98c-.08.02-.21.03-.38.05-.18.02-.35.03-.54.03-.53,0-1-.09-1.38-.26s-.67-.46-.86-.86-.28-.94-.28-1.62l.26.12c-.13.55-.4,1.04-.81,1.46s-.94.76-1.58,1c-.64.24-1.32.37-2.06.37ZM529.39,76.27c.76,0,1.4-.15,1.94-.44.53-.29.95-.7,1.25-1.21s.45-1.11.45-1.77v-.8l-3.68.71c-.75.14-1.29.37-1.59.67s-.46.7-.46,1.17c0,.53.19.95.56,1.24.37.29.88.44,1.55.44Z"/>
        <path d="M537.5,67.47v-2.05h7.74v2.05h-7.74ZM542.91,77.97c-1.2,0-2.08-.27-2.64-.82s-.85-1.41-.85-2.57v-12.1h2.5v11.92c0,.58.12.98.38,1.2.25.22.64.33,1.15.33h1.79v2.05h-2.34Z"/>
        <path d="M552.56,78.25c-1.23,0-2.29-.27-3.17-.8-.89-.53-1.57-1.3-2.05-2.29-.48-.99-.72-2.15-.72-3.47s.24-2.47.72-3.46c.48-.98,1.16-1.75,2.04-2.29.88-.54,1.92-.82,3.12-.82,1.13,0,2.13.26,3,.79.87.53,1.54,1.29,2.02,2.28s.72,2.19.72,3.59v.64h-9.01c.06,1.23.39,2.15.98,2.76.59.61,1.39.92,2.4.92.74,0,1.35-.17,1.84-.52.49-.35.82-.81,1.01-1.39l2.59.16c-.33,1.17-.98,2.1-1.95,2.82-.97.72-2.14,1.07-3.53,1.07ZM549.21,70.54h6.37c-.08-1.12-.4-1.94-.95-2.48-.56-.53-1.27-.8-2.14-.8s-1.63.28-2.21.84c-.57.56-.93,1.37-1.07,2.44Z"/>
        <path d="M560.74,77.97v-12.55h2.29l.07,3.12-.28-.09c.14-.69.39-1.28.74-1.77.35-.49.79-.86,1.31-1.13s1.09-.4,1.7-.4c1.07,0,1.94.3,2.62.91.68.61,1.1,1.44,1.27,2.49h-.4c.14-.74.38-1.36.72-1.85s.77-.88,1.31-1.14,1.14-.4,1.82-.4c.88,0,1.63.19,2.25.56.62.37,1.09.91,1.41,1.62.32.71.48,1.57.48,2.59v8.07h-2.5v-7.46c0-1.09-.2-1.9-.59-2.45-.39-.55-.99-.82-1.79-.82-.52,0-.97.13-1.37.4-.39.27-.7.65-.91,1.16-.21.5-.32,1.11-.32,1.82v7.36h-2.38v-7.36c0-1.07-.18-1.9-.53-2.49-.35-.59-.95-.88-1.8-.88-.53,0-1,.13-1.38.4s-.69.66-.91,1.17c-.22.51-.33,1.11-.33,1.8v7.36h-2.5Z"/>
        <path d="M586.51,78.25c-1.23,0-2.29-.27-3.17-.8-.89-.53-1.57-1.3-2.05-2.29-.48-.99-.72-2.15-.72-3.47s.24-2.47.72-3.46c.48-.98,1.16-1.75,2.04-2.29.88-.54,1.92-.82,3.12-.82,1.13,0,2.13.26,3,.79.87.53,1.54,1.29,2.02,2.28s.72,2.19.72,3.59v.64h-9.01c.06,1.23.39,2.15.98,2.76.59.61,1.39.92,2.4.92.74,0,1.35-.17,1.84-.52.49-.35.82-.81,1.01-1.39l2.59.16c-.33,1.17-.98,2.1-1.95,2.82-.97.72-2.14,1.07-3.53,1.07ZM583.16,70.54h6.37c-.08-1.12-.4-1.94-.95-2.48-.56-.53-1.27-.8-2.14-.8s-1.63.28-2.21.84c-.57.56-.93,1.37-1.07,2.44Z"/>
        <path d="M594.69,77.97v-12.55h2.29l.09,3.35-.31-.16c.14-.82.41-1.48.8-1.98.39-.5.87-.88,1.44-1.12s1.18-.37,1.84-.37c.94,0,1.73.21,2.35.63.62.42,1.09.98,1.41,1.7.32.72.48,1.53.48,2.44v8.07h-2.5v-7.31c0-.74-.08-1.36-.24-1.86-.16-.5-.42-.89-.78-1.16s-.83-.4-1.41-.4c-.88,0-1.6.29-2.15.87-.55.58-.83,1.43-.83,2.55v7.31h-2.5Z"/>
        <path d="M607.1,67.47v-2.05h7.74v2.05h-7.74ZM612.51,77.97c-1.2,0-2.08-.27-2.64-.82s-.85-1.41-.85-2.57v-12.1h2.5v11.92c0,.58.12.98.38,1.2.25.22.64.33,1.15.33h1.79v2.05h-2.34Z"/>
        <path d="M620.98,73.04c0-1.18.18-2.1.53-2.77.35-.67.95-1.24,1.78-1.71.6-.35,1.06-.65,1.37-.92.32-.27.52-.55.63-.85.1-.3.15-.67.15-1.11,0-.74-.24-1.35-.73-1.83-.49-.48-1.17-.72-2.05-.72-1.04,0-1.84.27-2.41.81-.56.54-.9,1.33-1.01,2.37l-2.64-.14c.09-1.04.39-1.96.9-2.76.5-.8,1.19-1.43,2.06-1.89s1.91-.68,3.1-.68c1.1,0,2.06.21,2.87.62.81.42,1.44.99,1.88,1.71s.66,1.56.66,2.5c0,.68-.1,1.25-.31,1.73-.21.48-.52.92-.96,1.32s-1,.81-1.69,1.24c-.62.38-1.03.78-1.26,1.21s-.34,1.05-.34,1.85h-2.52ZM620.67,77.97v-2.97h3.04v2.97h-3.04Z"/>
      </g>
      <polygon points="336.08 121.51 350.73 168.62 365.38 121.51 336.08 121.51"/>
    </g>
  </g>
</svg>