<?xml version="1.0" encoding="UTF-8"?>
<svg id="_圖層_2" data-name="圖層 2" xmlns="http://www.w3.org/2000/svg" width="348.3" height="88.75" viewBox="0 0 348.3 88.75">
  <g id="_圖層_2-2" data-name="圖層 2">
    <g>
      <rect x="0" y="0" width="348.3" height="88.75" rx="44.38" ry="44.38"/>
      <g>
        <path d="M121.14,58.62v-28.49h6.74l11.32,19.66v-19.66h6.1v28.49h-6.82l-11.24-18.98v18.98h-6.1Z" fill="#fff"/>
        <path d="M152.44,58.62v-28.49h19.82v5.14h-13.72v6.54h13.24v5.06h-13.24v6.62h14.05v5.14h-20.15Z" fill="#fff"/>
        <path d="M176.92,58.62l9.67-14.29-9.59-14.21h7.06l6.22,9.59,6.06-9.59h7.1l-9.59,14.13,9.71,14.37h-7.1l-6.26-9.75-6.18,9.75h-7.1Z" fill="#fff"/>
        <path d="M214.84,58.62v-23.36h-8.51v-5.14h23.19v5.14h-8.55v23.36h-6.14Z" fill="#fff"/>
      </g>
    </g>
  </g>
</svg>