<?xml version="1.0" encoding="UTF-8"?>
<svg id="_圖層_2" data-name="圖層 2" xmlns="http://www.w3.org/2000/svg" width="670.28" height="166.4" viewBox="0 0 670.28 166.4">
  <g id="_圖層_2-2" data-name="圖層 2">
    <g>
      <g>
        <path d="M6.03,5.98c-.62-1.48-1.34-2.96-2.1-4.4L8.66.29c.96,2.11,1.67,3.97,2.15,5.69h4.93v4.5H0v-4.5h6.03ZM14.83,41.79H5.84v2.15H1.25v-16.93h13.58v14.77ZM14.3,13.25v4.21H1.73v-4.21h12.58ZM14.3,19.89v4.21H1.73v-4.21h12.58ZM10.29,37.59v-6.46h-4.45v6.46h4.45ZM18.94,44.76l-3.59-3.3c2.68-2.58,4.02-5.93,4.11-9.95v-10.43h21.47v19.03c0,2.87-1.72,4.3-5.07,4.3h-5.07l-1.19-4.3c1.82.1,3.44.19,4.92.19,1.05,0,1.63-.67,1.63-1.91v-1.2h-12.81c-.86,2.92-2.34,5.45-4.4,7.56ZM32.62.38v2.68h10.14v4.02h-10.14v2.01h8.56v3.92h-8.56v2.1h11.43v4.11h-27.97v-4.11h11.57v-2.1h-8.61v-3.92h8.61v-2.01h-10.28V3.06h10.28V.38h4.97ZM24.15,31.23c0,.77-.05,1.48-.14,2.25h12.15v-2.34h-12v.1ZM36.16,25.01h-12v2.39h12v-2.39Z"/>
        <path d="M48.88,44l-1.05-4.54c1.05.19,2.01.29,2.96.29.86,0,1.29-.67,1.29-1.91v-8.75c-1.15.48-2.25.91-3.3,1.29l-1.2-4.78c1.48-.38,2.96-.81,4.5-1.34v-10.81h-3.97v-4.64h3.97V.43h4.73v8.37h3.3v4.64h-3.3v8.85c1.24-.62,2.44-1.29,3.68-2.01v4.73c-1.24.67-2.44,1.34-3.68,1.96v12.05c0,3.3-1.48,4.97-4.4,4.97h-3.54ZM75.18,40.45c0,2.49-1.39,3.78-4.06,3.78h-2.39l-1.05-3.73c.81.1,1.58.19,2.3.19.86,0,1.34-.58,1.34-1.63v-1.63c-1.48.57-3.06,1.1-4.78,1.58l-.62-1.96c-.57,3.01-1.63,5.6-3.16,7.75l-3.11-2.82c1.96-2.68,2.96-6.03,3.01-10.14v-7.56h12.53v16.16ZM76.9,21.38l-3.06,2.1-.86-1.72c-3.06.67-6.74,1.15-10.95,1.48l-1.15-3.25c.76-.19,1.39-.53,1.86-.96,1.48-2.06,2.63-3.97,3.39-5.74l4.21,1.29c-1.05,1.96-2.25,3.59-3.49,4.92,1.43-.19,2.87-.48,4.4-.81-.38-.67-.81-1.29-1.2-1.91l2.87-1.86c1.72,2.49,3.06,4.64,3.97,6.46ZM90.05,1.86v11.24h-27.59V1.86h27.59ZM71.31,34v-6.07h-4.83v1.43c1.53.33,3.01.81,4.35,1.48l-1.15,2.87c-1.1-.53-2.2-.96-3.25-1.29-.05,1.05-.14,2.06-.24,3.01,1.87-.48,3.59-.95,5.12-1.43ZM70.45,5.69h-3.54v3.59h3.54v-3.59ZM78,5.69h-3.54v3.59h3.54v-3.59ZM90.25,20.18l-8.51.72v1.96c0,.72.38,1.1,1.2,1.1h8.13v4.16h-10.28c-2.25,0-3.35-1.15-3.35-3.39v-10.57h4.3v2.82l8.51-.72v3.92ZM81.83,44.19c-2.96,0-4.4-1.48-4.4-4.4v-10.14h4.3v2.39l8.42-.67v3.92l-8.42.67v2.91c0,.81.43,1.24,1.34,1.24h2.54c.57,0,1.01-.19,1.29-.53.33-.33.57-1.43.67-3.3l4.11,1.29c-.33,3.25-.91,5.16-1.72,5.74-.77.58-1.96.86-3.49.86h-4.64ZM85.56,5.69h-3.54v3.59h3.54v-3.59Z"/>
        <path d="M129.65,3.97h5.02v17.36h-14.54v16.07h11.91v-12.48h5.02v19.42h-5.02v-2.1h-28.98v2.1h-5.02v-19.42h5.02v12.48h11.91v-16.07h-14.54V3.97h5.02v12.58h9.52V.38h5.16v16.16h9.52V3.97Z"/>
        <path d="M187.85.14v4.45h-10.9v24.87h-4.97V.14h15.88Z"/>
        <path d="M203.64.48c-.53,3.06-1.05,5.88-1.53,8.51h7.84v2.73c-.29,7.46-1.72,13.92-4.26,19.41,2.53,2.01,4.64,3.78,6.26,5.4l-3.39,3.92c-1.48-1.53-3.25-3.16-5.26-4.88-2.29,3.64-5.12,6.74-8.56,9.42l-3.44-4.25c3.25-2.39,5.98-5.17,8.08-8.42-2.15-1.77-4.5-3.59-7.03-5.45,1.39-4.02,2.63-8.37,3.78-13.06h-4.4v-4.83h5.45c.58-2.92,1.1-5.93,1.58-8.99l4.88.48ZM205.07,13.82h-3.97c-1.05,4.59-2.15,8.42-3.3,11.53,1.38.95,2.68,1.86,3.87,2.77,1.86-4.21,3.01-8.99,3.39-14.3ZM221.09,19.94v-5.26c2.29-2.11,4.54-4.59,6.74-7.46h-15.59V2.34h21.33v4.88c-2.2,3.16-4.69,6.17-7.46,8.99v3.73h9.13v4.88h-9.13v13.72c0,3.73-1.43,5.6-4.21,5.6h-7.17l-1.29-4.73c1.91.05,4.06.1,6.41.1.81,0,1.24-.81,1.24-2.44v-12.24h-10.19v-4.88h10.19Z"/>
        <path d="M254.57,12.58c2.68-2.96,5.02-7.08,7.03-12.29l4.64,1.05c-.67,1.72-1.34,3.3-2.01,4.83h17.5v4.78h-19.99c-1.34,2.2-2.73,4.16-4.26,5.88l-2.92-3.49v26.44h-4.73v-2.49h-4.59v3.64h-4.88V3.83h14.2v8.75ZM249.84,32.61V8.51h-4.59v24.1h4.59ZM278,16.93v4.35c-4.11,3.87-7.17,6.98-9.23,9.28-2.06,2.25-3.44,3.92-4.16,5.02-.72,1.1-1.05,1.91-1.05,2.44,0,.91.53,1.39,1.67,1.39h9.66c.95,0,1.67-.38,2.15-1.15.48-.72.81-3.11,1.01-7.17l4.69,1.63c-.43,5.36-1.24,8.56-2.44,9.61-1.15,1.05-2.96,1.58-5.4,1.63h-10.85c-3.97,0-5.93-1.67-5.93-4.92,0-1.05.43-2.25,1.29-3.49.76-1.24,2.39-3.35,4.78-6.31,1.91-2.34,4.21-4.88,6.93-7.65h-12.19v-4.64h19.08Z"/>
        <path d="M311.96,2.01v4.69h-11.91c-1.91,3.87-3.64,6.89-5.16,8.99,3.44-.38,6.88-.81,10.33-1.39-.86-1.34-1.77-2.72-2.73-4.11l3.83-2.44c3.16,4.16,5.55,7.79,7.22,10.85l-4.16,2.87c-.57-1.15-1.2-2.29-1.86-3.44-5.98,1.05-12.48,1.91-19.46,2.63l-1.1-4.45c.86-.1,1.48-.29,1.96-.48,1.34-1.1,3.3-4.11,5.78-9.04h-6.88V2.01h24.15ZM312.15,40.17c-7.46,1.53-15.45,2.87-23.96,3.92l-1.2-4.78c3.68-.38,7.32-.81,10.85-1.34v-7.46h-8.65v-4.78h8.65v-4.83h5.02v4.83h7.89v4.78h-7.89v6.6c3.16-.57,6.22-1.24,9.28-1.91v4.97ZM319.94,4.88v29.22h-4.83V4.88h4.83ZM317.22,44.23l-1.1-4.83c2.3.19,4.45.29,6.51.29,1.1,0,1.67-.62,1.67-1.77V.57h5.07v38.64c0,3.35-1.67,5.02-5.02,5.02h-7.13Z"/>
        <path d="M347.64,27.21h-5.02v-10.85c-1.82,3.11-3.97,6.03-6.46,8.7l-1.82-4.73c3.35-2.87,6.07-6.17,8.08-9.95h-7.12v-4.59h7.31V1.01h5.02v4.78h5.64v4.59h-5.64v1.43c2.34,1.48,4.69,3.16,7.08,5.02l-2.82,4.21c-1.63-1.96-3.06-3.59-4.25-4.83v11ZM343.76,30.6c-1.15,4.59-2.73,8.61-4.73,12l-4.3-2.73c1.96-3.25,3.35-6.69,4.11-10.38l4.92,1.1ZM351.22,43.66c-3.63,0-5.4-1.87-5.4-5.5v-9.09h5.07v8.03c0,1.15.62,1.72,1.86,1.72h10c.67,0,1.15-.24,1.53-.72.38-.48.67-2.01.81-4.54l4.73,1.63c-.38,4.11-1.05,6.6-2.06,7.36-.91.72-2.3,1.1-4.16,1.1h-12.39ZM362.12,33.86l-3.97,2.77c-1.24-1.91-2.87-4.02-4.88-6.31l3.87-2.44c2.15,2.3,3.82,4.3,4.97,5.98ZM375.56,1.86v25.01h-19.85V1.86h19.85ZM370.73,9.04v-2.77h-10.14v2.77h10.14ZM370.73,15.73v-2.68h-10.14v2.68h10.14ZM370.73,19.75h-10.14v2.82h10.14v-2.82ZM379.15,38.4l-4.25,2.96c-1.72-3.25-4.07-6.84-6.98-10.85l4.07-2.54c3.11,3.97,5.5,7.46,7.17,10.43Z"/>
        <path d="M383.12,31.42c.81-.34,1.24-.86,1.24-1.53V4.64h4.88v25.01c1.82-.57,3.63-1.19,5.4-1.86V.62h4.92v39.12c4.4-2.15,7.99-4.92,10.76-8.32-2.2-3.44-4.02-7.08-5.35-11l4.07-2.29c1.15,3.16,2.53,6.07,4.25,8.8,2.3-4.21,3.59-9.18,3.92-14.87h-8.13c-1.63,4.02-3.64,7.41-6.03,10.19l-3.11-3.83c3.54-4.5,5.88-10.57,7.12-18.12l5.02.86c-.38,2.1-.86,4.11-1.34,5.98h14.82v4.92h-3.63c-.43,7.51-2.29,13.92-5.55,19.27,2.82,3.59,6.26,6.79,10.28,9.61l-3.44,4.06c-3.87-2.82-7.17-5.98-9.95-9.42-3.06,3.59-6.88,6.6-11.43,9.04l-2.3-3.73v3.44h-4.92v-11.76c-3.25,1.15-6.6,2.15-10.09,3.06l-1.43-4.21Z"/>
        <path d="M436.25,10.47v7.22h2.96v-6.31h21.61v-.96h-2.25v-2.82h-5.26V3.16h5.26V.48h4.73v2.68h9.85v4.45h-9.85v1.72h1.82v2.06h2.54c-.43-1.01-.86-1.96-1.34-2.87l4.16-.67c.38,1.05.81,2.25,1.19,3.54h2.01v4.16h-8.47c.1,5.4.38,9.52.86,12.34.91-2.92,1.58-6.22,1.96-9.95l4.16.91c-.77,6.7-2.25,12.15-4.45,16.45l.43,1.2c.67,1.63,1.2,2.44,1.48,2.44.38,0,.81-1.82,1.29-5.45l3.59,1.96c-.95,6.03-2.29,9.09-4.11,9.09-1.34,0-2.77-1.15-4.25-3.44-.38-.57-.67-1.15-.96-1.77-1.77,2.2-3.78,3.92-5.98,5.21l-1.96-3.11h-11.86v-23.96h14.01v3.87h-3.3v2.96h3.44v9.9h-3.44v3.3h3.3v1.48c1.53-1.34,2.82-2.96,3.92-4.78-.38-1.19-.67-2.49-.96-3.92-.86-3.78-1.34-8.7-1.48-14.73h-17.26v13.68c-.1,6.46-1.15,11.62-3.16,15.54l-3.59-3.25c1.43-2.87,2.2-6.79,2.29-11.81h-2.54c-.29,6.22-1.39,10.52-3.35,13.01l-3.39-2.63c1.72-1.91,2.68-5.4,2.92-10.38h-2.44v-4.11h8.8v-3.78h-7.17v-11.33h4.21ZM441.37,3.16V.48h4.74v2.68h5.21v4.45h-5.21v2.82h-4.74v-2.82h-9.85V3.16h9.85ZM449.4,21.33v2.96h2.87v-2.96h-2.87ZM449.4,30.65h6.46v-2.82h-6.46v2.82ZM449.4,37.49h2.87v-3.3h-2.87v3.3Z"/>
        <path d="M493.55,15.49v29.31h-15.88v-4.45h10.9V15.49h4.97Z"/>
        <path d="M544,41.7h-4.78v-2.39h-7.08v3.78h-4.78V8.18h4.59c.86-2.53,1.48-5.16,1.86-7.89l5.02.67c-.53,2.58-1.24,5.02-2.11,7.22h7.27v33.52ZM539.22,21.23v-8.37h-7.08v8.37h7.08ZM539.22,34.72v-9.04h-7.08v9.04h7.08ZM567.91,39.17c-.48,3.35-2.77,5.02-6.89,5.02-.95,0-2.68-.1-5.16-.29l-1.2-4.54c2.1.14,3.97.24,5.55.24,1.72,0,2.72-.96,3.01-2.82.29-2.29.43-10.19.53-23.72h-11.57c-1.29,2.87-2.82,5.45-4.59,7.75l-3.01-3.97c3.16-4.5,5.26-10.04,6.41-16.59l4.92.62c-.48,2.58-1.1,5.02-1.82,7.31h14.54c0,16.74-.24,27.07-.72,30.99ZM559.78,30.03l-4.02,2.77c-1.77-3.16-4.16-6.65-7.13-10.47l4.07-2.54c3.06,3.87,5.4,7.27,7.08,10.23Z"/>
        <path d="M593.26,4.07V.53h5.07v3.54h16.69v4.59h-16.69v3.11h13.92v4.59h-13.92v3.2h17.79v4.54h-21.71c-1.58,2.2-3.54,4.21-5.83,6.03v8.65c3.2-1.05,6.41-2.2,9.56-3.54l1.01,4.59c-4.92,2.01-9.9,3.63-14.97,4.92l-1.63-4.25c.76-.43,1.15-1.05,1.15-1.82v-5.21c-2.25,1.34-4.73,2.54-7.46,3.68l-2.68-4.35c6.89-2.3,12.1-5.17,15.54-8.7h-13.63v-4.54h17.79v-3.2h-13.92v-4.59h13.92v-3.11h-16.69v-4.59h16.69ZM614.63,28.84c-2.34,2.34-4.97,4.16-7.84,5.45,3.01,2.68,6.74,4.74,11.24,6.07l-2.96,4.4c-8.42-3.01-14.44-8.56-18.08-16.64l3.78-2.15c.86,1.91,1.86,3.68,3.11,5.21,2.54-1.24,4.97-3.16,7.32-5.74l3.44,3.39Z"/>
        <path d="M626.26,10.14c-.1,4.78-.62,9.28-1.53,13.58l-3.73-1.05c.91-4.07,1.43-8.32,1.53-12.82l3.73.29ZM653.85.43v2.68h10.52v4.02h-10.52v2.1h8.89v3.92h-8.89v2.01h11.91v4.11h-29.03v-1.63l-2.54.62c-.62-2.49-1.34-4.88-2.15-7.13v33.33h-4.88V.57h4.88v8.99l2.92-.95c.81,1.96,1.58,4.16,2.29,6.55h11.62v-2.01h-9.04v-3.92h9.04v-2.1h-10.66V3.11h10.66V.43h4.97ZM640.41,44.71l-3.64-3.25c2.3-2.68,3.44-6.03,3.54-10.09v-10.33h22.19v19.32c0,2.77-1.53,4.16-4.54,4.16h-5.98l-1.15-4.3c2.11.1,4.02.19,5.79.19.72,0,1.1-.57,1.1-1.72v-1.43h-13.53c-.76,2.87-2.06,5.36-3.78,7.46ZM644.81,33.47h12.91v-2.3h-12.77c0,.77-.05,1.53-.14,2.3ZM657.72,24.96h-12.77v2.49h12.77v-2.49Z"/>
        <path d="M0,76.94v-16.53h6.17c1.89,0,3.37.45,4.42,1.36,1.06.91,1.58,2.17,1.58,3.78,0,1.07-.24,2-.72,2.78-.48.78-1.17,1.38-2.06,1.79-.89.41-1.97.62-3.22.62h-3.65v6.19H0ZM2.51,68.47h3.59c1.13,0,1.99-.25,2.58-.73.59-.49.88-1.21.88-2.18s-.29-1.66-.88-2.13c-.59-.47-1.45-.71-2.58-.71h-3.59v5.75Z"/>
        <path d="M18.42,77.22c-1.24,0-2.23-.42-2.97-1.25-.74-.83-1.11-1.98-1.11-3.46v-7.96h2.47v7.34c0,1.12.2,1.94.58,2.47.39.53.98.79,1.77.79.9,0,1.6-.29,2.11-.87s.76-1.4.76-2.46v-7.26h2.47v12.39h-2.31l-.05-3.24.35.14c-.22,1.09-.68,1.92-1.37,2.5s-1.6.87-2.7.87Z"/>
        <path d="M26.75,66.58v-2.03h7.64v2.03h-7.64ZM32.08,76.94c-1.18,0-2.05-.27-2.61-.81s-.84-1.39-.84-2.54v-11.94h2.47v11.76c0,.57.12.97.37,1.19.25.22.63.33,1.14.33h1.77v2.03h-2.31Z"/>
        <path d="M47.64,77.22c-1.18,0-2.21-.26-3.1-.79s-1.57-1.28-2.05-2.26c-.48-.98-.72-2.12-.72-3.42s.24-2.46.72-3.42c.48-.96,1.16-1.71,2.05-2.25.88-.54,1.92-.8,3.1-.8s2.21.27,3.09.8c.89.53,1.57,1.28,2.05,2.25.48.96.72,2.1.72,3.42s-.24,2.44-.72,3.42c-.48.98-1.16,1.73-2.05,2.26-.88.53-1.92.79-3.09.79ZM47.64,75.08c1.06,0,1.87-.38,2.44-1.15.57-.77.86-1.83.86-3.18s-.29-2.41-.86-3.18c-.58-.77-1.39-1.15-2.44-1.15s-1.85.38-2.44,1.15-.87,1.83-.87,3.18.29,2.41.87,3.18,1.39,1.15,2.44,1.15Z"/>
        <path d="M56,76.94v-12.39h2.26l.09,3.31-.3-.16c.14-.81.4-1.46.79-1.96.39-.5.86-.87,1.42-1.11s1.16-.36,1.82-.36c.93,0,1.7.21,2.32.62.61.41,1.08.97,1.4,1.68.32.71.48,1.51.48,2.41v7.96h-2.47v-7.22c0-.73-.08-1.34-.23-1.84-.15-.5-.41-.88-.77-1.14s-.82-.4-1.4-.4c-.87,0-1.58.29-2.12.86-.54.57-.82,1.41-.82,2.51v7.22h-2.47Z"/>
        <path d="M76.11,80.44v-2.03h1.51c.42,0,.73-.06.93-.19.2-.13.36-.33.47-.63l.4-1.03h-.77l-4.47-12.01h2.61l3.4,9.73,3.24-9.73h2.63l-4.94,13.83c-.25.71-.62,1.23-1.11,1.56s-1.17.49-2.04.49h-1.86Z"/>
        <path d="M92.78,77.22c-1.18,0-2.21-.26-3.1-.79s-1.57-1.28-2.05-2.26c-.48-.98-.72-2.12-.72-3.42s.24-2.46.72-3.42c.48-.96,1.16-1.71,2.05-2.25.88-.54,1.92-.8,3.1-.8s2.21.27,3.09.8c.89.53,1.57,1.28,2.05,2.25.48.96.72,2.1.72,3.42s-.24,2.44-.72,3.42c-.48.98-1.16,1.73-2.05,2.26-.88.53-1.92.79-3.09.79ZM92.78,75.08c1.06,0,1.87-.38,2.44-1.15.57-.77.86-1.83.86-3.18s-.29-2.41-.86-3.18c-.58-.77-1.39-1.15-2.44-1.15s-1.85.38-2.44,1.15-.87,1.83-.87,3.18.29,2.41.87,3.18,1.39,1.15,2.44,1.15Z"/>
        <path d="M105.22,77.22c-1.24,0-2.23-.42-2.97-1.25-.74-.83-1.11-1.98-1.11-3.46v-7.96h2.47v7.34c0,1.12.2,1.94.58,2.47.39.53.98.79,1.77.79.9,0,1.6-.29,2.11-.87s.76-1.4.76-2.46v-7.26h2.47v12.39h-2.31l-.05-3.24.35.14c-.22,1.09-.68,1.92-1.37,2.5s-1.6.87-2.7.87Z"/>
        <path d="M114.79,76.94v-12.39h2.26l.09,3.28-.21-.07c.17-1.12.52-1.93,1.04-2.44.52-.51,1.22-.77,2.11-.77h1.19v2.21h-1.19c-.62,0-1.14.1-1.56.3-.42.2-.73.51-.94.93s-.32.96-.32,1.63v7.31h-2.47Z"/>
        <path d="M131.78,60.04l-1.16,3.65h1.31v2.94h-3.03v-2.59l1.47-4h1.42ZM136.02,60.04l-1.16,3.65h1.28v2.94h-3v-2.59l1.47-4h1.42Z"/>
        <path d="M145.12,77.32c-1.32,0-2.46-.24-3.43-.72-.97-.48-1.73-1.15-2.29-2-.56-.85-.88-1.85-.98-2.98l2.59-.16c.11.78.33,1.43.68,1.97.34.53.8.94,1.38,1.21.58.27,1.28.41,2.11.41.71,0,1.32-.09,1.83-.27.5-.18.89-.45,1.15-.8s.4-.79.4-1.3c0-.47-.11-.88-.34-1.25s-.65-.7-1.28-1c-.63-.3-1.55-.6-2.76-.9-1.32-.33-2.37-.68-3.17-1.07-.79-.39-1.36-.87-1.71-1.46s-.52-1.3-.52-2.15c0-.95.23-1.78.69-2.5.46-.72,1.11-1.28,1.97-1.69.85-.4,1.88-.6,3.07-.6,1.26,0,2.33.23,3.22.7.89.47,1.6,1.1,2.12,1.91.52.81.84,1.73.97,2.77l-2.59.14c-.08-.64-.27-1.2-.58-1.69-.31-.49-.73-.87-1.26-1.14-.53-.27-1.17-.41-1.93-.41-.96,0-1.72.22-2.27.66-.55.44-.83,1.03-.83,1.76,0,.47.11.86.34,1.18.23.32.63.59,1.21.83.58.23,1.41.48,2.48.75,1.43.33,2.56.73,3.41,1.2s1.45,1.03,1.8,1.66.54,1.36.54,2.16c0,.98-.25,1.83-.76,2.55-.5.72-1.21,1.28-2.11,1.66-.9.39-1.95.58-3.14.58Z"/>
        <path d="M159.56,77.22c-1.18,0-2.21-.26-3.1-.79s-1.57-1.28-2.05-2.26c-.48-.98-.72-2.12-.72-3.42s.24-2.46.72-3.42c.48-.96,1.16-1.71,2.05-2.25.88-.54,1.92-.8,3.1-.8s2.21.27,3.09.8c.89.53,1.57,1.28,2.05,2.25.48.96.72,2.1.72,3.42s-.24,2.44-.72,3.42c-.48.98-1.16,1.73-2.05,2.26-.88.53-1.92.79-3.09.79ZM159.56,75.08c1.06,0,1.87-.38,2.44-1.15.57-.77.86-1.83.86-3.18s-.29-2.41-.86-3.18c-.58-.77-1.39-1.15-2.44-1.15s-1.85.38-2.44,1.15-.87,1.83-.87,3.18.29,2.41.87,3.18,1.39,1.15,2.44,1.15Z"/>
        <path d="M178.21,77.22c-1.06,0-1.97-.26-2.76-.79s-1.38-1.28-1.79-2.25c-.41-.97-.62-2.12-.62-3.44s.21-2.46.63-3.43c.42-.97,1.02-1.72,1.79-2.25s1.69-.79,2.75-.79c.85,0,1.61.18,2.28.54.67.36,1.17.85,1.51,1.49v-5.89h2.47v16.53h-2.31l-.07-1.86c-.34.67-.86,1.19-1.55,1.57-.69.38-1.47.57-2.34.57ZM178.86,75.08c.67,0,1.23-.17,1.7-.51.46-.34.82-.84,1.07-1.49.25-.65.37-1.43.37-2.33s-.12-1.72-.37-2.36c-.25-.64-.61-1.13-1.07-1.47-.47-.33-1.03-.5-1.7-.5-.99,0-1.78.38-2.37,1.15-.59.77-.89,1.83-.89,3.18s.3,2.39.89,3.17c.59.78,1.38,1.16,2.37,1.16Z"/>
        <path d="M192.83,77.22c-1.21,0-2.26-.26-3.13-.79-.88-.53-1.55-1.28-2.03-2.26-.47-.98-.71-2.12-.71-3.42s.24-2.44.71-3.41c.48-.97,1.15-1.72,2.01-2.26.87-.54,1.89-.8,3.07-.8,1.12,0,2.1.26,2.96.78.85.52,1.52,1.27,1.99,2.25s.71,2.16.71,3.54v.63h-8.89c.06,1.21.38,2.12.97,2.72.58.6,1.37.91,2.36.91.73,0,1.33-.17,1.82-.51.48-.34.81-.8,1-1.37l2.56.16c-.33,1.15-.97,2.08-1.92,2.78-.95.71-2.11,1.06-3.48,1.06ZM189.52,69.61h6.29c-.08-1.1-.39-1.92-.94-2.44-.55-.53-1.26-.79-2.11-.79s-1.61.28-2.18.83c-.57.55-.92,1.35-1.06,2.41Z"/>
        <path d="M203.73,76.94c-.81,0-1.46-.21-1.96-.63-.5-.42-.75-1.09-.75-2v-13.9h2.47v13.67c0,.28.08.49.22.63s.36.21.64.21h.98v2.03h-1.61Z"/>
        <path d="M207.36,62.76v-2.47h2.56v2.47h-2.56ZM207.41,76.94v-12.39h2.47v12.39h-2.47Z"/>
        <path d="M218.23,77.22c-1.18,0-2.21-.26-3.1-.79s-1.57-1.28-2.05-2.26c-.48-.98-.72-2.12-.72-3.42s.24-2.44.72-3.41c.48-.97,1.16-1.72,2.05-2.26.88-.54,1.92-.8,3.1-.8,1.01,0,1.9.18,2.69.53.78.35,1.42.86,1.91,1.53.49.67.8,1.48.94,2.44l-2.59.14c-.13-.81-.45-1.42-.98-1.85s-1.19-.64-1.98-.64c-1.04,0-1.85.38-2.44,1.15s-.87,1.83-.87,3.18.29,2.41.87,3.18,1.39,1.15,2.44,1.15c.79,0,1.45-.22,1.98-.66s.85-1.11.98-2.01l2.59.14c-.14.95-.45,1.77-.94,2.47s-1.13,1.24-1.91,1.63c-.78.39-1.68.58-2.69.58Z"/>
        <path d="M225.96,62.76v-2.47h2.56v2.47h-2.56ZM226.01,76.94v-12.39h2.47v12.39h-2.47Z"/>
        <path d="M236.84,77.22c-1.18,0-2.21-.26-3.1-.79s-1.57-1.28-2.05-2.26c-.48-.98-.72-2.12-.72-3.42s.24-2.46.72-3.42c.48-.96,1.16-1.71,2.05-2.25.88-.54,1.92-.8,3.1-.8s2.21.27,3.09.8c.89.53,1.57,1.28,2.05,2.25.48.96.72,2.1.72,3.42s-.24,2.44-.72,3.42c-.48.98-1.16,1.73-2.05,2.26-.88.53-1.92.79-3.09.79ZM236.84,75.08c1.06,0,1.87-.38,2.44-1.15.57-.77.86-1.83.86-3.18s-.29-2.41-.86-3.18c-.58-.77-1.39-1.15-2.44-1.15s-1.85.38-2.44,1.15-.87,1.83-.87,3.18.29,2.41.87,3.18,1.39,1.15,2.44,1.15Z"/>
        <path d="M249.27,77.22c-1.24,0-2.23-.42-2.97-1.25-.74-.83-1.11-1.98-1.11-3.46v-7.96h2.47v7.34c0,1.12.2,1.94.58,2.47.39.53.98.79,1.77.79.9,0,1.6-.29,2.11-.87s.76-1.4.76-2.46v-7.26h2.47v12.39h-2.31l-.05-3.24.35.14c-.22,1.09-.68,1.92-1.37,2.5s-1.6.87-2.7.87Z"/>
        <path d="M263.38,77.22c-1.16,0-2.15-.18-2.94-.54-.8-.36-1.42-.85-1.85-1.48-.43-.63-.68-1.35-.75-2.18l2.54-.12c.13.68.42,1.23.88,1.63.47.4,1.17.61,2.12.61.78,0,1.39-.13,1.84-.37s.68-.65.68-1.19c0-.29-.07-.55-.22-.75-.15-.21-.43-.39-.85-.54s-1.04-.29-1.86-.43c-1.23-.23-2.19-.5-2.89-.82-.7-.31-1.2-.7-1.49-1.19-.3-.48-.44-1.06-.44-1.75,0-1.13.42-2.06,1.27-2.77.85-.71,2.07-1.07,3.67-1.07,1.07,0,1.97.18,2.7.55.73.37,1.3.85,1.71,1.47.41.61.67,1.3.78,2.06l-2.54.14c-.08-.43-.23-.81-.45-1.13s-.53-.57-.9-.74c-.37-.18-.82-.27-1.33-.27-.79,0-1.38.15-1.77.47-.39.31-.58.71-.58,1.21,0,.37.09.68.27.91.18.23.47.43.87.57.4.15.94.28,1.61.38,1.29.22,2.3.49,3.03.8s1.24.71,1.54,1.18c.3.46.44,1.03.44,1.7,0,.78-.22,1.44-.65,1.98s-1.03.96-1.79,1.24c-.76.29-1.64.43-2.63.43Z"/>
        <path d="M277.09,76.94v-16.53h2.51v16.53h-2.51Z"/>
        <path d="M291.55,76.94l-3.77-12.39h2.59l2.65,9.69,2.72-9.69h2.33l2.72,9.69,2.68-9.69h2.59l-3.77,12.39h-2.77l-2.61-8.85-2.61,8.85h-2.75Z"/>
        <path d="M311.27,77.22c-1.29,0-2.32-.3-3.09-.88-.77-.59-1.15-1.42-1.15-2.49s.32-1.91.97-2.5c.64-.6,1.64-1.03,2.99-1.29l4.26-.81c0-.96-.23-1.68-.68-2.16-.45-.47-1.12-.71-2-.71-.79,0-1.41.18-1.86.52-.45.35-.76.87-.93,1.55l-2.54-.16c.23-1.24.81-2.22,1.73-2.94.92-.71,2.12-1.07,3.6-1.07,1.68,0,2.95.45,3.83,1.34.88.89,1.31,2.15,1.31,3.76v4.82c0,.29.05.5.15.62.1.12.27.18.5.18h.44v1.96c-.08.02-.2.03-.37.05-.17.02-.35.03-.54.03-.53,0-.98-.09-1.36-.26s-.66-.45-.85-.85-.28-.93-.28-1.59l.26.12c-.13.54-.39,1.03-.8,1.44s-.93.75-1.56.99c-.63.24-1.31.36-2.04.36ZM311.67,75.27c.75,0,1.38-.14,1.91-.43.53-.29.94-.69,1.23-1.2s.44-1.09.44-1.75v-.79l-3.63.7c-.74.14-1.27.36-1.57.66s-.45.69-.45,1.15c0,.53.18.93.55,1.22.36.29.87.43,1.53.43Z"/>
        <path d="M320.86,76.94v-12.39h2.26l.09,3.31-.3-.16c.14-.81.4-1.46.79-1.96.39-.5.86-.87,1.42-1.11s1.16-.36,1.82-.36c.93,0,1.7.21,2.32.62.61.41,1.08.97,1.4,1.68.32.71.48,1.51.48,2.41v7.96h-2.47v-7.22c0-.73-.08-1.34-.23-1.84-.15-.5-.41-.88-.77-1.14s-.82-.4-1.4-.4c-.87,0-1.58.29-2.12.86-.54.57-.82,1.41-.82,2.51v7.22h-2.47Z"/>
        <path d="M333.11,66.58v-2.03h7.64v2.03h-7.64ZM338.44,76.94c-1.18,0-2.05-.27-2.61-.81s-.84-1.39-.84-2.54v-11.94h2.47v11.76c0,.57.12.97.37,1.19.25.22.63.33,1.14.33h1.77v2.03h-2.31Z"/>
        <path d="M348.32,66.58v-2.03h7.64v2.03h-7.64ZM353.65,76.94c-1.18,0-2.05-.27-2.61-.81s-.84-1.39-.84-2.54v-11.94h2.47v11.76c0,.57.12.97.37,1.19.25.22.63.33,1.14.33h1.77v2.03h-2.31Z"/>
        <path d="M363.17,77.22c-1.18,0-2.21-.26-3.1-.79s-1.57-1.28-2.05-2.26c-.48-.98-.72-2.12-.72-3.42s.24-2.46.72-3.42c.48-.96,1.16-1.71,2.05-2.25.88-.54,1.92-.8,3.1-.8s2.21.27,3.09.8c.89.53,1.57,1.28,2.05,2.25.48.96.72,2.1.72,3.42s-.24,2.44-.72,3.42c-.48.98-1.16,1.73-2.05,2.26-.88.53-1.92.79-3.09.79ZM363.17,75.08c1.06,0,1.87-.38,2.44-1.15.57-.77.86-1.83.86-3.18s-.29-2.41-.86-3.18c-.58-.77-1.39-1.15-2.44-1.15s-1.85.38-2.44,1.15-.87,1.83-.87,3.18.29,2.41.87,3.18,1.39,1.15,2.44,1.15Z"/>
        <path d="M377.42,76.94v-16.53h2.47v10.27l5.57-6.12h3.12l-4.84,5.22,5.03,7.17h-2.84l-3.84-5.63-2.19,2.33v3.31h-2.47Z"/>
        <path d="M395.53,77.22c-1.21,0-2.26-.26-3.13-.79-.88-.53-1.55-1.28-2.03-2.26-.47-.98-.71-2.12-.71-3.42s.24-2.44.71-3.41c.48-.97,1.15-1.72,2.01-2.26.87-.54,1.89-.8,3.07-.8,1.12,0,2.1.26,2.96.78.85.52,1.52,1.27,1.99,2.25s.71,2.16.71,3.54v.63h-8.89c.06,1.21.38,2.12.97,2.72.58.6,1.37.91,2.36.91.73,0,1.33-.17,1.82-.51.48-.34.81-.8,1-1.37l2.56.16c-.33,1.15-.97,2.08-1.92,2.78-.95.71-2.11,1.06-3.48,1.06ZM392.23,69.61h6.29c-.08-1.1-.39-1.92-.94-2.44-.55-.53-1.26-.79-2.11-.79s-1.61.28-2.18.83c-.57.55-.92,1.35-1.06,2.41Z"/>
        <path d="M408.71,77.22c-1.21,0-2.26-.26-3.13-.79-.88-.53-1.55-1.28-2.03-2.26-.47-.98-.71-2.12-.71-3.42s.24-2.44.71-3.41c.48-.97,1.15-1.72,2.01-2.26.87-.54,1.89-.8,3.07-.8,1.12,0,2.1.26,2.96.78.85.52,1.52,1.27,1.99,2.25s.71,2.16.71,3.54v.63h-8.89c.06,1.21.38,2.12.97,2.72.58.6,1.37.91,2.36.91.73,0,1.33-.17,1.82-.51.48-.34.81-.8,1-1.37l2.56.16c-.33,1.15-.97,2.08-1.92,2.78-.95.71-2.11,1.06-3.48,1.06ZM405.41,69.61h6.29c-.08-1.1-.39-1.92-.94-2.44-.55-.53-1.26-.79-2.11-.79s-1.61.28-2.18.83c-.57.55-.92,1.35-1.06,2.41Z"/>
        <path d="M416.79,80.44v-15.88h2.33l.07,2.66-.28-.14c.31-.91.82-1.61,1.54-2.08s1.54-.71,2.47-.71c1.21,0,2.21.3,2.99.9.78.6,1.37,1.38,1.75,2.36s.57,2.05.57,3.21-.19,2.24-.57,3.21-.96,1.77-1.75,2.36-1.78.9-2.99.9c-.62,0-1.2-.11-1.75-.33-.54-.22-1.01-.53-1.38-.92-.38-.4-.65-.86-.8-1.41l.28-.28v6.15h-2.47ZM422.47,75.08c.99,0,1.77-.38,2.34-1.14.57-.76.85-1.82.85-3.19s-.28-2.43-.85-3.19c-.57-.76-1.35-1.14-2.34-1.14-.65,0-1.22.16-1.7.48-.48.32-.85.8-1.12,1.46-.27.65-.4,1.45-.4,2.4s.13,1.75.38,2.4c.26.65.63,1.14,1.12,1.46s1.06.48,1.71.48Z"/>
        <path d="M436.56,62.76v-2.47h2.56v2.47h-2.56ZM436.61,76.94v-12.39h2.47v12.39h-2.47Z"/>
        <path d="M441.05,66.58v-2.03h7.64v2.03h-7.64ZM446.39,76.94c-1.18,0-2.05-.27-2.61-.81s-.84-1.39-.84-2.54v-11.94h2.47v11.76c0,.57.12.97.37,1.19.25.22.63.33,1.14.33h1.77v2.03h-2.31Z"/>
        <path d="M456.37,66.72v-2h7.29v2h-7.29ZM458.1,76.94v-13.18c0-1.02.29-1.84.86-2.44.57-.6,1.47-.91,2.7-.91h2.19v2.02h-1.86c-.48,0-.84.13-1.07.38-.23.26-.35.62-.35,1.08v13.04h-2.47Z"/>
        <path d="M470.51,77.22c-1.18,0-2.21-.26-3.1-.79s-1.57-1.28-2.05-2.26c-.48-.98-.72-2.12-.72-3.42s.24-2.46.72-3.42c.48-.96,1.16-1.71,2.05-2.25.88-.54,1.92-.8,3.1-.8s2.21.27,3.09.8c.89.53,1.57,1.28,2.05,2.25.48.96.72,2.1.72,3.42s-.24,2.44-.72,3.42c-.48.98-1.16,1.73-2.05,2.26-.88.53-1.92.79-3.09.79ZM470.51,75.08c1.06,0,1.87-.38,2.44-1.15.57-.77.86-1.83.86-3.18s-.29-2.41-.86-3.18c-.58-.77-1.39-1.15-2.44-1.15s-1.85.38-2.44,1.15-.87,1.83-.87,3.18.29,2.41.87,3.18,1.39,1.15,2.44,1.15Z"/>
        <path d="M478.86,76.94v-12.39h2.26l.09,3.28-.21-.07c.17-1.12.52-1.93,1.04-2.44.52-.51,1.22-.77,2.11-.77h1.19v2.21h-1.19c-.62,0-1.14.1-1.56.3-.42.2-.73.51-.94.93s-.32.96-.32,1.63v7.31h-2.47Z"/>
        <path d="M492.21,77.22c-1.21,0-2.26-.26-3.13-.79-.88-.53-1.55-1.28-2.03-2.26-.47-.98-.71-2.12-.71-3.42s.24-2.44.71-3.41c.48-.97,1.15-1.72,2.01-2.26.87-.54,1.89-.8,3.07-.8,1.12,0,2.1.26,2.96.78.85.52,1.52,1.27,1.99,2.25s.71,2.16.71,3.54v.63h-8.89c.06,1.21.38,2.12.97,2.72.58.6,1.37.91,2.36.91.73,0,1.33-.17,1.82-.51.48-.34.81-.8,1-1.37l2.56.16c-.33,1.15-.97,2.08-1.92,2.78-.95.71-2.11,1.06-3.48,1.06ZM488.9,69.61h6.29c-.08-1.1-.39-1.92-.94-2.44-.55-.53-1.26-.79-2.11-.79s-1.61.28-2.18.83c-.57.55-.92,1.35-1.06,2.41Z"/>
        <path d="M503.22,76.94l-4.52-12.39h2.63l3.38,9.87,3.38-9.87h2.65l-4.54,12.39h-2.98Z"/>
        <path d="M517.47,77.22c-1.21,0-2.26-.26-3.13-.79-.88-.53-1.55-1.28-2.03-2.26-.47-.98-.71-2.12-.71-3.42s.24-2.44.71-3.41c.48-.97,1.15-1.72,2.01-2.26.87-.54,1.89-.8,3.07-.8,1.12,0,2.1.26,2.96.78.85.52,1.52,1.27,1.99,2.25s.71,2.16.71,3.54v.63h-8.89c.06,1.21.38,2.12.97,2.72.58.6,1.37.91,2.36.91.73,0,1.33-.17,1.82-.51.48-.34.81-.8,1-1.37l2.56.16c-.33,1.15-.97,2.08-1.92,2.78-.95.71-2.11,1.06-3.48,1.06ZM514.16,69.61h6.29c-.08-1.1-.39-1.92-.94-2.44-.55-.53-1.26-.79-2.11-.79s-1.61.28-2.18.83c-.57.55-.92,1.35-1.06,2.41Z"/>
        <path d="M525.55,76.94v-12.39h2.26l.09,3.28-.21-.07c.17-1.12.52-1.93,1.04-2.44.52-.51,1.22-.77,2.11-.77h1.19v2.21h-1.19c-.62,0-1.14.1-1.56.3-.42.2-.73.51-.94.93s-.32.96-.32,1.63v7.31h-2.47Z"/>
        <path d="M534.12,67l1.16-3.66h-1.28v-2.93h3v2.58l-1.47,4.01h-1.42ZM538.35,67l1.16-3.66h-1.28v-2.93h3v2.58l-1.47,4.01h-1.42Z"/>
        <path d="M554.77,77.22c-1.21,0-2.26-.26-3.13-.79-.88-.53-1.55-1.28-2.03-2.26-.47-.98-.71-2.12-.71-3.42s.24-2.44.71-3.41c.48-.97,1.15-1.72,2.01-2.26.87-.54,1.89-.8,3.07-.8,1.12,0,2.1.26,2.96.78.85.52,1.52,1.27,1.99,2.25s.71,2.16.71,3.54v.63h-8.89c.06,1.21.38,2.12.97,2.72.58.6,1.37.91,2.36.91.73,0,1.33-.17,1.82-.51.48-.34.81-.8,1-1.37l2.56.16c-.33,1.15-.97,2.08-1.92,2.78-.95.71-2.11,1.06-3.48,1.06ZM551.46,69.61h6.29c-.08-1.1-.39-1.92-.94-2.44-.55-.53-1.26-.79-2.11-.79s-1.61.28-2.18.83c-.57.55-.92,1.35-1.06,2.41Z"/>
        <path d="M561.26,76.94l4.5-6.33-4.31-6.06h2.75l3.05,4.45,2.96-4.45h2.82l-4.26,6.1,4.45,6.29h-2.75l-3.19-4.73-3.21,4.73h-2.79Z"/>
        <path d="M575.07,80.44v-15.88h2.33l.07,2.66-.28-.14c.31-.91.82-1.61,1.54-2.08s1.54-.71,2.47-.71c1.21,0,2.21.3,2.99.9.78.6,1.37,1.38,1.75,2.36s.57,2.05.57,3.21-.19,2.24-.57,3.21-.96,1.77-1.75,2.36-1.78.9-2.99.9c-.62,0-1.2-.11-1.75-.33-.54-.22-1.01-.53-1.38-.92-.38-.4-.65-.86-.8-1.41l.28-.28v6.15h-2.47ZM580.75,75.08c.99,0,1.77-.38,2.34-1.14.57-.76.85-1.82.85-3.19s-.28-2.43-.85-3.19c-.57-.76-1.35-1.14-2.34-1.14-.65,0-1.22.16-1.7.48-.48.32-.85.8-1.12,1.46-.27.65-.4,1.45-.4,2.4s.13,1.75.38,2.4c.26.65.63,1.14,1.12,1.46s1.06.48,1.71.48Z"/>
        <path d="M588.99,76.94v-12.39h2.26l.09,3.28-.21-.07c.17-1.12.52-1.93,1.04-2.44.52-.51,1.22-.77,2.11-.77h1.19v2.21h-1.19c-.62,0-1.14.1-1.56.3-.42.2-.73.51-.94.93s-.32.96-.32,1.63v7.31h-2.47Z"/>
        <path d="M602.34,77.22c-1.21,0-2.26-.26-3.13-.79-.88-.53-1.55-1.28-2.03-2.26-.47-.98-.71-2.12-.71-3.42s.24-2.44.71-3.41c.48-.97,1.15-1.72,2.01-2.26.87-.54,1.89-.8,3.07-.8,1.12,0,2.1.26,2.96.78.85.52,1.52,1.27,1.99,2.25s.71,2.16.71,3.54v.63h-8.89c.06,1.21.38,2.12.97,2.72.58.6,1.37.91,2.36.91.73,0,1.33-.17,1.82-.51.48-.34.81-.8,1-1.37l2.56.16c-.33,1.15-.97,2.08-1.92,2.78-.95.71-2.11,1.06-3.48,1.06ZM599.03,69.61h6.29c-.08-1.1-.39-1.92-.94-2.44-.55-.53-1.26-.79-2.11-.79s-1.61.28-2.18.83c-.57.55-.92,1.35-1.06,2.41Z"/>
        <path d="M615.19,77.22c-1.16,0-2.15-.18-2.94-.54-.8-.36-1.42-.85-1.85-1.48-.43-.63-.68-1.35-.75-2.18l2.54-.12c.13.68.42,1.23.88,1.63.47.4,1.17.61,2.12.61.78,0,1.39-.13,1.84-.37s.68-.65.68-1.19c0-.29-.07-.55-.22-.75-.15-.21-.43-.39-.85-.54s-1.04-.29-1.86-.43c-1.23-.23-2.19-.5-2.89-.82-.7-.31-1.2-.7-1.49-1.19-.3-.48-.44-1.06-.44-1.75,0-1.13.42-2.06,1.27-2.77.85-.71,2.07-1.07,3.67-1.07,1.07,0,1.97.18,2.7.55.73.37,1.3.85,1.71,1.47.41.61.67,1.3.78,2.06l-2.54.14c-.08-.43-.23-.81-.45-1.13s-.53-.57-.9-.74c-.37-.18-.82-.27-1.33-.27-.79,0-1.38.15-1.77.47-.39.31-.58.71-.58,1.21,0,.37.09.68.27.91.18.23.47.43.87.57.4.15.94.28,1.61.38,1.29.22,2.3.49,3.03.8s1.24.71,1.54,1.18c.3.46.44,1.03.44,1.7,0,.78-.22,1.44-.65,1.98s-1.03.96-1.79,1.24c-.76.29-1.64.43-2.63.43Z"/>
        <path d="M627.53,77.22c-1.16,0-2.15-.18-2.94-.54-.8-.36-1.42-.85-1.85-1.48-.43-.63-.68-1.35-.75-2.18l2.54-.12c.13.68.42,1.23.88,1.63.47.4,1.17.61,2.12.61.78,0,1.39-.13,1.84-.37s.68-.65.68-1.19c0-.29-.07-.55-.22-.75-.15-.21-.43-.39-.85-.54s-1.04-.29-1.86-.43c-1.23-.23-2.19-.5-2.89-.82-.7-.31-1.2-.7-1.49-1.19-.3-.48-.44-1.06-.44-1.75,0-1.13.42-2.06,1.27-2.77.85-.71,2.07-1.07,3.67-1.07,1.07,0,1.97.18,2.7.55.73.37,1.3.85,1.71,1.47.41.61.67,1.3.78,2.06l-2.54.14c-.08-.43-.23-.81-.45-1.13s-.53-.57-.9-.74c-.37-.18-.82-.27-1.33-.27-.79,0-1.38.15-1.77.47-.39.31-.58.71-.58,1.21,0,.37.09.68.27.91.18.23.47.43.87.57.4.15.94.28,1.61.38,1.29.22,2.3.49,3.03.8s1.24.71,1.54,1.18c.3.46.44,1.03.44,1.7,0,.78-.22,1.44-.65,1.98s-1.03.96-1.79,1.24c-.76.29-1.64.43-2.63.43Z"/>
        <path d="M635.05,62.76v-2.47h2.56v2.47h-2.56ZM635.09,76.94v-12.39h2.47v12.39h-2.47Z"/>
        <path d="M645.92,77.22c-1.18,0-2.21-.26-3.1-.79s-1.57-1.28-2.05-2.26c-.48-.98-.72-2.12-.72-3.42s.24-2.46.72-3.42c.48-.96,1.16-1.71,2.05-2.25.88-.54,1.92-.8,3.1-.8s2.21.27,3.09.8c.89.53,1.57,1.28,2.05,2.25.48.96.72,2.1.72,3.42s-.24,2.44-.72,3.42c-.48.98-1.16,1.73-2.05,2.26-.88.53-1.92.79-3.09.79ZM645.92,75.08c1.06,0,1.87-.38,2.44-1.15.57-.77.86-1.83.86-3.18s-.29-2.41-.86-3.18c-.58-.77-1.39-1.15-2.44-1.15s-1.85.38-2.44,1.15-.87,1.83-.87,3.18.29,2.41.87,3.18,1.39,1.15,2.44,1.15Z"/>
        <path d="M654.28,76.94v-12.39h2.26l.09,3.31-.3-.16c.14-.81.4-1.46.79-1.96.39-.5.86-.87,1.42-1.11s1.16-.36,1.82-.36c.93,0,1.7.21,2.32.62.61.41,1.08.97,1.4,1.68.32.71.48,1.51.48,2.41v7.96h-2.47v-7.22c0-.73-.08-1.34-.23-1.84-.15-.5-.41-.88-.77-1.14s-.82-.4-1.4-.4c-.87,0-1.58.29-2.12.86-.54.57-.82,1.41-.82,2.51v7.22h-2.47Z"/>
        <path d="M667.27,76.94v-2.93h3v2.93h-3Z"/>
      </g>
      <polygon points="320.68 119.91 335.14 166.4 349.59 119.91 320.68 119.91"/>
    </g>
  </g>
</svg>