<?xml version="1.0" encoding="UTF-8"?>
<svg id="_圖層_2" data-name="圖層 2" xmlns="http://www.w3.org/2000/svg" width="983.05" height="803.63" viewBox="0 0 983.05 803.63">
  <g id="_圖層_2-2" data-name="圖層 2">
    <g>
      <rect x="3.18" y="497.27" width="976.7" height="160.76" rx="47.99" ry="47.99"/>
      <g>
        <path d="M88.99,545.18h-7.2c.07,3.37.25,6.16.5,8.45,1-1.54,1.93-3.26,2.87-5.12l3.04,1.86c-1.54,3.01-3.12,5.48-4.69,7.34-.21.21-.36.43-.5.61.61,3.19,1.25,5.52,1.93,6.95.75,1.58,1.29,2.36,1.65,2.36.29,0,.57-1.68.86-5.05l2.9,1.58c-.75,5.05-1.83,7.59-3.19,7.59-1.29,0-2.61-1.07-4.01-3.19-1.11-1.72-2.08-4.23-2.9-7.45-1.04.9-2.18,1.86-3.47,2.87l-1.83-2.97c1.58-.93,3.04-2.15,4.48-3.65-.61-3.3-1-7.34-1.15-12.18h-15.15v6.23c-.14,8.52-1.43,15.37-3.87,20.52l-2.69-2.4c1.9-4.33,2.9-10.39,2.97-18.12v-9.6h18.66c-.04-.93-.04-1.86-.04-2.79h3.47c0,.97,0,1.9.04,2.79h1.93c-.32-.64-.64-1.22-1-1.79l2.83-1.07c.43.82.86,1.79,1.25,2.87h2.29v3.37ZM65.6,563.34c-.43,2.9-1.04,5.41-1.79,7.52l-2.36-1.5c.86-2.04,1.47-4.23,1.83-6.52l2.33.5ZM76.64,547.18v3.01h-12.28v-3.01h12.28ZM75.99,551.84v7.84h-11.25v-7.84h11.25ZM69.19,571.58c-1.86,0-2.76-1.04-2.76-3.12v-6.38h3.08v5.77c0,.5.18.79.57.79h2.58c.47,0,.82-.14,1.07-.39.25-.29.43-1.15.5-2.65l2.76.93c-.21,2.44-.64,3.9-1.25,4.41-.57.43-1.4.64-2.54.64h-4.01ZM72.66,554.56h-4.55v2.44h4.55v-2.44ZM75.35,564.34l-2.15,1.47c-.72-1.29-1.72-2.69-2.97-4.23l2.08-1.25c1.29,1.5,2.33,2.87,3.04,4.01ZM82.08,568.93l-2.11,1.54c-.75-1.58-1.75-3.37-3.01-5.3l2.15-1.36c1.29,1.93,2.26,3.65,2.97,5.12Z" fill="#fff"/>
        <path d="M125.63,549.98h-3.8v-4.44h-23.35v4.41h-3.8v-8.06h13.36c-.5-.93-1-1.83-1.58-2.61l4.08-.64c.47.97.93,2.04,1.4,3.26h13.68v8.09ZM120.54,557.75h-17.19v2.94h18.84v11.5h-3.72v-1.25h-15.11v1.29h-3.72v-24.18h20.92v9.71ZM116.85,554.56v-3.3h-13.5v3.3h13.5ZM118.47,567.71v-3.83h-15.11v3.83h15.11Z" fill="#fff"/>
        <path d="M145.83,550.16h-2.51c-1.36,1.79-2.47,3.04-3.33,3.8l2.72-.25c.54-.61,1.07-1.25,1.65-1.9l2.47,1c-2.29,2.58-4.23,4.44-5.8,5.59.93-.14,1.9-.29,2.97-.43-.14-.5-.32-.97-.47-1.4l2.22-.72c.43,1.33.86,2.87,1.29,4.62l-2.29.57-.21-1.04c-2.58.36-4.94.64-7.13.86l-.54-2.15c1-.43,2.29-1.36,3.8-2.83-1.29.11-2.47.21-3.58.29l-.54-2.22c.9-.43,2.11-1.68,3.65-3.8h-4.94v22.03h-3.44v-32.09h14.01v10.07ZM142.46,542.71h-7.2v1.29h7.2v-1.29ZM135.26,547.58h7.2v-1.36h-7.2v1.36ZM140.92,561.58v2.97h2.26c.04-.21.07-.39.07-.57v-2.76h3.01v2.76c-.11,2.08-.72,3.76-1.83,5.05-1.11,1.15-2.9,2.04-5.41,2.69l-1.68-2.65c2.26-.54,3.8-1.18,4.62-1.9.04-.07.07-.11.07-.11h-4.08v-5.48h2.97ZM153.78,550.19c-1.29,1.72-2.4,2.97-3.26,3.69.82-.07,1.72-.14,2.72-.21.5-.57,1.04-1.22,1.61-1.86l2.47,1c-2.29,2.58-4.23,4.44-5.77,5.55l2.97-.39c-.18-.5-.36-.97-.5-1.4l2.22-.72c.5,1.36,1,2.97,1.47,4.8l-2.29.57c-.11-.43-.21-.86-.29-1.22-2.61.36-5.01.64-7.23.86l-.54-2.18c1-.39,2.29-1.33,3.83-2.83-1.29.11-2.51.21-3.62.29l-.54-2.18c.9-.43,2.11-1.68,3.62-3.76h-2.83v-10.1h14.08v28.66c0,2.18-1.11,3.3-3.33,3.3-1.36,0-2.65-.04-3.94-.11l-.86-3.12c1.29.07,2.47.14,3.58.14.72,0,1.11-.43,1.11-1.29v-17.48h-4.69ZM150.98,561.19v3.37h2.22v-2.9h2.97v5.41h-5.19v4.62h-3.22v-10.49h3.22ZM158.47,542.78h-7.27v1.25h7.27v-1.25ZM151.2,547.61h7.27v-1.36h-7.27v1.36Z" fill="#fff"/>
        <path d="M169.28,550.55v-1.4c-.21.29-.43.61-.64.9l-1.97-2.76c1.79-2.29,3.47-5.01,4.98-8.17h2.47c2.01,2.26,3.87,4.58,5.66,6.98l-2.33,2.47c-.07-.07-.11-.14-.11-.18v2.15h-2.29v3.04h3.65v3.37h-3.65v9.38c1.22-.36,2.44-.72,3.65-1.11v3.04c1.04-1.04,1.93-2.29,2.65-3.72-.9-1.86-1.68-4.12-2.36-6.81l2.69-1.04c.36,1.36.72,2.61,1.11,3.72.43-1.86.72-3.94.86-6.23h-3.94v-2.54c1.15-2.22,2.22-4.62,3.15-7.2h-3.62v-3.08h7.13v2.72c-1,2.79-1.93,5.19-2.87,7.13h3.12v1.97c-.11,4.48-.75,8.27-1.9,11.39.54.79,1.07,1.4,1.65,1.83,1.68,1.18,4.37,1.79,8.06,1.83,1.93,0,3.9-.07,5.98-.18l-.64,3.55h-3.72c-5.3,0-9.1-.86-11.35-2.54-.5-.39-1-.86-1.43-1.4-.97,1.65-2.15,3.01-3.51,4.12l-1.68-2.9c-3.15,1-6.48,1.9-10.03,2.61l-.9-3.58c1.47-.21,2.94-.47,4.41-.75v-10.21h-3.65v-3.37h3.65v-3.04h-2.26ZM171.14,565.42l-2.61.68c-.39-2.33-.86-4.55-1.4-6.7l2.61-.86c.54,2.01,1,4.3,1.4,6.88ZM176.66,547.36c-1.36-2.04-2.51-3.58-3.44-4.66-.79,1.61-1.68,3.15-2.69,4.66h6.12ZM179.13,558.93c-.43,2.22-.93,4.19-1.5,5.91l-2.4-.9c.54-1.5,1-3.4,1.4-5.69l2.51.68ZM193.85,554.71v2.08h4.69v2.79h-4.69v1.9h5.55v2.87h-5.55v2.9h-3.22v-2.9h-4.33v-2.87h4.33v-1.9h-3.4v-2.79h3.4v-2.08h-3.22v-2.83h3.22v-2.18h-4.23v-2.72h4.23v-2.26h-3.3v-2.79h3.3v-2.61h3.22v2.61h5.01v5.05h1.04v2.72h-1.04v5.01h-5.01ZM193.85,546.97h2.01v-2.26h-2.01v2.26ZM193.85,551.88h2.01v-2.18h-2.01v2.18Z" fill="#fff"/>
        <path d="M222.29,546.83c.54.54.82,1.22.82,2.01s-.29,1.43-.82,1.97c-.57.54-1.22.82-2.01.82s-1.47-.29-2.01-.82c-.54-.54-.79-1.18-.79-1.97s.25-1.47.79-2.01c.54-.57,1.22-.82,2.01-.82s1.43.25,2.01.82ZM222.29,559.94c.54.54.82,1.22.82,2.01s-.29,1.43-.82,1.97c-.57.54-1.22.82-2.01.82s-1.47-.29-2.01-.82-.79-1.18-.79-1.97.25-1.47.79-2.01c.54-.57,1.22-.82,2.01-.82s1.43.25,2.01.82Z" fill="#fff"/>
        <path d="M270.53,571.58h-3.8v-1.93h-19.48v1.93h-3.76v-28.66h27.04v28.66ZM266.73,565.99v-19.41h-19.48v19.41h19.48Z" fill="#fff"/>
        <path d="M309.24,545.18h-7.2c.07,3.37.25,6.16.5,8.45,1-1.54,1.93-3.26,2.87-5.12l3.04,1.86c-1.54,3.01-3.12,5.48-4.69,7.34-.21.21-.36.43-.5.61.61,3.19,1.25,5.52,1.93,6.95.75,1.58,1.29,2.36,1.65,2.36.29,0,.57-1.68.86-5.05l2.9,1.58c-.75,5.05-1.83,7.59-3.19,7.59-1.29,0-2.61-1.07-4.01-3.19-1.11-1.72-2.08-4.23-2.9-7.45-1.04.9-2.18,1.86-3.47,2.87l-1.83-2.97c1.58-.93,3.04-2.15,4.48-3.65-.61-3.3-1-7.34-1.15-12.18h-15.15v6.23c-.14,8.52-1.43,15.37-3.87,20.52l-2.69-2.4c1.9-4.33,2.9-10.39,2.97-18.12v-9.6h18.66c-.04-.93-.04-1.86-.04-2.79h3.47c0,.97,0,1.9.04,2.79h1.93c-.32-.64-.64-1.22-1-1.79l2.83-1.07c.43.82.86,1.79,1.25,2.87h2.29v3.37ZM285.85,563.34c-.43,2.9-1.04,5.41-1.79,7.52l-2.36-1.5c.86-2.04,1.47-4.23,1.83-6.52l2.33.5ZM296.89,547.18v3.01h-12.28v-3.01h12.28ZM296.24,551.84v7.84h-11.25v-7.84h11.25ZM289.44,571.58c-1.86,0-2.76-1.04-2.76-3.12v-6.38h3.08v5.77c0,.5.18.79.57.79h2.58c.47,0,.82-.14,1.07-.39.25-.29.43-1.15.5-2.65l2.76.93c-.21,2.44-.64,3.9-1.25,4.41-.57.43-1.4.64-2.54.64h-4.01ZM292.91,554.56h-4.55v2.44h4.55v-2.44ZM295.6,564.34l-2.15,1.47c-.72-1.29-1.72-2.69-2.97-4.23l2.08-1.25c1.29,1.5,2.33,2.87,3.04,4.01ZM302.33,568.93l-2.11,1.54c-.75-1.58-1.75-3.37-3.01-5.3l2.15-1.36c1.29,1.93,2.26,3.65,2.97,5.12Z" fill="#fff"/>
        <path d="M354.4,553.95v3.37l-22.35,9.71v-3.72l17.73-7.66-17.73-7.66v-3.72l22.35,9.71Z" fill="#fff"/>
        <path d="M384.84,553.24l-2.44,2.44c-1.43-1.65-3.47-3.4-6.12-5.3l2.51-2.4c2.4,1.75,4.41,3.51,6.05,5.26ZM384.98,558.86c-1.43,4.58-3.08,8.88-4.91,12.93l-3.44-1.54c2.01-4.15,3.73-8.35,5.19-12.64l3.15,1.25ZM385.84,544.57l-2.47,2.47c-1.43-1.65-3.51-3.37-6.2-5.23l2.54-2.4c2.4,1.72,4.44,3.44,6.12,5.16ZM407.44,568.18h1.75v3.4h-24.64v-3.4h1.9v-11.57h20.99v11.57ZM406.26,540.13v14.61h-18.63v-14.61h18.63ZM392.51,568.18v-8.42h-2.61v8.42h2.61ZM402.89,543.21h-11.89v8.49h11.89v-8.49ZM393.47,551.09l-1.83-2.33c2.26-1.29,3.8-3.04,4.58-5.19l3.01.5c-.29.79-.64,1.5-1,2.18,1.58.93,2.94,1.83,4.08,2.72l-2.11,2.11c-.9-.9-2.04-1.83-3.4-2.76-.97,1.07-2.08,2.01-3.33,2.76ZM398.13,568.18v-8.42h-2.47v8.42h2.47ZM404,568.18v-8.42h-2.72v8.42h2.72Z" fill="#fff"/>
        <path d="M419.4,553.06c-.14,7.88-1.4,14.22-3.83,19.02l-2.83-2.54c1.86-3.94,2.87-9.46,2.94-16.48v-11.64h13.47c-.36-.72-.75-1.4-1.18-2.04l3.98-.64c.36.79.75,1.68,1.11,2.69h11.96v3.51h-25.61v3.01h5.09v-2.22h3.65v2.22h7.95v-2.26h3.62v2.26h5.3v3.44h-5.3v5.52h-15.22v-5.52h-5.09v1.68ZM442.07,558.65v2.76c-1.76,2.08-3.83,3.87-6.27,5.41,2.94,1.07,6.34,1.83,10.17,2.33l-1.61,3.3c-4.73-.79-8.81-2.01-12.18-3.65-3.58,1.65-7.74,2.87-12.43,3.65l-1.61-3.33c3.83-.5,7.27-1.33,10.32-2.44-2.08-1.43-3.83-3.04-5.26-4.84h-2.47v-3.19h21.35ZM431.94,565.13c1.86-.97,3.55-2.08,5.05-3.3h-9.71c1.33,1.25,2.87,2.36,4.66,3.3ZM428.14,553.81h7.95v-2.44h-7.95v2.44Z" fill="#fff"/>
        <path d="M490.17,553.95v3.37l-22.35,9.71v-3.72l17.73-7.66-17.73-7.66v-3.72l22.35,9.71Z" fill="#fff"/>
        <path d="M526.84,546v-2.29c-3.22.14-6.63.25-10.28.25l-1.11-3.26c9.6,0,17.77-.61,24.43-1.79l1.72,2.94c-3.19.72-6.88,1.25-11.1,1.61v2.54h13.5v3.51h-10.6c4.44,1.86,8.35,3.87,11.68,6.05l-2.4,2.94c-1-.79-2.08-1.5-3.19-2.18v15.8h-3.65v-1.72h-14.33v1.72h-3.65v-15.19c-1.18.57-2.44,1.11-3.76,1.65l-2.04-3.3c5.37-1.75,9.24-3.69,11.57-5.77h-10.6v-3.51h13.83ZM519.89,555.89h6.95v-5.48c-1.65,2.01-3.98,3.83-6.95,5.48ZM535.83,561.62v-2.44h-14.33v2.44h14.33ZM535.83,567.1v-2.33h-14.33v2.33h14.33ZM530.49,551.55v4.33h8.31c-2.51-1.54-5.26-2.97-8.31-4.33Z" fill="#fff"/>
        <path d="M555.67,545.57h22.42v2.94h-22.49v-2.83c-1.29,1.5-2.76,2.87-4.48,4.08l-2.18-2.9c3.37-2.22,5.66-4.98,6.84-8.2l3.51.43c-.21.61-.47,1.22-.68,1.79h21.13v3.15h-22.89c-.36.54-.75,1.04-1.18,1.54ZM558.86,565.63c-1.75,2.29-3.9,4.33-6.45,6.05l-2.08-2.61c2.51-1.54,4.58-3.33,6.3-5.41l2.22,1.97ZM574.58,569.21c-.82-2.01-1.22-6.05-1.22-12.14v-3.8h-22.64v-3.15h26.18v6.95c0,4.58.07,7.56.25,8.88.14,1.29.39,1.93.75,1.93.21,0,.43-.5.64-1.5.14-.86.29-1.79.43-2.87l3.08,1.5c-.5,2.9-1.04,4.84-1.65,5.77-.64.93-1.33,1.4-2.11,1.4-1.72-.04-2.94-1.04-3.72-2.97ZM559.93,559.94v-5.73h3.47v5.73h8.45v3.15h-8.45v9.1h-3.47v-9.1h-9.03v-3.15h9.03ZM558.14,558.5l-2.58,1.33c-.82-1.47-1.72-2.79-2.69-3.98l2.72-1.22c.93,1.15,1.79,2.44,2.54,3.87ZM572.97,569.29l-2.29,2.47c-2.01-2.29-4.05-4.3-6.2-5.98l2.01-2.26c2.36,1.79,4.55,3.69,6.48,5.77ZM570.46,555.78c-.75,1.36-1.72,2.72-2.94,4.01l-2.58-1.36c1.11-1.36,2.01-2.72,2.65-4.05l2.87,1.4Z" fill="#fff"/>
        <path d="M87.74,607.11v2.79h-3.83c-.11.36-.21.68-.36,1.04,1.36.72,2.72,1.5,4.08,2.36l-1.33,1.97h3.08v2.97h-31.88v-2.97h3.98l-1.97-1.72c1.86-1.15,3.15-2.36,3.87-3.65h-4.19v-2.79h28.55ZM87.53,586.27v2.79h-12.32v1.07h13.72v6.48h-3.44v-3.83h-10.28v6.05h-3.51v-6.05h-10.28v3.83h-3.44v-6.48h13.72v-1.07h-12.36v-2.79h28.19ZM67.83,599.81v6.16h-8.88v-6.16h8.88ZM64.92,601.92h-3.01v1.93h3.01v-1.93ZM62.31,615.28h5.8c-1.4-1-2.51-1.72-3.37-2.18-.72.79-1.5,1.5-2.44,2.18ZM70.23,598.41c-1.43.25-3.83.47-7.24.64l-.64-2.15c3.37-.07,5.77-.21,7.2-.43l.68,1.93ZM70.3,594.04l-.79,1.97c-2.22-.36-4.51-.57-6.88-.72l1-1.97c2.29.14,4.51.39,6.66.72ZM66.18,610.91c1.25.61,2.51,1.29,3.8,2.04l-1.54,2.33h3.33v-5.37h-5.19c-.11.36-.25.68-.39,1ZM77.93,599.81v6.16h-8.85v-6.16h8.85ZM75.03,601.92h-3.04v1.93h3.04v-1.93ZM77.17,613.7c1.75-1.18,2.94-2.44,3.58-3.8h-5.55v5.37h3.72l-1.75-1.58ZM84.55,597.12l-.9,2.11c-2.29-.39-4.62-.68-7.06-.9l.93-1.79c2.44.14,4.76.32,7.02.57ZM76.74,594.08c2.44-.14,4.62-.39,6.55-.79l.82,2.11c-1.97.29-4.3.54-6.95.68l-.43-2.01ZM88.03,599.81v6.16h-8.85v-6.16h8.85ZM80.08,615.28h5.23c-1.29-.93-2.29-1.65-3.08-2.11-.61.75-1.33,1.47-2.15,2.11ZM85.05,601.92h-2.97v1.93h2.97v-1.93Z" fill="#fff"/>
        <path d="M106.9,597.19v3.58h-5.05c-1.11,4.58-2.08,8.02-2.94,10.31,1.54-.43,3.08-.97,4.58-1.58-.57-1.65-1.15-3.19-1.72-4.55l2.87-1.4c1.18,2.79,2.33,5.84,3.47,9.21l-3.12,1.54c-.21-.68-.39-1.33-.57-1.9-2.87,1.07-5.91,1.97-9.21,2.65l-.79-3.22c.29-.07.54-.18.72-.29.82-1.36,1.9-4.98,3.26-10.78h-4.44v-3.58h12.93ZM105.79,588.31v3.51h-10.28v-3.51h10.28ZM112.59,588.45c.43-.97.75-1.93.97-2.94l3.72.5c-.29.86-.64,1.65-1.07,2.44h8.38v15.94h-5.73v5.77c.72-1.5,1.29-3.33,1.79-5.48l2.47.79c-.18.57-.36,1.11-.54,1.65l1.65-.47c1,1.83,1.75,3.51,2.26,5.05l-2.11.79c-.14-.39-.25-.79-.39-1.15-1.5.64-3.01,1.11-4.55,1.33l-.57-1.5v2.51c0,.75.39,1.15,1.18,1.15h2.47c.29,0,.57-.11.86-.25.25-.14.43-.86.57-2.11l3.01.97c-.36,2.15-.75,3.44-1.22,3.8-.57.36-1.4.57-2.4.61h-4.19c-2.29,0-3.44-1.18-3.44-3.55v-9.89h-.82c-.07,5.44-2.36,10.28-6.88,14.47l-2.69-2.36c4.23-3.51,6.34-7.56,6.41-12.11h-4.01v-15.94h4.87ZM114.38,594.86v-3.19h-3.4v3.19h3.4ZM114.38,598.02h-3.4v3.19h3.4v-3.19ZM117.68,594.86h3.65v-3.19h-3.65v3.19ZM121.33,598.02h-3.65v3.19h3.65v-3.19ZM121.22,610.27c.72-.18,1.4-.43,2.04-.75-.29-.64-.57-1.29-.86-1.9-.36.97-.75,1.86-1.18,2.65Z" fill="#fff"/>
        <path d="M141.6,615.1h-3.47v-1.9h-3.08v2.76h-3.58v-27.76h10.14v26.9ZM138.13,609.76v-18.12h-3.08v18.12h3.08ZM154.6,618.83h-3.65v-14.47c-1.65,4.51-4.01,8.27-7.16,11.32l-1.97-3.22c3.26-2.72,5.69-6.12,7.27-10.28h-6.16v-3.51h8.02v-4.87h-6.77v-3.51h6.77v-4.76h3.65v4.76h6.77v3.51h-6.77v4.87h7.95v3.51h-6.09c1.5,3.87,3.94,7.31,7.34,10.35l-2.44,3.04c-3.01-3.44-5.26-7.2-6.77-11.28v14.54Z" fill="#fff"/>
        <path d="M175.41,591.89v-1.36h-7.38v-3.08h7.38v-1.79h3.44v1.79h3.94v3.08h-3.94v1.36h9.49v-1.36h-3.98v-3.08h3.98v-1.86h3.4v1.86h7.41v3.08h-7.41v1.36h5.91v2.79h-12.32v1.36h13.72v6.59h-3.44v-3.83h-10.28v6.05h-3.51v-6.05h-10.28v3.83h-3.44v-6.59h13.72v-1.36h-12.36v-2.79h5.95ZM196.15,618.83h-3.51v-1.29h-18.09v1.22h-3.51v-12.75h25.11v12.82ZM180.35,604.43c-1.43.25-3.83.47-7.24.64l-.64-2.15c3.37-.07,5.77-.21,7.2-.43l.68,1.93ZM180.42,600.06l-.79,1.97c-2.22-.36-4.51-.57-6.88-.72l1-1.97c2.29.14,4.51.39,6.66.72ZM181.89,610.52v-1.72h-7.34v1.72h7.34ZM181.89,614.85v-1.65h-7.34v1.65h7.34ZM185.26,610.52h7.38v-1.72h-7.38v1.72ZM192.64,614.85v-1.65h-7.38v1.65h7.38ZM194.68,603.14l-.9,2.11c-2.29-.39-4.62-.68-7.06-.9l.93-1.79c2.44.14,4.76.36,7.02.57ZM186.87,600.06c2.44-.14,4.66-.39,6.59-.75l.79,2.11c-1.97.29-4.3.5-6.95.68l-.43-2.04Z" fill="#fff"/>
        <path d="M222.29,593.4c.54.54.82,1.22.82,2.01s-.29,1.43-.82,1.97c-.57.54-1.22.82-2.01.82s-1.47-.29-2.01-.82c-.54-.54-.79-1.18-.79-1.97s.25-1.47.79-2.01c.54-.57,1.22-.82,2.01-.82s1.43.25,2.01.82ZM222.29,606.51c.54.54.82,1.22.82,2.01s-.29,1.43-.82,1.97c-.57.54-1.22.82-2.01.82s-1.47-.29-2.01-.82-.79-1.18-.79-1.97.25-1.47.79-2.01c.54-.57,1.22-.82,2.01-.82s1.43.25,2.01.82Z" fill="#fff"/>
        <path d="M249.18,604.28l-2.01-3.3c2.87-1.29,5.05-3.58,6.63-6.88h-7.63v24.61h-3.76v-28.22h12.75c.43-1.54.79-3.19,1.07-4.94l3.69.32c-.29,1.65-.61,3.19-.97,4.62h12.61v23.1c0,3.08-1.4,4.66-4.12,4.66h-5.34l-1-3.62,5.12.14c1.04,0,1.58-.68,1.58-2.01v-18.66h-10.03l-.14.36c3.01,1.72,6.02,3.65,9.06,5.8l-2.11,3.19c-3.4-2.69-6.2-4.69-8.38-6.02-1.86,3.19-4.19,5.48-7.02,6.84ZM249.25,614.17l-1.9-3.4c4.44-2.15,7.2-5.48,8.31-9.99l3.62.47c-.32,1.25-.68,2.4-1.11,3.47,2.69,1.61,5.44,3.44,8.24,5.48l-2.11,3.15c-3.12-2.51-5.69-4.41-7.7-5.66-1.79,2.79-4.26,4.94-7.34,6.48Z" fill="#fff"/>
        <path d="M308.92,618.75h-3.44v-1.22h-23.6v1.22h-3.44v-32.02h30.48v32.02ZM284.89,614.53l-1.54-2.01c2.4-.72,4.44-1.54,6.16-2.47h-4.33v-12.14h17.01v12.14h-3.9c2.11.82,3.94,1.65,5.44,2.47l-1.97,2.01h3.72v-24.86h-23.6v24.86h3.01ZM295.13,611.48l1.5-1.43h-5.91l1.65,1.47c-1.72,1.15-3.8,2.15-6.16,3.01h15.08c-1.5-.93-3.55-1.97-6.16-3.04ZM300.93,590.85v6.02h-14.51v-6.02h14.51ZM299,601.31v-1.29h-10.64v1.29h10.64ZM299,604.39v-1.18h-10.64v1.18h10.64ZM299,606.36h-10.64v1.36h10.64v-1.36ZM297.82,593.11h-8.27v1.65h8.27v-1.65Z" fill="#fff"/>
        <path d="M338.4,585.62l-12.43,32.95h-3.55l12.46-32.95h3.51Z" fill="#fff"/>
        <path d="M359.06,599.38l-2.65,2.65c-1.36-1.58-3.3-3.3-5.84-5.16l2.65-2.58c2.29,1.72,4.26,3.4,5.84,5.09ZM359.7,605.68c-1.61,4.51-3.4,8.74-5.41,12.71l-3.65-1.61c2.18-4.05,4.08-8.2,5.66-12.46l3.4,1.36ZM359.81,590.82l-2.65,2.65c-1.43-1.58-3.44-3.22-6.05-5.01l2.65-2.58c2.4,1.65,4.41,3.3,6.05,4.94ZM367.22,608.83c-1.75,3.26-3.83,6.05-6.2,8.42l-2.9-2.11c2.33-2.15,4.33-4.76,5.98-7.81l3.12,1.5ZM369.77,588.92c-.43-1.07-.93-2.04-1.47-2.94l3.72-.64c.5,1.07,1,2.29,1.47,3.58h9.85v3.47h-23.18v-3.47h9.6ZM380.76,594.65v11h-7.09v9.31c0,2.4-1.22,3.62-3.65,3.62h-3.8l-.86-3.58c1.18.14,2.29.25,3.37.25.79,0,1.22-.43,1.22-1.22v-8.38h-7.06v-11h17.87ZM377.11,598.02h-10.6v4.26h10.6v-4.26ZM383.81,614.92l-2.79,1.97c-1.36-2.36-3.15-5.01-5.44-7.92l2.83-1.75c2.36,2.94,4.15,5.52,5.41,7.7Z" fill="#fff"/>
        <path d="M419.05,618.75h-3.44v-1.22h-23.6v1.22h-3.44v-32.02h30.48v32.02ZM395.01,614.53l-1.54-2.01c2.4-.72,4.44-1.54,6.16-2.47h-4.33v-12.14h17.01v12.14h-3.9c2.11.82,3.94,1.65,5.44,2.47l-1.97,2.01h3.72v-24.86h-23.6v24.86h3.01ZM405.26,611.48l1.5-1.43h-5.91l1.65,1.47c-1.72,1.15-3.8,2.15-6.16,3.01h15.08c-1.5-.93-3.55-1.97-6.16-3.04ZM411.06,590.85v6.02h-14.51v-6.02h14.51ZM409.13,601.31v-1.29h-10.64v1.29h10.64ZM409.13,604.39v-1.18h-10.64v1.18h10.64ZM409.13,606.36h-10.64v1.36h10.64v-1.36ZM407.94,593.11h-8.27v1.65h8.27v-1.65Z" fill="#fff"/>
        <path d="M448.52,585.62l-12.43,32.95h-3.55l12.46-32.95h3.51Z" fill="#fff"/>
        <path d="M480.21,587.95h12.57v3.55h-26.33v7.92c-.11,8.02-1.07,14.47-2.87,19.34l-3.22-2.87c1.5-3.94,2.33-9.42,2.4-16.48v-11.46h13.22c-.36-.72-.68-1.36-1.04-1.97l4.26-.72c.32.79.64,1.68,1,2.69ZM470.4,601.6v5.19c-.07,4.44-.97,7.66-2.69,9.74l-2.08-1.79c1.4-1.68,2.11-4.33,2.15-7.95v-5.19h2.61ZM471.65,596.44v-3.8h3.47v3.8h3.8v3.4h-3.94v18.8h-3.15v-18.8h-4.33v-3.4h4.15ZM478.89,601.46v8.95c0,.43.21.68.72.68h.5c.21-1.25.32-2.65.36-4.23v-5.27h2.58v5.27c-.04,4.51-.79,7.81-2.29,9.92l-2.11-1.83c.29-.47.57-.97.79-1.5h-.79c-1.54,0-2.29-.93-2.29-2.76v-9.24h2.54ZM484.26,596.44v-3.8h3.51v3.8h4.19v3.4h-4.37v18.8h-3.15v-18.8h-4.3v-3.4h4.12ZM491.5,601.53v11c0,.57.21.9.72.9h1.58v2.44h-2.54c-1.54,0-2.29-1.04-2.29-3.08v-11.25h2.54Z" fill="#fff"/>
        <path d="M501.7,603.93c-.47,4.01-1.04,7.56-1.75,10.6l-2.72-.97c.72-2.72,1.36-6.16,1.93-10.32l2.54.68ZM501.77,596.05l-2.44.64c-.43-2.58-.93-5.01-1.54-7.38l2.65-.9c.5,2.22.93,4.76,1.33,7.63ZM502.31,597.91v-12.21h3.47v12.21h3.69v3.4h-3.69v17.51h-3.47v-17.51h-3.98v-3.4h3.98ZM529.17,586.55v8.06h-7.7v1.65h3.8v1.47c.82-.86,1.58-1.75,2.26-2.61l2.36,1.75c-1.04,1.4-2.15,2.69-3.33,3.87h3.87v2.87h-7.2c-.86.61-1.72,1.18-2.58,1.75h7.95v13.43h-3.37v-1.36h-8.31v1.36h-3.3v-9.92c-1.15.43-2.33.82-3.51,1.18l.43,2.65-2.83.68c-.36-3.3-.86-6.52-1.47-9.6l2.44-.82c.29,1.25.57,2.58.86,3.98,2.94-.93,5.59-2.04,7.99-3.33h-6.66v-2.87h7.38v-1.68h-5.44v-2.79h5.44v-1.65h-6.84v-8.06h17.77ZM510.08,588.45c-.21,2.97-.68,5.62-1.4,7.95l-2.44-.79c.57-2.15.9-4.66,1-7.52l2.83.36ZM516.49,589.35h-1.86v2.54h1.86v-2.54ZM525.23,608.08h-8.31v2.01h8.31v-2.01ZM516.92,614.64h8.31v-1.9h-8.31v1.9ZM521.26,589.35h-1.97v2.54h1.97v-2.54ZM523.94,599.06h-2.47v1.68h.5c.72-.57,1.36-1.11,1.97-1.68ZM525.95,589.35h-1.9v2.54h1.9v-2.54Z" fill="#fff"/>
        <path d="M558.64,585.62l-12.43,32.95h-3.55l12.46-32.95h3.51Z" fill="#fff"/>
      </g>
    </g>
    <g>
      <g>
        <path d="M109.15,200.53c-.08,4.19-.5,8.12-1.34,11.89l-3.35-.92c.88-3.56,1.38-7.28,1.5-11.22l3.18.25ZM119.07,205.8l-3.1.84c-.42-2.18-.96-4.19-1.59-6.11v30.22h-3.98v-38.6h3.98v7.49l2.68-.92c.75,2.05,1.42,4.39,2.01,7.07ZM118.31,220.54v-3.35h22.48v2.89c-1.76,2.01-3.85,3.77-6.28,5.28,2.76.84,5.82,1.55,9.17,2.09l-2.3,3.43c-4.23-.84-7.91-1.97-11.05-3.35-3.52,1.51-7.53,2.59-12.06,3.31l-1.8-3.6c3.52-.42,6.7-1.09,9.5-2.01-2.18-1.42-4.02-2.97-5.53-4.69h-2.14ZM142.09,206.55v8.79h-24.28v-8.79h24.28ZM140.29,205.13h-3.68v-8.67h-13.19v8.62h-3.68v-12.1h20.55v12.14ZM124.89,209.32h-3.52v3.18h3.52v-3.18ZM135.14,220.54h-10.26c1.42,1.17,3.14,2.18,5.15,3.1,1.93-.92,3.6-1.92,5.11-3.1ZM135.01,197.93v2.85h-10.05v-2.85h10.05ZM135.01,202.16v2.89h-10.05v-2.89h10.05ZM131.62,209.32h-3.43v3.18h3.43v-3.18ZM138.4,209.32h-3.52v3.18h3.52v-3.18Z"/>
        <path d="M159.47,192.11v2.18h5.82v3.43h-5.82v2.18h7.16v3.52h-3.68v1.3c0,.42.29.67.92.67h2.14v2.97h-3.56c-2.17,0-3.26-1.13-3.26-3.31v-1.63h-3.47c-.63,2.76-2.34,4.9-5.19,6.4l-2.81-2.47c2.26-.96,3.73-2.26,4.35-3.93h-3.98v-3.52h7.16v-2.18h-5.9v-3.43h5.9v-2.18h4.23ZM156.46,223.05c-1.47,2.97-3.18,5.53-5.11,7.7l-3.47-2.51c1.92-1.93,3.56-4.27,4.94-6.99l3.64,1.8ZM179.98,218.86c-.84-.84-1.47-2.18-1.88-4.02-.21-.88-.38-1.8-.46-2.81l-2.55,3.01c-.67-.8-1.34-1.55-2.05-2.22-1,3.14-2.34,5.73-4.1,7.78l-2.93-2.59v1.05c-4.94.67-10.59,1.26-16.95,1.67l-.5-3.77c2.43-.17,4.73-.29,6.91-.46v-2.76h-5.99v-3.6h5.99v-2.93h4.14v2.93h5.36v3.6h-5.36v2.39c2.26-.21,4.39-.42,6.4-.67v2.39c1.72-2.05,3.01-4.65,3.85-7.83-1.17-.92-2.39-1.8-3.68-2.64l2.39-2.81c.71.42,1.42.88,2.09,1.38.25-1.88.38-3.89.42-6.03h-3.64v-3.81h3.64v-4.02h3.72v4.02h6.99c-.42,3.94-.59,7.62-.59,11.05,0,2.68.08,4.69.25,6.11.25,1.38.5,2.14.84,2.26.25-.17.42-.63.5-1.42.13-.75.21-1.89.29-3.47l3.35,1.55c-.42,3.27-.96,5.44-1.63,6.53-.54.84-1.26,1.34-2.14,1.47-.96,0-1.84-.46-2.68-1.34ZM165.08,229.66l-4.23.96c-.42-2.97-.96-5.57-1.63-7.83l4.06-.84c.67,2.34,1.25,4.94,1.8,7.7ZM174.67,229.58l-4.23.96c-.63-3.1-1.38-5.86-2.3-8.25l4.06-.88c.92,2.51,1.72,5.23,2.47,8.16ZM177.64,211.87c-.17-1.46-.25-3.01-.25-4.69,0-2.01.08-4.44.25-7.24h-2.85c-.04,3.18-.29,6.03-.75,8.62,1.34,1.09,2.51,2.18,3.6,3.31ZM185.43,228.16l-3.47,2.47c-1.34-2.43-3.22-5.15-5.57-8.12l3.52-2.22c2.39,3.01,4.23,5.61,5.53,7.87Z"/>
        <path d="M228.68,194.33v4.23h-16.79c-.42,1.59-.92,3.14-1.5,4.6h16.16v22.31c0,3.35-1.42,5.02-4.23,5.02h-3.77l-1.17-4.44,3.47.17c.84,0,1.3-.59,1.3-1.76v-17.08h-5.53v21.77h-4.23v-21.77h-5.19v21.77h-4.23v-21.77h-5.02v23.06h-4.44v-27.29h11.64c.67-1.51,1.17-3.06,1.51-4.6h-15.74v-4.23h37.76Z"/>
        <path d="M238.45,213.55c-.59,5.02-1.34,9.42-2.22,13.23l-3.18-1.13c.92-3.39,1.76-7.7,2.47-12.89l2.93.79ZM238.45,204.25l-2.85.75c-.5-2.93-1.09-5.78-1.76-8.45l3.1-1c.58,2.51,1.09,5.44,1.51,8.71ZM239.41,206.43v-14.32h4.14v14.32h4.56v3.98h-4.56v20.34h-4.14v-20.34h-5.53v-3.98h5.53ZM249.37,223.3l-3.22.84c-.46-3.68-1.05-7.24-1.76-10.67l2.64-.88c.84,3.14,1.63,6.7,2.34,10.72ZM249.08,195.38c-.25,3.47-.88,6.57-1.84,9.29l-2.8-.92c.75-2.51,1.25-5.44,1.46-8.79l3.18.42ZM251.89,230.84l-3.18-2.89c1.88-2.26,2.85-5.19,2.89-8.71v-9.12h18.12v16.66c0,2.51-1.42,3.77-4.23,3.77h-4.19l-1-3.77c1.42.08,2.72.17,3.98.17.84,0,1.26-.58,1.26-1.67v-1.05h-10.51c-.59,2.55-1.63,4.77-3.14,6.61ZM258.54,194.33v-2.34h4.23v2.34h8.29v3.51h-8.29v1.76h7.07v3.43h-7.07v1.8h9.21v3.6h-22.77v-3.6h9.34v-1.8h-7.33v-3.43h7.33v-1.76h-8.54v-3.51h8.54ZM255.65,218.99c0,.67-.04,1.3-.12,1.97h10v-2.05h-9.88v.08ZM265.53,213.55h-9.88v2.09h9.88v-2.09Z"/>
        <path d="M284.84,202.49l-2.14,3.31c-2.14-1.55-4.31-2.76-6.57-3.64l2.22-3.26c2.34,1,4.52,2.18,6.49,3.6ZM287.81,209.53c-2.18,2.85-4.9,5.48-8.12,7.95l-2.93-3.47c3.43-2.26,6.32-4.69,8.62-7.37l2.43,2.89ZM293.42,219.2v-2.93h4.35v2.93h16.62v4.06h-16.62v7.49h-4.35v-7.49h-16.53v-4.06h16.53ZM288.02,196.09l-2.13,3.31c-2.26-1.8-4.61-3.22-6.95-4.23l2.14-3.18c2.51,1.13,4.86,2.51,6.95,4.1ZM287.35,207.35l-1.3-4.1c3.22-3.43,5.48-7.16,6.78-11.22l4.06.84c-.33,1-.71,1.97-1.13,2.93h4.94c-.42-1.17-.84-2.22-1.25-3.14l4.31-.75c.42,1.17.8,2.47,1.17,3.89h8.45v3.6h-8.29v1.88h7.41v3.35h-7.41v1.92h7.45v3.35h-7.45v2.09h8.79v3.6h-23.65v-11.3c-.92,1.05-1.89,2.05-2.89,3.06ZM294.18,199.4v1.88h6.82v-1.88h-6.82ZM294.18,204.63v1.92h6.82v-1.92h-6.82ZM294.18,209.9v2.09h6.82v-2.09h-6.82Z"/>
        <path d="M335.09,228.16h-4.19v-2.09h-6.2v3.31h-4.19v-30.56h4.02c.75-2.22,1.3-4.52,1.63-6.91l4.39.58c-.46,2.26-1.09,4.4-1.84,6.32h6.36v29.34ZM330.9,210.24v-7.32h-6.2v7.32h6.2ZM330.9,222.04v-7.91h-6.2v7.91h6.2ZM356.02,225.94c-.42,2.93-2.43,4.39-6.03,4.39-.84,0-2.34-.08-4.52-.25l-1.05-3.98c1.84.13,3.47.21,4.86.21,1.51,0,2.39-.84,2.64-2.47.25-2.01.38-8.92.46-20.76h-10.13c-1.13,2.51-2.47,4.77-4.02,6.78l-2.64-3.47c2.76-3.94,4.61-8.79,5.61-14.53l4.31.54c-.42,2.26-.96,4.39-1.59,6.4h12.73c0,14.65-.21,23.69-.63,27.12ZM348.9,217.94l-3.52,2.43c-1.55-2.76-3.64-5.82-6.24-9.17l3.56-2.22c2.68,3.39,4.73,6.36,6.2,8.96Z"/>
        <path d="M108.17,322.6h-7.8v-3.98h-40.04v3.98h-7.73v-58.89h55.57v58.89ZM100.37,311.12v-39.9h-40.04v39.9h40.04Z"/>
        <path d="M187.75,268.35h-14.79c.15,6.92.51,12.66,1.03,17.37,2.06-3.16,3.98-6.7,5.89-10.53l6.26,3.83c-3.16,6.18-6.4,11.26-9.64,15.09-.44.44-.74.88-1.03,1.25,1.25,6.55,2.58,11.34,3.98,14.28,1.55,3.24,2.65,4.86,3.39,4.86.59,0,1.18-3.46,1.77-10.38l5.96,3.24c-1.54,10.38-3.75,15.61-6.55,15.61-2.65,0-5.37-2.21-8.24-6.55-2.28-3.53-4.27-8.68-5.96-15.31-2.13,1.84-4.49,3.83-7.14,5.89l-3.75-6.11c3.24-1.91,6.26-4.42,9.2-7.51-1.25-6.77-2.06-15.09-2.35-25.03h-31.14v12.81c-.29,17.52-2.94,31.58-7.95,42.18l-5.52-4.93c3.9-8.91,5.96-21.35,6.11-37.25v-19.73h38.35c-.07-1.91-.07-3.83-.07-5.74h7.14c0,1.99,0,3.9.07,5.74h3.98c-.66-1.33-1.33-2.5-2.06-3.68l5.81-2.21c.88,1.69,1.77,3.68,2.58,5.89h4.71v6.92ZM139.69,305.67c-.88,5.96-2.13,11.11-3.68,15.46l-4.86-3.09c1.77-4.2,3.02-8.69,3.75-13.4l4.78,1.03ZM162.36,272.48v6.18h-25.25v-6.18h25.25ZM161.03,282.04v16.12h-23.11v-16.12h23.11ZM147.05,322.6c-3.83,0-5.67-2.14-5.67-6.4v-13.1h6.33v11.85c0,1.03.37,1.62,1.18,1.62h5.3c.96,0,1.69-.3,2.21-.81.51-.59.88-2.36,1.03-5.45l5.67,1.91c-.44,5-1.33,8.02-2.58,9.05-1.18.88-2.87,1.33-5.23,1.33h-8.24ZM154.19,287.64h-9.35v5.01h9.35v-5.01ZM159.71,307.73l-4.42,3.02c-1.47-2.65-3.53-5.52-6.11-8.69l4.27-2.58c2.65,3.09,4.79,5.89,6.26,8.25ZM173.55,317.16l-4.34,3.16c-1.55-3.24-3.61-6.92-6.18-10.89l4.42-2.8c2.65,3.98,4.64,7.51,6.11,10.53Z"/>
        <path d="M203,267.98v-7.36h56.75v7.36h-24.51v44.02h29v7.43h-65.88v-7.43h29.08v-44.02h-24.44Z"/>
        <path d="M283.83,275.13v-8.32c-2.72.37-5.52.66-8.32.96l-1.54-7.21c9.05-.74,17.15-2.14,24.29-4.34l2.72,7.21c-3.16.88-6.48,1.62-9.86,2.21v9.5h8.25v7.14h-8.25v2.94c3.24,2.94,6.55,6.11,9.86,9.64l-4.34,6.55c-2.06-3.53-3.9-6.55-5.52-8.91v30.99h-7.29v-29.59c-2.21,5.81-5,11.19-8.32,16.05l-3.39-8.61c4.93-5.6,8.54-12,10.82-19.07h-8.98v-7.14h9.86ZM315.85,299.71v-6.7c-4.42.37-8.98.66-13.69.96l-1.4-6.7c13.1-.59,24.73-1.62,35.04-3.24l2.43,6.4c-4.64.74-9.57,1.33-14.87,1.91v7.36h14.58v6.85h-14.58v7.8h17.08v6.99h-41.37v-6.99h16.78v-7.8h-14.28v-6.85h14.28ZM336.46,257.97v22.67h-33.05v-22.67h33.05ZM329.03,264.75h-18.11v9.13h18.11v-9.13Z"/>
        <path d="M376.59,288.01h-18.62v5.74h19.58v27.82h-7.43v-2.8h-12.15v3.98h-7.51v-58.3h7.36c1.03-2.72,1.77-5.52,2.21-8.46l8.02,1.1c-.52,2.58-1.18,5.01-2.06,7.36h10.6v23.55ZM369.08,281.31v-10.09h-11.11v10.09h11.11ZM370.11,312.08v-11.63h-12.15v11.63h12.15ZM379.39,265.19v-7.21h35.55v7.21h-13.84v6.26h12.37v36.66c0,4.71-2.28,7.07-6.77,7.07h-5.6v8.61h-7.65v-45.42h-5.23v37.25h-7.36v-44.17h12.59v-6.26h-14.06ZM404.27,308.25c1.18,0,1.84-.59,1.84-1.69v-28.19h-5.01v29.74l3.16.15Z"/>
      </g>
      <rect x="3.18" y="47.54" width="456.73" height="378.21" rx="50.34" ry="50.34" fill="none" stroke="#000" stroke-miterlimit="10" stroke-width="6.35"/>
      <rect x="122.38" width="217.24" height="89.49" fill="#fdff3e"/>
      <g>
        <path d="M169.01,24.48v18.72c0,6.01.13,9.91.38,11.64.25,1.7.51,2.54.85,2.54.38,0,.72-1.82,1.02-5.38l3.56,1.74c-.59,3.39-1.18,5.67-1.78,6.77-.68,1.1-1.48,1.7-2.33,1.7-2.07,0-3.56-1.31-4.49-3.85-1.02-2.54-1.52-7.58-1.52-15.16v-14.57h-22.87v13.85c-.08,8.05-1.19,14.86-3.3,20.37l-3.51-2.88c1.61-4.62,2.46-10.46,2.54-17.49v-18h31.46ZM163.34,31v3.94h-7.83v2.75h7.2v13.85h-7.24v4.62c1.23-.25,2.33-.47,3.34-.72-.34-.76-.72-1.44-1.06-2.12l3.51-1.44c1.65,2.67,3.05,5.5,4.24,8.47l-4.02,1.74c-.38-1.1-.76-2.07-1.1-3.01-4.06,1.1-9.82,1.91-17.19,2.46l-1.27-4.06c3.43-.13,6.52-.34,9.23-.64v-5.29h-7.28v-13.85h7.24v-2.75h-7.88v-3.94h20.11ZM151.23,41.5h-3.3v6.22h3.3v-6.22ZM158.76,41.5h-3.39v6.22h3.39v-6.22Z"/>
        <path d="M199.36,58.31h-4.11v-2.24h-3.64v3.26h-4.23V26.51h11.98v31.8ZM195.25,52v-21.43h-3.64v21.43h3.64ZM214.73,62.71h-4.32v-17.11c-1.95,5.34-4.74,9.78-8.47,13.38l-2.33-3.81c3.85-3.22,6.73-7.24,8.6-12.15h-7.28v-4.15h9.48v-5.76h-8v-4.15h8v-5.63h4.32v5.63h8v4.15h-8v5.76h9.4v4.15h-7.2c1.78,4.57,4.66,8.64,8.68,12.24l-2.88,3.6c-3.56-4.07-6.22-8.51-8-13.34v17.19Z"/>
        <path d="M243.22,26.55h8.64c.42-1.14.76-2.33,1.02-3.56l4.66.64c-.25,1.01-.59,1.99-1.01,2.92h11.81v17.53c1.61-1.99,2.84-4.06,3.68-6.27l3.77,2.37c-2.03,3.68-4.49,6.9-7.45,9.65v8.64c0,2.79-1.31,4.19-3.94,4.19h-4.53l-1.1-4.19,4.24.21c.63,0,.97-.42.97-1.19v-4.15c-.63.42-1.27.8-1.91,1.23-5.93,3.51-13.04,5.97-21.34,7.41l-1.99-3.98c10.67-1.86,18.38-4.49,23.12-7.92-5.5.55-13.21,1.06-23.12,1.57l-.68-4.15,5.17-.13v-20.83ZM263.97,30.45h-16.34v2.84h16.34v-2.84ZM247.62,39.68h16.34v-2.71h-16.34v2.71ZM247.62,47.21c6.48-.25,11.94-.63,16.34-1.14v-2.67h-16.34v3.81Z"/>
        <path d="M300.88,25.03c-1.06,3.18-2.41,6.23-4.11,9.11v28.54h-4.49v-22.02c-1.14,1.36-2.37,2.71-3.64,4.07l-1.44-4.66c4.32-4.78,7.54-10.42,9.65-16.89l4.02,1.86ZM315.32,28.75h-4.11v-4.06h7.41c1.57,5.97,4.36,10.76,8.38,14.31l-2.63,3.64c-1.02-.89-1.91-1.78-2.67-2.71,0,9.48-.21,15.33-.63,17.57-.42,3.01-2.33,4.53-5.72,4.53-.89,0-2.41-.08-4.53-.21l-1.06-4.15c1.86.17,3.47.25,4.83.25s2.12-.89,2.33-2.58c.25-1.1.38-4.95.47-11.56h-6.78v.89c0,6.78-2.75,12.7-8.17,17.87l-3.73-3.18c4.95-4.28,7.45-9.19,7.45-14.69v-.89h-3.94v-3.51c-.68.85-1.4,1.61-2.12,2.37l-2.84-3.68c3.85-3.9,6.48-8.72,7.83-14.4l4.24,1.02c-1.27,5.29-3.39,9.91-6.44,13.89h18.38c-2.54-3.01-4.53-6.56-5.97-10.71Z"/>
        <path d="M154.92,92.05v-16.53h10.73v2.3h-9.55l1.33-1.37v7.59l-1.33-1.19h9.13v2.24h-9.13l1.33-1.19v8.15h-2.51Z"/>
        <path d="M170.76,92.05c-.81,0-1.46-.21-1.96-.63-.5-.42-.74-1.09-.74-2v-13.9h2.47v13.67c0,.28.07.49.22.63.15.14.36.21.64.21h.98v2.03h-1.61Z"/>
        <path d="M178.09,92.33c-1.29,0-2.32-.3-3.08-.88-.77-.59-1.15-1.42-1.15-2.49s.32-1.91.97-2.5c.64-.6,1.64-1.03,2.99-1.29l4.26-.82c0-.96-.23-1.68-.67-2.15-.45-.47-1.12-.71-2-.71-.79,0-1.41.17-1.86.52s-.76.87-.93,1.55l-2.54-.16c.23-1.24.81-2.22,1.74-2.94.92-.71,2.12-1.07,3.6-1.07,1.68,0,2.95.45,3.83,1.34s1.31,2.15,1.31,3.76v4.82c0,.29.05.5.15.62.1.12.27.18.5.18h.44v1.96c-.08.01-.2.03-.37.05-.17.02-.35.02-.54.02-.53,0-.98-.09-1.36-.26-.38-.17-.66-.45-.85-.85-.19-.4-.28-.93-.28-1.6l.26.12c-.12.54-.39,1.03-.8,1.44-.41.42-.93.75-1.56.99-.63.24-1.31.36-2.04.36ZM178.49,90.37c.74,0,1.38-.14,1.91-.43s.94-.69,1.23-1.2c.3-.51.44-1.09.44-1.75v-.79l-3.63.7c-.74.14-1.27.36-1.57.66s-.45.69-.45,1.15c0,.53.18.93.55,1.22.36.29.87.43,1.53.43Z"/>
        <path d="M190.5,92.05l-4.52-12.39h2.63l3.38,9.87,3.38-9.87h2.65l-4.54,12.39h-2.98Z"/>
        <path d="M204.75,92.33c-1.18,0-2.21-.26-3.1-.79-.89-.53-1.57-1.28-2.05-2.26s-.72-2.12-.72-3.42.24-2.46.72-3.42c.48-.96,1.16-1.71,2.05-2.25.88-.54,1.92-.8,3.1-.8s2.21.27,3.1.8,1.57,1.28,2.05,2.25c.48.96.72,2.1.72,3.42s-.24,2.44-.72,3.42c-.48.98-1.16,1.73-2.05,2.26s-1.92.79-3.1.79ZM204.75,90.19c1.05,0,1.87-.38,2.44-1.15s.86-1.83.86-3.18-.29-2.41-.86-3.18-1.39-1.15-2.44-1.15-1.85.38-2.43,1.15c-.58.77-.87,1.83-.87,3.18s.29,2.41.87,3.18c.58.77,1.39,1.15,2.43,1.15Z"/>
        <path d="M213.11,92.05v-12.39h2.26l.09,3.28-.21-.07c.17-1.12.52-1.93,1.04-2.45.52-.51,1.22-.77,2.11-.77h1.19v2.21h-1.19c-.62,0-1.14.1-1.56.3-.42.2-.73.51-.94.93-.21.42-.31.96-.31,1.63v7.31h-2.47Z"/>
        <path d="M228.2,92.05v-16.53h2.51v16.53h-2.51Z"/>
        <path d="M238.63,92.33c-1.06,0-1.98-.26-2.76-.79s-1.38-1.28-1.79-2.25c-.41-.97-.62-2.11-.62-3.43s.21-2.47.63-3.44c.42-.97,1.02-1.72,1.79-2.25.78-.53,1.69-.79,2.75-.79.85,0,1.61.18,2.28.54.67.36,1.17.85,1.51,1.49v-5.89h2.47v16.53h-2.3l-.07-1.86c-.34.67-.86,1.19-1.55,1.57s-1.47.57-2.34.57ZM239.28,90.19c.67,0,1.23-.17,1.7-.51.47-.34.82-.84,1.07-1.49.25-.65.37-1.43.37-2.33s-.12-1.72-.37-2.36c-.25-.64-.61-1.13-1.07-1.47-.47-.33-1.03-.5-1.7-.5-.99,0-1.79.38-2.38,1.15s-.88,1.83-.88,3.18.3,2.39.88,3.16c.59.78,1.38,1.17,2.38,1.17Z"/>
        <path d="M253.25,92.33c-1.21,0-2.26-.26-3.13-.79-.88-.53-1.55-1.28-2.03-2.26-.48-.98-.71-2.12-.71-3.42s.24-2.44.71-3.41c.47-.97,1.14-1.72,2.01-2.26.87-.54,1.89-.8,3.07-.8,1.12,0,2.1.26,2.96.78.85.52,1.52,1.27,1.99,2.25.47.98.71,2.16.71,3.54v.63h-8.89c.06,1.21.38,2.12.97,2.72.58.6,1.37.91,2.36.91.73,0,1.34-.17,1.81-.51.48-.34.82-.8,1-1.37l2.56.16c-.33,1.15-.97,2.08-1.92,2.78-.96.71-2.12,1.06-3.48,1.06ZM249.95,84.72h6.29c-.08-1.1-.39-1.92-.94-2.45-.55-.53-1.25-.79-2.11-.79s-1.61.27-2.18.83c-.57.55-.92,1.35-1.06,2.41Z"/>
        <path d="M261.33,92.05v-12.39h2.26l.09,3.31-.3-.16c.14-.81.4-1.46.79-1.96s.86-.87,1.42-1.11c.56-.24,1.16-.36,1.82-.36.93,0,1.7.21,2.32.62.61.41,1.08.97,1.4,1.68.32.7.48,1.51.48,2.41v7.96h-2.47v-7.22c0-.73-.08-1.34-.23-1.84-.16-.5-.41-.88-.77-1.14-.36-.26-.82-.39-1.4-.39-.87,0-1.58.29-2.12.86-.54.57-.81,1.41-.81,2.52v7.22h-2.47Z"/>
        <path d="M273.58,81.69v-2.03h7.64v2.03h-7.64ZM278.91,92.05c-1.18,0-2.05-.27-2.61-.81-.56-.54-.84-1.39-.84-2.54v-11.95h2.47v11.76c0,.57.12.97.37,1.19s.63.33,1.14.33h1.77v2.03h-2.3Z"/>
        <path d="M283.52,77.87v-2.47h2.56v2.47h-2.56ZM283.57,92.05v-12.39h2.47v12.39h-2.47Z"/>
        <path d="M288.01,81.69v-2.03h7.64v2.03h-7.64ZM293.35,92.05c-1.18,0-2.05-.27-2.61-.81-.56-.54-.84-1.39-.84-2.54v-11.95h2.47v11.76c0,.57.12.97.37,1.19s.63.33,1.14.33h1.77v2.03h-2.3Z"/>
        <path d="M298.61,95.54v-2.03h1.51c.42,0,.73-.06.93-.19.2-.12.36-.33.47-.63l.39-1.02h-.77l-4.47-12.02h2.61l3.4,9.73,3.24-9.73h2.63l-4.94,13.83c-.25.71-.62,1.23-1.11,1.56-.49.33-1.17.49-2.04.49h-1.86Z"/>
      </g>
    </g>
    <g>
      <rect x="523.14" y="47.54" width="456.73" height="378.21" rx="50.34" ry="50.34" fill="none" stroke="#000" stroke-miterlimit="10" stroke-width="6.35"/>
      <rect x="641.62" width="217.24" height="89.49" fill="#fdff3e"/>
      <g>
        <path d="M676.31,32.99c2.46,11.14,8.51,19.65,18.12,25.53l-2.96,3.89c-7.92-5.34-13.51-12.45-16.77-21.38-2.79,8.64-8.6,15.79-17.4,21.47l-2.71-3.98c11.35-6.78,17.15-16.26,17.49-28.41,0-2.84.04-5.04.04-6.65h4.49c0,3.72-.13,6.9-.3,9.53Z"/>
        <path d="M715.84,62.46h-4.36v-18.76c-1.19,3.22-2.58,6.22-4.24,8.98l-1.9-4.83c2.75-3.64,4.78-7.75,6.05-12.37h-5.04v-4.28h5.12v-7.79h4.36v7.79h4.15v4.28h-4.15v1.78c1.61,1.74,3.26,3.64,4.87,5.67,3.26-1.27,6.1-2.71,8.51-4.32-1.44-1.36-2.63-2.71-3.64-4.11-.89,1.06-1.78,2.03-2.71,2.92l-2.84-3.43c2.79-2.5,5.25-6.05,7.32-10.63l4.28.97c-.42.89-.8,1.74-1.18,2.54h11.26v3.39c-1.36,3.13-3.35,5.97-5.93,8.43,2.71,1.69,5.8,3.09,9.36,4.28l-1.99,4.19c-.63-.25-1.23-.51-1.78-.76v16.09h-4.32v-1.48h-9.82v1.48h-4.32v-15.92c-.59.25-1.19.47-1.78.72l-1.23-1.69-1.14,1.74c-1.1-1.95-2.08-3.56-2.92-4.91v20.03ZM732.57,41.37c-2.46,1.78-5.29,3.39-8.47,4.74h16.64c-3.13-1.44-5.84-3.01-8.17-4.74ZM737.06,56.91v-6.69h-9.82v6.69h9.82ZM736.89,31.04h-8.81c-.13.17-.21.3-.3.47,1.23,1.78,2.75,3.34,4.53,4.78,1.86-1.61,3.39-3.39,4.57-5.25Z"/>
        <path d="M760.17,41.92l-3.85-1.1c1.27-4.45,1.99-9.14,2.16-14.06l3.98.3c-.08,1.61-.17,3.22-.34,4.74h2.12v-8.34h4.28v8.34h3.18v4.23h-3.18v8.64c1.19-.47,2.29-.93,3.39-1.44v4.15c-1.14.47-2.29.93-3.39,1.36v13.85h-4.28v-12.32c-2.2.72-4.4,1.4-6.65,1.99l-1.06-4.28c2.63-.47,5.17-1.06,7.71-1.82v-10.12h-2.71c-.34,2.03-.8,3.98-1.35,5.89ZM785.7,23.33v4.11h9.65v4.11h-9.65v3.64h8.34v4.15h-20.49v-4.15h7.83v-3.64h-9.53v-4.11h9.53v-4.11h4.32ZM786.42,43.07v-2.29h4.32v2.29h4.62v4.15h-4.62v10.8c0,2.84-1.52,4.28-4.49,4.28h-5l-.89-4.15c1.52.17,2.96.3,4.4.3,1.1,0,1.65-.51,1.65-1.48v-9.74h-13.51v-4.15h13.51ZM781.85,54.5l-3.47,2.46c-1.19-1.99-2.79-4.19-4.83-6.56l3.43-2.16c2.12,2.41,3.72,4.49,4.87,6.27Z"/>
        <path d="M810.55,40.14l-3.01-3.26c1.4-1.44,2.16-3.51,2.29-6.14v-6.14c5.8-.08,10.97-.47,15.5-1.23l1.91,3.47c-4.02.59-8.47.97-13.38,1.1v1.69h12.87v3.6h-4.53v4.41h-4.23v-4.41h-4.32c-.47,2.79-1.48,5.12-3.09,6.9ZM829.3,38.49h12.41v18.04h-7.24c3.98.68,7.79,1.61,11.43,2.75l-1.44,3.52c-4.41-1.53-8.98-2.71-13.76-3.52l1.4-2.75h-10.25l1.82,2.46c-3.01,1.52-7.28,2.75-12.87,3.68l-1.95-3.39c5.12-.76,9.11-1.65,11.9-2.75h-7.66v-18.04h15.16l-2.5-2.71c1.69-1.4,2.63-3.3,2.75-5.72v-5.42c5.72-.08,10.84-.47,15.33-1.23l1.91,3.47c-3.94.59-8.34.97-13.17,1.1v1.78h13.25v3.64h-5.12v4.28h-4.19v-4.28h-4.45c-.55,1.95-1.48,3.64-2.75,5.08ZM837.22,43.66v-1.7h-19.69v1.7h19.69ZM837.22,48.36v-1.78h-19.69v1.78h19.69ZM837.22,51.24h-19.69v1.82h19.69v-1.82Z"/>
        <path d="M658.92,92.05v-16.53h6.17c1.89,0,3.37.45,4.42,1.36,1.05.91,1.58,2.17,1.58,3.78,0,1.07-.24,2-.72,2.78-.48.78-1.17,1.38-2.06,1.79-.89.41-1.97.62-3.22.62h-3.66v6.19h-2.51ZM661.43,83.57h3.59c1.13,0,1.99-.25,2.58-.73.59-.49.88-1.22.88-2.18s-.3-1.66-.88-2.13-1.45-.71-2.58-.71h-3.59v5.75Z"/>
        <path d="M678.41,92.33c-1.21,0-2.26-.26-3.13-.79-.88-.53-1.55-1.28-2.03-2.26-.48-.98-.71-2.12-.71-3.42s.24-2.44.71-3.41c.47-.97,1.14-1.72,2.01-2.26.87-.54,1.89-.8,3.07-.8,1.12,0,2.1.26,2.96.78.85.52,1.52,1.27,1.99,2.25.47.98.71,2.16.71,3.54v.63h-8.89c.06,1.21.38,2.12.97,2.72.58.6,1.37.91,2.36.91.73,0,1.34-.17,1.81-.51.48-.34.82-.8,1-1.37l2.56.16c-.33,1.15-.97,2.08-1.92,2.78-.96.71-2.12,1.06-3.48,1.06ZM675.1,84.72h6.29c-.08-1.1-.39-1.92-.94-2.45-.55-.53-1.25-.79-2.11-.79s-1.61.27-2.18.83c-.57.55-.92,1.35-1.06,2.41Z"/>
        <path d="M686.49,92.05v-12.39h2.26l.09,3.28-.21-.07c.17-1.12.52-1.93,1.04-2.45.52-.51,1.22-.77,2.11-.77h1.19v2.21h-1.19c-.62,0-1.14.1-1.56.3-.42.2-.73.51-.94.93-.21.42-.31.96-.31,1.63v7.31h-2.47Z"/>
        <path d="M699.5,92.33c-1.16,0-2.15-.18-2.95-.54-.8-.36-1.42-.85-1.85-1.48-.44-.63-.68-1.35-.75-2.18l2.54-.12c.12.68.42,1.23.88,1.63.47.4,1.17.6,2.12.6.78,0,1.39-.12,1.84-.37.45-.25.67-.64.67-1.19,0-.3-.07-.55-.22-.76-.15-.21-.43-.39-.85-.54-.42-.15-1.04-.29-1.86-.43-1.23-.23-2.19-.5-2.89-.81-.7-.31-1.19-.71-1.49-1.19-.3-.48-.44-1.06-.44-1.74,0-1.13.42-2.06,1.27-2.77.85-.71,2.07-1.07,3.67-1.07,1.07,0,1.97.18,2.7.55.73.36,1.3.85,1.71,1.47.41.61.67,1.3.78,2.06l-2.54.14c-.08-.43-.23-.81-.45-1.13s-.53-.57-.9-.75c-.37-.18-.81-.27-1.33-.27-.79,0-1.38.16-1.77.47s-.58.71-.58,1.21c0,.37.09.67.27.91s.47.42.87.57c.41.15.94.27,1.61.38,1.29.22,2.3.49,3.03.8.73.32,1.24.71,1.54,1.18.3.47.44,1.03.44,1.7,0,.78-.22,1.44-.65,1.98s-1.03.96-1.79,1.25c-.76.29-1.64.43-2.63.43Z"/>
        <path d="M712.17,92.33c-1.18,0-2.21-.26-3.1-.79-.89-.53-1.57-1.28-2.05-2.26-.48-.98-.72-2.12-.72-3.42s.24-2.46.72-3.42c.48-.96,1.16-1.71,2.05-2.25.88-.54,1.92-.8,3.1-.8s2.21.27,3.1.8,1.57,1.28,2.05,2.25c.48.96.72,2.1.72,3.42s-.24,2.44-.72,3.42-1.16,1.73-2.05,2.26-1.92.79-3.1.79ZM712.17,90.19c1.05,0,1.87-.38,2.44-1.15s.86-1.83.86-3.18-.29-2.41-.86-3.18-1.39-1.15-2.44-1.15-1.85.38-2.43,1.15c-.58.77-.87,1.83-.87,3.18s.29,2.41.87,3.18c.58.77,1.39,1.15,2.43,1.15Z"/>
        <path d="M720.53,92.05v-12.39h2.26l.09,3.31-.3-.16c.14-.81.4-1.46.79-1.96s.86-.87,1.42-1.11c.56-.24,1.16-.36,1.82-.36.93,0,1.7.21,2.32.62.61.41,1.08.97,1.4,1.68.32.7.48,1.51.48,2.41v7.96h-2.47v-7.22c0-.73-.08-1.34-.23-1.84-.16-.5-.41-.88-.77-1.14-.36-.26-.82-.39-1.4-.39-.87,0-1.58.29-2.12.86-.54.57-.81,1.41-.81,2.52v7.22h-2.47Z"/>
        <path d="M737.52,92.33c-1.29,0-2.32-.3-3.08-.88-.77-.59-1.15-1.42-1.15-2.49s.32-1.91.97-2.5c.64-.6,1.64-1.03,2.99-1.29l4.26-.82c0-.96-.23-1.68-.67-2.15-.45-.47-1.12-.71-2-.71-.79,0-1.41.17-1.86.52s-.76.87-.93,1.55l-2.54-.16c.23-1.24.81-2.22,1.74-2.94.92-.71,2.12-1.07,3.6-1.07,1.68,0,2.95.45,3.83,1.34s1.31,2.15,1.31,3.76v4.82c0,.29.05.5.15.62.1.12.27.18.5.18h.44v1.96c-.08.01-.2.03-.37.05-.17.02-.35.02-.54.02-.53,0-.98-.09-1.36-.26-.38-.17-.66-.45-.85-.85-.19-.4-.28-.93-.28-1.6l.26.12c-.12.54-.39,1.03-.8,1.44-.41.42-.93.75-1.56.99-.63.24-1.31.36-2.04.36ZM737.92,90.37c.74,0,1.38-.14,1.91-.43s.94-.69,1.23-1.2c.3-.51.44-1.09.44-1.75v-.79l-3.63.7c-.74.14-1.27.36-1.57.66s-.45.69-.45,1.15c0,.53.18.93.55,1.22.36.29.87.43,1.53.43Z"/>
        <path d="M749.68,92.05c-.81,0-1.46-.21-1.96-.63-.5-.42-.74-1.09-.74-2v-13.9h2.47v13.67c0,.28.07.49.22.63.15.14.36.21.64.21h.98v2.03h-1.61Z"/>
        <path d="M753.31,77.87v-2.47h2.56v2.47h-2.56ZM753.36,92.05v-12.39h2.47v12.39h-2.47Z"/>
        <path d="M757.81,81.69v-2.03h7.64v2.03h-7.64ZM763.14,92.05c-1.18,0-2.05-.27-2.61-.81-.56-.54-.84-1.39-.84-2.54v-11.95h2.47v11.76c0,.57.12.97.37,1.19s.63.33,1.14.33h1.77v2.03h-2.3Z"/>
        <path d="M768.4,95.54v-2.03h1.51c.42,0,.73-.06.93-.19.2-.12.36-.33.47-.63l.39-1.02h-.77l-4.47-12.02h2.61l3.4,9.73,3.24-9.73h2.63l-4.94,13.83c-.25.71-.62,1.23-1.11,1.56-.49.33-1.17.49-2.04.49h-1.86Z"/>
        <path d="M789.84,92.05v-14.23h-5.08v-2.3h12.67v2.3h-5.08v14.23h-2.51Z"/>
        <path d="M798.3,92.05v-12.39h2.26l.09,3.28-.21-.07c.17-1.12.52-1.93,1.04-2.45.52-.51,1.22-.77,2.11-.77h1.19v2.21h-1.19c-.62,0-1.14.1-1.56.3-.42.2-.73.51-.94.93-.21.42-.31.96-.31,1.63v7.31h-2.47Z"/>
        <path d="M810.01,92.33c-1.29,0-2.32-.3-3.08-.88-.77-.59-1.15-1.42-1.15-2.49s.32-1.91.97-2.5c.64-.6,1.64-1.03,2.99-1.29l4.26-.82c0-.96-.23-1.68-.67-2.15-.45-.47-1.12-.71-2-.71-.79,0-1.41.17-1.86.52s-.76.87-.93,1.55l-2.54-.16c.23-1.24.81-2.22,1.74-2.94.92-.71,2.12-1.07,3.6-1.07,1.68,0,2.95.45,3.83,1.34s1.31,2.15,1.31,3.76v4.82c0,.29.05.5.15.62.1.12.27.18.5.18h.44v1.96c-.08.01-.2.03-.37.05-.17.02-.35.02-.54.02-.53,0-.98-.09-1.36-.26-.38-.17-.66-.45-.85-.85-.19-.4-.28-.93-.28-1.6l.26.12c-.12.54-.39,1.03-.8,1.44-.41.42-.93.75-1.56.99-.63.24-1.31.36-2.04.36ZM810.4,90.37c.74,0,1.38-.14,1.91-.43s.94-.69,1.23-1.2c.3-.51.44-1.09.44-1.75v-.79l-3.63.7c-.74.14-1.27.36-1.57.66s-.45.69-.45,1.15c0,.53.18.93.55,1.22.36.29.87.43,1.53.43Z"/>
        <path d="M819.46,77.87v-2.47h2.56v2.47h-2.56ZM819.51,92.05v-12.39h2.47v12.39h-2.47Z"/>
        <path d="M823.95,81.69v-2.03h7.64v2.03h-7.64ZM829.29,92.05c-1.18,0-2.05-.27-2.61-.81-.56-.54-.84-1.39-.84-2.54v-11.95h2.47v11.76c0,.57.12.97.37,1.19s.63.33,1.14.33h1.77v2.03h-2.3Z"/>
        <path d="M838.48,92.33c-1.16,0-2.15-.18-2.95-.54s-1.42-.85-1.85-1.48c-.44-.63-.68-1.35-.75-2.18l2.54-.12c.12.68.42,1.23.88,1.63.47.4,1.17.6,2.12.6.78,0,1.39-.12,1.84-.37.45-.25.67-.64.67-1.19,0-.3-.07-.55-.22-.76-.15-.21-.43-.39-.85-.54-.42-.15-1.04-.29-1.86-.43-1.23-.23-2.19-.5-2.89-.81-.7-.31-1.19-.71-1.49-1.19-.3-.48-.44-1.06-.44-1.74,0-1.13.42-2.06,1.27-2.77.85-.71,2.07-1.07,3.67-1.07,1.07,0,1.97.18,2.7.55.73.36,1.3.85,1.71,1.47.41.61.67,1.3.78,2.06l-2.54.14c-.08-.43-.23-.81-.45-1.13s-.53-.57-.9-.75c-.37-.18-.81-.27-1.33-.27-.79,0-1.38.16-1.77.47s-.58.71-.58,1.21c0,.37.09.67.27.91s.47.42.87.57c.41.15.94.27,1.61.38,1.29.22,2.3.49,3.03.8.73.32,1.24.71,1.54,1.18.3.47.44,1.03.44,1.7,0,.78-.22,1.44-.65,1.98s-1.03.96-1.79,1.25c-.76.29-1.64.43-2.63.43Z"/>
      </g>
      <g>
        <path d="M586.1,235.07c1.66-1.84,3.12-4.39,4.36-7.62l2.88.65c-.41,1.07-.83,2.05-1.24,3h10.85v2.96h-12.39c-.83,1.36-1.69,2.58-2.64,3.65l-1.81-2.16v16.4h-2.94v-1.54h-2.85v2.25h-3.02v-23.01h8.81v5.43ZM583.17,247.5v-14.94h-2.85v14.94h2.85ZM600.63,237.77v2.7c-2.55,2.4-4.45,4.33-5.72,5.75-1.28,1.39-2.14,2.43-2.58,3.11-.45.68-.65,1.19-.65,1.51,0,.56.33.86,1.04.86h5.99c.59,0,1.04-.24,1.33-.71.3-.44.5-1.93.62-4.45l2.91,1.01c-.27,3.32-.77,5.31-1.51,5.96-.71.65-1.84.98-3.35,1.01h-6.73c-2.46,0-3.68-1.04-3.68-3.06,0-.65.27-1.39.8-2.16.48-.77,1.48-2.08,2.97-3.91,1.18-1.45,2.61-3.02,4.3-4.74h-7.56v-2.88h11.83Z"/>
        <path d="M610.87,255.2l-2.22-2.02c1.24-2.14,1.9-4.83,1.93-8.15v-9.49h11.21v16.43c0,1.84-1.04,2.76-3.08,2.76h-2.49l-.77-2.7c.89.06,1.69.12,2.4.12s1.13-.38,1.13-1.16v-2.16h-5.87c-.38,2.49-1.13,4.6-2.22,6.37ZM629.76,228.52c-.5.83-1.07,1.63-1.66,2.37h6.76v3.02h-25.82v-3.02h7.12c-.48-1.01-1.01-1.93-1.6-2.79l3.11-.53c.56.98,1.13,2.08,1.69,3.32h5.28c.8-1.1,1.51-2.26,2.14-3.44l2.99,1.07ZM613.42,244.86c0,.44-.03.86-.03,1.24h5.57v-2.55h-5.54v1.31ZM618.97,238.31h-5.54v2.52h5.54v-2.52ZM627.33,237.21v12.66h-2.91v-12.66h2.91ZM626.71,254.73l-.65-2.91c1.19.12,2.28.21,3.35.21.71,0,1.1-.39,1.1-1.16v-15.83h3.02v16.6c0,2.05-1.04,3.08-3.08,3.08h-3.74Z"/>
        <path d="M641.63,236.73l-1.66-2.61c4.78-1.9,9.07-4.09,12.93-6.58h1.84c3.85,2.49,8.15,4.68,12.93,6.58l-1.66,2.58c-.53-.24-1.01-.44-1.45-.68v7.83h-21.47v-7.8c-.47.24-.98.45-1.45.68ZM659.78,233.65v1.04h-11.95v-.98c-1.3.68-2.67,1.36-4.06,2.02h20.16c-1.48-.71-2.85-1.4-4.15-2.08ZM663.42,255.03h-2.94v-.89h-13.31v.92h-2.94v-10.17h19.18v10.14ZM652.43,238.04h-6.52v3.56h6.52v-3.56ZM660.49,248.36v-1.19h-13.31v1.19h13.31ZM660.49,251.74v-1.3h-13.31v1.3h13.31ZM650.85,240.91l-2.02.53c-.38-.95-.86-1.84-1.42-2.73l2.04-.62c.54.83.98,1.75,1.4,2.82ZM653.82,230.15c-1.16.77-2.4,1.51-3.71,2.28h7.44c-1.36-.77-2.61-1.54-3.74-2.28ZM661.74,238.04h-6.52v3.56h6.52v-3.56ZM660.16,238.66c-.38,1.07-.86,1.99-1.39,2.79l-1.99-.71c.48-.71.92-1.57,1.3-2.61l2.08.54Z"/>
        <path d="M675.92,238.75l-3-1.87c2.14-2.79,3.65-5.72,4.54-8.81l3.11.65c-.3,1.04-.62,2.04-.98,2.99h4.78v-4.09h3.11v4.09h9.43v3h-9.43v4.66h11.47v3h-7.74v7.47c0,1.13.39,1.72,1.22,1.72h2.49c.27,0,.53-.18.83-.5.24-.36.38-1.81.5-4.42l2.96.95c-.3,3.44-.71,5.46-1.19,6.02-.56.59-1.33.89-2.31.95h-4.15c-2.34,0-3.5-1.39-3.5-4.15v-8.03h-4.63c-.33,3.29-1.04,5.75-2.14,7.38-1.36,2.02-3.71,3.77-6.97,5.28l-2.2-2.79c2.91-1.16,4.98-2.52,6.23-4.09.95-1.25,1.6-3.17,1.93-5.78h-7.77v-3h11.83v-4.66h-6.08c-.71,1.45-1.51,2.79-2.37,4.03Z"/>
        <path d="M706.12,254.79l-2.37-2.14c1.75-2.49,2.64-5.66,2.7-9.52v-14.68h22.98v22.39c0,2.28-1.19,3.44-3.53,3.44h-3.41l-.83-3.02c1.18.12,2.25.18,3.26.18.89,0,1.36-.59,1.36-1.72v-4.12h-7.06v8.36h-3.14v-8.36h-6.67c-.39,3.68-1.48,6.76-3.29,9.19ZM709.56,231.49v4.15h6.52v-4.15h-6.52ZM709.56,242.75h6.52v-4.27h-6.52v4.27ZM726.28,231.49h-7.06v4.15h7.06v-4.15ZM726.28,238.48h-7.06v4.27h7.06v-4.27Z"/>
        <path d="M760.21,254.94h-3.11v-2.04h-15.39v2.1h-3.11v-23.01h7.18c.56-1.48.98-2.99,1.28-4.6l3.44.48c-.3,1.48-.74,2.88-1.28,4.12h11v22.95ZM757.1,240.68v-5.75h-15.39v5.75h15.39ZM757.1,249.93v-6.34h-15.39v6.34h15.39Z"/>
        <path d="M775.61,227.9c1.72,1.78,3.38,3.62,4.95,5.49l-1.93,2.04c-.59-.8-1.16-1.48-1.63-2.08v1.93h-5.58v-1.16c-.71.74-1.45,1.45-2.22,2.14l-1.6-2.28c1.9-1.72,3.68-3.74,5.31-6.08h2.7ZM779.05,251.14c1.1-3.32,1.66-7.59,1.72-12.84v-9.67h13.7v2.85h-10.67v4.6h9.81v2.04c-.24,3.77-1.22,7.09-2.94,9.93,1.19,1.66,2.67,3.08,4.42,4.27l-1.48,2.61c-1.84-1.24-3.41-2.7-4.68-4.36-1.36,1.63-3,3.11-4.89,4.42l-1.96-2.25c2.08-1.39,3.83-3,5.19-4.77-1.45-2.67-2.4-5.75-2.88-9.28h-.59c-.15,6.85-1.22,12.33-3.17,16.49l-1.72-1.57-1.42.65-.56-1.57c-2.28.77-4.86,1.42-7.71,1.99l-.83-2.31c.5-.18.77-.45.77-.83v-14.85h9.61v11.24h-6.79v3.56c1.45-.36,2.76-.71,3.94-1.07-.27-.59-.53-1.13-.8-1.6l2.4-.8c.56,1.01,1.07,2.05,1.54,3.14ZM775.88,239.37h-3.92v1.75h3.92v-1.75ZM771.97,245.18h3.92v-1.69h-3.92v1.69ZM776.65,232.91c-.83-1.01-1.57-1.78-2.17-2.37-.59.8-1.24,1.6-1.93,2.37h4.09ZM790.94,238.69h-3.88c.36,2.4.98,4.57,1.93,6.52,1.01-2.02,1.66-4.18,1.96-6.52Z"/>
        <path d="M803.64,232.94v-5.37h3.11v5.37h2.76v3h-2.76v2.05c.89.92,1.78,1.93,2.67,3,1.57-1.84,2.94-4,4.09-6.43l2.58,1.28c-.89,1.87-1.84,3.56-2.91,5.1l2.08-.62c.33,2.19,1.19,4.15,2.61,5.9,1.13-1.75,1.9-3.8,2.31-6.11l2.76.56c-.98-1.51-2.1-3.11-3.41-4.78l2.4-1.48c2.2,2.67,3.92,5.01,5.1,7.03l-2.58,1.75c-.42-.77-.89-1.54-1.4-2.34-.56,2.96-1.54,5.52-2.94,7.59,1.84,1.48,4.12,2.76,6.91,3.8l-1.57,2.82c-2.9-1.16-5.34-2.58-7.23-4.24-2.02,2.08-4.62,3.53-7.77,4.39l-1.75-2.79c3-.77,5.43-2.05,7.29-3.88-1.66-2.02-2.76-4.33-3.29-6.94-.5.65-.98,1.28-1.45,1.81l-.77-.53-1.48,2.22c-.83-1.66-1.6-3.05-2.25-4.18v13.97h-3.11v-13.4c-.86,2.37-1.93,4.57-3.17,6.58l-1.36-3.38c2.02-2.55,3.47-5.46,4.42-8.72h-3.56v-3h3.68ZM816.72,231.01c-.48-1.16-.98-2.22-1.54-3.2l3.14-.53c.5,1.1,1.01,2.34,1.51,3.74h6.38v3.02h-16.19v-3.02h6.7Z"/>
        <path d="M833.37,231.84v-3.02h23.72v3.02h-9.72v7.56h8.12v2.97h-8.12v8.51h10.97v3.02h-26.72v-3.02h4.33v-13.7h3.02v13.7h5.28v-19.03h-10.88Z"/>
        <path d="M868.07,234.21v-1.33h-4.56v-2.79h4.56v-2.22h2.85v2.22h4.66v2.79h-4.66v1.33h4.12v12.48h-4.12v1.39h4.54v2.79h-4.54v3.71h-2.85v-3.71h-4.6v-2.79h4.6v-1.39h-4.06v-12.48h4.06ZM868.16,239.31v-2.46h-1.42v2.46h1.42ZM868.16,241.74h-1.42v2.28h1.42v-2.28ZM870.83,239.31h1.51v-2.46h-1.51v2.46ZM872.34,241.74h-1.51v2.28h1.51v-2.28ZM883.67,241.39c.95,4.74,3.14,8.33,6.64,10.82l-1.84,2.49c-2.76-2.14-4.72-4.95-5.9-8.42-1.25,3.35-3.38,6.2-6.41,8.51l-1.75-2.58c4.12-3.02,6.26-7.26,6.38-12.66,0-1.24.03-2.22.03-2.94h3c0,1.87-.06,3.47-.15,4.77ZM877.65,240.68l-2.49-1.75c1.72-2.7,2.82-6.46,3.35-11.3l3,.5c-.18,1.36-.36,2.64-.56,3.8h8.66v1.96c-.47,2.61-1.04,5.19-1.75,7.77l-2.97-.89c.65-1.69,1.19-3.68,1.6-5.96h-6.23c-.71,2.46-1.57,4.42-2.61,5.87Z"/>
        <path d="M895.75,231.81v-2.9h9.87v2.9h-4.06c-.36,2.05-.86,3.97-1.51,5.81h5.43v14.17h-5.04v2.14h-2.85v-11c-.42.71-.86,1.42-1.33,2.08l-1.63-2.58c1.96-3.14,3.29-6.7,3.97-10.61h-2.85ZM902.63,249.16v-8.81h-2.2v8.81h2.2ZM921.9,228.46v2.79h-6.32v1.93h5.52v12.36h-5.66c-.24,1.72-.68,3.17-1.36,4.39,2.43,1.36,5.31,2.14,8.6,2.31l-.74,2.82c-3.65-.24-6.85-1.25-9.58-2.97-1.42,1.25-3.38,2.22-5.87,2.97l-1.57-2.49c2.2-.65,3.88-1.39,5.04-2.25-.98-.86-1.9-1.81-2.73-2.85l2.16-1.48c.71.83,1.45,1.6,2.28,2.28.41-.83.74-1.72.92-2.73h-5.28v-12.36h5.46v-1.93h-6.29v-2.79h15.42ZM912.77,235.81h-2.67v2.31h2.67v-2.31ZM910.1,242.96h2.67v-2.34h-2.67v2.34ZM918.28,235.81h-2.7v2.31h2.7v-2.31ZM915.58,242.96h2.7v-2.34h-2.7v2.34Z"/>
        <path d="M586.01,266.58c-1.01.42-2.58.89-4.77,1.36l.12,2.46h4v2.82h-3.86l.15,2.7h3.5v2.85h-3.35l.15,2.88h16.43l.12-2.82h-2.82v-2.85h2.97l.12-2.73h-2.88v-2.82h3.02l.12-2.73h-3.47v-2.9h6.4l-.65,16.84h2.05v2.91h-7.71c2.88,1.07,5.52,2.34,7.89,3.8l-1.75,2.7c-2.88-1.96-5.81-3.5-8.83-4.63l1.24-1.87h-8.69l1.99,1.75c-2.34,1.75-5.22,3.29-8.63,4.62l-1.96-2.52c3.14-1.13,5.81-2.4,7.97-3.85h-8.06v-2.91h2.1l-.65-16.13c2.1-.24,4.3-.8,6.61-1.72l1.13,2.79ZM588.98,274.17c-.09,2.43-.5,4.78-1.25,7.03l-2.46-.71c.71-2.04,1.13-4.21,1.24-6.49l2.46.18ZM589.75,270.58h4.89c-.09,5.69-.36,8.92-.83,9.67-.5.71-1.54,1.1-3.11,1.1h-.89l-.86-2.76c.65.03,1.25.06,1.81.06.42-.03.71-.21.89-.53.12-.33.21-1.96.24-4.92h-5.37c.65-3.56,1.13-6.7,1.45-9.43l2.73.24c-.09.68-.18,1.34-.24,1.93h4.03v2.67h-4.42c-.12.68-.21,1.33-.33,1.99Z"/>
        <path d="M634.65,267.2h-21.5v8.72c-.09,6.35-1.01,11.45-2.79,15.3l-2.34-2.11c1.36-3.14,2.08-7.56,2.14-13.19v-11.5h24.49v2.79ZM627.15,280.87h-11.98v-2.37h17.55v1.9c-1.66.89-3.62,1.87-5.87,3h8.51v2.67h-8.51v2.05c0,1.78-.98,2.67-2.91,2.67h-4.3l-.77-2.58c1.63.12,2.94.18,3.91.18.71,0,1.1-.39,1.1-1.1v-1.22h-10.05v-2.67h10.05v-1.13l3.26-1.39ZM632.58,268.48v9.04h-16.87v-9.04h16.87ZM629.76,271.92v-1.13h-11.21v1.13h11.21ZM629.76,274.08h-11.21v1.19h11.21v-1.19Z"/>
        <path d="M646.23,278.65l-1.96,1.96c-.92-1.07-2.22-2.25-3.88-3.5l1.99-1.93c1.51,1.16,2.79,2.31,3.86,3.47ZM646.7,282.77c-1.01,2.91-2.1,5.66-3.32,8.21l-2.85-1.3c1.36-2.61,2.55-5.25,3.56-7.98l2.61,1.07ZM646.82,273.04l-1.99,1.99c-.95-1.07-2.25-2.19-3.94-3.41l2.02-1.93c1.54,1.13,2.85,2.22,3.92,3.35ZM647,265.22v-1.69h3v1.69h3.17v2.67h-3.17v1.42h-3v-1.42h-6.05v-2.67h6.05ZM660.67,263.53v1.69h6.05v2.67h-6.05v1.42h-2.22v1.04h4.24c-.18-.5-.39-.98-.62-1.42l2.55-.41c.18.53.36,1.16.53,1.84h1.48v2.08h-8.18v1.04h7.2v8.06c0,1.07-.74,1.63-2.19,1.72v.74h3.62v2.31h-3.62v2.08c0,1.63-.95,2.46-2.85,2.46h-2.94l-.56-2.52c.89.12,1.78.18,2.64.18.47,0,.71-.27.71-.77v-1.42h-7.59c1.3.77,2.43,1.54,3.38,2.31l-1.87,1.9c-1.01-.95-2.4-1.93-4.18-2.94l1.3-1.28h-4.15v-2.31h13.11v-1.07h.86l-.44-1.57,1.48.09c.3,0,.47-.21.47-.56v-.21h-4.39v2.2h-3v-2.2h-4.27v2.28h-2.88v-9.49h7.15v-1.04h-8.12v-2.08h8.12v-1.1h2.22v-1.36h-3.2v-2.67h3.2v-1.69h2.99ZM651.18,275.39v.98h4.27v-.98h-4.27ZM651.18,279h4.27v-.98h-4.27v.98ZM662.83,275.39h-4.39v.98h4.39v-.98ZM662.83,278.03h-4.39v.98h4.39v-.98Z"/>
        <path d="M687.69,281.29c.53.65.8,1.48.8,2.52,0,1.57-.48,2.94-1.36,4.12-.92,1.16-2.16,1.96-3.71,2.4v-1.96c.8-.3,1.48-.77,2.02-1.45s.8-1.36.8-2.08c-.18.06-.41.12-.74.12-.65,0-1.19-.24-1.6-.65-.47-.48-.68-1.04-.68-1.69,0-.71.21-1.28.68-1.69.48-.45,1.07-.65,1.81-.65.8,0,1.45.33,1.99,1.01ZM687.34,269.99c.44.44.68,1.01.68,1.66s-.24,1.19-.68,1.63c-.47.44-1.01.68-1.66.68s-1.22-.24-1.66-.68c-.45-.44-.65-.98-.65-1.63s.21-1.22.65-1.66c.44-.48,1.01-.68,1.66-.68s1.19.21,1.66.68Z"/>
        <path d="M711.51,270.67v2.4c-.89,1.48-1.96,2.94-3.14,4.42h3.44v2.02c-.39,2.14-.83,3.88-1.36,5.28.24.15.44.33.68.53.95.83,1.84,1.42,2.67,1.78.83.3,2.04.48,3.65.53,1.6.03,3.44.06,5.52.06s4.89-.09,8.33-.24l-.71,2.91h-7.23c-2.02,0-4.03-.06-6.02-.12-2.02-.06-3.53-.27-4.54-.65-1.25-.48-2.34-1.19-3.35-2.16-.21-.21-.44-.3-.68-.3-.56,0-1.48,1.28-2.76,3.83l-2.22-2.08c1.36-2.55,2.64-4.06,3.88-4.54.54-1.3.95-2.73,1.25-4.27h-4.18v-2.31c1.36-1.54,2.52-2.97,3.41-4.3h-3.88v-2.79h7.26ZM711.34,267.86l-1.99,1.99c-1.07-1.3-2.58-2.76-4.51-4.3l2.02-1.9c1.75,1.39,3.23,2.79,4.48,4.21ZM722.99,263.53v1.84h6.23v2.64h-6.23v1.45h7.86v2.67h-3.56c-.24.68-.53,1.34-.83,1.99h2.94v2.58h-6.4v1.4h5.52v2.49h-5.52v1.42h7.41v2.76h-7.41v2.37h-2.91v-2.37h-7.23v-2.76h7.23v-1.42h-5.57v-2.49h5.57v-1.4h-6.4v-2.58h3.06c-.33-.71-.65-1.39-.98-1.99h-3.47v-2.67h7.8v-1.45h-5.99v-2.64h5.99v-1.84h2.91ZM724.41,272.12h-5.72c.3.62.56,1.28.86,1.99h4.06c.33-.65.59-1.33.8-1.99Z"/>
        <path d="M742.75,290.89h-2.88v-13.82c-.83,2.37-1.81,4.57-2.97,6.58l-1.33-3.44c1.87-2.61,3.23-5.54,4.09-8.81h-3.11v-2.85h3.32v-5.04h2.88v5.04h2.91v2.85h-2.91v1.34c1.22,1.33,2.43,2.82,3.68,4.45l-1.81,2.73c-.71-1.42-1.34-2.64-1.87-3.59v14.56ZM751.14,285.88c-1.3,1.87-2.88,3.5-4.71,4.92l-1.75-2.28c1.78-1.25,3.29-2.67,4.51-4.33l1.96,1.69ZM750.84,268.54v-1.57h-4.92v-2.61h16.66v2.61h-4.66v1.57h4.24v7.41h-15.6v-7.41h4.27ZM762.64,281.02v2.61h-7.03v7.18h-2.85v-7.18h-6.67v-2.61h16.55ZM761.46,277.17v2.61h-13.99v-2.61h13.99ZM751.08,270.85h-1.84v2.76h1.84v-2.76ZM753.39,266.97v1.57h1.99v-1.57h-1.99ZM755.35,270.85h-1.93v2.76h1.93v-2.76ZM763.3,288.64l-2.05,2.02c-.95-1.42-2.28-2.96-4.03-4.62l1.84-1.81c1.66,1.48,3.08,2.96,4.24,4.42ZM759.5,270.85h-1.84v2.76h1.84v-2.76Z"/>
        <path d="M779.2,290.72l-.71-3c1.54.12,3,.18,4.36.18.68,0,1.04-.44,1.04-1.27v-15h-.32c-2.91,6.08-7.77,11.06-14.56,14.97l-1.63-2.64c5.93-3.2,10.29-7.32,13.02-12.33h-12.42v-3h15.92v-5.07h3.12v5.07h7.12v3h-7.12v15.8c0,2.19-1.04,3.29-3.08,3.29h-4.72Z"/>
        <path d="M802.67,285.05c-.12,2.2-.39,4.18-.83,5.9l-2.52-.77c.53-1.6.89-3.41,1.01-5.43l2.34.3ZM805.01,277.02v-1.42h-4.89v-11.18h12.45v11.18h-4.86v1.42h4.42v2.43h-4.42v1.45h5.07v2.73h-12.9v-2.73h5.13v-1.45h-4.48v-2.43h4.48ZM805.22,266.73h-2.64v1.54l1.51-.48c.39,1.22.74,2.64,1.04,4.24l-1.6.42c-.27-1.36-.59-2.7-.95-3.94v4.77h2.64v-6.55ZM806.08,290.3l-2.49.33c-.03-2.31-.09-4.12-.18-5.4l2.22-.3c.21,1.3.36,3.11.44,5.37ZM809.78,289.68l-2.46.56c-.21-1.9-.48-3.56-.77-5.01l2.19-.44c.39,1.48.74,3.11,1.04,4.89ZM810.11,266.73h-2.73v6.55h2.73v-6.55ZM809.93,267.94c-.15,1.6-.42,3.11-.8,4.57l-1.6-.56c.36-1.39.59-2.88.74-4.45l1.66.44ZM813.1,288.97l-2.2.8c-.32-1.63-.71-3.23-1.16-4.77l2.16-.62c.5,1.66.89,3.17,1.19,4.6ZM820.81,263.68v5.16h5.96v2.82h-5.96v4.51h4.8v14.8h-2.91v-1.39h-5.99v1.39h-2.91v-14.8h3.97v-12.48h3.02ZM822.71,286.77v-7.83h-5.99v7.83h5.99Z"/>
        <path d="M842.74,288.25c-3.23.71-6.91,1.31-11.03,1.75l-.38-2.85c2.19-.24,4.24-.48,6.14-.74.71-2.08,1.3-4.33,1.84-6.7l2.61.95c-.44,1.96-.95,3.71-1.48,5.28.8-.18,1.57-.33,2.31-.48v2.79ZM842.77,264.74v2.85h-11.18v-2.85h11.18ZM842.2,269.75v9.22h-10.05v-9.22h10.05ZM836.27,285.47l-2.49.65c-.36-1.84-.83-3.62-1.39-5.31l2.46-.8c.53,1.6,1.01,3.41,1.42,5.46ZM839.48,272.36h-4.6v4h4.6v-4ZM849.08,269.07c.12-.62.24-1.24.32-1.9h-5.78v-2.73h14.83v2.73h-6.05c-.12.65-.24,1.28-.38,1.9h5.4v16.13h-2.96c1.72,1.25,3.17,2.52,4.36,3.77l-2.08,2.04c-1.07-1.3-2.58-2.73-4.54-4.21l1.69-1.6h-5.75l1.84,1.6c-1.39,1.66-3.11,3.11-5.16,4.39l-1.81-2.34c1.84-1.07,3.38-2.28,4.69-3.65h-3.23v-16.13h4.63ZM854.51,273.64v-2.05h-7.15v2.05h7.15ZM854.51,277.94v-1.81h-7.15v1.81h7.15ZM854.51,280.43h-7.15v2.1h7.15v-2.1Z"/>
        <path d="M875.9,274.08h-8.63v16.63h-3.08v-26.51h11.71v9.87ZM872.87,266.58h-5.6v1.57h5.6v-1.57ZM867.27,271.68h5.6v-1.45h-5.6v1.45ZM872.25,280.84v-2.58h-2.82v-2.61h14.44v2.61h-2.52v2.58h3.44v2.67h-3.44v6.61h-2.82v-6.61h-3.71c-.21,1.51-.56,2.79-1.1,3.83-.74,1.42-1.96,2.55-3.65,3.32l-1.51-2.43c1.39-.71,2.34-1.6,2.85-2.67.24-.59.44-1.28.59-2.05h-3.35v-2.67h3.59ZM878.54,278.26h-3.53v2.58h3.53v-2.58ZM877.53,274.02v-9.81h11.89v23.07c0,2.2-1.07,3.32-3.14,3.32-1.04,0-2.08-.06-3.12-.12l-.74-2.73c1.01.09,1.93.15,2.76.15.77,0,1.16-.53,1.16-1.54v-12.33h-8.81ZM886.34,266.64h-5.78v1.51h5.78v-1.51ZM880.55,271.65h5.78v-1.42h-5.78v1.42Z"/>
        <path d="M915.64,263.62v5.31h5.84c0,10.02-.15,16.19-.41,18.53-.3,2.16-1.63,3.26-4,3.26-.53,0-1.48-.06-2.85-.15l-.74-2.7c1.18.06,2.22.12,3.11.12.95,0,1.48-.65,1.66-1.93.18-1.36.27-6.14.33-14.32h-2.94v.98c-.09,8.27-1.87,14.32-5.34,18.15l-1.66-1.42c-3.92.48-8.39.86-13.37,1.16l-.38-2.73c2.14-.12,4.12-.24,6.02-.36v-1.87h-5.01v-2.49h5.01v-1.42h-5.13v-9.58h5.13v-1.25h-5.72v-2.55h5.72v-1.3c-1.54.06-3.14.12-4.8.12l-.83-2.4c4.98,0,9.16-.42,12.6-1.19l1.36,2.31c-1.6.42-3.41.71-5.42.92v1.54h5.57v2.55h-5.57v1.25h5.16v9.58h-5.16v1.42h5.04v2.49h-5.04v1.63c1.78-.18,3.47-.36,5.01-.53v1.3c2.58-3.41,3.88-8.51,3.94-15.33v-.98h-2.58v-2.82h2.58v-5.31h2.88ZM901.08,275.92v-1.57h-2.52v1.57h2.52ZM901.08,277.94h-2.52v1.54h2.52v-1.54ZM903.63,275.92h2.55v-1.57h-2.55v1.57ZM906.18,277.94h-2.55v1.54h2.55v-1.54Z"/>
        <path d="M592.06,311.58c.5.65.77,1.51.77,2.55,0,1.57-.48,2.94-1.36,4.12-.92,1.16-2.16,1.96-3.71,2.4v-1.96c.8-.3,1.48-.77,2.04-1.42.5-.71.77-1.39.77-2.11-.18.06-.41.12-.74.12-.65,0-1.19-.24-1.63-.68s-.65-1.01-.65-1.66c0-.71.24-1.28.71-1.69.44-.44,1.04-.65,1.78-.65.8,0,1.48.33,2.02.98Z"/>
        <path d="M631.21,299.66v2.61h3.86v2.88h-3.86v1.66c0,.3.15.45.48.45h3.26v2.67h-4.18c-1.72,0-2.55-.8-2.55-2.37v-2.4h-1.87v4.68h-8.87v-4.68h-2.19c-.24,1.19-.65,2.16-1.25,3-.86,1.07-2.22,1.9-4.12,2.49l-1.57-2.49c1.6-.48,2.7-1.04,3.26-1.72.3-.39.5-.8.65-1.28h-3.41v-2.88h3.71v-2.55h2.94v2.55h1.99v-2.7h2.88v2.7h3.11v-2.7h2.88v2.7h1.87v-2.61h3ZM634.92,317.27h-2.91v-3.38h-8.45v1.99h7.68v5.99c0,2.05-.92,3.08-2.7,3.08h-2.88l-.8-2.91,2.7.15c.47,0,.74-.33.74-.98v-2.46h-4.74v8.39h-3.14v-8.39h-4.74v6.32h-2.94v-9.19h7.68v-1.99h-8.45v3.56h-2.91v-6.38h25.86v6.2ZM620.36,307.16h3.11v-2.02h-3.11v2.02Z"/>
        <path d="M651.48,306.51v-1.78h2.99v1.78h5.75v2.1c1.3-1.01,2.49-2.04,3.5-3.11l2.22,1.69c-1.24,1.3-2.55,2.49-3.91,3.56h4.63v2.73h-8.72c-.39.21-.74.41-1.07.59-.68.36-1.42.71-2.19,1.07h8.83v11.89h-2.99v-1.1h-11.8v1.1h-3v-8.48c-1.39.45-2.85.92-4.36,1.4l-1.25-2.7c4.15-.83,8.09-2.1,11.8-3.76h-10.79v-2.73h10.35v-1.63h-7.65v-2.61h7.65ZM646.97,301.02v-1.42h3.06v1.42h3.17v2.73h-3.17v1.78h-3.06v-1.78h-6.05v-2.73h6.05ZM660.52,317.63h-11.8v1.69h11.8v-1.69ZM648.72,323.44h11.8v-1.75h-11.8v1.75ZM660.7,299.6v1.42h6.02v2.73h-6.02v1.78h-3.06v-1.78h-3.2v-2.73h3.2v-1.42h3.06ZM659.54,309.12h-5.07v1.63h2.64c.86-.53,1.66-1.1,2.43-1.63Z"/>
        <path d="M691.07,326.85l-.86-3.11,3.71.15c.59,0,.92-.41.92-1.24v-19.21h-18.32v23.51h-3.11v-26.54h24.55v22.95c0,2.31-1.01,3.5-3.02,3.5h-3.86ZM693.21,305.98v2.88h-15.06v-2.88h15.06ZM691.75,311.31v10.11h-12.13v-10.11h12.13ZM688.76,314.07h-6.14v4.6h6.14v-4.6Z"/>
        <path d="M714.42,322.16c-2.14,1.66-4.8,3.08-7.95,4.33l-1.84-2.43c3.08-1.07,5.69-2.28,7.77-3.71l2.02,1.81ZM715.99,316.95v-1.57h3.08v1.57h10.91v2.73h-10.91v7.35h-3.08v-7.35h-10.94v-2.73h10.94ZM718.42,299.42v1.42h10.59v2.55h-10.59v1.24h8.87v10.32h-19.42v-10.32h7.56v-5.22h3ZM724.38,308.67v-1.54h-13.64v1.54h13.64ZM724.38,310.93h-13.64v1.6h13.64v-1.6ZM730.55,324.21l-1.96,2.22c-2.55-1.63-5.19-3.02-7.92-4.21l1.75-2.02c2.99,1.24,5.69,2.58,8.12,4Z"/>
        <path d="M762.85,311.43v3.08h-26.95v-3.08h26.95Z"/>
        <path d="M776.53,299.36v3.8h4.24v2.79h-4.24v3.5h4.63v2.85h-4v3.32h3.86v2.79h-3.86v4.68c1.84.36,5.1.56,9.79.56,3.62-.03,6.32-.09,8.09-.21l-.53,2.97h-6.91c-6.94,0-11.3-.42-13.05-1.19-1.24-.56-2.37-1.48-3.35-2.79-.41,1.6-.89,3.14-1.48,4.56l-2.37-2.1c1.3-3.35,2.02-7.06,2.19-11.15l2.76.33c-.06,1.78-.21,3.47-.44,5.13.71,1.1,1.48,1.96,2.31,2.58v-9.49h-5.78v-2.85h5.07v-3.5h-4.56v-2.79h4.56v-3.8h3.08ZM793.19,311.55h-7.71v6.29c0,.53.36.83,1.13.83h3.47c.5-.06.86-.3,1.04-.77.15-.33.3-1.36.44-3.14l2.88.92c-.18,1.81-.42,3.08-.65,3.86-.42,1.28-1.3,1.96-2.7,2.02h-5.78c-1.9,0-2.85-.83-2.85-2.49v-17.82h10.73v10.32ZM790.26,308.79v-4.8h-4.77v4.8h4.77Z"/>
        <path d="M807.08,306.66v2.4c-.89,1.48-1.93,2.94-3.11,4.42h3.53v2.02c-.42,2.14-.95,3.88-1.54,5.28.18.12.39.3.59.48.98.86,1.87,1.45,2.7,1.81.83.32,2.08.5,3.71.56,1.6.03,3.47.06,5.54.06s4.92-.09,8.36-.24l-.71,2.91h-7.29c-2.02,0-4.03-.06-6.02-.12-2.02-.06-3.56-.27-4.6-.65-1.25-.48-2.37-1.22-3.38-2.22-.18-.21-.41-.3-.68-.3-.53,0-1.39,1.28-2.61,3.88l-2.22-2.08c1.31-2.61,2.61-4.18,3.88-4.66.56-1.28,1.01-2.67,1.36-4.15h-4.24v-2.31c1.36-1.54,2.46-2.97,3.35-4.3h-3.88v-2.79h7.26ZM807.05,303.84l-1.99,1.99c-1.07-1.3-2.58-2.73-4.54-4.27l2.05-1.96c1.75,1.42,3.23,2.82,4.48,4.24ZM818.32,299.84c-.21.95-.47,1.84-.77,2.67h6.43v8.39h-11.21v2.19h12.19v8.69h-15.12v-19.27h4.66c.3-1.01.5-2.04.65-3.11l3.17.45ZM820.99,308.38v-3.08h-8.21v3.08h8.21ZM812.78,318.93h9.19v-3.29h-9.19v3.29Z"/>
        <path d="M842.53,317.89c-2.52,2.73-5.66,5.16-9.4,7.29l-1.36-3.11c3.86-1.9,7.2-4.21,9.99-6.97l.77,2.79ZM843.6,304.61v-5.13h3.14v5.13h5.22c-.89-.98-2.02-2.02-3.44-3.11l1.99-1.87c1.6,1.19,2.97,2.37,4.09,3.56l-1.42,1.42h4.57v3h-11v1.63c.71,1.48,1.54,2.88,2.49,4.18,1.93-1.45,3.59-3.08,4.95-4.92l2.34,2.05c-1.57,1.87-3.44,3.53-5.6,5.01,2.16,2.49,4.8,4.71,7.92,6.64l-2.16,2.58c-4.24-3.02-7.56-6.61-9.93-10.82v9.81c0,1.99-1.01,3-2.99,3h-4.12l-.68-2.97c1.3.12,2.55.21,3.74.21.59,0,.92-.36.92-1.01v-15.39h-11.47v-3h11.47ZM841.08,313.83l-2.08,2.08c-1.28-1.48-3.08-3.06-5.43-4.77l2.1-2.05c2.14,1.57,3.92,3.14,5.4,4.74Z"/>
        <path d="M889.06,326.34h-3v-.95h-18.5v.95h-3v-25.23h24.49v25.23ZM886.07,322.67v-18.83h-18.5v18.83h18.5ZM882.84,307.64v11.12h-12.01v-11.12h12.01ZM879.93,310.21h-6.23v5.96h6.23v-5.96Z"/>
        <path d="M898.42,313.8h5.25c0,5.04-.15,8.42-.44,10.11-.3,1.72-1.66,2.64-4.06,2.82-.74,0-1.51-.03-2.28-.09l-.77-2.79c.74.09,1.51.15,2.34.15,1.19,0,1.84-.5,2.02-1.45.15-.95.24-2.97.24-6.08h-5.37l.86-9.37h4.42v-3.88h-5.1v-2.79h8.01v9.37h-4.66l-.44,4ZM921.37,308.44v10.53h-6.46v1.45h7.47v2.67h-7.47v3.91h-3.02v-3.91h-7.5v-2.67h7.5v-1.45h-6.43v-10.53h15.92ZM912.68,300.43v6.91h-7.71v-6.91h7.71ZM910.07,302.65h-2.49v2.49h2.49v-2.49ZM911.88,312.5v-1.51h-3.44v1.51h3.44ZM911.88,314.87h-3.44v1.54h3.44v-1.54ZM921.84,300.43v6.91h-7.68v-6.91h7.68ZM914.9,312.5h3.44v-1.51h-3.44v1.51ZM918.34,314.87h-3.44v1.54h3.44v-1.54ZM919.23,302.65h-2.49v2.49h2.49v-2.49Z"/>
        <path d="M587.64,361.08h-2.96v-1.48h-4.39v2.34h-2.96v-21.64h2.85c.53-1.57.92-3.2,1.16-4.89l3.11.42c-.33,1.6-.77,3.11-1.3,4.48h4.51v20.78ZM584.68,348.39v-5.19h-4.39v5.19h4.39ZM584.68,356.75v-5.6h-4.39v5.6h4.39ZM602.47,359.51c-.3,2.08-1.72,3.11-4.27,3.11-.59,0-1.66-.06-3.2-.18l-.74-2.82c1.3.09,2.46.15,3.44.15,1.07,0,1.69-.59,1.87-1.75.18-1.42.27-6.32.32-14.71h-7.18c-.8,1.78-1.75,3.38-2.85,4.8l-1.87-2.46c1.96-2.79,3.26-6.23,3.98-10.29l3.05.39c-.3,1.6-.68,3.11-1.13,4.54h9.01c0,10.38-.15,16.78-.44,19.21ZM597.43,353.85l-2.49,1.72c-1.1-1.96-2.58-4.12-4.42-6.49l2.52-1.57c1.9,2.4,3.35,4.51,4.39,6.35Z"/>
        <path d="M616.83,336.62c-.56,1.87-1.24,3.65-2.04,5.37v20.99h-3.08v-15.77c-.8,1.1-1.66,2.16-2.55,3.2l-1.01-3.17c2.64-3.38,4.6-7.35,5.87-11.92l2.82,1.3ZM620.06,351.48v-1.07c-.89.06-1.81.09-2.76.09l-.74-2.08c3.14,0,5.81-.36,7.98-1.07l1.13,1.93c-.89.32-1.84.59-2.91.77v1.42h3.97c-.06-1.19-.09-2.46-.09-3.82h2.61c0,1.42.03,2.7.09,3.82h5.55v2.31h-5.37c.12,1.16.27,2.14.44,2.94.95-.8,1.78-1.69,2.49-2.64l1.87,1.42c-.95,1.36-2.05,2.55-3.32,3.59.47.71,1.01,1.1,1.6,1.16.44,0,.86-.89,1.22-2.67l2.11,1.42c-.53,1.48-1.07,2.52-1.54,3.08-.5.53-1.1.8-1.78.8-1.45,0-2.7-.8-3.74-2.34-1.33.74-2.79,1.36-4.33,1.9l-1.07-2.4c1.57-.47,3-1.1,4.27-1.81-.39-1.18-.65-2.67-.83-4.45h-4.15v1.66c1.16-.18,2.2-.38,3.08-.62v2.31c-.8.24-1.84.47-3.08.71v2.14c0,1.87-1.04,2.82-3.11,2.82h-2.43l-.53-2.46c.71.09,1.42.15,2.13.15.83,0,1.25-.39,1.25-1.13v-1.1c-1.07.12-2.2.27-3.41.38l-.38-2.61c1.36-.06,2.64-.15,3.8-.27v-1.99h-3.71v-2.31h3.71ZM620.86,337.87c-.36-.53-.71-1.04-1.13-1.48l2.64-.98c.53.71,1.04,1.54,1.51,2.46h3.62c.53-.86,1.04-1.75,1.48-2.67l2.73.98c-.36.59-.71,1.16-1.1,1.69h4.18v2.31h-7.65v1.07h6.26v2.28h-6.26v1.16h7.89v2.31h-18.12v-2.31h7.44v-1.16h-6.26v-2.28h6.26v-1.07h-7.47v-2.31h3.97ZM635.07,349.16l-1.22,1.84c-1.3-.71-2.64-1.25-4-1.63l1.25-1.87c1.45.47,2.79,1.01,3.97,1.66Z"/>
        <path d="M654.06,347.53v2.91h-4.86v6.49c2.02-.41,4.03-.89,6.02-1.42v3.02c-4.36,1.04-9.01,1.93-13.97,2.67l-.71-2.94c1.87-.21,3.74-.48,5.57-.77v-7.06h-4.86v-2.91h12.81ZM654.92,340.45c-.09-1.6-.12-3.23-.12-4.92h3.2c0,1.72.03,3.38.12,4.92h4.24c-.74-1.33-1.54-2.55-2.37-3.62l2.55-1.24c.89,1.19,1.72,2.49,2.55,3.91l-1.9.95h3.71v3.02h-8.6c.33,4.33.98,8.01,1.93,10.97,1.25,3.32,2.22,4.98,3,4.98.42,0,.86-1.57,1.36-4.66l2.79,1.42c-.89,4.48-2.19,6.73-3.94,6.73-2.94-.18-5.28-3.59-7.06-10.17-.62-2.67-1.04-5.78-1.27-9.28h-14.26v-3.02h14.09Z"/>
        <path d="M698.55,340.6h-5.96c.06,2.79.21,5.1.42,7,.83-1.28,1.6-2.7,2.37-4.24l2.52,1.54c-1.28,2.49-2.58,4.54-3.89,6.08-.18.18-.3.36-.41.5.5,2.64,1.04,4.57,1.6,5.75.62,1.3,1.07,1.96,1.36,1.96.24,0,.48-1.39.71-4.18l2.4,1.3c-.62,4.18-1.51,6.29-2.64,6.29-1.07,0-2.17-.89-3.32-2.64-.92-1.42-1.72-3.5-2.4-6.17-.86.74-1.81,1.54-2.88,2.37l-1.51-2.46c1.3-.77,2.52-1.78,3.71-3.02-.5-2.73-.83-6.08-.95-10.08h-12.54v5.16c-.12,7.06-1.19,12.72-3.2,16.99l-2.22-1.99c1.57-3.59,2.4-8.6,2.46-15v-7.95h15.45c-.03-.77-.03-1.54-.03-2.31h2.88c0,.8,0,1.57.03,2.31h1.6c-.27-.54-.54-1.01-.83-1.48l2.34-.89c.36.68.71,1.48,1.04,2.37h1.9v2.79ZM679.18,355.63c-.36,2.4-.86,4.48-1.48,6.23l-1.96-1.24c.71-1.69,1.22-3.5,1.51-5.4l1.93.42ZM688.31,342.26v2.49h-10.17v-2.49h10.17ZM687.78,346.11v6.49h-9.31v-6.49h9.31ZM682.15,362.45c-1.54,0-2.28-.86-2.28-2.58v-5.28h2.55v4.77c0,.42.15.65.48.65h2.13c.39,0,.68-.12.89-.33.21-.24.36-.95.41-2.19l2.28.77c-.18,2.02-.53,3.23-1.04,3.65-.48.36-1.16.53-2.11.53h-3.32ZM685.02,348.36h-3.76v2.02h3.76v-2.02ZM687.25,356.46l-1.78,1.22c-.59-1.07-1.42-2.22-2.46-3.5l1.72-1.04c1.07,1.25,1.93,2.37,2.52,3.32ZM692.82,360.25l-1.75,1.28c-.62-1.31-1.45-2.79-2.49-4.39l1.78-1.13c1.07,1.6,1.87,3.02,2.46,4.24Z"/>
        <path d="M720.47,346.32c.8.77,1.22,1.72,1.22,2.85s-.42,2.08-1.22,2.85c-.83.77-1.81,1.16-2.94,1.16s-2.14-.39-2.94-1.16c-.83-.77-1.22-1.72-1.22-2.85s.38-2.1,1.22-2.85c.8-.77,1.78-1.16,2.94-1.16s2.1.38,2.94,1.16ZM716.14,347.8c-.42.36-.59.83-.59,1.36s.18.98.59,1.36c.38.36.86.56,1.39.56s.98-.21,1.39-.56c.39-.38.59-.83.59-1.36s-.21-1.01-.59-1.36c-.42-.38-.86-.56-1.39-.56s-1.01.18-1.39.56Z"/>
      </g>
      <g>
        <path d="M628.58,156.9c-5.01,6.14-7.49,13.44-7.49,21.87s2.48,15.69,7.49,21.87h-14.33v-43.74h14.33Z"/>
        <path d="M647.59,174.28c1.31-2.44,2.53-4.82,3.7-7.17l5.06,1.55-2.95,5.62h22.99v4.68h-8.9c-1.83,4.45-3.79,8.01-5.9,10.73,4.54,1.92,9.23,4.17,14.05,6.79l-3.32,4.31c-4.73-2.81-9.46-5.29-14.24-7.45-5.29,4.59-12.18,6.98-20.65,7.21l-2.86-4.54c7.59,0,13.72-1.64,18.41-4.92-4.12-1.73-8.29-3.28-12.46-4.59,1.59-2.53,3.09-5.01,4.5-7.54h-10.3v-4.68h12.88ZM675.69,172.12h-4.97v-6.09h-30.49v6.04h-4.96v-10.77h17.33c-.56-1.31-1.22-2.48-1.92-3.61l5.53-.94c.66,1.36,1.27,2.86,1.92,4.54h17.56v10.82ZM647.4,184.58c3.04.84,6.18,1.92,9.37,3.14,2.15-2.44,3.93-5.38,5.34-8.76h-11.33c-1.22,2.11-2.34,3.98-3.37,5.62Z"/>
        <path d="M685.05,200.74l-3.28-3c1.59-3.19,2.44-7.21,2.48-12.08v-8.06h15.97v19.06c0,2.44-1.4,3.7-4.21,3.7h-3.75l-1.08-4.03c1.26.14,2.44.23,3.56.23.66,0,1.03-.51,1.03-1.45v-1.73h-7.96c-.61,2.81-1.54,5.25-2.76,7.35ZM689.78,159.95v-2.58h4.87v2.58h6.6v3.93h-6.6v1.97h5.62v3.84h-5.62v2.11h7.17v4.03h-19.86v-4.03h7.82v-2.11h-5.71v-3.84h5.71v-1.97h-6.7v-3.93h6.7ZM688.38,189.73h7.4v-2.2h-7.21c-.05.75-.1,1.45-.19,2.2ZM695.78,181.44h-7.12v2.39h7.12v-2.39ZM713.95,190.62v5.1c0,2.86-1.4,4.31-4.21,4.31h-4.59l-.98-4.21c1.41.14,2.76.23,4.07.23.75,0,1.12-.47,1.12-1.41v-4.03h-6.6v-4.31h6.6v-3.84h-7.4v-4.31h7.4v-3.46h-6.04v-4.31h1.5c-.7-1.87-1.45-3.56-2.25-5.01l3.84-1.27c.89,1.59,1.64,3.28,2.29,5.11l-2.58,1.17h5.15c-.75-2.15-1.59-4.03-2.53-5.67l3.75-1.27c.94,1.73,1.78,3.61,2.44,5.57l-2.95,1.36h5.85l-2.11-1.54c1.55-1.87,2.86-4.07,3.98-6.65l3.75,1.87c-1.08,2.39-2.29,4.5-3.61,6.32h2.39v7.77h2.34v4.31h-2.34v8.15h-8.29ZM723.32,160.84c-4.92,1.83-11.47,2.76-19.62,2.76l-1.31-3.93c7.4,0,13.63-.84,18.78-2.44l2.15,3.61ZM713.95,178.16h3.75v-3.46h-3.75v3.46ZM713.95,186.31h3.75v-3.84h-3.75v3.84Z"/>
        <path d="M770.48,158.73v26.74h-3.37v9.6c0,.33.23.51.7.61h.61c.66-.1,1.03-.8,1.12-2.06.09-1.36.19-3.19.19-5.53l3.42,1.31c0,4.68-.33,7.54-.89,8.57-.51.98-1.73,1.54-3.65,1.73h-.98c-3.23,0-4.82-1.27-4.82-3.75v-10.49h-1.68c-.33,7.02-2.53,12.08-6.6,15.22l-2.06-3.28v1.83h-15.17v1.31h-4.26v-13.63c-.66.8-1.36,1.59-2.11,2.34l-1.4-4.5c2.44-2.67,4.26-5.81,5.48-9.37h-3.7v-8.9h9.69v8.9h-5.29l3,1.41c-.19.61-.42,1.22-.66,1.78h3.84c-.28-.75-.56-1.5-.89-2.15l4.4-.7c.28.84.56,1.83.84,2.86h7.16v3.56h-7.07v2.2h5.9v3.37h-5.9v2.15h5.9v3.42h-5.9v2.11h6.14v1.31c2.67-2.34,4.17-6.09,4.45-11.24h-2.44v-26.74h16.02ZM735.96,159.29v-2.01h4.59v8.33h-4.59v-2.2h-5.99v-4.12h5.99ZM737.27,169.31h-2.3v3.23h2.3v-3.23ZM737.27,182.15v2.2h4.73v-2.2h-4.73ZM737.27,189.87h4.73v-2.15h-4.73v2.15ZM737.27,195.4h4.73v-2.11h-4.73v2.11ZM752.4,166.5v8.9h-9.69v-8.9h9.69ZM747.86,165.61h-4.59v-8.33h4.59v2.01h5.38v4.12h-5.38v2.2ZM748.65,169.31h-2.25v3.23h2.25v-3.23ZM766.17,166.27v-3.7h-7.45v3.7h7.45ZM766.17,173.9v-3.98h-7.45v3.98h7.45ZM766.17,177.56h-7.45v4.07h7.45v-4.07Z"/>
        <path d="M780.73,186.5l-2.15-3.79c7.07-2.06,12.6-6.04,16.53-12.04h-5.48c-.19.14-.33.28-.47.42,1.12.75,2.06,1.55,2.9,2.29l-2.58,2.53c-.8-.84-1.78-1.73-2.95-2.67-1.17.84-2.39,1.59-3.61,2.29l-2.58-3.18c3.56-1.78,6.7-4.31,9.37-7.59l4.4.98c-.38.52-.8.98-1.17,1.45h6.93v2.95c-1.54,2.95-3.37,5.53-5.43,7.73h11.1c-1.97-2.01-3.61-4.17-4.92-6.51l2.25-1.27v-3.09h11.62v-2.67h-29.69v4.92h-4.59v-9.27h16.91c-.42-.84-.84-1.59-1.31-2.3l5.29-.84c.42.94.84,2.01,1.22,3.14h16.77v9.37h-2.34v.89c-1.55,2.81-3.19,5.25-4.97,7.31,2.67,1.92,5.76,3.46,9.23,4.68l-2.58,3.79c-3.84-1.5-7.16-3.32-9.98-5.57v1.45h-16.86v-1.36c-3.14,2.58-6.74,4.54-10.86,5.95ZM793.28,192.64c-2.81,2.95-6.28,5.53-10.4,7.77l-2.81-3.65c3.93-1.97,7.26-4.31,9.98-6.98l3.23,2.86ZM780.22,176.95c2.25-.56,4.45-1.31,6.6-2.15l.89,2.86c-1.97.94-4.07,1.69-6.42,2.34l-1.08-3.04ZM815.11,185.1v4.12h-13.16v11.33h-4.59v-11.33h-12.64v-4.12h30.4ZM808.6,174.98c1.08-1.22,2.11-2.62,3.04-4.12h-6.65c1.03,1.5,2.25,2.86,3.61,4.12ZM819.51,197.09l-3.23,3.19c-2.44-2.34-5.85-4.92-10.3-7.63l2.95-2.9c4.21,2.44,7.73,4.92,10.58,7.35Z"/>
        <path d="M845.27,186.73v-3.14h4.87v3.14h15.55v4.5h-15.55v3.89h18.12v4.45h-41.5v-4.45h18.5v-3.89h-15.88v-4.5h15.88ZM850.74,158.82v4.31h-4.31v5.67h5.34v4.5h-5.34v9.79h-4.68v-9.79h-4.87c-.56,4.59-2.29,8.01-5.1,10.35l-3.7-3.23c2.15-1.64,3.46-4.03,4.03-7.12h-5.15v-4.5h5.43v-5.67h-4.21v-4.31h22.57ZM837.12,168.8h4.64v-5.67h-4.64v5.67ZM858.19,160.37v16.02h-4.64v-16.02h4.64ZM855.99,183.69l-1.08-4.59c2.01.19,3.93.33,5.71.33.89,0,1.36-.75,1.36-2.25v-19.39h4.73v20.56c0,3.56-1.5,5.34-4.45,5.34h-6.28Z"/>
        <path d="M888.77,156.9v43.74h-14.33c4.96-6.18,7.49-13.44,7.49-21.87s-2.53-15.74-7.49-21.87h14.33Z"/>
      </g>
    </g>
    <g>
      <path d="M363.91,741.63c4.25,0,7.21.75,8.88,2.26,1.67,1.5,2.5,3.63,2.5,6.36,0,1.88-.33,3.48-.99,4.79-.66,1.31-1.83,2.34-3.49,3.08-1.67.74-3.96,1.11-6.89,1.11h-6.66v5.64h-7.88c.17-4.14.26-8.02.26-11.63s-.08-7.49-.26-11.63h7.88v.03h6.66ZM361.67,753.04c1.77,0,3.1-.07,3.99-.21.89-.14,1.51-.39,1.86-.75.35-.36.53-.9.53-1.6s-.17-1.23-.5-1.59c-.33-.35-.94-.59-1.83-.72s-2.24-.19-4.05-.19h-4.42v5.06h4.42Z"/>
      <path d="M385.41,759c8.12-.04,14-.16,17.66-.35-.15.88-.24,1.78-.27,2.71-.03.93-.05,2.1-.05,3.51h-24.9c.17-4.14.26-8.02.26-11.63s-.08-7.49-.26-11.63h24.9v5.8h-17.33v3.08c1.03.02,2.54.03,4.55.03,3.4,0,6.91-.06,10.54-.19v5.51c-3.63-.13-7.15-.19-10.54-.19-2.01,0-3.52.01-4.55.03v3.33Z"/>
      <path d="M430,754.06c-.91,1.28-2.46,2.21-4.66,2.79.26.34.44.61.54.8l5.19,7.21h-8.72c-.94-1.75-2.42-4.23-4.45-7.43h-4.71v7.43h-7.56c.17-4.14.26-8.02.26-11.63s-.08-7.49-.26-11.63h7.56v.03h6.57c4.31,0,7.33.69,9.04,2.08,1.71,1.39,2.56,3.27,2.56,5.64,0,1.86-.45,3.43-1.36,4.71ZM413.19,747.78v3.65h4.33c1.81,0,3.19-.06,4.12-.18.93-.12,1.58-.3,1.94-.56.36-.26.55-.63.55-1.12s-.17-.83-.51-1.09c-.34-.26-.98-.44-1.92-.54-.94-.11-2.33-.16-4.17-.16h-4.33Z"/>
      <path d="M435.73,759.06c.48-.94.94-2.03,1.39-3.27,1.52.88,3.28,1.56,5.29,2.05,2.01.49,3.88.74,5.61.74s3.02-.16,3.75-.47c.73-.31,1.09-.64,1.09-1.01,0-1.3-1.99-1.96-5.96-1.96-4.36,0-7.52-.45-9.48-1.36-1.97-.91-2.95-2.38-2.95-4.41,0-2.88,1.19-5.01,3.59-6.38,2.39-1.37,5.5-2.05,9.32-2.05,2.22,0,4.5.28,6.84.85,2.34.57,4.45,1.34,6.33,2.32-.62,1.41-1.27,3.13-1.95,5.16-.13.43-.24.75-.32.96-1.09-.88-2.73-1.61-4.93-2.2-2.2-.59-4.14-.88-5.83-.88-2.03,0-3.4.13-4.1.4-.7.27-1.06.66-1.06,1.17s.49.92,1.46,1.23,2.38.47,4.21.47c4.53,0,7.82.52,9.87,1.55,2.05,1.04,3.08,2.62,3.08,4.76,0,2.99-1.09,5.14-3.27,6.46-2.18,1.31-5.48,1.97-9.9,1.97-2.37,0-4.79-.26-7.24-.79-2.46-.52-4.67-1.29-6.63-2.29.73-1.09,1.33-2.1,1.81-3.04Z"/>
      <path d="M466.99,762c-2.31-2.13-3.46-5.11-3.46-8.96s1.15-6.77,3.44-8.91c2.3-2.14,5.9-3.2,10.82-3.2s8.55,1.07,10.85,3.2c2.29,2.14,3.44,5.11,3.44,8.91s-1.14,6.86-3.43,8.97c-2.29,2.11-5.91,3.17-10.86,3.17s-8.49-1.06-10.8-3.19ZM482.91,757.29c1.05-.91,1.57-2.32,1.57-4.25s-.52-3.28-1.57-4.2c-1.05-.92-2.76-1.38-5.13-1.38s-4.05.46-5.1,1.38c-1.05.92-1.57,2.32-1.57,4.2s.52,3.31,1.57,4.23c1.05.92,2.75,1.38,5.1,1.38s4.08-.45,5.13-1.36Z"/>
      <path d="M521.52,741.63c-.15,3.61-.22,7.48-.22,11.6s.07,8.02.22,11.63h-11.47l-7.75-17.49.58,17.49h-8.24c.17-4.14.26-8.02.26-11.63s-.08-7.45-.26-11.6h11.79l7.79,17.98-.55-17.98h7.85Z"/>
      <path d="M544.31,764.86c-.41-1.22-.95-2.75-1.64-4.58h-10.22l-1.6,4.58h-8.04l8.97-23.26h11.79l9.04,23.26h-8.3ZM540.85,755.28c-.81-2.24-1.65-4.49-2.5-6.73l-.77-2.08c-.75,1.94-1.85,4.88-3.3,8.81h6.57Z"/>
      <path d="M561.48,758.39c6.2-.04,11.32-.15,15.38-.32-.28,1.09-.45,2.14-.51,3.14s-.1,2.22-.1,3.65h-22.59c.17-4.14.26-8.02.26-11.63s-.08-7.49-.26-11.63h7.82v16.79Z"/>
      <path d="M598.04,747.98c-2.54-.13-4.42-.2-5.64-.22v10.96c1.24-.02,3.12-.1,5.64-.23v6.38h-18.62v-6.38c2.46.13,4.33.2,5.61.23v-10.96c-1.28.02-3.15.1-5.61.22v-6.38h18.62v6.38Z"/>
      <path d="M628.13,748.33c-3.35-.11-6.61-.17-9.77-.19v16.73h-8.01v-16.73c-3.18.02-6.43.08-9.74.19v-6.73h27.52v6.73Z"/>
      <path d="M659.21,741.6l-.61.93c-2.29,3.55-4.25,6.68-5.88,9.4-1.64,2.72-3,5.23-4.09,7.51v5.42h-8.36v-5.96c-.79-1.6-1.72-3.25-2.79-4.95-1.07-1.7-2.58-4.03-4.55-7-1.54-2.26-2.71-4.05-3.52-5.35h8.97c.64,1.3,1.69,3.24,3.14,5.8,1.45,2.61,2.45,4.44,2.98,5.51.75-1.56,1.75-3.47,3.01-5.73,1.47-2.65,2.47-4.51,2.98-5.58h8.72Z"/>
      <path d="M392.05,800.45c-2.31-2.13-3.46-5.11-3.46-8.96s1.15-6.77,3.44-8.91c2.3-2.14,5.9-3.2,10.82-3.2s8.55,1.07,10.85,3.2c2.29,2.14,3.44,5.11,3.44,8.91s-1.14,6.86-3.43,8.97c-2.29,2.11-5.91,3.17-10.86,3.17s-8.49-1.06-10.8-3.19ZM407.97,795.74c1.05-.91,1.57-2.32,1.57-4.25s-.52-3.28-1.57-4.2c-1.05-.92-2.76-1.38-5.13-1.38s-4.05.46-5.1,1.38c-1.05.92-1.57,2.32-1.57,4.2s.52,3.31,1.57,4.23c1.05.92,2.75,1.38,5.1,1.38s4.08-.45,5.13-1.36Z"/>
      <path d="M444.69,786.04h-17.43v3.37c1.09.02,2.72.03,4.9.03,3.76,0,7.58-.06,11.47-.19v6.28c-3.89-.15-7.99-.22-12.3-.22-1.79,0-3.15.01-4.07.03v7.98h-7.56c.17-4.14.26-8.02.26-11.63s-.08-7.49-.26-11.63h24.99v5.99Z"/>
      <path d="M478.65,786.04h-17.43v3.37c1.09.02,2.72.03,4.9.03,3.76,0,7.58-.06,11.47-.19v6.28c-3.89-.15-7.99-.22-12.3-.22-1.79,0-3.15.01-4.07.03v7.98h-7.56c.17-4.14.26-8.02.26-11.63s-.08-7.49-.26-11.63h24.99v5.99Z"/>
      <path d="M489.04,796.84c6.2-.04,11.32-.15,15.38-.32-.28,1.09-.45,2.14-.51,3.14s-.1,2.22-.1,3.65h-22.59c.17-4.14.26-8.02.26-11.63s-.08-7.49-.26-11.63h7.82v16.79Z"/>
      <path d="M527.2,803.31c-.41-1.22-.95-2.75-1.64-4.58h-10.22l-1.6,4.58h-8.04l8.97-23.26h11.79l9.04,23.26h-8.3ZM523.74,793.73c-.81-2.24-1.65-4.49-2.5-6.73l-.77-2.08c-.75,1.94-1.85,4.88-3.3,8.81h6.57Z"/>
      <path d="M562.51,780.05l-2.11,4.9c-1.86,4.34-3.32,7.81-4.39,10.41-1.07,2.61-2.05,5.25-2.95,7.95h-9.58c-.88-2.65-1.84-5.27-2.9-7.87-1.06-2.6-2.47-5.92-4.24-9.98-.3-.68-1.08-2.49-2.34-5.41h8.91c.64,2.07,1.59,4.73,2.85,7.98,1.11,2.86,2.01,5.34,2.69,7.43.45-1.47.99-3.05,1.62-4.73.63-1.68,1.01-2.7,1.14-3.06,1.24-3.27,2.15-5.81,2.72-7.63h8.59Z"/>
      <path d="M565.74,800.45c-2.31-2.13-3.46-5.11-3.46-8.96s1.15-6.77,3.44-8.91c2.3-2.14,5.9-3.2,10.82-3.2s8.55,1.07,10.85,3.2c2.29,2.14,3.44,5.11,3.44,8.91s-1.14,6.86-3.43,8.97c-2.29,2.11-5.91,3.17-10.86,3.17s-8.49-1.06-10.8-3.19ZM581.67,795.74c1.05-.91,1.57-2.32,1.57-4.25s-.52-3.28-1.57-4.2c-1.05-.92-2.76-1.38-5.13-1.38s-4.05.46-5.1,1.38c-1.05.92-1.57,2.32-1.57,4.2s.52,3.31,1.57,4.23c1.05.92,2.75,1.38,5.1,1.38s4.08-.45,5.13-1.36Z"/>
      <path d="M617.76,792.52c-.91,1.28-2.46,2.21-4.66,2.79.26.34.44.61.54.8l5.19,7.21h-8.72c-.94-1.75-2.42-4.23-4.45-7.43h-4.71v7.43h-7.56c.17-4.14.26-8.02.26-11.63s-.08-7.49-.26-11.63h7.56v.03h6.57c4.31,0,7.33.69,9.04,2.08,1.71,1.39,2.56,3.27,2.56,5.64,0,1.86-.45,3.43-1.36,4.71ZM600.96,786.24v3.65h4.33c1.81,0,3.19-.06,4.12-.18.93-.12,1.58-.3,1.94-.56.36-.26.55-.63.55-1.12s-.17-.83-.51-1.09c-.34-.26-.98-.44-1.92-.54-.94-.11-2.33-.16-4.17-.16h-4.33Z"/>
    </g>
  </g>
</svg>