<?xml version="1.0" encoding="UTF-8"?>
<svg id="_圖層_2" data-name="圖層 2" xmlns="http://www.w3.org/2000/svg" width="444.05" height="424.39" viewBox="0 0 444.05 424.39">
  <g id="_圖層_2-2" data-name="圖層 2">
    <g>
      <path d="M21.05,14.07c-.08.47-.16.88-.26,1.29h9.49v2.48h-10.4c-.6,1.11-1.37,2.1-2.3,2.92-1.71,1.5-4.74,2.69-9.08,3.57l-1.11-2.61c3.7-.65,6.36-1.58,7.99-2.77.47-.36.85-.72,1.19-1.11h-7.94v-2.48h9.37c.16-.52.29-1.04.39-1.58l2.66.28ZM14.27,2.56c-.31-.72-.67-1.37-1.04-1.97l2.82-.47c.31.72.65,1.53.96,2.43h4.94c.36-.83.65-1.66.83-2.51l2.85.39c-.21.75-.49,1.45-.85,2.12h5.23v2.43h-9.21v1.78h7.84v2.28h-7.84v1.81h10.06v2.48H8.03v-2.48h10.06v-1.81h-7.76v-2.28h7.76v-1.78h-9.21v-2.43h5.38ZM31.5,21.99l-1.55,2.38c-3.03-1.68-6.13-3-9.29-3.96l1.42-2.12c3.44,1.03,6.57,2.25,9.42,3.7Z"/>
      <path d="M42.15,21.53h-2.51v-1.37h-2.22v1.99h-2.59V2.1h7.32v19.43ZM39.64,17.67V4.58h-2.22v13.09h2.22ZM51.54,24.22h-2.64v-10.45c-1.19,3.26-2.9,5.98-5.18,8.18l-1.42-2.33c2.35-1.97,4.11-4.42,5.25-7.43h-4.45v-2.54h5.8v-3.52h-4.89v-2.54h4.89V.16h2.64v3.44h4.89v2.54h-4.89v3.52h5.74v2.54h-4.4c1.09,2.79,2.85,5.28,5.3,7.48l-1.76,2.2c-2.17-2.48-3.8-5.2-4.89-8.15v10.5Z"/>
      <path d="M63.78,17.75c-.13,2.25-.42,4.24-.88,5.98l-2.38-.75c.47-1.6.75-3.47.85-5.54l2.41.31ZM70.58,15.5l-2.22.57-.21-1.01c-2.41.72-4.68,1.22-6.83,1.47l-.7-2.43c.47-.21.88-.44,1.22-.75.72-.7,1.6-1.89,2.64-3.57-1.03.16-2.15.34-3.28.52l-.65-2.46c.41-.18.78-.52,1.11-.98,1.14-2.07,2.12-4.37,2.95-6.86l2.59,1.01c-1.17,2.67-2.35,4.89-3.57,6.65.78-.1,1.55-.21,2.3-.34.52-.93,1.09-1.94,1.66-3.03l2.28.85v-1.89h5.98V.23h2.66v3.03h5.87v2.59h-5.87v3.08h5.3v2.59h-13.25v-2.59h5.28v-3.08h-5.98v-.26c-2.12,3.67-3.93,6.36-5.38,8.12,1.06-.21,2.12-.44,3.16-.7-.18-.67-.39-1.32-.59-1.97l2.07-.67c.54,1.5,1.03,3.21,1.47,5.12ZM67.58,22.28l-2.51.6c-.21-2.02-.47-3.83-.75-5.38l2.2-.49c.39,1.6.75,3.36,1.06,5.28ZM71.07,20.59l-2.2,1.01c-.44-1.73-.91-3.26-1.42-4.6l2.02-.67c.62,1.32,1.14,2.74,1.6,4.27ZM83.08,24.14h-2.61v-.96h-6.44v.96h-2.64v-10.74h11.69v10.74ZM80.46,20.65v-4.73h-6.44v4.73h6.44Z"/>
      <path d="M108.01,1.01v10.63h-7.66v1.73h10.17v2.51h-8.05c1.81,1.99,4.68,3.8,8.64,5.41l-1.86,2.35c-4.14-2.28-7.09-4.81-8.9-7.55v7.99h-2.74v-7.99c-1.94,3.03-4.99,5.54-9.13,7.55l-1.55-2.51c3.83-1.4,6.67-3.16,8.54-5.25h-8.02v-2.51h10.17v-1.73h-7.71V1.01h18.11ZM97.61,5.23v-1.84h-5.02v1.84h5.02ZM97.61,7.55h-5.02v1.78h5.02v-1.78ZM100.35,5.23h4.97v-1.84h-4.97v1.84ZM105.32,7.55h-4.97v1.78h4.97v-1.78Z"/>
      <path d="M116.83,19.3c-.18,1.92-.6,3.6-1.24,5.04l-2.22-.75c.72-1.32,1.19-2.85,1.37-4.55l2.1.26ZM120.27,17.85l-1.68.75c-.08-.41-.16-.78-.21-1.11-1.47.34-2.82.6-4.06.78l-.41-1.84c.62-.36,1.42-1.24,2.35-2.64-.73.1-1.45.18-2.2.26l-.39-1.47c.88-.52,1.6-1.73,2.12-3.65l1.99.23c-.47,1.29-1.01,2.33-1.6,3.1l1.16-.16c.31-.57.65-1.14.98-1.73l1.86.75c-.88,1.4-1.68,2.54-2.35,3.44l1.35-.47c.41,1.19.78,2.43,1.09,3.75ZM125.13.96v7.79h-10.35V.96h10.35ZM116.31,16.33c.52-.1,1.06-.23,1.68-.36-.1-.41-.23-.8-.33-1.16-.52.62-.96,1.14-1.35,1.53ZM122.78,3.98v-1.03h-5.61v1.03h5.61ZM122.78,5.72h-5.61v1.03h5.61v-1.03ZM120.37,23.49l-2.1.52c-.21-1.73-.49-3.26-.8-4.55l1.99-.39c.33,1.35.65,2.82.91,4.42ZM126.66,17.39l-1.6.72c-.1-.31-.18-.62-.23-.88-1.45.41-2.79.75-3.98,1.01l-.41-1.81c.52-.39,1.19-1.29,1.99-2.69-.75.13-1.53.23-2.3.34l-.39-1.5c.8-.52,1.45-1.71,1.94-3.62l1.99.23c-.44,1.24-.93,2.28-1.5,3.08.42-.08.8-.16,1.17-.21.28-.6.59-1.22.91-1.86l1.86.75c-.67,1.24-1.29,2.3-1.84,3.18l1.19-.39c.47,1.14.85,2.35,1.22,3.65ZM123.63,23.13l-2.04.47c-.31-1.66-.7-3.1-1.14-4.4l1.86-.39c.49,1.32.93,2.77,1.32,4.32ZM122.7,16.25c.52-.13,1.06-.29,1.68-.47-.16-.44-.29-.85-.42-1.22-.47.7-.91,1.27-1.27,1.68ZM126.53,21.5l-1.81.83c-.47-1.29-.98-2.43-1.53-3.39l1.81-.62c.6.98,1.11,2.04,1.53,3.18ZM131.24,20.54c-1.06,1.4-2.35,2.61-3.91,3.7l-1.45-1.89c1.42-.93,2.64-2.04,3.62-3.31l1.73,1.5ZM130.1,4.86c.13-.52.23-1.03.33-1.55h-4.27V.93h11.18v2.38h-4.22c-.1.52-.21,1.03-.34,1.55h3.88v13.94h-9.68V4.86h3.1ZM134.19,8.77v-1.68h-4.71v1.68h4.71ZM134.19,12.6v-1.71h-4.71v1.71h4.71ZM134.19,14.72h-4.71v1.86h4.71v-1.86ZM137.4,22.4l-1.66,1.66c-.78-1.09-1.86-2.25-3.28-3.49l1.53-1.47c1.35,1.09,2.48,2.2,3.41,3.31Z"/>
      <path d="M147.17,13.48c-1.03,3.57-2.53,6.67-4.48,9.26l-2.35-1.47c1.97-2.64,3.36-5.43,4.17-8.38l2.66.59ZM163.16,7.84v2.66h-9.73v13.63h-2.74v-13.63h-9.83v-2.66h22.3ZM160.86,1.32v2.64h-17.62V1.32h17.62ZM163.57,21.42l-2.46,1.11c-1.37-3.47-2.87-6.52-4.48-9.16l2.43-.83c1.73,2.77,3.23,5.72,4.5,8.87Z"/>
      <path d="M167.24,13.25l-.91-2.9c2.66-2.92,4.63-6.36,5.92-10.32l2.51,1.19c-.67,2.02-1.55,3.93-2.64,5.74v17.18h-2.69v-13.35c-.7.83-1.42,1.66-2.2,2.46ZM175.29,10.84l-2.33-1.45c1.91-2.87,3.26-5.92,4.04-9.16l2.54.54c-.21.78-.44,1.55-.67,2.3h10.79v1.76c-.39,1.55-.88,3.08-1.48,4.6l-2.59-.75c.52-.88.93-1.89,1.29-3.03h-8.95c-.78,1.89-1.66,3.62-2.64,5.17ZM179.02,11.46c-.91,3.54-2.07,6.65-3.47,9.31l-2.54-.91c1.35-2.38,2.54-5.41,3.57-9.08l2.43.67ZM177.51,23.96l-.6-2.54c1.03.1,2.04.18,2.97.18.62,0,.93-.34.93-.98V7.45h2.61v13.82c0,1.78-.88,2.69-2.64,2.69h-3.28ZM190.32,20.15l-2.38,1.06c-.93-3.73-1.99-7.04-3.16-9.91l2.38-.8c1.22,3,2.28,6.23,3.16,9.65Z"/>
      <path d="M193.5,14.2v-2.43h23.1v2.43h-9.91v2.17h7.14v2.38h-7.14v2.48c1.16.1,2.51.16,4.01.16,2.3,0,4.24-.05,5.82-.1l-.75,2.54c-1.81,0-3.44-.03-4.89-.05-4.29-.03-7.22-.36-8.82-.98-1.24-.52-2.33-1.53-3.31-2.98-.98,1.73-2.23,3.18-3.7,4.35l-1.76-2.25c2.33-1.81,3.88-4.19,4.71-7.19l2.56.44c-.23.91-.52,1.76-.83,2.56.98,1.53,2.12,2.48,3.39,2.9.26.08.54.16.85.23v-6.65h-10.48ZM213.19.96v9.44h-16.2V.96h16.2ZM210.52,4.61v-1.37h-10.84v1.37h10.84ZM210.52,6.73h-10.84v1.4h10.84v-1.4Z"/>
      <path d="M232.87,18.14c.39.39.59.88.59,1.45s-.21,1.03-.59,1.45c-.42.36-.88.57-1.45.57s-1.06-.21-1.42-.57c-.41-.41-.6-.88-.6-1.45s.18-1.06.6-1.45c.36-.41.85-.6,1.42-.6s1.03.18,1.45.6Z"/>
      <path d="M240.63,18.14c.39.39.59.88.59,1.45s-.21,1.03-.59,1.45c-.42.36-.88.57-1.45.57s-1.06-.21-1.42-.57c-.41-.41-.6-.88-.6-1.45s.18-1.06.6-1.45c.36-.41.85-.6,1.42-.6s1.03.18,1.45.6Z"/>
      <path d="M248.39,18.14c.39.39.59.88.59,1.45s-.21,1.03-.59,1.45c-.42.36-.88.57-1.45.57s-1.06-.21-1.42-.57c-.41-.41-.6-.88-.6-1.45s.18-1.06.6-1.45c.36-.41.85-.6,1.42-.6s1.03.18,1.45.6Z"/>
      <path d="M4.73,135.38l-4.73-13.84c12.27-14.9,21.44-32.34,27.35-52.56l13.75,5.86c-2.96,9.05-6.65,17.83-11.09,26.08v77.05c7.99-13.57,12.42-31.67,13.16-54.29v-47.51c30.61-.27,57.82-2.13,81.62-5.59l6.65,11.04c-22.18,2.79-46.87,4.39-74.08,4.92v4.92h74.08v30.34H57.37v1.86c0,1.6-.15,3.19-.15,4.66h75.26v54.16c0,6.12-4.14,9.31-12.42,9.31h-6.21l-3.1-10.25,5.47.53c1.92,0,2.96-.8,2.96-2.26v-15.44h-9.31v25.15h-10.65v-25.15h-9.17v25.15h-10.79v-25.15h-9.32v27.41h-13.16v-57.75c-1.92,23.29-7.99,42.18-18.19,56.82l-8.58-8.25v9.98h-14.64v-69.6c-3.4,4.26-6.95,8.38-10.65,12.38ZM117.26,111.16v-8.78h-59.88v8.78h59.88ZM79.26,153.48v-14.24h-9.32v14.24h9.32ZM90.05,153.48h9.17v-14.24h-9.17v14.24ZM109.86,153.48h9.31v-14.24h-9.31v14.24Z"/>
      <path d="M216.61,139.37c-1.78,2.13-3.7,4.26-5.77,6.39h52.94v9.58c-5.32,6.39-12.86,11.98-22.62,16.9,14.64,3.99,30.46,6.25,47.32,7.05l-3.84,13.31c-23.66-1.33-44.8-5.46-63.43-12.37-17.15,5.46-38.3,9.71-63.43,12.77l-5.77-13.17c19.96-1.86,37.11-4.39,51.31-7.58-5.77-2.93-11.24-6.26-16.26-9.71-5.62,2.93-11.83,5.59-18.34,8.25l-9.17-10.78c5.91-2,11.24-3.99,16.26-6.12-2.36-2-4.58-3.99-6.65-5.86l10.94-6.79c2.66,2.26,5.32,4.39,8.13,6.39,4.73-2.93,8.58-5.99,11.83-8.92-5.91-1.33-8.72-5.19-8.72-11.58v-14.9h14.94v11.98c0,2.66,1.03,4.12,3.25,4.12h24.69c1.63,0,2.96-.4,3.84-1.06.89-.8,1.63-3.19,1.92-7.19l14.19,4.12c-1.04,7.45-2.81,11.84-5.47,13.17-2.66,1.33-6.51,2-11.68,2h-20.4ZM268.81,118.75v-9.85h-47.76c5.62,3.19,10.5,6.39,14.34,9.58l-9.46,8.78c-3.84-3.46-9.02-7.19-15.67-11.18l8.13-7.19h-46.87v11.31c1.33-2.13,2.51-4.26,3.4-6.52l12.86,4.66c-4.73,10.65-10.79,18.76-18.34,24.49l-10.94-8.65c4.73-3.33,8.72-7.45,11.98-12.24h-13.75v-25.28h20.55c-1.04-2.66-2.07-5.06-3.11-7.32l15.08-2c1.18,2.79,2.22,5.86,3.4,9.32h20.4c-1.18-2.93-2.36-5.72-3.7-8.25l14.93-2.13c1.48,3.19,2.81,6.65,4.14,10.38h17.15c2.66-4.26,4.88-8.65,6.95-13.17-24.55,1.86-53.82,2.93-87.98,2.93l-4.29-11.71c44.07,0,81.33-1.73,112.08-5.19l7.1,11.18c-7.69.93-15.82,1.86-24.55,2.66l12.87,4.12c-1.78,3.33-3.7,6.39-5.62,9.18h21.44v25.28h-11.83c4.14,4.66,7.54,8.78,10.35,12.51l-12.86,8.12c-4.44-7.19-10.5-15.04-17.89-23.82l11.24-6.39,6.21,6.39ZM243.22,156.67h-40.96c6.65,3.73,13.6,6.92,20.85,9.85,7.99-2.93,14.79-6.26,20.11-9.85Z"/>
      <path d="M309.01,191.14l-3.4-13.44c3.84.53,7.54.8,11.09.8,3.25,0,4.88-1.6,4.88-4.52v-26.88c-5.18,1.73-10.35,3.33-15.53,4.79l-3.84-14.11c6.51-1.33,13.01-2.93,19.37-4.92v-26.22h-16.41v-13.44h16.41v-23.82h15.67v23.82h10.65v13.44h-10.65v20.63c3.7-1.6,7.39-3.33,11.09-5.06v14.11c-3.84,1.6-7.54,3.19-11.09,4.79v36.33c0,9.05-5.18,13.71-15.23,13.71h-13.01ZM355,151.08v-12.91h79.25v12.91h-31.64v24.22h37.11v13.44h-90.64v-13.44h38v-24.22h-32.09ZM392.11,97.99c-3.7,19.3-14.64,31.94-32.97,38.06l-7.69-10.91c15.23-4.79,24.4-14.64,27.35-29.81l13.31,2.66ZM367.27,94.93v15.17h-14.49v-27.55h34.3c-1.92-4.52-4.14-8.65-6.65-12.51l15.82-2.4c2.07,4.52,4.29,9.45,6.36,14.9h34.01v27.55h-14.34v-15.17h-9.91v21.16c0,2,1.33,3.06,4.29,3.06h20.4v11.98h-27.35c-7.39,0-11.09-3.19-11.09-9.58v-26.61h-31.35Z"/>
      <path d="M15.13,243.55v-10.11l-8.83-15.08h4.4l6.35,11.25,6.39-11.25h4.4l-8.87,15.08v10.11h-3.83Z"/>
      <path d="M35.89,243.98c-1.8,0-3.37-.4-4.72-1.21-1.35-.8-2.39-1.95-3.12-3.44s-1.1-3.23-1.1-5.22.37-3.75,1.1-5.22,1.77-2.61,3.12-3.42c1.35-.82,2.92-1.22,4.72-1.22s3.37.41,4.72,1.22c1.35.82,2.39,1.96,3.12,3.42.73,1.47,1.1,3.21,1.1,5.22s-.37,3.72-1.1,5.22c-.73,1.49-1.78,2.64-3.12,3.44-1.35.8-2.92,1.21-4.72,1.21ZM35.89,240.71c1.61,0,2.85-.58,3.72-1.76.88-1.17,1.31-2.79,1.31-4.84s-.44-3.67-1.31-4.84c-.87-1.17-2.12-1.76-3.72-1.76s-2.82.58-3.71,1.76c-.89,1.17-1.33,2.79-1.33,4.84s.44,3.67,1.33,4.84c.89,1.17,2.12,1.76,3.71,1.76Z"/>
      <path d="M55.19,243.98c-1.89,0-3.4-.63-4.52-1.9-1.12-1.27-1.69-3.02-1.69-5.27v-12.14h3.76v11.18c0,1.7.3,2.96.89,3.76.59.8,1.49,1.21,2.7,1.21,1.37,0,2.44-.44,3.21-1.33s1.15-2.13,1.15-3.74v-11.07h3.76v18.88h-3.51l-.07-4.93.53.21c-.33,1.66-1.03,2.93-2.09,3.81-1.06.89-2.44,1.33-4.12,1.33Z"/>
      <path d="M84.39,243.98c-1.96,0-3.53-.45-4.7-1.35-1.17-.9-1.76-2.16-1.76-3.8s.49-2.9,1.47-3.81,2.5-1.57,4.56-1.97l6.49-1.24c0-1.47-.34-2.56-1.03-3.28-.69-.72-1.7-1.08-3.05-1.08-1.21,0-2.15.27-2.84.8-.69.53-1.16,1.32-1.42,2.36l-3.87-.25c.36-1.89,1.24-3.38,2.64-4.47,1.41-1.09,3.24-1.63,5.48-1.63,2.55,0,4.5.68,5.84,2.04,1.34,1.36,2.01,3.27,2.01,5.73v7.35c0,.45.08.76.23.94.15.18.41.27.76.27h.67v2.98c-.12.02-.31.05-.57.07-.26.02-.53.04-.81.04-.81,0-1.5-.13-2.08-.39-.58-.26-1.01-.69-1.29-1.3-.29-.6-.43-1.41-.43-2.43l.39.18c-.19.83-.6,1.56-1.23,2.2-.63.64-1.42,1.14-2.38,1.51-.96.37-1.99.55-3.1.55ZM85,241c1.13,0,2.1-.22,2.91-.66.8-.44,1.43-1.05,1.88-1.83.45-.78.68-1.67.68-2.66v-1.21l-5.54,1.06c-1.14.21-1.93.55-2.4,1.01s-.69,1.05-.69,1.76c0,.81.28,1.43.84,1.86.55.44,1.33.66,2.32.66Z"/>
      <path d="M99.37,243.55v-18.88h3.44l.14,5-.32-.11c.26-1.7.79-2.95,1.58-3.73.79-.78,1.86-1.17,3.21-1.17h1.81v3.37h-1.81c-.95,0-1.74.15-2.38.46-.64.31-1.12.78-1.44,1.42-.32.64-.48,1.47-.48,2.48v11.14h-3.76Z"/>
      <path d="M120.06,243.98c-1.85,0-3.44-.4-4.77-1.21-1.34-.8-2.36-1.95-3.09-3.44-.72-1.49-1.08-3.23-1.08-5.22s.36-3.72,1.08-5.2c.72-1.48,1.74-2.63,3.07-3.44,1.33-.82,2.89-1.22,4.68-1.22,1.7,0,3.21.4,4.51,1.19,1.3.79,2.31,1.93,3.03,3.42.72,1.49,1.08,3.29,1.08,5.39v.96h-13.56c.1,1.84.59,3.23,1.47,4.15.89.92,2.09,1.38,3.6,1.38,1.11,0,2.03-.26,2.77-.78.73-.52,1.24-1.22,1.53-2.09l3.9.25c-.5,1.75-1.47,3.16-2.93,4.24-1.46,1.08-3.22,1.61-5.3,1.61ZM115.02,232.37h9.58c-.12-1.68-.6-2.92-1.44-3.73-.84-.8-1.91-1.21-3.21-1.21s-2.45.42-3.32,1.26c-.86.84-1.4,2.06-1.61,3.67Z"/>
      <path d="M141.17,227.76v-3.09h11.64v3.09h-11.64ZM149.29,243.55c-1.8,0-3.12-.41-3.97-1.24-.85-.83-1.28-2.12-1.28-3.87v-18.2h3.76v17.92c0,.88.19,1.48.57,1.81.38.33.96.5,1.74.5h2.7v3.09h-3.51Z"/>
      <path d="M156.75,243.55v-25.19h3.76v10.57l-.46-.07c.21-1.06.6-1.93,1.17-2.61.57-.67,1.27-1.18,2.09-1.51.83-.33,1.74-.5,2.73-.5,1.37,0,2.53.3,3.48.91.95.6,1.66,1.45,2.15,2.54.48,1.09.73,2.33.73,3.73v12.14h-3.76v-11.14c0-1.7-.29-2.96-.87-3.78-.58-.82-1.49-1.22-2.72-1.22-1.37,0-2.47.43-3.3,1.3-.83.86-1.24,2.12-1.24,3.78v11.07h-3.76Z"/>
      <path d="M185.42,243.98c-1.85,0-3.44-.4-4.77-1.21-1.34-.8-2.36-1.95-3.09-3.44-.72-1.49-1.08-3.23-1.08-5.22s.36-3.72,1.08-5.2c.72-1.48,1.74-2.63,3.07-3.44,1.33-.82,2.89-1.22,4.68-1.22,1.7,0,3.21.4,4.51,1.19,1.3.79,2.31,1.93,3.03,3.42.72,1.49,1.08,3.29,1.08,5.39v.96h-13.56c.1,1.84.59,3.23,1.47,4.15.89.92,2.09,1.38,3.6,1.38,1.11,0,2.03-.26,2.77-.78.73-.52,1.24-1.22,1.53-2.09l3.9.25c-.5,1.75-1.47,3.16-2.93,4.24-1.46,1.08-3.22,1.61-5.3,1.61ZM180.38,232.37h9.58c-.12-1.68-.6-2.92-1.44-3.73-.84-.8-1.91-1.21-3.21-1.21s-2.45.42-3.32,1.26c-.86.84-1.4,2.06-1.61,3.67Z"/>
      <path d="M206.25,235.21v-20.97h10.75v2.98h-7.7v17.99h-3.05Z"/>
      <path d="M221.9,243.55v-25.19h10.04c1.8,0,3.35.31,4.65.92,1.3.61,2.31,1.49,3.02,2.63.71,1.14,1.06,2.48,1.06,4.05,0,1.14-.25,2.15-.76,3.05s-1.18,1.61-2.02,2.15c-.84.53-1.73.83-2.68.9l-.18-.32c1.58,0,2.82.36,3.69,1.08.87.72,1.38,1.85,1.53,3.39l.67,7.35h-3.87l-.6-6.85c-.07-1.02-.41-1.77-1.03-2.25-.62-.48-1.62-.73-3.02-.73h-6.67v9.83h-3.83ZM225.73,230.21h6.28c1.44,0,2.58-.36,3.42-1.08s1.26-1.74,1.26-3.07-.43-2.38-1.28-3.1-2.09-1.08-3.73-1.08h-5.96v8.34Z"/>
      <path d="M251.14,243.98c-1.96,0-3.53-.45-4.7-1.35-1.17-.9-1.76-2.16-1.76-3.8s.49-2.9,1.47-3.81,2.5-1.57,4.56-1.97l6.49-1.24c0-1.47-.34-2.56-1.03-3.28-.69-.72-1.7-1.08-3.05-1.08-1.21,0-2.15.27-2.84.8s-1.16,1.32-1.42,2.36l-3.87-.25c.36-1.89,1.24-3.38,2.64-4.47,1.41-1.09,3.24-1.63,5.48-1.63,2.55,0,4.5.68,5.84,2.04,1.34,1.36,2.01,3.27,2.01,5.73v7.35c0,.45.08.76.23.94.15.18.41.27.76.27h.67v2.98c-.12.02-.31.05-.57.07-.26.02-.53.04-.81.04-.81,0-1.5-.13-2.08-.39-.58-.26-1.01-.69-1.29-1.3-.29-.6-.43-1.41-.43-2.43l.39.18c-.19.83-.6,1.56-1.23,2.2-.63.64-1.42,1.14-2.38,1.51-.96.37-1.99.55-3.1.55ZM251.74,241c1.13,0,2.1-.22,2.91-.66.8-.44,1.43-1.05,1.88-1.83.45-.78.68-1.67.68-2.66v-1.21l-5.54,1.06c-1.14.21-1.93.55-2.4,1.01s-.69,1.05-.69,1.76c0,.81.28,1.43.84,1.86.55.44,1.33.66,2.32.66Z"/>
      <path d="M269.27,243.55l-5.75-18.88h3.94l4.05,14.76,4.15-14.76h3.55l4.15,14.76,4.08-14.76h3.94l-5.75,18.88h-4.22l-3.97-13.48-3.98,13.48h-4.19Z"/>
      <path d="M304.15,243.55v-25.19h3.76v15.65l8.48-9.33h4.75l-7.38,7.95,7.66,10.93h-4.33l-5.85-8.59-3.34,3.55v5.04h-3.76Z"/>
      <path d="M324.34,243.55v-25.19h3.76v10.57l-.46-.07c.21-1.06.6-1.93,1.17-2.61.57-.67,1.27-1.18,2.09-1.51.83-.33,1.74-.5,2.73-.5,1.37,0,2.53.3,3.48.91.95.6,1.66,1.45,2.15,2.54.48,1.09.73,2.33.73,3.73v12.14h-3.76v-11.14c0-1.7-.29-2.96-.87-3.78-.58-.82-1.49-1.22-2.72-1.22-1.37,0-2.47.43-3.3,1.3-.83.86-1.24,2.12-1.24,3.78v11.07h-3.76Z"/>
      <path d="M353.01,243.98c-1.8,0-3.37-.4-4.72-1.21-1.35-.8-2.39-1.95-3.12-3.44s-1.1-3.23-1.1-5.22.37-3.75,1.1-5.22,1.77-2.61,3.12-3.42c1.35-.82,2.92-1.22,4.72-1.22s3.37.41,4.72,1.22c1.35.82,2.39,1.96,3.12,3.42.73,1.47,1.1,3.21,1.1,5.22s-.37,3.72-1.1,5.22c-.73,1.49-1.78,2.64-3.12,3.44s-2.92,1.21-4.72,1.21ZM353.01,240.71c1.61,0,2.85-.58,3.72-1.76.88-1.17,1.31-2.79,1.31-4.84s-.44-3.67-1.31-4.84c-.87-1.17-2.12-1.76-3.72-1.76s-2.82.58-3.71,1.76c-.89,1.17-1.33,2.79-1.33,4.84s.44,3.67,1.33,4.84c.89,1.17,2.12,1.76,3.71,1.76Z"/>
      <path d="M366.11,243.55v-18.88h3.44l.14,5.04-.46-.25c.21-1.23.62-2.22,1.21-2.98.59-.76,1.31-1.32,2.16-1.69.85-.37,1.77-.55,2.77-.55,1.42,0,2.6.31,3.53.94.93.63,1.64,1.48,2.13,2.55.48,1.08.73,2.3.73,3.67v12.14h-3.76v-11c0-1.11-.12-2.05-.36-2.8-.24-.76-.63-1.34-1.17-1.74-.54-.4-1.25-.6-2.13-.6-1.33,0-2.4.44-3.23,1.31-.83.88-1.24,2.15-1.24,3.83v11h-3.76Z"/>
      <path d="M394.6,249.3c-1.49,0-2.8-.23-3.94-.67-1.14-.45-2.07-1.08-2.81-1.9-.73-.82-1.23-1.77-1.49-2.86l3.9-.25c.26.78.72,1.4,1.37,1.86.65.46,1.64.69,2.96.69,1.56,0,2.76-.33,3.6-.99s1.26-1.67,1.26-3.02v-2.73c-.45.97-1.17,1.74-2.16,2.31-.99.57-2.11.85-3.34.85-1.59,0-2.99-.39-4.22-1.17s-2.19-1.86-2.87-3.23c-.69-1.37-1.03-2.96-1.03-4.76s.34-3.42,1.01-4.79c.67-1.37,1.62-2.45,2.84-3.23,1.22-.78,2.59-1.17,4.13-1.17,1.35,0,2.54.31,3.57.92,1.03.61,1.77,1.44,2.22,2.48v-2.98h3.62v17.39c0,1.56-.35,2.88-1.05,3.96-.7,1.08-1.69,1.89-2.98,2.45-1.29.56-2.82.83-4.6.83ZM394.57,239.4c1.47,0,2.64-.53,3.53-1.6.89-1.06,1.34-2.53,1.37-4.4.02-1.23-.17-2.29-.57-3.18s-.98-1.57-1.72-2.06c-.75-.48-1.61-.73-2.61-.73-1.54,0-2.73.54-3.57,1.61-.84,1.08-1.26,2.53-1.26,4.35s.43,3.31,1.3,4.38c.86,1.08,2.04,1.61,3.53,1.61Z"/>
      <path d="M418.48,226.24v20.97h-10.75v-2.98h7.7v-17.99h3.05Z"/>
      <path d="M431.04,243.55v-4.47h4.61v4.47h-4.61ZM432.21,236.03c-.1-.83-.19-1.82-.29-2.96s-.18-2.32-.26-3.51c-.08-1.19-.13-2.27-.13-3.21v-7.98h3.83v7.98c0,.95-.04,2.02-.11,3.21s-.16,2.37-.27,3.51c-.11,1.15-.19,2.14-.27,2.96h-2.52Z"/>
    </g>
    <g>
      <path d="M21.82,327.13l-1.2,7.49h6.15l1.2-7.49h4.42l-1.2,7.49h4.18l-.62,3.94h-4.18l-1.78,11.43h4.75l-.62,3.94h-4.76l-1.2,7.49h-4.47l1.2-7.49h-6.1l-1.2,7.49h-4.47l1.2-7.49h-4.18l.62-3.94h4.18l1.83-11.43h-4.8l.62-3.94h4.8l1.2-7.49h4.42ZM24.32,349.99l1.83-11.43h-6.15l-1.78,11.43h6.1Z" fill="#231815"/>
      <path d="M52.08,342.98l-4.37-1.25c1.44-5.04,2.26-10.37,2.45-15.95l4.51.34c-.1,1.83-.19,3.65-.38,5.38h2.4v-9.46h4.85v9.46h3.6v4.8h-3.6v9.8c1.35-.53,2.59-1.06,3.84-1.63v4.71c-1.3.53-2.59,1.06-3.84,1.54v15.71h-4.85v-13.98c-2.5.82-4.99,1.59-7.54,2.26l-1.2-4.85c2.98-.53,5.86-1.2,8.74-2.07v-11.48h-3.07c-.38,2.3-.91,4.51-1.54,6.68ZM81.04,321.9v4.66h10.95v4.66h-10.95v4.13h9.46v4.71h-23.24v-4.71h8.88v-4.13h-10.8v-4.66h10.8v-4.66h4.9ZM81.85,344.28v-2.59h4.9v2.59h5.24v4.71h-5.24v12.25c0,3.22-1.73,4.85-5.09,4.85h-5.67l-1.01-4.71c1.73.19,3.36.34,4.99.34,1.25,0,1.87-.58,1.87-1.68v-11.05h-15.32v-4.71h15.32ZM76.67,357.24l-3.94,2.79c-1.35-2.26-3.17-4.75-5.48-7.44l3.89-2.45c2.4,2.74,4.23,5.09,5.52,7.11Z" fill="#231815"/>
      <path d="M117.06,347.3c-.58.77-1.2,1.54-1.87,2.31h17.19v3.46c-1.73,2.31-4.18,4.32-7.35,6.1,4.76,1.44,9.9,2.26,15.37,2.55l-1.25,4.8c-7.68-.48-14.55-1.97-20.6-4.47-5.57,1.97-12.44,3.51-20.61,4.61l-1.87-4.75c6.48-.67,12.06-1.59,16.67-2.74-1.87-1.06-3.65-2.26-5.28-3.51-1.83,1.06-3.84,2.02-5.96,2.98l-2.98-3.89c1.92-.72,3.65-1.44,5.28-2.21-.77-.72-1.49-1.44-2.16-2.11l3.56-2.45c.86.82,1.73,1.58,2.64,2.3,1.54-1.06,2.78-2.16,3.84-3.22-1.92-.48-2.83-1.87-2.83-4.18v-5.38h4.85v4.32c0,.96.34,1.49,1.06,1.49h8.02c.53,0,.96-.14,1.25-.38.29-.29.53-1.15.62-2.59l4.61,1.49c-.34,2.69-.91,4.27-1.78,4.75-.86.48-2.11.72-3.79.72h-6.63ZM134.01,339.86v-3.55h-15.51c1.82,1.15,3.41,2.3,4.66,3.46l-3.07,3.17c-1.25-1.25-2.93-2.59-5.09-4.04l2.64-2.59h-15.22v4.08c.43-.77.82-1.54,1.1-2.35l4.18,1.68c-1.54,3.84-3.51,6.77-5.96,8.84l-3.56-3.12c1.54-1.2,2.83-2.69,3.89-4.42h-4.47v-9.13h6.67c-.33-.96-.67-1.83-1.01-2.64l4.9-.72c.38,1.01.72,2.11,1.11,3.36h6.63c-.38-1.06-.77-2.07-1.2-2.98l4.85-.77c.48,1.15.91,2.4,1.34,3.75h5.57c.87-1.54,1.59-3.12,2.26-4.76-7.97.67-17.48,1.06-28.58,1.06l-1.39-4.23c14.31,0,26.42-.62,36.41-1.87l2.3,4.03c-2.5.34-5.14.67-7.97.96l4.18,1.49c-.58,1.2-1.2,2.31-1.83,3.31h6.96v9.13h-3.84c1.35,1.68,2.45,3.17,3.36,4.51l-4.18,2.93c-1.44-2.59-3.41-5.43-5.81-8.6l3.65-2.31,2.02,2.31ZM125.71,353.55h-13.3c2.16,1.34,4.42,2.5,6.77,3.55,2.59-1.06,4.8-2.26,6.53-3.55Z" fill="#231815"/>
      <path d="M157.74,329.92c-1.25-2.21-2.59-4.23-4.04-6l4.32-2.07c1.54,2.02,2.98,4.27,4.42,6.77l-2.59,1.3h10.33c1.39-2.59,2.64-5.28,3.7-8.12l4.85,1.73c-.96,2.4-2.07,4.51-3.27,6.39h9.41v4.8h-16.09v5.52h13.69v4.8h-13.69v5.72h18.92v4.85h-18.92v10.9h-5.09v-10.9h-19.12v-4.85h19.12v-5.72h-13.69v-4.8h13.69v-5.52h-15.99v-4.8h10.04Z" fill="#231815"/>
      <path d="M229.93,327.13l-1.2,7.49h6.15l1.2-7.49h4.42l-1.2,7.49h4.18l-.62,3.94h-4.18l-1.78,11.43h4.75l-.62,3.94h-4.76l-1.2,7.49h-4.47l1.2-7.49h-6.1l-1.2,7.49h-4.47l1.2-7.49h-4.18l.62-3.94h4.18l1.83-11.43h-4.8l.62-3.94h4.8l1.2-7.49h4.42ZM232.43,349.99l1.83-11.43h-6.15l-1.78,11.43h6.1Z" fill="#231815"/>
      <path d="M298.66,365.7h-5.09v-2.31h-30.55v2.31h-5.09v-41.11h40.73v41.11ZM293.57,358.93v-29.83h-7.73v16.91c0,.77.53,1.15,1.63,1.15h4.99v4.61h-6.48c-3.36,0-5-1.54-5-4.56v-18.11h-5.57v9.6c-.1,6.87-2.83,11.86-8.17,15.03l-3.89-3.41c4.71-2.4,7.11-6.29,7.2-11.62v-9.6h-7.54v29.83h30.55Z" fill="#231815"/>
      <path d="M323.78,329.92v-2.16c-4.13.19-8.5.29-13.21.29l-1.39-4.23c12.39,0,22.91-.62,31.55-1.87l2.26,3.89c-4.04.72-8.74,1.25-14.12,1.63v2.45h18.25v4.61h-18.25v.58c4.51.96,7.88,1.78,9.99,2.45,2.4.67,5.43,1.73,9.08,3.17l-2.02,4.51c-3.17-1.54-6.44-2.88-9.85-4.08-2.3-.86-4.71-1.58-7.2-2.07v3.99h9.32v4.37c-2.5,1.68-5.23,3.31-8.26,4.95v.38h16.23v4.56h-16.23v4.13c0,3.07-1.83,4.66-5.38,4.66h-5.67l-1.3-4.42c1.63,0,3.36.05,5.23.05,1.35,0,2.07-.67,2.07-1.92v-2.5h-18.44v-4.56h18.44v-2.21c2.74-1.25,4.95-2.26,6.63-3.12h-18.16v-4.37h10.42v-8.55c-3.17,4.27-8.74,7.97-16.71,11.05l-2.69-4.32c6.53-2.02,11.19-4.27,14.03-6.72h-12.87v-4.61h18.25Z" fill="#231815"/>
      <path d="M360.38,337.17c3.94-.77,7.83-1.73,11.67-2.83l1.25,4.32c-5.57,1.58-11.48,2.98-17.77,4.18l-1.54-4.51c.96-.48,1.49-1.2,1.49-2.21v-13.88h4.9v4.75h12.01v4.56h-12.01v5.62ZM375.99,341.01c-.38,1.06-.86,2.07-1.44,3.03h16.19v22.43h-4.8v-1.83h-22.77v1.87h-4.8v-22.48h10.76c.67-1.25,1.2-2.5,1.58-3.75l5.28.72ZM385.93,352.2v-3.65h-22.77v3.65h22.77ZM385.93,360.13v-3.51h-22.77v3.51h22.77ZM393.47,330.83l-13.64.96v4.08c0,.77.43,1.2,1.3,1.2h6.87c.62,0,1.25-.19,1.83-.48.57-.38.96-1.92,1.25-4.56l4.61,1.44c-.53,4.04-1.25,6.39-2.16,7.06-1.01.67-2.4,1.06-4.18,1.1h-9.61c-3.17,0-4.75-1.63-4.75-4.9v-14.55h4.85v5l13.64-.96v4.61Z" fill="#231815"/>
      <path d="M435.79,360.94h8.26v4.66h-42.75v-4.66h8.12v-26.27h26.37v26.27ZM442.27,336.88h-4.85v-6.1h-30.07v6.1h-4.85v-10.61h17.19c-.53-1.34-1.1-2.55-1.73-3.65l5.28-.86c.53,1.34,1.06,2.88,1.59,4.51h17.43v10.61ZM430.74,343.6v-4.27h-16.28v4.27h16.28ZM430.74,352.25v-4.23h-16.28v4.23h16.28ZM430.74,360.94v-4.27h-16.28v4.27h16.28Z" fill="#231815"/>
      <path d="M7.55,392.26l1.2-7.49h4.42l-1.2,7.49h6.15l1.2-7.49h4.42l-1.2,7.49h4.18l-.62,3.94h-4.18l-1.78,11.43h4.75l-.62,3.94h-4.75l-1.2,7.49h-4.47l1.2-7.49h-6.1l-1.2,7.49H3.28l1.2-7.49H.3l.62-3.94h4.18l1.83-11.43H2.13l.62-3.94h4.8ZM15.67,407.63l1.83-11.43h-6.15l-1.78,11.43h6.1Z" fill="#231815"/>
      <path d="M43.43,387.55c-1.25-2.21-2.59-4.23-4.04-6l4.32-2.07c1.54,2.02,2.98,4.27,4.42,6.77l-2.59,1.3h10.33c1.39-2.59,2.64-5.28,3.7-8.12l4.85,1.73c-.96,2.4-2.07,4.51-3.27,6.39h9.41v4.8h-16.09v5.52h13.69v4.8h-13.69v5.72h18.92v4.85h-18.92v10.9h-5.09v-10.9h-19.12v-4.85h19.12v-5.72h-13.69v-4.8h13.69v-5.52h-15.99v-4.8h10.04Z" fill="#231815"/>
      <path d="M89.49,404.7l-2.69-4.42c3.84-1.73,6.77-4.8,8.88-9.22h-10.23v33h-5.04v-37.85h17.1c.58-2.07,1.06-4.27,1.44-6.63l4.95.43c-.38,2.21-.82,4.27-1.3,6.2h16.91v30.98c0,4.13-1.87,6.24-5.52,6.24h-7.16l-1.35-4.85,6.87.19c1.39,0,2.11-.91,2.11-2.69v-25.02h-13.45l-.19.48c4.04,2.31,8.07,4.9,12.15,7.78l-2.83,4.27c-4.56-3.6-8.31-6.29-11.24-8.07-2.5,4.27-5.62,7.35-9.41,9.17ZM89.59,417.95l-2.55-4.56c5.96-2.88,9.65-7.35,11.14-13.4l4.85.62c-.43,1.68-.91,3.22-1.49,4.66,3.6,2.16,7.3,4.61,11.05,7.35l-2.83,4.23c-4.18-3.36-7.64-5.91-10.33-7.59-2.4,3.75-5.72,6.63-9.85,8.69Z" fill="#231815"/>
      <path d="M138.39,379.68c-.53,3.07-1.06,5.91-1.54,8.55h7.88v2.74c-.29,7.49-1.73,13.98-4.27,19.5,2.55,2.02,4.66,3.79,6.29,5.43l-3.41,3.94c-1.49-1.54-3.26-3.17-5.28-4.9-2.31,3.65-5.14,6.77-8.6,9.46l-3.46-4.27c3.27-2.4,6-5.19,8.12-8.45-2.16-1.78-4.51-3.6-7.06-5.48,1.39-4.03,2.64-8.4,3.8-13.11h-4.42v-4.85h5.48c.57-2.93,1.1-5.96,1.58-9.03l4.9.48ZM139.83,393.08h-3.99c-1.06,4.61-2.16,8.45-3.31,11.57,1.39.96,2.69,1.87,3.89,2.79,1.87-4.23,3.02-9.03,3.41-14.36ZM155.92,399.22v-5.28c2.3-2.11,4.56-4.61,6.77-7.49h-15.66v-4.9h21.42v4.9c-2.21,3.17-4.71,6.2-7.49,9.03v3.75h9.17v4.9h-9.17v13.78c0,3.75-1.44,5.62-4.23,5.62h-7.2l-1.3-4.76c1.92.05,4.08.1,6.44.1.82,0,1.25-.82,1.25-2.45v-12.3h-10.23v-4.9h10.23Z" fill="#231815"/>
      <path d="M185.7,398.65l-3.56,3.55c-1.92-2.4-4.61-4.95-8.07-7.73l3.41-3.31c3.27,2.5,6,4.99,8.21,7.49ZM186.03,406.28c-2.11,6.15-4.47,11.91-7.06,17.29l-4.61-2.07c2.79-5.52,5.24-11.19,7.25-16.95l4.42,1.73ZM186.66,387.22l-3.6,3.55c-1.83-2.21-4.51-4.66-7.97-7.25l3.55-3.41c3.17,2.4,5.81,4.75,8.02,7.11ZM194.49,386.5c-.96-2.02-1.92-3.79-2.93-5.33l4.85-1.58c1.25,2.21,2.3,4.51,3.22,6.92h5.72c1.2-2.3,2.26-4.75,3.22-7.35l4.71,1.68c-.86,2.07-1.83,3.94-2.88,5.67h7.4v4.76h-8.45l3.12,1.25c-2.3,5.72-4.18,9.7-5.67,12.01l4.18-.43c.91-2.02,1.87-4.18,2.88-6.48l4.27,1.49c-4.23,9.08-7.54,15.23-9.99,18.44,1.59-.24,3.07-.48,4.42-.67-.38-1.25-.72-2.4-1.06-3.46l3.51-1.15c1.15,2.88,2.16,6.24,3.03,9.99l-3.89,1.01-.58-2.55c-3.03.43-6.48.86-10.33,1.3l-.86-4.13c1.49-.67,3.7-3.94,6.68-9.8-2.31.29-4.42.48-6.34.67l-.96-3.79c1.49-1.39,3.6-5.96,6.34-13.69h-13.98l3.12,1.25c-2.26,5.72-4.13,9.7-5.62,12.01l4.03-.43c.96-2.02,1.97-4.18,3.03-6.48l4.23,1.49c-4.37,9.13-7.83,15.27-10.33,18.49,1.54-.24,2.93-.48,4.27-.72-.29-1.2-.62-2.35-.91-3.41l3.51-1.15c1.01,2.88,1.92,6.2,2.69,9.94l-3.99,1.01-.48-2.55c-2.93.48-6.29.91-10.04,1.39l-.91-4.13c1.54-.67,3.84-3.94,6.91-9.85-2.21.24-4.23.43-6.15.62l-.91-3.79c1.49-1.39,3.6-5.96,6.34-13.69h-5.62v-4.76h7.2Z" fill="#231815"/>
      <path d="M236.99,419.2h-4.66v-2.54h-4.13v3.7h-4.8v-37.22h13.59v36.07ZM232.33,412.05v-24.3h-4.13v24.3h4.13ZM254.43,424.2h-4.9v-19.4c-2.21,6.05-5.38,11.09-9.61,15.18l-2.64-4.32c4.37-3.65,7.64-8.21,9.75-13.78h-8.26v-4.71h10.76v-6.53h-9.08v-4.71h9.08v-6.39h4.9v6.39h9.08v4.71h-9.08v6.53h10.66v4.71h-8.17c2.02,5.19,5.28,9.8,9.85,13.88l-3.27,4.08c-4.04-4.61-7.06-9.65-9.08-15.13v19.5Z" fill="#231815"/>
    </g>
  </g>
</svg>