<?xml version="1.0" encoding="UTF-8"?>
<svg id="_圖層_2" data-name="圖層 2" xmlns="http://www.w3.org/2000/svg" width="626.92" height="671.53" viewBox="0 0 626.92 671.53">
  <g id="_圖層_2-2" data-name="圖層 2">
    <g>
      <path d="M439,20.02C280.65-42.91,95.55,47.5,26.37,221.55c-33.39,84.03-35.13,174.89-4.91,255.85,30.45,81.56,89.63,143.33,166.64,173.93,33.93,13.49,69.5,20.19,105.35,20.19,45.52,0,91.51-10.81,135.22-32.3,77.56-38.13,138.66-105.4,172.05-189.43,69.17-174.06-3.38-366.86-161.73-429.79M569.33,437.33c-30.29,76.22-85.54,137.16-155.56,171.58-69.45,34.15-145.17,38.06-213.18,11.03-68.02-27.03-120.39-81.85-147.46-154.35-27.29-73.1-25.64-155.33,4.65-231.56C106.77,110.75,219.52,33.77,334.07,33.77c31.09,0,62.34,5.68,92.45,17.65,141.04,56.05,205.1,229.17,142.81,385.91" fill="#e8e9e9"/>
      <path d="M243.18,292.66c-7.28-2.12-14.6-3.46-22.04-3.85l2.86-21.07h22.57l14.76-108.92h-22.57l1.76-12.97-76.11-.08s-.65,4.79-1.77,13.05h-41.82l-14.76,108.92h41.82c-2.23,16.42-4.5,33.18-6.69,49.38-28.47,24.06-50.36,62.83-57.24,113.55-6.89,50.8,11.95,79.89,48.65,79.89,62.05,0,73.79-112.92,73.79-112.92l2.57-18.95c12.66,4.56,21.27,9.59,21.27,9.59l12.96-95.62ZM126.58,424.77c-2.72,20.05-29.85,11.56-4.37-27.84,2.97-4.56,6.2-8.34,9.7-11.48l-5.33,39.32Z" fill="#e8e9e9"/>
      <path d="M258.87,332.14l-9.72,71.68c27.38-2.88,57.67-3.8,89.78-4.1l-4.79,35.3c-28.93,1.47-60.48,2.51-94.15,2.78l-9.86,72.76h275.37l12.66-93.39s-35.55,6-95.34,11.53l3.93-29.02c33.77.25,65.37,1.12,93.24,4.14l9.72-71.68c-40.21,4.23-86.89,6.7-136.37,6.7s-95.41-2.46-134.48-6.7" fill="#e8e9e9"/>
      <path d="M463.79,181.11c11.01-10.62,16.05-23.28,17.66-35.16h-62.44c5.11,38.02-30.97,48.37-30.97,48.37,0,0-.02.04-.03.04-8.37,2.55-15.62,5.12-21.58,7.45l2.85-21.04h-94.44l-13.35,98.48h88.59c-1.19.85-2.45,1.62-3.78,2.28-22.74,11.18-67.63,9.48-67.63,9.48l-5.31,39.19s72.43,2.57,104.97-28.74c21.52-20.71,24.67-66.62,24.67-66.62h-33.32s-1.56,23.14-12.84,37.74l5.86-43.23c31.17-8.56,90.12-21.9,87.06.67l-6.67,49.24h94.44l6.67-49.24s9.32-49.38-66.6-49.25c-4.69,0-9.29.13-13.81.35" fill="#e8e9e9"/>
      <path d="M481.95,330.2c17.51,0,33.64-14.2,36.01-31.71l.6-4.42.35-2.57.68-5h-33.32l-.68,5h-49.49l7.68-56.67h-33.32l-7.68,56.67-.44,3.28-.5,3.71c-2.37,17.51,9.9,31.71,27.41,31.71h52.71Z" fill="#e8e9e9"/>
    </g>
  </g>
</svg>