<?xml version="1.0" encoding="UTF-8"?>
<svg id="_圖層_2" data-name="圖層 2" xmlns="http://www.w3.org/2000/svg" width="309.83" height="62.7" viewBox="0 0 309.83 62.7">
  <g id="_圖層_2-2" data-name="圖層 2">
    <g>
      <path d="M14.55.7c4.25,0,7.21.75,8.88,2.26,1.67,1.5,2.5,3.63,2.5,6.36,0,1.88-.33,3.48-.99,4.79-.66,1.31-1.83,2.34-3.49,3.08-1.67.74-3.96,1.11-6.89,1.11h-6.66v5.64H0c.17-4.14.26-8.02.26-11.63S.17,4.82,0,.67h7.88v.03h6.66ZM12.3,12.11c1.77,0,3.1-.07,3.99-.21.89-.14,1.51-.39,1.86-.75.35-.36.53-.9.53-1.6s-.17-1.23-.5-1.59c-.33-.35-.94-.59-1.83-.72-.89-.13-2.24-.19-4.05-.19h-4.42v5.06h4.42Z"/>
      <path d="M36.05,18.07c8.12-.04,14-.16,17.65-.35-.15.88-.24,1.78-.27,2.71-.03.93-.05,2.1-.05,3.51h-24.9c.17-4.14.26-8.02.26-11.63s-.08-7.49-.26-11.63h24.9v5.8h-17.33v3.08c1.03.02,2.54.03,4.55.03,3.4,0,6.91-.06,10.54-.19v5.51c-3.63-.13-7.15-.19-10.54-.19-2.01,0-3.52.01-4.55.03v3.33Z"/>
      <path d="M80.63,13.14c-.91,1.28-2.46,2.21-4.66,2.79.26.34.44.61.54.8l5.19,7.21h-8.72c-.94-1.75-2.42-4.23-4.45-7.43h-4.71v7.43h-7.56c.17-4.14.26-8.02.26-11.63s-.08-7.49-.26-11.63h7.56v.03h6.57c4.31,0,7.33.69,9.04,2.08,1.71,1.39,2.56,3.27,2.56,5.64,0,1.86-.45,3.43-1.36,4.71ZM63.82,6.86v3.65h4.33c1.81,0,3.19-.06,4.12-.18.93-.12,1.58-.3,1.94-.56.36-.26.55-.63.55-1.12s-.17-.83-.51-1.09c-.34-.26-.98-.44-1.92-.54-.94-.11-2.33-.16-4.17-.16h-4.33Z"/>
      <path d="M86.37,18.13c.48-.94.94-2.03,1.39-3.27,1.52.88,3.28,1.56,5.29,2.05,2.01.49,3.88.74,5.61.74s3.02-.16,3.75-.47c.73-.31,1.09-.64,1.09-1.01,0-1.3-1.99-1.96-5.96-1.96-4.36,0-7.52-.45-9.48-1.36-1.97-.91-2.95-2.38-2.95-4.41,0-2.88,1.19-5.01,3.59-6.37C91.08.72,94.19.03,98.01.03c2.22,0,4.5.28,6.84.85,2.34.57,4.45,1.34,6.33,2.32-.62,1.41-1.27,3.13-1.95,5.16-.13.43-.24.75-.32.96-1.09-.88-2.73-1.61-4.93-2.2-2.2-.59-4.14-.88-5.83-.88-2.03,0-3.4.13-4.1.4-.7.27-1.06.66-1.06,1.17s.49.92,1.46,1.23,2.38.47,4.21.47c4.53,0,7.82.52,9.87,1.55,2.05,1.04,3.08,2.62,3.08,4.76,0,2.99-1.09,5.14-3.27,6.46-2.18,1.31-5.48,1.97-9.9,1.97-2.37,0-4.79-.26-7.24-.79-2.46-.52-4.67-1.29-6.63-2.29.73-1.09,1.33-2.1,1.81-3.04Z"/>
      <path d="M117.62,21.07c-2.31-2.12-3.46-5.11-3.46-8.96s1.15-6.77,3.44-8.91c2.3-2.14,5.9-3.2,10.81-3.2s8.55,1.07,10.85,3.2c2.29,2.14,3.44,5.11,3.44,8.91s-1.14,6.86-3.43,8.97c-2.29,2.11-5.91,3.17-10.86,3.17s-8.49-1.06-10.8-3.19ZM133.54,16.36c1.05-.91,1.57-2.32,1.57-4.25s-.52-3.28-1.57-4.2c-1.05-.92-2.76-1.38-5.13-1.38s-4.05.46-5.1,1.38c-1.05.92-1.57,2.32-1.57,4.2s.52,3.31,1.57,4.23c1.05.92,2.75,1.38,5.1,1.38s4.08-.45,5.13-1.36Z"/>
      <path d="M172.15.7c-.15,3.61-.22,7.48-.22,11.6s.07,8.02.22,11.63h-11.47l-7.75-17.49.58,17.49h-8.24c.17-4.14.26-8.02.26-11.63s-.08-7.45-.26-11.6h11.79l7.79,17.98-.55-17.98h7.85Z"/>
      <path d="M194.93,23.93c-.41-1.22-.95-2.75-1.64-4.58h-10.22l-1.6,4.58h-8.04L182.41.67h11.79l9.04,23.26h-8.3ZM191.47,14.35c-.81-2.24-1.65-4.49-2.5-6.73l-.77-2.08c-.75,1.94-1.85,4.88-3.3,8.81h6.57Z"/>
      <path d="M212.11,17.46c6.19-.04,11.32-.15,15.38-.32-.28,1.09-.45,2.14-.51,3.14s-.1,2.22-.1,3.65h-22.59c.17-4.14.26-8.02.26-11.63s-.08-7.49-.26-11.63h7.82v16.79Z"/>
      <path d="M248.67,7.05c-2.54-.13-4.42-.2-5.64-.22v10.96c1.24-.02,3.12-.1,5.64-.23v6.38h-18.62v-6.38c2.46.13,4.33.2,5.61.23V6.83c-1.28.02-3.15.1-5.61.22V.67h18.62v6.37Z"/>
      <path d="M278.75,7.4c-3.35-.11-6.61-.17-9.77-.19v16.72h-8.01V7.21c-3.18.02-6.43.08-9.74.19V.67h27.52v6.73Z"/>
      <path d="M309.83.67l-.61.93c-2.29,3.55-4.25,6.68-5.88,9.4-1.64,2.72-3,5.23-4.09,7.51v5.42h-8.36v-5.96c-.79-1.6-1.72-3.25-2.79-4.95-1.07-1.7-2.58-4.03-4.55-7-1.54-2.26-2.71-4.05-3.52-5.35h8.97c.64,1.3,1.69,3.23,3.14,5.8,1.45,2.61,2.45,4.44,2.98,5.51.75-1.56,1.75-3.47,3.01-5.73,1.47-2.65,2.47-4.51,2.98-5.57h8.72Z"/>
      <path d="M42.68,59.52c-2.31-2.12-3.46-5.11-3.46-8.96s1.15-6.77,3.44-8.91c2.3-2.14,5.9-3.2,10.81-3.2s8.55,1.07,10.85,3.2c2.29,2.14,3.44,5.11,3.44,8.91s-1.14,6.86-3.43,8.97c-2.29,2.11-5.91,3.17-10.86,3.17s-8.49-1.06-10.8-3.19ZM58.6,54.81c1.05-.91,1.57-2.32,1.57-4.25s-.52-3.28-1.57-4.2c-1.05-.92-2.76-1.38-5.13-1.38s-4.05.46-5.1,1.38c-1.05.92-1.57,2.32-1.57,4.2s.52,3.31,1.57,4.23c1.05.92,2.75,1.38,5.1,1.38s4.08-.45,5.13-1.36Z"/>
      <path d="M95.32,45.11h-17.43v3.37c1.09.02,2.72.03,4.9.03,3.76,0,7.58-.06,11.47-.19v6.28c-3.89-.15-7.99-.22-12.3-.22-1.79,0-3.15.01-4.07.03v7.98h-7.56c.17-4.14.26-8.02.26-11.63s-.08-7.49-.26-11.63h24.99v5.99Z"/>
      <path d="M129.28,45.11h-17.43v3.37c1.09.02,2.72.03,4.9.03,3.76,0,7.58-.06,11.47-.19v6.28c-3.89-.15-7.99-.22-12.3-.22-1.79,0-3.15.01-4.07.03v7.98h-7.56c.17-4.14.26-8.02.26-11.63s-.08-7.49-.26-11.63h24.99v5.99Z"/>
      <path d="M139.66,55.91c6.19-.04,11.32-.15,15.38-.32-.28,1.09-.45,2.14-.51,3.14s-.1,2.22-.1,3.65h-22.59c.17-4.14.26-8.02.26-11.63s-.08-7.49-.26-11.63h7.82v16.79Z"/>
      <path d="M177.82,62.38c-.41-1.22-.95-2.75-1.64-4.58h-10.22l-1.6,4.58h-8.04l8.97-23.26h11.79l9.04,23.26h-8.3ZM174.36,52.8c-.81-2.24-1.65-4.49-2.5-6.73l-.77-2.08c-.75,1.94-1.85,4.88-3.3,8.81h6.57Z"/>
      <path d="M213.13,39.12l-2.11,4.9c-1.86,4.34-3.32,7.81-4.39,10.41s-2.05,5.25-2.95,7.95h-9.58c-.88-2.65-1.84-5.27-2.9-7.87-1.06-2.6-2.47-5.92-4.24-9.98-.3-.68-1.08-2.49-2.34-5.41h8.91c.64,2.07,1.59,4.73,2.85,7.98,1.11,2.86,2.01,5.34,2.69,7.43.45-1.47.99-3.05,1.62-4.73.63-1.68,1.01-2.7,1.14-3.06,1.24-3.27,2.15-5.81,2.72-7.63h8.59Z"/>
      <path d="M216.37,59.52c-2.31-2.12-3.46-5.11-3.46-8.96s1.15-6.77,3.44-8.91c2.3-2.14,5.9-3.2,10.81-3.2s8.55,1.07,10.85,3.2c2.29,2.14,3.44,5.11,3.44,8.91s-1.14,6.86-3.43,8.97c-2.29,2.11-5.91,3.17-10.86,3.17s-8.49-1.06-10.8-3.19ZM232.29,54.81c1.05-.91,1.57-2.32,1.57-4.25s-.52-3.28-1.57-4.2c-1.05-.92-2.76-1.38-5.13-1.38s-4.05.46-5.1,1.38c-1.05.92-1.57,2.32-1.57,4.2s.52,3.31,1.57,4.23c1.05.92,2.75,1.38,5.1,1.38s4.08-.45,5.13-1.36Z"/>
      <path d="M268.39,51.59c-.91,1.28-2.46,2.21-4.66,2.79.26.34.44.61.54.8l5.19,7.21h-8.72c-.94-1.75-2.42-4.23-4.45-7.43h-4.71v7.43h-7.56c.17-4.14.26-8.02.26-11.63s-.08-7.49-.26-11.63h7.56v.03h6.57c4.31,0,7.33.69,9.04,2.08,1.71,1.39,2.56,3.27,2.56,5.64,0,1.86-.45,3.43-1.36,4.71ZM251.58,45.31v3.65h4.33c1.81,0,3.19-.06,4.12-.18.93-.12,1.58-.3,1.94-.56.36-.26.55-.63.55-1.12s-.17-.83-.51-1.09c-.34-.26-.98-.44-1.92-.54-.94-.11-2.33-.16-4.17-.16h-4.33Z"/>
    </g>
  </g>
</svg>