<?xml version="1.0" encoding="UTF-8"?>
<svg id="_圖層_2" data-name="圖層 2" xmlns="http://www.w3.org/2000/svg" width="340.23" height="71.97" viewBox="0 0 340.23 71.97">
  <g id="_圖層_2-2" data-name="圖層 2">
    <g>
      <g>
        <path d="M19.01,1.54v3.65h-8.99c-.21,1.32-.47,2.58-.79,3.8h8.2v3.29c-1.5,10.06-6.34,17.05-14.58,20.99l-1.83-3.33c3.83-1.86,6.84-4.44,9.06-7.77-1.61-1.25-3.44-2.44-5.48-3.55-.75.93-1.54,1.83-2.4,2.61l-1.83-3.51c3.22-3.08,5.19-7.23,5.98-12.54H1.28V1.54h17.73ZM11.78,19.13c.93-2.01,1.65-4.23,2.15-6.63h-5.8c-.5,1.18-1.04,2.29-1.61,3.29,1.97,1.07,3.72,2.18,5.26,3.33ZM24.56,3.4v22.42h-3.65V3.4h3.65ZM23.2,33.24l-.86-3.55c1.5.14,2.94.21,4.26.21s1.93-.72,1.93-2.08V.68h3.72v28.08c0,2.97-1.47,4.48-4.33,4.48h-4.73Z"/>
        <path d="M42.9,25.43c3.08-.64,6.05-1.32,8.99-2.11l1.07,3.44c-4.44,1.29-9.28,2.4-14.54,3.33l-1.29-3.58c.68-.14,1.36-.25,2.01-.36V3.19c4.51-.72,8.6-1.68,12.32-2.97l2.26,3.08c-3.29,1-6.91,1.86-10.82,2.61v6.98h9.74v3.62h-9.74v8.92ZM61.52,28.76l-1-3.62,2.87.11c1.04,0,1.58-.54,1.58-1.54V5.55h-6.59v28.08h-3.8V2.04h14.18v22.46c0,2.83-1.36,4.26-4.08,4.26h-3.15Z"/>
        <path d="M74.59,18.48l-1.25-4.01c3.69-4.05,6.41-8.81,8.2-14.29l3.47,1.65c-.93,2.79-2.15,5.44-3.65,7.95v23.78h-3.72V15.08c-.97,1.15-1.97,2.29-3.04,3.4ZM85.73,15.15l-3.22-2.01c2.65-3.97,4.51-8.2,5.59-12.68l3.51.75c-.29,1.07-.61,2.15-.93,3.19h14.94v2.43c-.54,2.15-1.22,4.26-2.04,6.38l-3.58-1.04c.72-1.22,1.29-2.61,1.79-4.19h-12.39c-1.07,2.61-2.29,5.01-3.65,7.16ZM90.88,16.01c-1.25,4.91-2.86,9.21-4.8,12.89l-3.51-1.25c1.86-3.29,3.51-7.49,4.94-12.57l3.37.93ZM88.81,33.31l-.82-3.51c1.43.14,2.83.25,4.12.25.86,0,1.29-.47,1.29-1.36V10.46h3.62v19.13c0,2.47-1.22,3.72-3.65,3.72h-4.55ZM106.54,28.05l-3.3,1.47c-1.29-5.16-2.76-9.74-4.37-13.72l3.3-1.11c1.68,4.15,3.15,8.63,4.37,13.36Z"/>
        <path d="M123.94,31.34h-3.58v-1.79h-5.3v2.83h-3.58V6.23h3.44c.64-1.9,1.11-3.87,1.4-5.91l3.76.5c-.39,1.93-.93,3.76-1.58,5.41h5.44v25.11ZM120.36,16.01v-6.27h-5.3v6.27h5.3ZM120.36,26.11v-6.77h-5.3v6.77h5.3ZM141.85,29.44c-.36,2.51-2.08,3.76-5.16,3.76-.72,0-2.01-.07-3.87-.21l-.9-3.4c1.58.11,2.97.18,4.15.18,1.29,0,2.04-.72,2.26-2.11.21-1.72.32-7.63.39-17.77h-8.67c-.97,2.15-2.11,4.08-3.44,5.8l-2.26-2.97c2.36-3.37,3.94-7.52,4.8-12.43l3.69.47c-.36,1.93-.82,3.76-1.36,5.48h10.89c0,12.54-.18,20.27-.54,23.21ZM135.76,22.6l-3.01,2.08c-1.33-2.36-3.12-4.98-5.34-7.84l3.04-1.9c2.29,2.9,4.05,5.44,5.3,7.66Z"/>
        <path d="M151.58,4.26l6.02,9.02,6.02-9.02h5.12l-8.63,12.36,9.2,13.22h-5.12l-6.59-9.89-6.59,9.89h-5.12l9.13-13.22-8.56-12.36h5.12Z"/>
        <path d="M176.26,4.26l6.02,9.02,6.02-9.02h5.12l-8.63,12.36,9.2,13.22h-5.12l-6.59-9.89-6.59,9.89h-5.12l9.13-13.22-8.56-12.36h5.12Z"/>
        <path d="M197.78,33.24l-.82-3.62c.93.14,1.83.21,2.69.21.79,0,1.18-.43,1.18-1.22v-7.23c-1.25.47-2.51.9-3.76,1.29l-.93-3.8c1.58-.36,3.15-.79,4.69-1.33v-7.05h-3.98v-3.62h3.98V.47h3.8v6.41h2.58v3.62h-2.58v5.55c.9-.43,1.79-.9,2.69-1.36v3.8c-.93.43-1.83.86-2.69,1.29v9.78c0,2.44-1.25,3.69-3.69,3.69h-3.15ZM208.92,22.46v-3.47h19.2v3.47h-7.66v6.52h8.99v3.62h-21.96v-3.62h9.2v-6.52h-7.77ZM217.91,8.16c-.9,5.19-3.55,8.6-7.99,10.24l-1.86-2.94c3.69-1.29,5.91-3.94,6.63-8.02l3.22.72ZM211.89,7.34v4.08h-3.51v-7.41h8.31c-.47-1.22-1-2.33-1.61-3.37l3.83-.64c.5,1.22,1.04,2.54,1.54,4.01h8.24v7.41h-3.47v-4.08h-2.4v5.69c0,.54.32.82,1.04.82h4.94v3.22h-6.63c-1.79,0-2.69-.86-2.69-2.58v-7.16h-7.59Z"/>
        <path d="M237.64,24.71c-.18,3.12-.57,5.87-1.22,8.27l-3.3-1.04c.64-2.22,1.04-4.8,1.18-7.66l3.33.43ZM247.06,21.6l-3.08.79-.29-1.4c-3.33,1-6.48,1.68-9.45,2.04l-.97-3.37c.64-.29,1.22-.61,1.68-1.04,1-.97,2.22-2.61,3.65-4.94-1.43.21-2.97.47-4.55.72l-.9-3.4c.57-.25,1.07-.72,1.54-1.36,1.58-2.86,2.94-6.05,4.08-9.49l3.58,1.4c-1.61,3.69-3.26,6.77-4.94,9.2,1.07-.14,2.15-.29,3.19-.47.72-1.29,1.5-2.69,2.29-4.19l3.15,1.18v-2.61h8.27V.47h3.69v4.19h8.13v3.58h-8.13v4.26h7.34v3.58h-18.34v-3.58h7.31v-4.26h-8.27v-.36c-2.94,5.08-5.44,8.81-7.45,11.25,1.47-.29,2.94-.61,4.37-.97-.25-.93-.54-1.83-.82-2.72l2.86-.93c.75,2.08,1.43,4.44,2.04,7.09ZM242.9,30.98l-3.47.82c-.29-2.79-.64-5.3-1.04-7.45l3.04-.68c.54,2.22,1.04,4.66,1.47,7.3ZM247.74,28.65l-3.04,1.4c-.61-2.4-1.25-4.51-1.97-6.37l2.79-.93c.86,1.83,1.58,3.8,2.22,5.91ZM264.36,33.56h-3.62v-1.32h-8.92v1.32h-3.65v-14.86h16.19v14.86ZM260.74,28.73v-6.55h-8.92v6.55h8.92Z"/>
        <path d="M298.88,1.54v14.72h-10.6v2.4h14.08v3.47h-11.14c2.51,2.76,6.48,5.27,11.96,7.49l-2.58,3.26c-5.73-3.15-9.81-6.66-12.32-10.46v11.07h-3.8v-11.07c-2.69,4.19-6.91,7.66-12.64,10.46l-2.15-3.47c5.3-1.93,9.24-4.37,11.82-7.27h-11.1v-3.47h14.08v-2.4h-10.67V1.54h25.07ZM284.48,7.38v-2.54h-6.95v2.54h6.95ZM284.48,10.6h-6.95v2.47h6.95v-2.47ZM288.28,7.38h6.88v-2.54h-6.88v2.54ZM295.15,10.6h-6.88v2.47h6.88v-2.47Z"/>
      </g>
      <g>
        <path d="M8.15,68.26c-1.71,0-3.17-.4-4.39-1.21s-2.15-1.91-2.79-3.33c-.64-1.41-.97-3.03-.97-4.86s.32-3.43.98-4.85c.65-1.42,1.6-2.54,2.83-3.37s2.72-1.23,4.44-1.23c1.47,0,2.72.26,3.75.79,1.02.53,1.84,1.24,2.44,2.16.6.92,1.02,1.96,1.26,3.13l-2.87.15c-.2-1.1-.66-1.99-1.37-2.68-.71-.69-1.78-1.03-3.2-1.03-1.25,0-2.28.31-3.07.94s-1.38,1.47-1.77,2.52c-.38,1.05-.57,2.21-.57,3.48s.19,2.5.57,3.53c.38,1.03.97,1.85,1.78,2.45.8.6,1.83.9,3.09.9.98,0,1.83-.21,2.54-.63.71-.42,1.27-1,1.66-1.73.4-.73.61-1.53.65-2.41h-4.83v-2.31h7.44v9.19h-1.88l-.18-4.06.36.3c-.19.81-.57,1.53-1.14,2.16-.58.63-1.28,1.12-2.1,1.47-.82.36-1.71.53-2.65.53Z"/>
        <path d="M24.71,68.16c-1.32,0-2.46-.29-3.42-.86-.96-.58-1.69-1.4-2.21-2.46s-.78-2.31-.78-3.74.26-2.66.78-3.72,1.25-1.88,2.2-2.46c.95-.58,2.06-.88,3.35-.88,1.22,0,2.29.29,3.22.85.93.57,1.66,1.38,2.17,2.45.52,1.07.78,2.35.78,3.86v.68h-9.7c.07,1.32.42,2.31,1.05,2.97.63.66,1.49.99,2.58.99.8,0,1.46-.19,1.98-.56s.89-.87,1.09-1.5l2.79.18c-.36,1.25-1.05,2.27-2.09,3.03-1.04.77-2.31,1.16-3.8,1.16ZM21.11,59.85h6.86c-.09-1.2-.43-2.09-1.03-2.67-.6-.57-1.37-.86-2.3-.86s-1.76.3-2.38.9c-.62.6-1,1.48-1.16,2.63Z"/>
        <path d="M32.38,56.55v-2.21h8.33v2.21h-8.33ZM38.2,67.86c-1.29,0-2.23-.3-2.84-.89s-.91-1.52-.91-2.77v-13.03h2.69v12.83c0,.63.14,1.06.41,1.3s.69.36,1.24.36h1.93v2.21h-2.52Z"/>
        <path d="M50.37,71.66v-2.21h1.65c.46,0,.8-.07,1.01-.2.22-.14.39-.36.51-.69l.43-1.12h-.84l-4.88-13.11h2.85l3.71,10.62,3.53-10.62h2.87l-5.38,15.09c-.27.78-.67,1.35-1.21,1.7-.53.36-1.27.53-2.22.53h-2.03Z"/>
        <path d="M68.55,68.16c-1.29,0-2.41-.29-3.38-.86-.97-.58-1.71-1.4-2.23-2.46s-.79-2.31-.79-3.74.26-2.68.79-3.73,1.27-1.87,2.23-2.45c.97-.58,2.09-.88,3.38-.88s2.41.29,3.38.88c.97.58,1.71,1.4,2.23,2.45s.79,2.29.79,3.73-.26,2.67-.79,3.74-1.27,1.89-2.23,2.46c-.97.57-2.09.86-3.38.86ZM68.55,65.82c1.15,0,2.04-.42,2.67-1.26.63-.84.94-1.99.94-3.47s-.31-2.63-.94-3.47c-.63-.84-1.52-1.26-2.67-1.26s-2.02.42-2.65,1.26c-.64.84-.95,1.99-.95,3.47s.32,2.63.95,3.47c.63.84,1.52,1.26,2.65,1.26Z"/>
        <path d="M82.12,68.16c-1.35,0-2.43-.45-3.24-1.36s-1.21-2.16-1.21-3.77v-8.69h2.69v8c0,1.22.21,2.12.63,2.69.42.58,1.07.86,1.93.86.98,0,1.75-.32,2.3-.95s.83-1.53.83-2.68v-7.93h2.69v13.51h-2.51l-.05-3.53.38.15c-.24,1.18-.74,2.09-1.5,2.73-.76.63-1.74.95-2.95.95Z"/>
        <path d="M92.56,67.86v-13.51h2.46l.1,3.58-.23-.07c.19-1.22.56-2.11,1.13-2.67.57-.56,1.33-.84,2.3-.84h1.3v2.41h-1.3c-.68,0-1.24.11-1.7.33-.46.22-.8.56-1.03,1.01-.23.46-.34,1.05-.34,1.78v7.97h-2.69Z"/>
        <path d="M111.1,49.42l-1.27,3.99h1.42v3.2h-3.3v-2.82l1.6-4.37h1.55ZM115.72,49.42l-1.27,3.99h1.4v3.2h-3.28v-2.82l1.6-4.37h1.55Z"/>
        <path d="M117.32,67.86l5.99-9.04-5.94-8.99h3.22l4.45,6.86,4.37-6.86h3.2l-5.94,8.94,6.02,9.09h-3.22l-4.47-6.96-4.47,6.96h-3.2Z"/>
        <path d="M133.4,67.86l5.99-9.04-5.94-8.99h3.22l4.45,6.86,4.37-6.86h3.2l-5.94,8.94,6.02,9.09h-3.22l-4.47-6.96-4.47,6.96h-3.2Z"/>
        <path d="M157.2,67.86v-18.03h2.69v11.2l6.07-6.68h3.4l-5.28,5.69,5.49,7.82h-3.1l-4.19-6.15-2.39,2.54v3.61h-2.69Z"/>
        <path d="M171.65,67.86v-18.03h2.69v7.57l-.33-.05c.15-.76.43-1.38.84-1.87.41-.48.91-.84,1.5-1.08.59-.24,1.24-.36,1.96-.36.98,0,1.81.22,2.49.65.68.43,1.19,1.04,1.54,1.81.35.78.52,1.67.52,2.67v8.69h-2.69v-7.97c0-1.22-.21-2.12-.62-2.71s-1.06-.88-1.94-.88c-.98,0-1.77.31-2.36.93-.59.62-.89,1.52-.89,2.71v7.93h-2.69Z"/>
        <path d="M192.17,68.16c-1.29,0-2.41-.29-3.38-.86-.97-.58-1.71-1.4-2.23-2.46s-.79-2.31-.79-3.74.26-2.68.79-3.73,1.27-1.87,2.23-2.45c.97-.58,2.09-.88,3.38-.88s2.41.29,3.38.88c.97.58,1.71,1.4,2.23,2.45.53,1.05.79,2.29.79,3.73s-.26,2.67-.79,3.74-1.27,1.89-2.23,2.46c-.97.57-2.09.86-3.38.86ZM192.17,65.82c1.15,0,2.04-.42,2.67-1.26.63-.84.94-1.99.94-3.47s-.31-2.63-.94-3.47c-.63-.84-1.52-1.26-2.67-1.26s-2.02.42-2.65,1.26c-.64.84-.95,1.99-.95,3.47s.32,2.63.95,3.47c.63.84,1.52,1.26,2.65,1.26Z"/>
        <path d="M201.55,67.86v-13.51h2.46l.1,3.61-.33-.18c.15-.88.44-1.59.86-2.14.42-.54.94-.94,1.55-1.21s1.27-.39,1.98-.39c1.01,0,1.86.23,2.53.67.67.45,1.18,1.06,1.53,1.83s.52,1.65.52,2.63v8.69h-2.69v-7.87c0-.8-.08-1.47-.25-2.01s-.45-.96-.84-1.24c-.39-.29-.9-.43-1.53-.43-.95,0-1.72.31-2.31.94s-.89,1.54-.89,2.74v7.87h-2.69Z"/>
        <path d="M221.94,71.97c-1.07,0-2.01-.16-2.82-.48-.81-.32-1.48-.78-2.01-1.36-.53-.58-.88-1.27-1.07-2.04l2.79-.18c.19.56.51,1,.98,1.33.47.33,1.17.49,2.12.49,1.12,0,1.98-.24,2.58-.71.6-.47.9-1.19.9-2.16v-1.96c-.32.69-.84,1.24-1.55,1.65-.71.41-1.51.61-2.39.61-1.13,0-2.14-.28-3.02-.84-.88-.56-1.57-1.33-2.06-2.31-.49-.98-.74-2.12-.74-3.4s.24-2.45.72-3.43c.48-.98,1.16-1.75,2.03-2.31.87-.56,1.86-.84,2.96-.84.97,0,1.81.22,2.55.66.74.44,1.27,1.03,1.59,1.78v-2.13h2.59v12.45c0,1.12-.25,2.06-.75,2.83-.5.77-1.21,1.35-2.13,1.75-.92.4-2.02.6-3.29.6ZM221.92,64.88c1.05,0,1.89-.38,2.53-1.14.63-.76.96-1.81.98-3.15.02-.88-.12-1.64-.41-2.27s-.7-1.13-1.23-1.47-1.16-.52-1.87-.52c-1.1,0-1.95.39-2.55,1.16-.6.77-.9,1.81-.9,3.11s.31,2.37.93,3.14c.62.77,1.46,1.16,2.53,1.16Z"/>
        <path d="M231.51,57.01l1.27-3.99h-1.4v-3.2h3.28v2.82l-1.6,4.37h-1.55ZM236.14,57.01l1.27-3.99h-1.4v-3.2h3.28v2.82l-1.6,4.37h-1.55Z"/>
        <path d="M248.48,71.66v-17.32h2.54l.08,2.9-.3-.15c.34-1,.9-1.76,1.68-2.27s1.68-.78,2.69-.78c1.32,0,2.41.33,3.26.98.86.65,1.49,1.51,1.91,2.58s.62,2.23.62,3.5-.21,2.44-.62,3.51-1.05,1.93-1.91,2.58c-.85.65-1.94.98-3.26.98-.68,0-1.31-.12-1.9-.36-.59-.24-1.1-.57-1.51-1-.42-.43-.71-.94-.88-1.54l.3-.31v6.71h-2.69ZM254.68,65.82c1.08,0,1.93-.42,2.55-1.24s.93-1.99.93-3.48-.31-2.65-.93-3.48-1.47-1.24-2.55-1.24c-.71,0-1.33.17-1.85.52s-.93.88-1.22,1.59-.43,1.58-.43,2.61.14,1.91.42,2.62c.28.71.69,1.24,1.22,1.59s1.16.52,1.87.52Z"/>
        <path d="M263.67,67.86v-13.51h2.46l.1,3.58-.23-.07c.19-1.22.56-2.11,1.13-2.67.57-.56,1.33-.84,2.3-.84h1.3v2.41h-1.3c-.68,0-1.24.11-1.7.33-.46.22-.8.56-1.03,1.01-.23.46-.34,1.05-.34,1.78v7.97h-2.69Z"/>
        <path d="M272.87,52.39v-2.69h2.79v2.69h-2.79ZM272.92,67.86v-13.51h2.69v13.51h-2.69Z"/>
        <path d="M279.67,67.86v-13.51h2.46l.1,3.61-.33-.18c.15-.88.44-1.59.86-2.14.42-.54.94-.94,1.55-1.21s1.27-.39,1.98-.39c1.01,0,1.86.23,2.53.67.67.45,1.18,1.06,1.53,1.83s.52,1.65.52,2.63v8.69h-2.69v-7.87c0-.8-.08-1.47-.25-2.01s-.45-.96-.84-1.24c-.39-.29-.9-.43-1.53-.43-.95,0-1.72.31-2.31.94s-.89,1.54-.89,2.74v7.87h-2.69Z"/>
        <path d="M293.03,56.55v-2.21h8.33v2.21h-8.33ZM298.85,67.86c-1.29,0-2.23-.3-2.84-.89s-.91-1.52-.91-2.77v-13.03h2.69v12.83c0,.63.14,1.06.41,1.3s.69.36,1.24.36h1.93v2.21h-2.52Z"/>
        <path d="M309.24,68.16c-1.29,0-2.41-.29-3.38-.86-.97-.58-1.71-1.4-2.23-2.46s-.79-2.31-.79-3.74.26-2.68.79-3.73,1.27-1.87,2.23-2.45c.97-.58,2.09-.88,3.38-.88s2.41.29,3.38.88c.97.58,1.71,1.4,2.23,2.45.53,1.05.79,2.29.79,3.73s-.26,2.67-.79,3.74-1.27,1.89-2.23,2.46c-.97.57-2.09.86-3.38.86ZM309.24,65.82c1.15,0,2.04-.42,2.67-1.26.63-.84.94-1.99.94-3.47s-.31-2.63-.94-3.47c-.63-.84-1.52-1.26-2.67-1.26s-2.02.42-2.65,1.26c-.64.84-.95,1.99-.95,3.47s.32,2.63.95,3.47c.63.84,1.52,1.26,2.65,1.26Z"/>
        <path d="M322.8,68.16c-1.35,0-2.43-.45-3.24-1.36s-1.21-2.16-1.21-3.77v-8.69h2.69v8c0,1.22.21,2.12.63,2.69.42.58,1.07.86,1.93.86.98,0,1.75-.32,2.3-.95s.83-1.53.83-2.68v-7.93h2.69v13.51h-2.51l-.05-3.53.38.15c-.24,1.18-.74,2.09-1.5,2.73-.76.63-1.74.95-2.95.95Z"/>
        <path d="M331.89,56.55v-2.21h8.33v2.21h-8.33ZM337.71,67.86c-1.29,0-2.23-.3-2.84-.89s-.91-1.52-.91-2.77v-13.03h2.69v12.83c0,.63.14,1.06.41,1.3s.69.36,1.24.36h1.93v2.21h-2.52Z"/>
      </g>
    </g>
  </g>
</svg>