<?xml version="1.0" encoding="UTF-8"?>
<svg id="_圖層_2" data-name="圖層 2" xmlns="http://www.w3.org/2000/svg" width="207.44" height="198.26" viewBox="0 0 207.44 198.26">
  <g id="_圖層_2-2" data-name="圖層 2">
    <g>
      <path d="M9.83,6.57c-.04.22-.07.41-.12.6h4.44v1.16h-4.86c-.28.52-.64.98-1.08,1.37-.8.7-2.21,1.26-4.24,1.67l-.52-1.22c1.73-.3,2.97-.74,3.73-1.29.22-.17.4-.34.56-.52h-3.71v-1.16h4.37c.07-.24.13-.48.18-.74l1.25.13ZM6.67,1.2c-.15-.34-.32-.64-.48-.92l1.32-.22c.15.34.3.71.45,1.14h2.31c.17-.39.3-.77.39-1.17l1.33.18c-.1.35-.23.68-.4.99h2.44v1.14h-4.3v.83h3.66v1.06h-3.66v.85h4.7v1.16H3.75v-1.16h4.7v-.85h-3.63v-1.06h3.63v-.83h-4.3v-1.14h2.51ZM14.71,10.27l-.72,1.11c-1.41-.79-2.86-1.4-4.34-1.85l.67-.99c1.61.48,3.07,1.05,4.4,1.73Z"/>
      <path d="M19.69,10.06h-1.17v-.64h-1.04v.93h-1.21V.98h3.42v9.08ZM18.52,8.25V2.14h-1.04v6.12h1.04ZM24.08,11.31h-1.23v-4.88c-.55,1.52-1.35,2.79-2.42,3.82l-.66-1.09c1.1-.92,1.92-2.07,2.45-3.47h-2.08v-1.18h2.71v-1.64h-2.28v-1.18h2.28V.07h1.23v1.61h2.28v1.18h-2.28v1.64h2.68v1.18h-2.05c.51,1.31,1.33,2.47,2.48,3.49l-.82,1.03c-1.01-1.16-1.78-2.43-2.28-3.81v4.91Z"/>
      <path d="M29.8,8.29c-.06,1.05-.19,1.98-.41,2.79l-1.11-.35c.22-.75.35-1.62.4-2.59l1.12.15ZM32.97,7.24l-1.04.27-.1-.47c-1.12.34-2.19.57-3.19.69l-.33-1.14c.22-.1.41-.21.57-.35.34-.33.75-.88,1.23-1.67-.49.07-1,.16-1.54.24l-.3-1.15c.19-.08.36-.24.52-.46.53-.97.99-2.04,1.38-3.2l1.21.47c-.54,1.25-1.1,2.28-1.67,3.11.36-.05.73-.1,1.08-.16.24-.43.51-.91.77-1.41l1.06.4v-.88h2.79V.11h1.25v1.41h2.74v1.21h-2.74v1.44h2.48v1.21h-6.19v-1.21h2.47v-1.44h-2.79v-.12c-.99,1.72-1.84,2.97-2.51,3.79.49-.1.99-.21,1.47-.33-.08-.31-.18-.62-.28-.92l.97-.31c.25.7.49,1.5.69,2.39ZM31.57,10.41l-1.17.28c-.1-.94-.22-1.79-.35-2.51l1.03-.23c.18.75.35,1.57.49,2.47ZM33.2,9.62l-1.03.47c-.21-.81-.42-1.52-.67-2.15l.94-.31c.29.62.53,1.28.75,1.99ZM38.81,11.28h-1.22v-.45h-3.01v.45h-1.23v-5.02h5.46v5.02ZM37.59,9.65v-2.21h-3.01v2.21h3.01Z"/>
      <path d="M50.46.47v4.97h-3.58v.81h4.75v1.17h-3.76c.85.93,2.19,1.78,4.04,2.53l-.87,1.1c-1.93-1.06-3.31-2.25-4.16-3.53v3.73h-1.28v-3.73c-.91,1.41-2.33,2.59-4.27,3.53l-.72-1.17c1.79-.65,3.12-1.47,3.99-2.45h-3.75v-1.17h4.75v-.81h-3.6V.47h8.46ZM45.6,2.44v-.86h-2.35v.86h2.35ZM45.6,3.53h-2.35v.83h2.35v-.83ZM46.88,2.44h2.32v-.86h-2.32v.86ZM49.2,3.53h-2.32v.83h2.32v-.83Z"/>
      <path d="M54.58,9.02c-.08.89-.28,1.68-.58,2.36l-1.04-.35c.34-.62.55-1.33.64-2.13l.98.12ZM56.19,8.34l-.78.35c-.04-.19-.07-.36-.1-.52-.69.16-1.32.28-1.9.36l-.19-.86c.29-.17.66-.58,1.1-1.23-.34.05-.68.08-1.03.12l-.18-.69c.41-.24.75-.81.99-1.7l.93.11c-.22.6-.47,1.09-.75,1.45l.54-.07c.15-.27.3-.53.46-.81l.87.35c-.41.65-.79,1.18-1.1,1.61l.63-.22c.19.56.36,1.14.51,1.75ZM58.46.45v3.64h-4.83V.45h4.83ZM54.34,7.63c.24-.05.5-.11.78-.17-.05-.19-.11-.37-.16-.54-.24.29-.45.53-.63.71ZM57.36,1.86v-.48h-2.62v.48h2.62ZM57.36,2.67h-2.62v.48h2.62v-.48ZM56.24,10.97l-.98.24c-.1-.81-.23-1.52-.38-2.13l.93-.18c.16.63.3,1.32.42,2.07ZM59.17,8.12l-.75.34c-.05-.15-.08-.29-.11-.41-.68.19-1.31.35-1.86.47l-.19-.85c.24-.18.56-.6.93-1.26-.35.06-.71.11-1.08.16l-.18-.7c.37-.24.68-.8.91-1.69l.93.11c-.21.58-.43,1.06-.7,1.44.19-.04.37-.07.54-.1.13-.28.28-.57.42-.87l.87.35c-.31.58-.6,1.08-.86,1.49l.55-.18c.22.53.4,1.1.57,1.7ZM57.76,10.81l-.95.22c-.15-.77-.33-1.45-.53-2.05l.87-.18c.23.62.44,1.29.62,2.02ZM57.32,7.59c.24-.06.5-.13.79-.22-.07-.21-.13-.4-.19-.57-.22.33-.42.59-.59.79ZM59.11,10.04l-.85.39c-.22-.6-.46-1.14-.71-1.58l.85-.29c.28.46.52.95.71,1.49ZM61.31,9.6c-.49.65-1.1,1.22-1.82,1.73l-.68-.88c.67-.43,1.23-.95,1.69-1.55l.81.7ZM60.78,2.27c.06-.24.11-.48.16-.73h-1.99V.44h5.22v1.11h-1.97c-.05.24-.1.48-.16.73h1.81v6.51h-4.52V2.27h1.45ZM62.69,4.1v-.79h-2.2v.79h2.2ZM62.69,5.89v-.8h-2.2v.8h2.2ZM62.69,6.88h-2.2v.87h2.2v-.87ZM64.19,10.47l-.77.77c-.36-.51-.87-1.05-1.54-1.63l.71-.69c.63.51,1.16,1.03,1.6,1.55Z"/>
      <path d="M68.76,6.3c-.48,1.67-1.18,3.12-2.09,4.33l-1.1-.69c.92-1.23,1.57-2.54,1.94-3.92l1.25.28ZM76.22,3.66v1.24h-4.54v6.37h-1.28v-6.37h-4.59v-1.24h10.42ZM75.15.62v1.23h-8.23V.62h8.23ZM76.42,10.01l-1.15.52c-.64-1.62-1.34-3.05-2.09-4.28l1.14-.39c.81,1.29,1.51,2.67,2.1,4.15Z"/>
      <path d="M78.13,6.19l-.42-1.35c1.25-1.36,2.16-2.97,2.77-4.82l1.17.56c-.31.94-.72,1.84-1.23,2.68v8.02h-1.26v-6.24c-.33.39-.67.77-1.03,1.15ZM81.89,5.06l-1.09-.68c.89-1.34,1.52-2.77,1.88-4.28l1.18.25c-.1.36-.21.73-.32,1.08h5.04v.82c-.18.73-.41,1.44-.69,2.15l-1.21-.35c.24-.41.44-.88.6-1.41h-4.18c-.36.88-.77,1.69-1.23,2.42ZM83.63,5.35c-.42,1.66-.97,3.11-1.62,4.35l-1.18-.42c.63-1.11,1.18-2.53,1.67-4.24l1.14.31ZM82.93,11.19l-.28-1.18c.48.05.95.08,1.39.08.29,0,.43-.16.43-.46V3.48h1.22v6.45c0,.83-.41,1.26-1.23,1.26h-1.54ZM88.91,9.41l-1.11.5c-.44-1.74-.93-3.29-1.48-4.63l1.11-.38c.57,1.4,1.06,2.91,1.47,4.51Z"/>
      <path d="M90.4,6.64v-1.14h10.79v1.14h-4.63v1.02h3.34v1.11h-3.34v1.16c.54.05,1.17.07,1.87.07,1.08,0,1.98-.02,2.72-.05l-.35,1.18c-.85,0-1.61-.01-2.28-.02-2.01-.01-3.37-.17-4.12-.46-.58-.24-1.09-.71-1.55-1.39-.46.81-1.04,1.49-1.73,2.03l-.82-1.05c1.09-.85,1.81-1.96,2.2-3.36l1.2.21c-.11.42-.24.82-.39,1.2.46.71.99,1.16,1.58,1.35.12.04.25.07.4.11v-3.11h-4.89ZM99.59.45v4.41h-7.57V.45h7.57ZM98.35,2.15v-.64h-5.06v.64h5.06ZM98.35,3.14h-5.06v.65h5.06v-.65Z"/>
      <path d="M108.79,8.47c.18.18.28.41.28.68s-.1.48-.28.68c-.19.17-.41.27-.68.27s-.5-.1-.67-.27c-.19-.19-.28-.41-.28-.68s.08-.5.28-.68c.17-.19.4-.28.67-.28s.48.08.68.28Z"/>
      <path d="M112.42,8.47c.18.18.28.41.28.68s-.1.48-.28.68c-.19.17-.41.27-.68.27s-.5-.1-.67-.27c-.19-.19-.28-.41-.28-.68s.08-.5.28-.68c.17-.19.4-.28.67-.28s.48.08.68.28Z"/>
      <path d="M116.04,8.47c.18.18.28.41.28.68s-.1.48-.28.68c-.19.17-.41.27-.68.27s-.5-.1-.67-.27c-.19-.19-.28-.41-.28-.68s.08-.5.28-.68c.17-.19.4-.28.67-.28s.48.08.68.28Z"/>
      <path d="M2.21,63.25l-2.21-6.47c5.73-6.96,10.01-15.11,12.78-24.56l6.42,2.74c-1.38,4.23-3.11,8.33-5.18,12.19v36c3.73-6.34,5.8-14.8,6.15-25.37v-22.2c14.29-.12,27-.99,38.12-2.61l3.11,5.16c-10.36,1.31-21.89,2.05-34.6,2.3v2.3h34.6v14.18H26.79v.87c0,.75-.07,1.49-.07,2.18h35.15v25.31c0,2.86-1.93,4.35-5.8,4.35h-2.9l-1.45-4.79,2.56.25c.9,0,1.38-.37,1.38-1.06v-7.21h-4.35v11.75h-4.97v-11.75h-4.28v11.75h-5.04v-11.75h-4.35v12.81h-6.15v-26.98c-.9,10.88-3.73,19.71-8.49,26.55l-4.01-3.86v4.66h-6.84v-32.52c-1.59,1.99-3.25,3.92-4.97,5.78ZM54.76,51.93v-4.1h-27.97v4.1h27.97ZM37.01,71.7v-6.65h-4.35v6.65h4.35ZM42.05,71.7h4.28v-6.65h-4.28v6.65ZM51.31,71.7h4.35v-6.65h-4.35v6.65Z"/>
      <path d="M101.19,65.11c-.83.99-1.73,1.99-2.69,2.98h24.72v4.48c-2.49,2.98-6.01,5.6-10.57,7.9,6.84,1.86,14.22,2.92,22.1,3.3l-1.8,6.22c-11.05-.62-20.92-2.55-29.63-5.78-8.01,2.55-17.89,4.54-29.63,5.97l-2.69-6.16c9.32-.87,17.33-2.05,23.96-3.54-2.69-1.37-5.25-2.92-7.6-4.54-2.62,1.37-5.52,2.61-8.56,3.86l-4.28-5.04c2.76-.93,5.25-1.87,7.6-2.86-1.1-.93-2.14-1.86-3.11-2.74l5.11-3.17c1.24,1.06,2.49,2.05,3.8,2.98,2.21-1.37,4.01-2.8,5.52-4.17-2.76-.62-4.07-2.42-4.07-5.41v-6.96h6.97v5.6c0,1.24.48,1.93,1.52,1.93h11.53c.76,0,1.38-.19,1.8-.5.41-.37.76-1.49.9-3.36l6.63,1.93c-.48,3.48-1.31,5.53-2.56,6.16s-3.04.93-5.45.93h-9.53ZM125.56,55.47v-4.6h-22.3c2.62,1.49,4.9,2.98,6.7,4.48l-4.42,4.1c-1.8-1.62-4.21-3.36-7.32-5.22l3.8-3.36h-21.89v5.28c.62-.99,1.17-1.99,1.59-3.05l6.01,2.18c-2.21,4.97-5.04,8.77-8.56,11.44l-5.11-4.04c2.21-1.55,4.07-3.48,5.59-5.72h-6.42v-11.81h9.6c-.48-1.24-.97-2.36-1.45-3.42l7.04-.93c.55,1.31,1.04,2.74,1.59,4.35h9.53c-.55-1.37-1.11-2.67-1.73-3.86l6.97-.99c.69,1.49,1.31,3.11,1.93,4.85h8.01c1.24-1.99,2.28-4.04,3.24-6.16-11.46.87-25.14,1.37-41.09,1.37l-2-5.47c20.58,0,37.98-.81,52.34-2.42l3.31,5.22c-3.59.43-7.39.87-11.46,1.24l6.01,1.93c-.83,1.55-1.73,2.98-2.62,4.29h10.01v11.81h-5.52c1.93,2.18,3.52,4.1,4.83,5.84l-6.01,3.79c-2.07-3.36-4.9-7.03-8.36-11.13l5.25-2.98,2.9,2.98ZM113.62,73.19h-19.13c3.11,1.74,6.35,3.23,9.74,4.6,3.73-1.37,6.91-2.92,9.39-4.6Z"/>
      <path d="M144.36,89.3l-1.59-6.28c1.8.25,3.52.37,5.18.37,1.52,0,2.28-.75,2.28-2.11v-12.56c-2.42.81-4.83,1.55-7.25,2.24l-1.8-6.59c3.04-.62,6.08-1.37,9.04-2.3v-12.25h-7.66v-6.28h7.66v-11.13h7.32v11.13h4.97v6.28h-4.97v9.64c1.73-.75,3.45-1.55,5.18-2.36v6.59c-1.8.75-3.52,1.49-5.18,2.24v16.97c0,4.23-2.42,6.4-7.11,6.4h-6.08ZM165.84,70.58v-6.03h37.01v6.03h-14.78v11.32h17.33v6.28h-42.33v-6.28h17.75v-11.32h-14.98ZM183.17,45.77c-1.73,9.01-6.84,14.92-15.4,17.78l-3.59-5.1c7.11-2.24,11.39-6.84,12.78-13.93l6.21,1.24ZM171.57,44.34v7.09h-6.77v-12.87h16.02c-.9-2.11-1.93-4.04-3.11-5.84l7.39-1.12c.97,2.11,2,4.42,2.97,6.96h15.88v12.87h-6.7v-7.09h-4.63v9.89c0,.93.62,1.43,2,1.43h9.53v5.6h-12.78c-3.45,0-5.18-1.49-5.18-4.48v-12.43h-14.64Z"/>
      <path d="M7.07,113.78v-4.72l-4.13-7.05h2.05l2.97,5.25,2.98-5.25h2.06l-4.14,7.05v4.72h-1.79Z"/>
      <path d="M16.77,113.98c-.84,0-1.57-.19-2.2-.56s-1.12-.91-1.46-1.61c-.34-.7-.51-1.51-.51-2.44s.17-1.75.51-2.44c.34-.69.83-1.22,1.46-1.6.63-.38,1.36-.57,2.2-.57s1.58.19,2.2.57c.63.38,1.12.91,1.46,1.6.34.69.51,1.5.51,2.44s-.17,1.74-.51,2.44c-.34.7-.83,1.23-1.46,1.61-.63.38-1.36.56-2.2.56ZM16.77,112.46c.75,0,1.33-.27,1.74-.82.41-.55.61-1.3.61-2.26s-.2-1.72-.61-2.26c-.41-.55-.99-.82-1.74-.82s-1.32.27-1.73.82c-.41.55-.62,1.3-.62,2.26s.21,1.72.62,2.26c.42.55.99.82,1.73.82Z"/>
      <path d="M25.78,113.98c-.89,0-1.59-.3-2.11-.89-.52-.59-.79-1.41-.79-2.46v-5.67h1.76v5.22c0,.8.14,1.38.42,1.76.27.38.7.56,1.26.56.64,0,1.14-.21,1.5-.62.36-.41.54-1,.54-1.75v-5.17h1.76v8.82h-1.64l-.03-2.3.25.1c-.16.77-.48,1.37-.98,1.78-.5.41-1.14.62-1.92.62Z"/>
      <path d="M39.43,113.98c-.92,0-1.65-.21-2.2-.63-.55-.42-.82-1.01-.82-1.77s.23-1.36.69-1.78c.46-.42,1.17-.73,2.13-.92l3.03-.58c0-.69-.16-1.2-.48-1.53-.32-.34-.8-.51-1.43-.51-.56,0-1.01.12-1.33.37-.32.25-.54.62-.66,1.1l-1.81-.12c.17-.88.58-1.58,1.24-2.09.66-.51,1.51-.76,2.56-.76,1.19,0,2.1.32,2.73.95.62.63.94,1.53.94,2.68v3.43c0,.21.04.36.11.44s.19.12.36.12h.32v1.39c-.06.01-.15.02-.27.03-.12.01-.25.02-.38.02-.38,0-.7-.06-.97-.18-.27-.12-.47-.32-.61-.6s-.2-.66-.2-1.14l.18.08c-.09.39-.28.73-.57,1.03s-.66.53-1.11.7-.93.26-1.45.26ZM39.71,112.59c.53,0,.98-.1,1.36-.31s.67-.49.88-.85.32-.78.32-1.24v-.56l-2.59.5c-.53.1-.9.26-1.12.47-.22.22-.32.49-.32.82,0,.38.13.67.39.87.26.2.62.31,1.09.31Z"/>
      <path d="M46.42,113.78v-8.82h1.61l.07,2.34-.15-.05c.12-.8.37-1.38.74-1.74.37-.36.87-.55,1.5-.55h.85v1.57h-.85c-.44,0-.81.07-1.11.22-.3.14-.52.36-.67.66-.15.3-.22.69-.22,1.16v5.21h-1.76Z"/>
      <path d="M56.09,113.98c-.86,0-1.61-.19-2.23-.56-.63-.38-1.11-.91-1.44-1.61-.34-.7-.51-1.51-.51-2.44s.17-1.74.51-2.43c.34-.69.81-1.23,1.43-1.61.62-.38,1.35-.57,2.19-.57.8,0,1.5.19,2.11.56s1.08.9,1.42,1.6c.34.7.51,1.54.51,2.52v.45h-6.33c.04.86.27,1.51.69,1.94s.97.65,1.68.65c.52,0,.95-.12,1.29-.36.34-.24.58-.57.71-.98l1.82.12c-.23.82-.69,1.48-1.37,1.98s-1.51.75-2.48.75ZM53.74,108.56h4.48c-.05-.78-.28-1.36-.67-1.74-.39-.38-.89-.56-1.5-.56s-1.15.2-1.55.59c-.4.39-.66.96-.76,1.72Z"/>
      <path d="M65.95,106.4v-1.44h5.44v1.44h-5.44ZM69.75,113.78c-.84,0-1.46-.19-1.86-.58s-.6-.99-.6-1.81v-8.5h1.76v8.37c0,.41.09.69.27.85.18.16.45.23.81.23h1.26v1.44h-1.64Z"/>
      <path d="M73.23,113.78v-11.77h1.76v4.94l-.21-.03c.1-.5.28-.9.55-1.22.26-.32.59-.55.98-.7.39-.16.81-.23,1.28-.23.64,0,1.18.14,1.63.42.44.28.78.68,1,1.18.23.51.34,1.09.34,1.74v5.67h-1.76v-5.21c0-.8-.13-1.38-.4-1.76-.27-.38-.7-.57-1.27-.57-.64,0-1.15.2-1.54.6s-.58.99-.58,1.77v5.17h-1.76Z"/>
      <path d="M86.62,113.98c-.86,0-1.61-.19-2.23-.56-.63-.38-1.11-.91-1.44-1.61-.34-.7-.51-1.51-.51-2.44s.17-1.74.51-2.43c.34-.69.81-1.23,1.43-1.61.62-.38,1.35-.57,2.19-.57.8,0,1.5.19,2.11.56s1.08.9,1.42,1.6c.34.7.51,1.54.51,2.52v.45h-6.33c.04.86.27,1.51.69,1.94s.97.65,1.68.65c.52,0,.95-.12,1.29-.36.34-.24.58-.57.71-.98l1.82.12c-.23.82-.69,1.48-1.37,1.98s-1.51.75-2.48.75ZM84.27,108.56h4.48c-.05-.78-.28-1.36-.67-1.74-.39-.38-.89-.56-1.5-.56s-1.15.2-1.55.59c-.4.39-.66.96-.76,1.72Z"/>
      <path d="M96.35,109.89v-9.8h5.02v1.39h-3.6v8.41h-1.43Z"/>
      <path d="M103.67,113.78v-11.77h4.69c.84,0,1.56.14,2.17.43s1.08.7,1.41,1.23.5,1.16.5,1.89c0,.53-.12,1.01-.36,1.43-.24.42-.55.75-.95,1-.39.25-.81.39-1.25.42l-.08-.15c.74,0,1.32.17,1.73.51.41.34.65.86.71,1.58l.31,3.43h-1.81l-.28-3.2c-.03-.48-.19-.83-.48-1.05s-.76-.34-1.41-.34h-3.12v4.59h-1.79ZM105.46,107.55h2.93c.68,0,1.21-.17,1.6-.51.39-.34.59-.81.59-1.43s-.2-1.11-.6-1.45c-.4-.34-.98-.51-1.74-.51h-2.78v3.9Z"/>
      <path d="M117.32,113.98c-.92,0-1.65-.21-2.2-.63-.55-.42-.82-1.01-.82-1.77s.23-1.36.69-1.78c.46-.42,1.17-.73,2.13-.92l3.03-.58c0-.69-.16-1.2-.48-1.53-.32-.34-.8-.51-1.43-.51-.56,0-1.01.12-1.33.37-.32.25-.54.62-.66,1.1l-1.81-.12c.17-.88.58-1.58,1.24-2.09.66-.51,1.51-.76,2.56-.76,1.19,0,2.1.32,2.73.95.62.63.94,1.53.94,2.68v3.43c0,.21.04.36.11.44s.19.12.36.12h.32v1.39c-.06.01-.15.02-.27.03-.12.01-.25.02-.38.02-.38,0-.7-.06-.97-.18-.27-.12-.47-.32-.61-.6s-.2-.66-.2-1.14l.18.08c-.09.39-.28.73-.57,1.03s-.66.53-1.11.7-.93.26-1.45.26ZM117.61,112.59c.53,0,.98-.1,1.36-.31s.67-.49.88-.85.32-.78.32-1.24v-.56l-2.59.5c-.53.1-.9.26-1.12.47-.22.22-.32.49-.32.82,0,.38.13.67.39.87.26.2.62.31,1.09.31Z"/>
      <path d="M125.8,113.78l-2.68-8.82h1.84l1.89,6.9,1.94-6.9h1.66l1.94,6.9,1.91-6.9h1.84l-2.68,8.82h-1.97l-1.86-6.3-1.86,6.3h-1.96Z"/>
      <path d="M142.09,113.78v-11.77h1.76v7.31l3.96-4.36h2.22l-3.45,3.71,3.58,5.11h-2.02l-2.74-4.01-1.56,1.66v2.35h-1.76Z"/>
      <path d="M151.52,113.78v-11.77h1.76v4.94l-.21-.03c.1-.5.28-.9.55-1.22.26-.32.59-.55.98-.7.39-.16.81-.23,1.28-.23.64,0,1.18.14,1.63.42.44.28.78.68,1,1.18.23.51.34,1.09.34,1.74v5.67h-1.76v-5.21c0-.8-.13-1.38-.4-1.76-.27-.38-.7-.57-1.27-.57-.64,0-1.15.2-1.54.6s-.58.99-.58,1.77v5.17h-1.76Z"/>
      <path d="M164.92,113.98c-.84,0-1.57-.19-2.2-.56s-1.12-.91-1.46-1.61c-.34-.7-.51-1.51-.51-2.44s.17-1.75.51-2.44c.34-.69.83-1.22,1.46-1.6.63-.38,1.36-.57,2.2-.57s1.58.19,2.2.57c.63.38,1.12.91,1.46,1.6s.51,1.5.51,2.44-.17,1.74-.51,2.44-.83,1.23-1.46,1.61c-.63.38-1.36.56-2.2.56ZM164.92,112.46c.75,0,1.33-.27,1.74-.82.41-.55.61-1.3.61-2.26s-.2-1.72-.61-2.26c-.41-.55-.99-.82-1.74-.82s-1.32.27-1.73.82c-.41.55-.62,1.3-.62,2.26s.21,1.72.62,2.26c.42.55.99.82,1.73.82Z"/>
      <path d="M171.04,113.78v-8.82h1.61l.07,2.35-.21-.12c.1-.57.29-1.04.56-1.39.27-.35.61-.62,1.01-.79s.83-.26,1.29-.26c.66,0,1.21.15,1.65.44.44.29.77.69.99,1.19.23.5.34,1.07.34,1.72v5.67h-1.76v-5.14c0-.52-.05-.96-.17-1.31-.11-.35-.29-.62-.55-.81-.25-.19-.59-.28-.99-.28-.62,0-1.12.2-1.51.61s-.58,1-.58,1.79v5.14h-1.76Z"/>
      <path d="M184.35,116.47c-.7,0-1.31-.11-1.84-.32s-.97-.51-1.31-.89-.57-.83-.7-1.33l1.82-.12c.12.36.34.65.64.87s.76.32,1.38.32c.73,0,1.29-.16,1.68-.46.39-.31.59-.78.59-1.41v-1.28c-.21.45-.55.81-1.01,1.08-.46.26-.98.4-1.56.4-.74,0-1.4-.18-1.97-.55s-1.02-.87-1.34-1.51c-.32-.64-.48-1.38-.48-2.22s.16-1.6.47-2.24.76-1.14,1.33-1.51c.57-.36,1.21-.55,1.93-.55.63,0,1.18.14,1.67.43.48.29.83.68,1.04,1.16v-1.39h1.69v8.12c0,.73-.16,1.35-.49,1.85s-.79.88-1.39,1.14c-.6.26-1.32.39-2.15.39ZM184.33,111.84c.68,0,1.23-.25,1.65-.75.41-.5.63-1.18.64-2.06.01-.57-.08-1.07-.27-1.48s-.46-.74-.8-.96c-.35-.23-.76-.34-1.22-.34-.72,0-1.27.25-1.67.75-.39.5-.59,1.18-.59,2.03s.2,1.54.61,2.05c.4.5.95.75,1.65.75Z"/>
      <path d="M195.5,105.69v9.8h-5.02v-1.39h3.6v-8.41h1.42Z"/>
      <path d="M201.37,113.78v-2.09h2.16v2.09h-2.16ZM201.92,110.27c-.04-.39-.09-.85-.13-1.38-.04-.54-.09-1.08-.13-1.64-.04-.56-.06-1.06-.06-1.5v-3.73h1.79v3.73c0,.44-.02.94-.05,1.5-.03.56-.08,1.11-.13,1.64-.05.54-.09,1-.12,1.38h-1.18Z"/>
    </g>
    <g>
      <path d="M10.19,152.83l-.56,3.5h2.87l.56-3.5h2.06l-.56,3.5h1.95l-.29,1.84h-1.95l-.83,5.34h2.22l-.29,1.84h-2.22l-.56,3.5h-2.09l.56-3.5h-2.85l-.56,3.5h-2.09l.56-3.5h-1.95l.29-1.84h1.95l.85-5.34h-2.24l.29-1.84h2.24l.56-3.5h2.06ZM11.35,163.51l.85-5.34h-2.87l-.83,5.34h2.85Z" fill="#7d7d7d"/>
      <path d="M24.33,160.23l-2.04-.58c.67-2.35,1.05-4.84,1.14-7.44l2.11.16c-.05.85-.09,1.7-.18,2.51h1.12v-4.42h2.26v4.42h1.68v2.24h-1.68v4.57c.63-.25,1.21-.49,1.79-.76v2.2c-.6.25-1.21.49-1.79.72v7.33h-2.26v-6.53c-1.17.38-2.33.74-3.52,1.05l-.56-2.26c1.39-.25,2.74-.56,4.08-.96v-5.36h-1.44c-.18,1.08-.43,2.11-.72,3.12ZM37.85,150.39v2.18h5.11v2.18h-5.11v1.93h4.42v2.2h-10.85v-2.2h4.15v-1.93h-5.05v-2.18h5.05v-2.18h2.29ZM38.23,160.84v-1.21h2.29v1.21h2.45v2.2h-2.45v5.72c0,1.5-.81,2.26-2.38,2.26h-2.65l-.47-2.2c.81.09,1.57.16,2.33.16.58,0,.87-.27.87-.78v-5.16h-7.15v-2.2h7.15ZM35.81,166.89l-1.84,1.3c-.63-1.05-1.48-2.22-2.56-3.48l1.82-1.14c1.12,1.28,1.97,2.38,2.58,3.32Z" fill="#7d7d7d"/>
      <path d="M54.68,162.25c-.27.36-.56.72-.87,1.08h8.03v1.61c-.81,1.08-1.95,2.02-3.43,2.85,2.22.67,4.62,1.05,7.18,1.19l-.58,2.24c-3.59-.22-6.79-.92-9.62-2.09-2.6.92-5.81,1.64-9.62,2.15l-.87-2.22c3.03-.31,5.63-.74,7.78-1.28-.87-.49-1.7-1.05-2.47-1.64-.85.49-1.8.94-2.78,1.39l-1.39-1.82c.9-.34,1.7-.67,2.47-1.03-.36-.34-.7-.67-1.01-.99l1.66-1.14c.4.38.81.74,1.23,1.08.72-.49,1.3-1.01,1.79-1.5-.9-.22-1.32-.87-1.32-1.95v-2.51h2.26v2.02c0,.45.16.7.49.7h3.75c.25,0,.45-.07.58-.18.14-.13.25-.54.29-1.21l2.15.69c-.16,1.26-.43,2-.83,2.22-.4.22-.99.34-1.77.34h-3.09ZM62.6,158.78v-1.66h-7.24c.85.54,1.59,1.08,2.18,1.62l-1.44,1.48c-.58-.58-1.37-1.21-2.38-1.88l1.23-1.21h-7.11v1.91c.2-.36.38-.72.52-1.1l1.95.78c-.72,1.79-1.64,3.16-2.78,4.13l-1.66-1.46c.72-.56,1.32-1.26,1.82-2.06h-2.09v-4.26h3.12c-.16-.45-.32-.85-.47-1.23l2.29-.34c.18.47.34.99.52,1.57h3.09c-.18-.49-.36-.96-.56-1.39l2.27-.36c.22.54.42,1.12.63,1.75h2.6c.4-.72.74-1.46,1.05-2.22-3.72.31-8.16.49-13.34.49l-.65-1.97c6.68,0,12.33-.29,17-.87l1.08,1.88c-1.16.16-2.4.31-3.72.45l1.95.7c-.27.56-.56,1.08-.85,1.55h3.25v4.26h-1.79c.63.79,1.14,1.48,1.57,2.11l-1.95,1.37c-.67-1.21-1.59-2.53-2.71-4.01l1.71-1.08.94,1.08ZM58.72,165.17h-6.21c1.01.63,2.06,1.17,3.16,1.66,1.21-.49,2.24-1.05,3.05-1.66Z" fill="#7d7d7d"/>
      <path d="M73.69,154.13c-.58-1.03-1.21-1.97-1.88-2.8l2.02-.96c.72.94,1.39,2,2.06,3.16l-1.21.61h4.82c.65-1.21,1.23-2.47,1.73-3.79l2.26.81c-.45,1.12-.97,2.11-1.52,2.98h4.4v2.24h-7.51v2.58h6.39v2.24h-6.39v2.67h8.84v2.26h-8.84v5.09h-2.38v-5.09h-8.92v-2.26h8.92v-2.67h-6.39v-2.24h6.39v-2.58h-7.47v-2.24h4.69Z" fill="#7d7d7d"/>
      <path d="M107.41,152.83l-.56,3.5h2.87l.56-3.5h2.06l-.56,3.5h1.95l-.29,1.84h-1.95l-.83,5.34h2.22l-.29,1.84h-2.22l-.56,3.5h-2.09l.56-3.5h-2.85l-.56,3.5h-2.09l.56-3.5h-1.95l.29-1.84h1.95l.85-5.34h-2.24l.29-1.84h2.24l.56-3.5h2.06ZM108.58,163.51l.85-5.34h-2.87l-.83,5.34h2.85Z" fill="#7d7d7d"/>
      <path d="M139.51,170.84h-2.38v-1.08h-14.26v1.08h-2.38v-19.2h19.02v19.2ZM137.14,167.68v-13.93h-3.61v7.89c0,.36.25.54.76.54h2.33v2.15h-3.03c-1.57,0-2.33-.72-2.33-2.13v-8.45h-2.6v4.48c-.04,3.21-1.32,5.54-3.81,7.02l-1.82-1.59c2.2-1.12,3.32-2.94,3.36-5.43v-4.48h-3.52v13.93h14.26Z" fill="#7d7d7d"/>
      <path d="M151.26,154.13v-1.01c-1.93.09-3.97.14-6.17.14l-.65-1.97c5.79,0,10.7-.29,14.73-.87l1.05,1.82c-1.88.34-4.08.58-6.59.76v1.14h8.52v2.15h-8.52v.27c2.11.45,3.68.83,4.67,1.14,1.12.31,2.53.81,4.24,1.48l-.94,2.11c-1.48-.72-3-1.35-4.6-1.91-1.08-.4-2.2-.74-3.36-.96v1.86h4.35v2.04c-1.16.78-2.44,1.55-3.86,2.31v.18h7.58v2.13h-7.58v1.93c0,1.44-.85,2.18-2.51,2.18h-2.64l-.61-2.06c.76,0,1.57.02,2.44.02.63,0,.97-.31.97-.9v-1.17h-8.61v-2.13h8.61v-1.03c1.28-.58,2.31-1.05,3.09-1.46h-8.48v-2.04h4.87v-3.99c-1.48,2-4.08,3.72-7.8,5.16l-1.26-2.02c3.05-.94,5.23-2,6.55-3.14h-6.01v-2.15h8.52Z" fill="#7d7d7d"/>
      <path d="M168.36,157.52c1.84-.36,3.66-.81,5.45-1.32l.58,2.02c-2.6.74-5.36,1.39-8.3,1.95l-.72-2.11c.45-.22.7-.56.7-1.03v-6.48h2.29v2.22h5.6v2.13h-5.6v2.62ZM175.65,159.31c-.18.49-.4.96-.67,1.41h7.56v10.47h-2.24v-.85h-10.63v.88h-2.24v-10.5h5.02c.32-.58.56-1.17.74-1.75l2.47.34ZM180.29,164.54v-1.7h-10.63v1.7h10.63ZM180.29,168.24v-1.64h-10.63v1.64h10.63ZM183.81,154.56l-6.37.45v1.91c0,.36.2.56.61.56h3.21c.29,0,.58-.09.85-.22.27-.18.45-.9.58-2.13l2.16.67c-.25,1.88-.58,2.98-1.01,3.3-.47.31-1.12.49-1.95.52h-4.48c-1.48,0-2.22-.76-2.22-2.29v-6.79h2.26v2.33l6.37-.45v2.15Z" fill="#7d7d7d"/>
      <path d="M203.58,168.62h3.86v2.18h-19.96v-2.18h3.79v-12.27h12.31v12.27ZM206.61,157.39h-2.27v-2.85h-14.04v2.85h-2.26v-4.96h8.03c-.25-.63-.52-1.19-.81-1.7l2.47-.4c.25.63.49,1.35.74,2.11h8.14v4.96ZM201.22,160.53v-2h-7.6v2h7.6ZM201.22,164.56v-1.97h-7.6v1.97h7.6ZM201.22,168.62v-2h-7.6v2h7.6Z" fill="#7d7d7d"/>
      <path d="M3.53,183.26l.56-3.5h2.06l-.56,3.5h2.87l.56-3.5h2.06l-.56,3.5h1.95l-.29,1.84h-1.95l-.83,5.34h2.22l-.29,1.84h-2.22l-.56,3.5h-2.08l.56-3.5h-2.85l-.56,3.5H1.53l.56-3.5H.14l.29-1.84h1.95l.85-5.34H.99l.29-1.84h2.24ZM7.32,190.43l.85-5.34h-2.87l-.83,5.34h2.85Z" fill="#7d7d7d"/>
      <path d="M20.29,181.06c-.58-1.03-1.21-1.97-1.88-2.8l2.02-.96c.72.94,1.39,2,2.06,3.16l-1.21.61h4.82c.65-1.21,1.23-2.47,1.73-3.79l2.26.81c-.45,1.12-.97,2.11-1.52,2.98h4.4v2.24h-7.51v2.58h6.39v2.24h-6.39v2.67h8.84v2.26h-8.84v5.09h-2.38v-5.09h-8.92v-2.26h8.92v-2.67h-6.39v-2.24h6.39v-2.58h-7.47v-2.24h4.69Z" fill="#7d7d7d"/>
      <path d="M41.8,189.06l-1.26-2.06c1.8-.81,3.16-2.24,4.15-4.31h-4.78v15.41h-2.35v-17.67h7.98c.27-.96.49-2,.67-3.09l2.31.2c-.18,1.03-.38,2-.61,2.89h7.89v14.46c0,1.93-.87,2.92-2.58,2.92h-3.34l-.63-2.27,3.21.09c.65,0,.99-.43.99-1.26v-11.68h-6.28l-.09.22c1.88,1.08,3.77,2.29,5.67,3.63l-1.32,2c-2.13-1.68-3.88-2.94-5.25-3.77-1.17,2-2.62,3.43-4.4,4.28ZM41.85,195.26l-1.19-2.13c2.78-1.35,4.51-3.43,5.2-6.26l2.27.29c-.2.78-.43,1.5-.7,2.18,1.68,1.01,3.41,2.15,5.16,3.43l-1.32,1.97c-1.95-1.57-3.57-2.76-4.82-3.54-1.12,1.75-2.67,3.1-4.6,4.06Z" fill="#7d7d7d"/>
      <path d="M64.65,177.38c-.25,1.44-.49,2.76-.72,3.99h3.68v1.28c-.13,3.5-.81,6.53-1.99,9.11,1.19.94,2.18,1.77,2.94,2.53l-1.59,1.84c-.7-.72-1.53-1.48-2.47-2.29-1.08,1.7-2.4,3.16-4.01,4.42l-1.62-2c1.52-1.12,2.8-2.42,3.79-3.95-1.01-.83-2.11-1.68-3.3-2.56.65-1.88,1.23-3.92,1.77-6.12h-2.06v-2.26h2.56c.27-1.37.52-2.78.74-4.22l2.29.22ZM65.32,183.64h-1.86c-.49,2.15-1.01,3.95-1.55,5.4.65.45,1.25.88,1.82,1.3.87-1.97,1.41-4.22,1.59-6.71ZM72.83,186.51v-2.47c1.08-.99,2.13-2.15,3.16-3.5h-7.31v-2.29h10v2.29c-1.03,1.48-2.2,2.89-3.5,4.22v1.75h4.28v2.29h-4.28v6.44c0,1.75-.67,2.62-1.97,2.62h-3.36l-.61-2.22c.9.02,1.9.04,3,.04.38,0,.58-.38.58-1.14v-5.74h-4.78v-2.29h4.78Z" fill="#7d7d7d"/>
      <path d="M86.75,186.24l-1.66,1.66c-.9-1.12-2.15-2.31-3.77-3.61l1.59-1.55c1.52,1.17,2.8,2.33,3.83,3.5ZM86.91,189.8c-.99,2.87-2.09,5.56-3.3,8.07l-2.15-.96c1.3-2.58,2.44-5.22,3.38-7.92l2.06.81ZM87.2,180.9l-1.68,1.66c-.85-1.03-2.11-2.18-3.72-3.39l1.66-1.59c1.48,1.12,2.71,2.22,3.75,3.32ZM90.85,180.57c-.45-.94-.9-1.77-1.37-2.49l2.26-.74c.58,1.03,1.08,2.11,1.5,3.23h2.67c.56-1.08,1.05-2.22,1.5-3.43l2.2.78c-.4.96-.85,1.84-1.35,2.65h3.45v2.22h-3.95l1.46.58c-1.08,2.67-1.95,4.53-2.64,5.61l1.95-.2c.43-.94.88-1.95,1.35-3.03l2,.7c-1.97,4.24-3.52,7.11-4.66,8.61.74-.11,1.44-.22,2.06-.31-.18-.58-.34-1.12-.49-1.61l1.64-.54c.54,1.35,1.01,2.92,1.41,4.66l-1.82.47-.27-1.19c-1.41.2-3.03.4-4.82.61l-.4-1.93c.7-.31,1.73-1.84,3.12-4.57-1.08.13-2.06.22-2.96.31l-.45-1.77c.7-.65,1.68-2.78,2.96-6.39h-6.53l1.46.58c-1.05,2.67-1.93,4.53-2.62,5.61l1.88-.2c.45-.94.92-1.95,1.41-3.03l1.97.7c-2.04,4.26-3.66,7.13-4.82,8.63.72-.11,1.37-.22,2-.34-.13-.56-.29-1.1-.42-1.59l1.64-.54c.47,1.35.9,2.89,1.26,4.64l-1.86.47-.22-1.19c-1.37.22-2.94.43-4.69.65l-.42-1.93c.72-.31,1.79-1.84,3.23-4.6-1.03.11-1.97.2-2.87.29l-.43-1.77c.7-.65,1.68-2.78,2.96-6.39h-2.62v-2.22h3.36Z" fill="#7d7d7d"/>
      <path d="M110.71,195.84h-2.18v-1.19h-1.93v1.73h-2.24v-17.38h6.35v16.84ZM108.54,192.5v-11.35h-1.93v11.35h1.93ZM118.85,198.17h-2.29v-9.06c-1.03,2.83-2.51,5.18-4.48,7.09l-1.23-2.02c2.04-1.7,3.57-3.84,4.55-6.44h-3.86v-2.2h5.02v-3.05h-4.24v-2.2h4.24v-2.98h2.29v2.98h4.24v2.2h-4.24v3.05h4.98v2.2h-3.81c.94,2.42,2.47,4.57,4.6,6.48l-1.52,1.91c-1.88-2.15-3.3-4.51-4.24-7.06v9.11Z" fill="#7d7d7d"/>
    </g>
  </g>
</svg>