<?xml version="1.0" encoding="UTF-8"?>
<svg id="_圖層_2" data-name="圖層 2" xmlns="http://www.w3.org/2000/svg" width="373.43" height="168" viewBox="0 0 373.43 168">
  <g id="_圖層_1-2" data-name="圖層 1">
    <g>
      <g>
        <g>
          <path d="M118.13,79.81c.04-8.5-6.4-11.38-19.24-11.38-14.37,0-24.11,8.7-24.11,8.7v10.5s19.3-10.69,19.54-4.19c.26,6.64-19.54,11.32-19.54,11.32v9.45s22.48-3.87,22.57,4.02c.11,8.68-22.57,10.74-22.57,10.74v13.14s20.64-4.7,20.72,4.25c.11,10.11-20.72,20.51-20.72,20.51v11.12c22.5-7.37,43.4-20.12,43.35-34.19-.02-9.3-8.18-12.11-15.03-11.92,4.7-1.14,15.03-5.15,15.03-16.13,0-9.49-9.49-11.45-14.37-11.17,8.63-2.15,14.32-7.32,14.37-14.77Z" fill="#231815"/>
          <path d="M69.42,141.11s9.46-13.59-2.25-24.98c-2.43-2.36-5.64-3.97-9.29-5.02,6.03-5.63,8.03-13.21,8.62-16.34h5.55v-23.45s-9.89,2.24-25.51,3.63c.97-1.91,1.7-4.09,1.95-6.51h-21.26s.25,3.2-.66,7.55c-8.21.13-17.16-.1-26.56-.93v19.71h5.59c.55,2.95,2.34,9.86,7.6,15.36H1.15v30.98h15.95v-1.54h8.89v5.35c-9.38-.28-18.17-.93-25.99-1.87v21.65c7.81-.95,16.61-1.6,25.99-1.87v5.18h20.12v-5.18c9.36.28,18.14.93,25.94,1.87v-21.65c-7.8.95-16.57,1.6-25.94,1.87v-5.35h6.15c-.45.98-.84,1.54-.84,1.54h18.01ZM43.13,120.31c-4.72.12-14.41.76-26.04,3.72v-3.49c6.95-1.06,18.38-2.25,26.04-.23ZM52.19,127.86c.73,1.53,1.12,3,1.28,4.38H19.06c7.76-1.89,21.11-4.6,33.13-4.38ZM45.37,94.76c-.2,7.25-1.84,11.91-3.33,14.66-3.89.09-7.78.44-11.44.93-1.6-2.57-3.65-7.45-3.87-15.59h18.65Z" fill="#231815"/>
        </g>
        <g>
          <path d="M178.06,91.2c0-24.89-17.68-22.77-22.57-22.75-10.16.03-19.8,10.18-19.68,30,0,.02,0,.04,0,.06-3.05.1-5.91-.11-8.22-.69v35.02s3.33-.1,8.27-.93c0,18.37-.05,36.08-.05,36.08h38.16s-10.34-19.13-15.55-43.69c10.5-5.95,19.65-16.02,19.65-33.11ZM159.02,90.82c-.73,1.06-1.96,2.05-3.52,2.94.07-8.52.5-17.48,3.38-17.48,2.54,0,3.37,9.85.14,14.54Z" fill="#231815"/>
          <path d="M206.89,68.4h-25.33v65.44c0,31.16,25.33,34.17,41.15,34.17,18.2,0,22.95-8.13,22.95-8.13v-14.07s-8.63,7.69-21.76,6.57c-16.64-1.43-17.01-18.53-17.01-18.53v-9.74c25.73-2.97,38.78-14.16,38.78-14.16v-28.12c-10.46,10.86-31.3,16.81-38.78,18.66v-32.08Z" fill="#231815"/>
        </g>
        <g>
          <path d="M287.38,68.41l-20.79-.02v3.56h-11.42v29.74h11.42v13.48c-6.88,6.57-11.43,17.16-11.43,31.01s6.22,21.82,16.24,21.82c16.95,0,15.97-30.84,15.97-30.84v-5.18c3.63,1.25,6.16,2.62,6.16,2.62v-26.11c-2.07-.58-4.11-.94-6.16-1.05v-5.75h6.16v-29.74h-6.16v-3.54ZM266.59,144.57c0,5.48-7.72,3.16-2.22-7.6.64-1.25,1.38-2.28,2.22-3.13v10.74Z" fill="#231815"/>
          <path d="M299.29,119.28v19.57c7.37-.79,15.61-1.04,24.36-1.12v9.64c-7.85.4-16.42.69-25.61.76v19.87h75.2v-25.5s-9.49,1.64-25.61,3.15v-7.92c9.23.07,17.89.31,25.62,1.13v-19.57c-10.82,1.16-23.48,1.83-36.99,1.83s-26.15-.67-36.97-1.83Z" fill="#231815"/>
          <path d="M353.42,77.94c-1.28,0-2.53.04-3.76.1,2.61-2.9,3.52-6.36,3.52-9.6h-17.05c2.8,10.38-6.67,13.21-6.67,13.21,0,0,0,0,0,.01-2.19.7-4.07,1.4-5.62,2.04v-5.75h-25.79v26.89h24.19c-.29.23-.61.44-.95.62-5.8,3.05-18.12,2.59-18.12,2.59v10.7s19.87.7,27.6-7.85c5.11-5.66,4.27-18.19,4.27-18.19h-9.1s.43,6.32-2.11,10.31v-11.81c8.2-2.34,23.8-5.98,23.8.18v13.45h25.79v-13.45s.72-13.48-20.01-13.45Z" fill="#231815"/>
          <path d="M337.08,92.71v17.38c0,4.78,3.88,8.66,8.66,8.66h14.39c4.78,0,8.66-3.88,8.66-8.66v-3.27h-9.1v1.37h-13.51v-15.48h-9.1Z" fill="#231815"/>
        </g>
      </g>
      <g>
        <path d="M8.89,46.43c-3-1.65-5.01-4.51-6.03-8.58-1-4.03-.57-7.48,1.31-10.35s5.41-4.95,10.62-6.25c5.23-1.3,9.34-1.12,12.34.54,2.99,1.66,4.99,4.5,6,8.53,1.02,4.1.59,7.57-1.27,10.41-1.87,2.84-5.43,4.92-10.68,6.22-5.18,1.29-9.28,1.11-12.28-.53ZM24.53,37.25c.87-1.24,1.05-2.88.54-4.91-.49-1.99-1.42-3.34-2.77-4.04-1.35-.7-3.28-.73-5.8-.11-2.49.62-4.17,1.55-5.04,2.8-.87,1.25-1.05,2.87-.56,4.86.5,2.02,1.43,3.37,2.78,4.07,1.35.7,3.27.74,5.76.12,2.51-.62,4.2-1.55,5.07-2.79Z" fill="#231815"/>
        <path d="M52.97,39.55c-.53-3.39-1.09-6.5-1.65-9.34-.2-1.01-.61-1.76-1.22-2.25-.61-.5-1.29-.67-2.05-.52-.75.15-1.33.62-1.72,1.4-.39.78-.52,1.76-.37,2.95.3,1.75.53,2.99.67,3.72.31,1.56.7,3.25,1.16,5.09l-8.2,1.64c-.48-3.33-1.01-6.46-1.59-9.39-.59-2.93-1.3-6.04-2.16-9.35,1.52-.23,2.69-.43,3.49-.59.85-.17,1.99-.44,3.45-.8l2,4.84c.16-1.93.71-3.45,1.66-4.56.94-1.1,2.16-1.81,3.65-2.1,1.37-.28,2.62-.21,3.75.2,1.13.4,2.05,1.07,2.77,2,.72.93,1.21,2.03,1.47,3.31l.99,4.94c.61,3.04,1.15,5.47,1.63,7.27l-7.72,1.54Z" fill="#231815"/>
        <path d="M80.97,25.84l-11.27,1.8c.35.98.93,1.74,1.76,2.25.83.52,1.91.67,3.24.46.97-.15,1.85-.49,2.64-1.01.79-.52,1.39-1.16,1.78-1.93,1.67.51,3.85,1.01,6.54,1.47-.46,1.73-1.55,3.22-3.27,4.47-1.73,1.26-4.1,2.12-7.12,2.61-3.92.62-6.96.18-9.12-1.33-2.17-1.51-3.48-3.74-3.95-6.69-.46-2.88.1-5.37,1.68-7.46,1.58-2.09,4.34-3.46,8.28-4.08,2.35-.37,4.45-.31,6.31.2,1.85.51,3.35,1.38,4.49,2.63,1.14,1.25,1.86,2.77,2.15,4.57.1.6.14,1.05.15,1.36l-4.29.68ZM70.75,22.65c-.67.55-1.09,1.24-1.27,2.04l8.16-1.3c-.39-.69-.94-1.21-1.63-1.56-.69-.35-1.54-.45-2.53-.29-1.15.18-2.06.55-2.73,1.11Z" fill="#231815"/>
        <path d="M125.04,21.91c.16,1.58-.06,2.96-.67,4.13-.61,1.18-1.81,2.16-3.6,2.97-1.79.8-4.34,1.37-7.64,1.71l-15.67,1.59c-.27-4.52-.6-8.74-1-12.67-.4-3.92-.92-8.13-1.56-12.61l8.18-.83v.03s7.42-.75,7.42-.75c2.88-.29,5.17-.28,6.88.02,1.71.31,2.95.88,3.73,1.71.78.84,1.24,1.95,1.38,3.34.14,1.42-.22,2.73-1.1,3.93-.88,1.2-2.47,2.26-4.8,3.18,5.29-.54,8.11.88,8.45,4.24ZM111.68,24.43c1.21-.12,2.12-.27,2.75-.44.63-.17,1.07-.4,1.32-.7.25-.29.35-.67.31-1.14-.06-.6-.44-1-1.12-1.2-.69-.2-1.89-.21-3.61-.04l-6.68.68.36,3.52,6.68-.68ZM103.72,12.57l.33,3.24,6.68-.68c1.44-.15,2.43-.37,2.97-.69.54-.31.78-.81.71-1.48-.05-.53-.39-.88-1-1.04-.61-.16-1.62-.17-3.01-.03l-6.69.68Z" fill="#231815"/>
        <path d="M129.88,29.27c-.09-3.76-.21-6.86-.37-9.3-.19-2.91-.5-6.16-.93-9.76l8.38-.56c.04,3.48.17,6.75.37,9.8.17,2.56.46,5.65.86,9.27l-8.31.55ZM129.2,7.01c-.76-.67-1.18-1.59-1.25-2.76-.08-1.14.22-2.11.88-2.9.66-.79,1.72-1.24,3.19-1.33,1.4-.09,2.49.22,3.29.92.79.71,1.23,1.62,1.3,2.74.08,1.17-.22,2.13-.9,2.9-.67.77-1.73,1.2-3.18,1.3-1.47.1-2.58-.19-3.34-.87Z" fill="#231815"/>
        <path d="M157.44,14.97c-2.15-.05-4.11-.07-5.89-.07l.12,3.71c.05,1.26.37,2.23.94,2.92.58.69,1.57,1,2.96.94.54-.02,1.05-.09,1.53-.2-.06.87-.07,1.74-.03,2.63.02.42.08,1.38.19,2.86-1.02.23-1.88.38-2.57.46-.7.07-1.61.14-2.72.18-2.73.11-4.68-.46-5.87-1.74-1.19-1.27-1.83-3.08-1.92-5.44l-.21-5.91c-1.09.09-2.23.21-3.42.35l-.26-6.19c1.21-.05,2.22-.48,3.03-1.28.81-.8,1.27-1.75,1.39-2.83l9.51-.4c-1.12,1.68-2.38,3.04-3.79,4.08l6.75-.28.26,6.19Z" fill="#231815"/>
        <path d="M179.18,18.81l-11.41.08c.19,1.03.66,1.86,1.4,2.49.74.64,1.79.95,3.14.94.98,0,1.9-.21,2.76-.6.86-.39,1.54-.94,2.05-1.64,1.57.76,3.65,1.57,6.25,2.44-.71,1.64-2.01,2.95-3.91,3.93-1.89.98-4.37,1.48-7.43,1.5-3.97.03-6.91-.87-8.82-2.68-1.91-1.82-2.88-4.22-2.9-7.21-.02-2.92.91-5.29,2.79-7.12,1.88-1.83,4.81-2.76,8.8-2.79,2.38-.02,4.45.37,6.2,1.15,1.75.78,3.1,1.87,4.05,3.28.94,1.41,1.42,3.02,1.43,4.84,0,.61-.02,1.06-.06,1.37l-4.34.03ZM169.56,14.11c-.74.45-1.26,1.06-1.56,1.83l8.26-.06c-.28-.74-.74-1.34-1.38-1.79-.63-.45-1.45-.67-2.46-.66-1.17,0-2.12.24-2.86.68Z" fill="#231815"/>
        <path d="M222.69,10.2l-19.01-.94-.18,3.67c1.19.08,2.97.18,5.35.3,4.1.2,8.28.34,12.52.41l-.34,6.85c-4.23-.37-8.7-.67-13.41-.91-1.96-.1-3.44-.16-4.44-.18l-.43,8.7-8.25-.41c.41-4.51.71-8.74.9-12.67.2-3.94.31-8.17.35-12.7l27.26,1.34-.32,6.54Z" fill="#231815"/>
        <path d="M227.84,27.17c-1.7-2-2.41-4.48-2.13-7.46.27-2.9,1.43-5.17,3.47-6.81,2.04-1.64,5.05-2.27,9.02-1.89,2.67.25,4.86.9,6.58,1.94,1.72,1.04,2.94,2.34,3.66,3.89.72,1.56,1,3.25.82,5.09-.28,3-1.5,5.31-3.66,6.93-2.16,1.63-5.24,2.25-9.26,1.87-3.97-.37-6.81-1.56-8.51-3.56ZM240.52,24.06c.81-.65,1.27-1.58,1.39-2.79.11-1.14-.18-2.11-.85-2.91-.67-.8-1.77-1.27-3.27-1.41-1.51-.14-2.65.11-3.41.77-.76.65-1.2,1.56-1.31,2.72-.11,1.21.15,2.2.77,2.99.63.79,1.7,1.25,3.21,1.39,1.51.14,2.67-.11,3.48-.76Z" fill="#231815"/>
        <path d="M254.15,29.82c-1.61-2.07-2.22-4.58-1.82-7.54.39-2.89,1.64-5.11,3.74-6.66,2.1-1.55,5.13-2.06,9.09-1.52,2.66.36,4.83,1.09,6.5,2.2,1.67,1.11,2.84,2.46,3.5,4.04.66,1.58.86,3.29.62,5.12-.4,2.98-1.72,5.24-3.94,6.78-2.22,1.53-5.33,2.03-9.33,1.49-3.95-.54-6.74-1.84-8.35-3.9ZM266.95,27.23c.84-.62,1.33-1.53,1.5-2.73.15-1.13-.09-2.11-.73-2.94-.64-.83-1.71-1.34-3.22-1.55-1.5-.2-2.65,0-3.44.63-.79.62-1.26,1.51-1.42,2.67-.16,1.2.05,2.21.65,3.02.6.81,1.65,1.32,3.15,1.52,1.5.2,2.67,0,3.51-.62Z" fill="#231815"/>
        <path d="M302.22,26.02c-.82,4.62-1.54,9.1-2.17,13.44l-7.79-1.38.84-4.12c-.94,1.42-2.11,2.38-3.5,2.88-1.39.5-2.95.6-4.67.29-1.49-.27-2.76-.93-3.81-1.99-1.04-1.06-1.77-2.38-2.18-3.96-.41-1.58-.46-3.24-.15-4.98.31-1.72.93-3.29,1.86-4.7.94-1.41,2.09-2.47,3.46-3.19,1.37-.72,2.82-.94,4.36-.67,1.79.32,3.26.96,4.4,1.94,1.14.97,1.89,2.29,2.23,3.97.23-1.31.56-3.42.98-6.33.41-2.82.71-4.8.91-5.95l7.79,1.38c-.9,4.25-1.76,8.7-2.58,13.37ZM292.5,31.53c.83-.51,1.36-1.45,1.6-2.83.21-1.22.02-2.18-.59-2.88-.61-.7-1.46-1.15-2.54-1.34-1.03-.18-1.96,0-2.78.52-.82.53-1.32,1.32-1.51,2.38-.21,1.17-.06,2.18.46,3.03.51.85,1.32,1.37,2.42,1.57,1.12.2,2.1.05,2.92-.46Z" fill="#231815"/>
        <path d="M345.43,23.7c-1.07,3.8-2.13,7.9-3.17,12.3-1.05,4.4-1.94,8.54-2.7,12.42l-8-1.9,2.2-9.26-12.53-2.97-2.2,9.26-8-1.9c1.23-4.36,2.3-8.46,3.21-12.29.91-3.84,1.8-7.98,2.66-12.42l8,1.9-2.2,9.26,12.53,2.97,2.2-9.26,8,1.9Z" fill="#231815"/>
        <path d="M343.5,49.62c1.15-3.58,2.05-6.55,2.7-8.91.77-2.81,1.55-5.99,2.33-9.52l8.1,2.23c-1.1,3.3-2.06,6.43-2.87,9.37-.68,2.48-1.43,5.49-2.23,9.04l-8.03-2.21ZM350.16,28.37c-.49-.89-.59-1.89-.28-3.02.3-1.1.9-1.92,1.78-2.45.88-.53,2.03-.6,3.45-.21,1.35.37,2.28,1.02,2.8,1.95.52.93.63,1.93.33,3.01-.31,1.13-.91,1.94-1.8,2.45-.89.51-2.03.57-3.43.18-1.42-.39-2.37-1.03-2.87-1.91Z" fill="#231815"/>
        <path d="M362.86,55.87l-7.79-2.3,1.77-5.97,7.79,2.3-1.77,5.97ZM371.09,29.11c-.44,1.5-1.35,4.36-2.72,8.58-.24.66-.41,1.14-.5,1.46-1.38,3.02-2.47,5.69-3.28,8.01l-6.21-1.84c.58-2.38,1.12-5.22,1.6-8.5l.4-1.49c.88-3.48,1.67-6.38,2.35-8.68l8.35,2.47Z" fill="#231815"/>
      </g>
    </g>
  </g>
</svg>