<?xml version="1.0" encoding="UTF-8"?>
<svg id="_圖層_2" data-name="圖層 2" xmlns="http://www.w3.org/2000/svg" width="654.71" height="701.29" viewBox="0 0 654.71 701.29">
  <g id="_圖層_1-2" data-name="圖層 1">
    <g>
      <path d="M458.45,20.9C293.09-44.81,99.78,49.6,27.54,231.37c-34.87,87.75-36.69,182.64-5.12,267.19,31.8,85.18,93.6,149.68,174.02,181.64,35.43,14.08,72.58,21.09,110.02,21.09,47.54,0,95.57-11.29,141.21-33.73,80.99-39.82,144.81-110.07,179.68-197.82,72.24-181.77-3.53-383.12-168.89-448.83ZM594.56,456.71c-31.63,79.6-89.33,143.24-162.45,179.19-72.53,35.66-151.6,39.74-222.63,11.52-71.04-28.23-125.73-85.47-154-161.19-28.5-76.34-26.78-162.22,4.86-241.82C111.5,115.66,229.25,35.26,348.87,35.26c32.47,0,65.1,5.93,96.55,18.43,147.29,58.53,214.19,239.32,149.14,403.01Z" fill="#d9d9d9"/>
      <path d="M253.95,305.63c-7.6-2.22-15.25-3.61-23.02-4.02l2.98-22h23.57l15.42-113.74h-23.57l1.84-13.54-79.48-.08s-.68,5-1.85,13.63h-43.67l-15.42,113.74h43.67c-2.33,17.15-4.7,34.66-6.99,51.57-29.73,25.13-52.59,65.61-59.77,118.58-7.19,53.05,12.48,83.43,50.81,83.43,64.8,0,77.06-117.92,77.06-117.92l2.68-19.79c13.23,4.76,22.21,10.02,22.21,10.02l13.54-99.86ZM132.19,443.59c-2.84,20.94-31.17,12.07-4.56-29.07,3.11-4.76,6.48-8.7,10.13-11.99l-5.57,41.06Z" fill="#d9d9d9"/>
      <path d="M270.34,346.86l-10.15,74.86c28.59-3.01,60.22-3.97,93.76-4.28l-5,36.86c-30.22,1.53-63.16,2.62-98.32,2.9l-10.3,75.98h287.58l13.22-97.53s-37.12,6.26-99.56,12.05l4.11-30.31c35.27.27,68.27,1.17,97.38,4.33l10.15-74.86c-41.99,4.42-90.74,6.99-142.42,6.99s-99.64-2.57-140.44-6.99Z" fill="#d9d9d9"/>
      <path d="M484.34,189.13c11.5-11.09,16.76-24.31,18.44-36.72h-65.21c5.33,39.7-32.34,50.51-32.34,50.51,0,0-.02.04-.03.05-8.74,2.66-16.31,5.34-22.54,7.78l2.98-21.97h-98.63l-13.94,102.85h92.52c-1.24.89-2.56,1.69-3.95,2.38-23.74,11.68-70.63,9.9-70.63,9.9l-5.55,40.92s75.64,2.68,109.63-30.02c22.48-21.63,25.76-69.57,25.76-69.57h-34.8s-1.63,24.16-13.4,39.41l6.12-45.15c32.55-8.94,94.12-22.87,90.92.7l-6.97,51.42h98.63l6.97-51.42s9.73-51.56-69.56-51.43c-4.9,0-9.71.14-14.42.36Z" fill="#d9d9d9"/>
      <path d="M503.3,344.84c18.29,0,35.13-14.83,37.61-33.12l.63-4.61.36-2.69.71-5.22h-34.8l-.71,5.22h-51.68l8.02-59.18h-34.8l-8.02,59.18-.46,3.43-.53,3.87c-2.48,18.29,10.34,33.12,28.63,33.12h55.04Z" fill="#d9d9d9"/>
    </g>
  </g>
</svg>